<svg width="32" height="32" fill="none" xmlns="http://www.w3.org/2000/svg"><path fill-rule="evenodd" clip-rule="evenodd" d="M13.969 4.857A2.845 2.845 0 1017.992.834a2.845 2.845 0 00-4.023 4.023zM6.685 9.558a2.846 2.846 0 100-5.691 2.846 2.846 0 000 5.691zm18.603-.028a2.845 2.845 0 11-.001-5.69 2.845 2.845 0 010 5.69zm1.855 4.438a2.845 2.845 0 104.024 4.024 2.845 2.845 0 00-4.024-4.024zM14.008 27.143a2.845 2.845 0 114.024 4.024 2.845 2.845 0 01-4.024-4.024zm-4.45-1.827a2.845 2.845 0 10-5.691 0 2.845 2.845 0 005.69 0zm-4.7-11.308a2.845 2.845 0 11-4.024 4.024 2.845 2.845 0 014.023-4.024z" fill="#DAE7F2"/><path fill-rule="evenodd" clip-rule="evenodd" d="M25.316 22.442a2.845 2.845 0 10-.001 5.69 2.845 2.845 0 000-5.69z" fill="#057AFF"/></svg>