<svg width="99" height="21" fill="none" xmlns="http://www.w3.org/2000/svg"><path d="M.161 20.088a.891.891 0 01.117-.396 13.434 13.434 0 012.227-.41c.478-.039.786-.146.923-.322.097-.127.156-.596.176-1.406l.102-3.867-.015-2.622.015-3.428v-.908c.01-2.061 0-3.345-.03-3.853a1.701 1.701 0 00-.116-.41 3.324 3.324 0 00-.645-.235c-.166-.039-.928-.18-2.285-.424a2.911 2.911 0 01-.015-.235c0-.058.005-.136.015-.234.185 0 .488.01.908.03l2.227.072 1.289.03.38-.015c.05 0 .191.01.425.03.577 0 .909-.006.996-.015l1.172-.088c.791 0 1.348.014 1.67.044-.01.176-.044.366-.102.571-.108.02-.616.049-1.524.088-.908.03-1.43.083-1.567.161-.225.127-.337.518-.337 1.172 0 .156-.01.474-.03.952v.879l.015 2.71v.923l.03 4.848-.044 4.131.014.909c0 .293.05.473.147.541.244.01.962.02 2.153.03h.996l2.534-.088c.665-.02 1.138-.083 1.421-.19.284-.118.757-.45 1.421-.997.4-.351.713-.712.938-1.084a5.36 5.36 0 01.249-.351c.185-.254.434-.762.747-1.524h.483a20.04 20.04 0 01-.19.997c-.283 1.377-.479 2.524-.586 3.442-.02.195-.04.376-.059.542l-5.478-.161c-4.707 0-7.5.044-8.38.132-.273.02-.56.029-.863.029H.16zm19.116-18.09c0-.323.122-.602.367-.836.254-.234.556-.351.908-.351.361 0 .678.131.952.395.273.264.41.547.41.85 0 .302-.137.59-.41.864a1.33 1.33 0 01-.952.395c-.362 0-.664-.122-.908-.366-.245-.244-.367-.561-.367-.952zm-1.23 7.587l.014-.425c.635-.185.977-.293 1.026-.322a4.67 4.67 0 001.099-.718 4.89 4.89 0 00.981-1.084c.117-.02.21-.03.278-.03l.176.015c.04.47.059.811.059 1.026 0 .049-.01.268-.03.659v.776l.015 4.22-.044 4.467c-.01.361.049.615.176.762.127.136.503.293 1.128.468.39.108.683.2.879.279a.466.466 0 01.044.175.48.48 0 01-.074.22c-.38-.01-.869-.034-1.464-.073-.811-.068-1.348-.102-1.612-.102-.127 0-.908.024-2.343.073a7.88 7.88 0 00-.85.073A1.04 1.04 0 0117.27 20c-.048-.068-.073-.127-.073-.176 0-.137.093-.244.279-.322.039-.02.537-.132 1.494-.337.312-.059.517-.156.615-.293.166-.205.249-.532.249-.981.02-.752.03-2.813.03-6.182 0-.674-.03-1.094-.089-1.26-.048-.117-.18-.249-.395-.395-.205-.157-.65-.313-1.333-.469zM24.873 20l-.03-.425a.49.49 0 01.22-.102c.069-.02.313-.044.733-.074.43-.029.698-.122.806-.278.107-.166.16-.835.16-2.007l.03-5.786-.03-1.025c0-.088.01-.415.03-.982.02-.263.03-.58.03-.952l-.06-2.549.015-2.226c0-.537-.078-.88-.234-1.026-.146-.156-.679-.297-1.597-.424v-.176c0-.059.005-.142.015-.25a8.595 8.595 0 001.48-.439c.224-.097.795-.4 1.713-.908h.454c-.01.225-.014.361-.014.41v1.275l-.015.63.044 1.157-.015 1.743.015 2.9-.044 3.604v1.113c0 .137.005.327.015.571l.16.015c.333 0 .67-.122 1.012-.366 1.533-1.094 2.495-1.836 2.885-2.227.391-.4.586-.688.586-.864 0-.107-.063-.244-.19-.41a3.136 3.136 0 00-.982-.322 7.691 7.691 0 01-.351-.074 4.414 4.414 0 00-.44-.102l-.029-.147c0-.068.024-.166.073-.293 1.543-.058 2.886-.088 4.029-.088.644 0 1.333.015 2.065.044v.19a.676.676 0 01-.073.265c-.147.029-.376.073-.689.131-.605.098-1.064.235-1.377.41-.752.4-1.528.962-2.329 1.685-.478.43-.893.791-1.245 1.084l-.527.454a1.6 1.6 0 00.19.25c.04.038.118.126.235.263.117.137.327.366.63.688 1.054 1.114 1.836 1.973 2.343 2.579.166.195.352.41.557.644.762.85 1.206 1.323 1.333 1.42.273.177.679.313 1.216.411.254.049.473.093.659.132.039.117.059.21.059.278l-.015.147a20.193 20.193 0 00-1.494-.088h-.264L32.55 20c-.156.02-.264.03-.322.03a.9.9 0 01-.308-.06.597.597 0 01-.044-.204v-.103c.059-.088.112-.142.161-.161.967-.078 1.529-.142 1.685-.19a.477.477 0 00.249-.162c0-.166-.142-.434-.425-.805-.283-.371-.991-1.187-2.124-2.447-.723-.8-1.191-1.264-1.406-1.391-.205-.137-.494-.205-.865-.205h-.556c-.04.351-.059 1.157-.059 2.417 0 1.172.098 1.924.293 2.256.108.185.361.302.762.351.4.049.659.122.776.22.078.059.127.195.147.41a55.173 55.173 0 00-3.589.03c-.46.019-.82.029-1.084.029-.195 0-.518-.005-.967-.015zm24.463-7.734l-5.874.044h-1.113c-.45 0-.909.02-1.377.058-.088.293-.132.493-.132.6l.014.147v.147l-.014.717c0 .596.185 1.329.556 2.198.381.86.919 1.518 1.612 1.977.703.45 1.577.689 2.622.718.556-.03 1-.098 1.333-.205.332-.107.8-.357 1.406-.747l1.055-.864.088.586c0 .068-.005.141-.015.22a6.435 6.435 0 01-1.67 1.464 7.956 7.956 0 01-2.05.923c-.333.088-.88.132-1.641.132a5.25 5.25 0 01-2.051-.425 5.043 5.043 0 01-2.358-2.065c-.567-.957-.85-2.115-.85-3.472 0-.43.078-.982.234-1.655.166-.674.46-1.392.88-2.154.282-.517.63-.942 1.04-1.274.585-.469 1.098-.796 1.537-.982.635-.263 1.372-.395 2.212-.395.908 0 1.65.166 2.227.498.781.44 1.362 1.006 1.743 1.7.39.693.586 1.327.586 1.903v.206zm-8.174-.528h.689c.498 0 1.982-.078 4.453-.234.39-.02.63-.059.718-.117.175-.186.263-.352.263-.498 0-.303-.097-.645-.293-1.026a1.965 1.965 0 00-.908-.893c-.4-.215-.87-.323-1.406-.323-1.133 0-2.041.425-2.725 1.275-.527.644-.79 1.25-.79 1.816zM61.89 1.924c.078.644.117 1.015.117 1.113l-.059 1.304c-.02.556-.044.913-.073 1.07a.568.568 0 01-.22.058l-.132-.03c-.312-1.367-.844-2.363-1.596-2.988-.742-.625-1.65-.937-2.725-.937-1.113 0-2.026.312-2.74.937-.712.625-1.068 1.353-1.068 2.183 0 .635.249 1.216.747 1.743.498.527 1.772 1.318 3.823 2.373 1.562.81 2.68 1.475 3.354 1.992.674.508 1.182 1.099 1.524 1.773.342.673.513 1.425.513 2.255a5.656 5.656 0 01-.82 2.945 5.264 5.264 0 01-2.183 2.08c-.918.459-2.134.688-3.648.688-1.318 0-2.583-.21-3.794-.63-.713-.253-1.147-.459-1.304-.615-.156-.156-.234-.322-.234-.498 0-.107.01-.244.03-.41.136-1.152.21-2.1.22-2.842.019-.459.053-.727.102-.805.039-.069.112-.103.22-.103.087 0 .156.034.204.103.059.058.098.175.118.351.107 1.201.664 2.276 1.67 3.223.996.947 2.124 1.42 3.383 1.42.772 0 1.48-.16 2.124-.483a3.565 3.565 0 001.524-1.391c.37-.616.556-1.211.556-1.787 0-.791-.278-1.514-.835-2.168-.556-.655-1.674-1.416-3.354-2.286-1.68-.878-2.774-1.518-3.281-1.918-.82-.655-1.436-1.348-1.846-2.08-.303-.567-.454-1.226-.454-1.978 0-1.357.537-2.505 1.611-3.442C54.44 1.196 55.88.723 57.686.723c.996 0 1.855.112 2.578.337.527.175 1.069.463 1.626.864zm3.808 12.187c0-.664.137-1.372.41-2.124a5.923 5.923 0 011.275-2.036c.566-.605 1.167-1.055 1.802-1.347.888-.41 1.972-.616 3.251-.616 1.827 0 3.35.625 4.57 1.875 1.231 1.25 1.847 2.754 1.847 4.512 0 1.563-.645 2.959-1.934 4.19-1.28 1.22-2.9 1.83-4.863 1.83a6.63 6.63 0 01-3.428-.952c-.8-.478-1.49-1.186-2.066-2.124-.576-.937-.864-2.006-.864-3.208zm6.475 5.713c.742 0 1.455-.2 2.138-.6.694-.4 1.246-1.04 1.656-1.92.41-.888.615-1.913.615-3.075 0-.762-.161-1.646-.483-2.652-.313-1.006-.801-1.758-1.465-2.256-.654-.508-1.426-.761-2.315-.761-.644 0-1.303.15-1.977.454-.664.302-1.23.883-1.7 1.743-.458.86-.688 2.08-.688 3.662 0 1.777.4 3.125 1.201 4.043.81.908 1.817 1.362 3.018 1.362zM85.342 8.59c2.431.058 3.725.088 3.882.088.02.215.029.376.029.483 0 .127-.015.318-.044.571a4.61 4.61 0 01-.747.059h-.557c-1.21 0-2.05.044-2.52.132a6.614 6.614 0 00-.029.513c0 .048.005.122.015.22.049 1.533.073 2.46.073 2.783l-.029 3.764c0 .557.093 1.02.278 1.392.108.215.308.386.6.512.186.088.636.176 1.349.264.537.078.898.132 1.084.161 0 .205-.015.362-.044.469l-.205.015c-.47-.03-1.08-.054-1.832-.074l-1.084-.043-3.69.117h-.484l-.015-.454c.147-.03.254-.054.322-.074.84-.156 1.382-.332 1.626-.527.098-.078.166-.22.205-.425.02-.117.03-.664.03-1.64 0-2.784-.025-5.005-.074-6.665-.253-.079-.644-.128-1.171-.147-.196 0-.503-.02-.923-.059l-.03-.16a.36.36 0 01.147-.294c.039-.039.45-.244 1.23-.615.303-.137.518-.308.645-.513.068-.107.107-.332.117-.673.01-.157.04-.425.088-.806.117-1.006.21-1.626.278-1.86a7.032 7.032 0 01.88-1.949A7.461 7.461 0 0186.25 1.44 4.46 4.46 0 0187.7.65c.547-.176 1.167-.264 1.86-.264.928 0 1.607.151 2.037.454.293.205.44.469.44.79a.937.937 0 01-.309.704 1.062 1.062 0 01-.761.293c-.371 0-.772-.093-1.201-.278-.81-.323-1.27-.498-1.377-.528a2.236 2.236 0 00-.572-.073c-.537 0-1.03.17-1.48.513-.439.342-.717.761-.834 1.26-.117.498-.176 1.616-.176 3.354 0 .625.005 1.196.015 1.714zm8.496-3.062l.454.015.059 1.392-.03 1.801c.186.01.303.015.352.015.254 0 .737-.02 1.45-.059a20.935 20.935 0 012.198-.029c.019.195.029.352.029.469 0 .127-.03.327-.088.6h-.25l-2.27.074-1.128.029-.263.03a2.792 2.792 0 00-.118.849l.044 2.197-.029 3.867c0 1.016.132 1.69.396 2.022.253.342.634.512 1.142.512.254 0 .733-.078 1.436-.234.215-.049.503-.21.864-.483h.132c.088 0 .156.029.205.088a.253.253 0 01.088.205l-.015.102c-.42.46-.903.796-1.45 1.011-.537.205-1.255.308-2.153.308-.635 0-1.162-.147-1.582-.44-.41-.293-.674-.64-.792-1.04-.117-.4-.175-1.274-.175-2.622l.058-3.296-.014-1.582v-.586c0-.273-.01-.547-.03-.82l-.249-.015-1.2.044-.118.015a.379.379 0 01-.249-.073.24.24 0 01-.073-.176.38.38 0 01.102-.279c.078-.078.303-.195.674-.351.254-.108.547-.308.879-.6.342-.303.63-.635.864-.997.118-.195.284-.566.498-1.113.157-.4.274-.684.352-.85z" fill="#fff"/></svg>