<svg width="83" height="52" fill="none" xmlns="http://www.w3.org/2000/svg"><path d="M79.733 51.933H64.085a2.825 2.825 0 01-2.825-2.824V37.034a2.826 2.826 0 012.825-2.825h15.648a2.84 2.84 0 012.838 2.825V49.11a2.84 2.84 0 01-2.838 2.824zm-15.648-16.46a1.56 1.56 0 00-1.561 1.56v12.075a1.561 1.561 0 001.561 1.561h15.648a1.574 1.574 0 001.548-1.56V37.033a1.574 1.574 0 00-1.574-1.56H64.085z" fill="#057AFF"/><path d="M77.592 35.473a.632.632 0 01-.632-.632v-4.824a5.056 5.056 0 00-10.1 0v4.825-.001a.645.645 0 01-1.29 0v-4.824a6.321 6.321 0 1112.641 0v4.825-.001a.632.632 0 01-.619.632z" fill="#057AFF"/><path d="M61.931 47.328H4.773a4.757 4.757 0 01-4.76-4.76V4.76A4.76 4.76 0 014.773 0h63.015a4.76 4.76 0 014.76 4.76v19.8a.645.645 0 11-1.29 0V4.76a3.51 3.51 0 00-3.496-3.496H4.774a3.497 3.497 0 00-3.47 3.496v37.808a3.493 3.493 0 003.482 3.496h57.145a.645.645 0 010 1.29v-.026z" fill="#057AFF"/><path d="M71.916 10.087H.645a.645.645 0 010-1.29h71.271a.645.645 0 010 1.29zm0 8.139H.645a.645.645 0 110-1.29h71.271a.645.645 0 010 1.29zM28.262 30.545H12.666a.632.632 0 01-.632-.632v-6.089a.634.634 0 01.632-.645h15.596a.63.63 0 01.632.645v6.09-.001c0 .35-.283.632-.632.632zM13.3 29.255h14.33v-4.799H13.3v4.799zm46.594.98H45.472a.633.633 0 01-.633-.645v-5.456c0-.349.283-.632.633-.632h14.422c.349 0 .631.283.631.632v5.456a.634.634 0 01-.631.645zm-13.79-1.29H59.26v-4.179H46.103v4.18zm-16.28 7.457H13.157a.645.645 0 110-1.29h16.667a.645.645 0 110 1.29zm-.49 5.844H12.667a.645.645 0 010-1.29h16.667a.645.645 0 110 1.29z" fill="#057AFF"/></svg>