<svg width="76" height="76" fill="none" xmlns="http://www.w3.org/2000/svg"><path d="M37.992 56.282a.578.578 0 01-.247 0C8.5 42.6 13.365 10.072 13.424 9.741a.566.566 0 01.365-.449L37.78.036a.652.652 0 01.425 0l23.483 9.256c.186.074.32.24.354.437.06.33 5.443 32.869-23.802 46.505a.615.615 0 01-.248.047v.001zM14.523 10.25c-.426 3.4-3.153 32.22 23.47 44.865 26.636-12.657 23.402-41.5 22.952-44.865L37.98 1.217 14.521 10.25z" fill="#057AFF"/><path d="M47.226 41.359h-18.89a1.465 1.465 0 01-1.465-1.452V25.94a1.476 1.476 0 011.464-1.464h18.89a1.476 1.476 0 011.465 1.464v13.967a1.465 1.465 0 01-1.464 1.452zm-18.89-15.714a.295.295 0 00-.296.295v13.967c.012.153.14.272.295.271h18.89a.295.295 0 00.296-.295V25.939a.295.295 0 00-.295-.295h-18.89z" fill="#057AFF"/><path d="M44.569 25.645a.579.579 0 01-.579-.579V16.39a3.009 3.009 0 00-3.01-3.011h-6.4a3.01 3.01 0 00-3.01 3.01v8.678a.59.59 0 01-1.18 0V16.39a4.167 4.167 0 014.167-4.168h6.4a4.168 4.168 0 014.167 4.168v8.677a.58.58 0 01-.555.579zm26.943 36.789a.579.579 0 01-.579-.579V23.118a3.611 3.611 0 00-3.542-3.613h-5.525a.59.59 0 010-1.18h5.43a4.724 4.724 0 014.723 4.722v38.808a.578.578 0 01-.507.578zm-67.462 0a.578.578 0 01-.591-.579V23.118a4.723 4.723 0 014.723-4.723h5.525a.59.59 0 110 1.18H8.264a3.61 3.61 0 00-3.542 3.614v38.665a.58.58 0 01-.673.579z" fill="#057AFF"/><path d="M70.13 75.598H5.431A5.431 5.431 0 010 70.167v-8.265c0-.32.259-.578.579-.578h74.38c.32 0 .578.259.578.578v8.265a5.43 5.43 0 01-5.407 5.43zM1.18 62.434v7.733a4.289 4.289 0 004.25 4.25h64.7a4.289 4.289 0 004.25-4.25v-7.733H1.18z" fill="#057AFF"/><path d="M47.285 69.399h-18.95a3.318 3.318 0 01-3.317-3.317v-4.24a.59.59 0 111.18 0v4.24a2.147 2.147 0 002.137 2.148h19.01a2.149 2.149 0 002.148-2.148v-4.24a.59.59 0 111.181 0v4.24a3.319 3.319 0 01-3.389 3.317zm-9.505-35.43a1.5 1.5 0 111.488-1.488c0 .822-.666 1.488-1.487 1.488zm0-1.819a.33.33 0 100 .662.33.33 0 000-.662zM5.761 70.686a2.067 2.067 0 112.055-2.066 2.054 2.054 0 01-2.055 2.066zm0-2.952a.897.897 0 100 1.795.897.897 0 000-1.794zm6.399 2.952a2.068 2.068 0 01-1.541-3.505 2.07 2.07 0 012.936-.029c.391.388.612.917.612 1.468a2.055 2.055 0 01-2.007 2.066zm0-2.952a.897.897 0 100 1.794.897.897 0 000-1.794z" fill="#057AFF"/></svg>