<svg width="75" height="71" fill="none" xmlns="http://www.w3.org/2000/svg"><path d="M39.645 70.52a33.78 33.78 0 01-18.478-5.48.569.569 0 01.625-.95 32.323 32.323 0 0011.134 4.635c4.424.926 8.992.926 13.415 0a33.48 33.48 0 0021.932-15.942 34.754 34.754 0 000-35.045A33.361 33.361 0 0042.542 1.275a32.439 32.439 0 00-5.793 0 33.444 33.444 0 00-25.743 16.463 34.597 34.597 0 00-4.738 17.53c0 .787 0 1.598.08 2.398a.566.566 0 01-.555.613.579.579 0 01-.614-.532c0-.823-.093-1.657-.093-2.48a35.827 35.827 0 014.936-18.108A34.13 34.13 0 0142.636.14 34.494 34.494 0 0169.28 17.16a35.916 35.916 0 010 36.205 34.604 34.604 0 01-22.696 16.44c-2.282.48-4.608.72-6.939.717v-.002z" fill="#057AFF"/><path d="M32.81 69.814a.59.59 0 01-.499-.278 106.595 106.595 0 01-5.11-9.94.58.58 0 01.29-.753.57.57 0 01.753.29 104.174 104.174 0 005.052 9.847.557.557 0 01-.21.776.485.485 0 01-.277.058zm-11.03-33.25a.568.568 0 01-.568-.545 45.617 45.617 0 012.897-18.78A39.478 39.478 0 0136.33.254a.591.591 0 01.916.452.579.579 0 01-.301.51 38.56 38.56 0 00-11.783 16.439 44.688 44.688 0 00-2.815 18.305.58.58 0 01-.545.602l-.023.002zm24.688 33.25a.665.665 0 01-.29-.07.579.579 0 01-.196-.787c26.439-45.6-3.476-67.566-3.73-67.775a.58.58 0 01.613-.939c.313.232 31.015 22.8 4.055 69.293a.567.567 0 01-.452.278z" fill="#057AFF"/><path d="M68.77 53.64H29.208a.58.58 0 010-1.159H68.77a.58.58 0 010 1.159z" fill="#057AFF"/><path d="M39.634 70.52a.567.567 0 01-.568-.567V.579a.58.58 0 011.159 0v69.374a.57.57 0 01-.591.567z" fill="#057AFF"/><path d="M68.759 18.015H10.507a.579.579 0 110-1.159h58.252a.58.58 0 010 1.159zM15.06 70.52a.59.59 0 01-.359-.127L.208 58.564a.614.614 0 01-.208-.44V41.116c0-.191.095-.37.255-.474l14.702-9.64a.58.58 0 01.637 0l13.902 9.651a.568.568 0 01.244.463v17.008a.534.534 0 01-.208.429l-14.123 11.84a.623.623 0 01-.347.127h-.002zM1.158 57.846L15.06 69.211l13.602-11.354V41.418l-13.38-9.268-14.123 9.28-.001 16.416z" fill="#057AFF"/><path d="M13.81 54.393a.532.532 0 01-.395-.174l-5.561-5.55v.001a.573.573 0 11.811-.81l5.144 5.155 8.874-8.874a.573.573 0 11.811.81l-9.268 9.269a.543.543 0 01-.417.173z" fill="#057AFF"/></svg>