<svg width="91" height="76" fill="none" xmlns="http://www.w3.org/2000/svg"><path d="M21.27 49.362h-8.35a13.12 13.12 0 01-.639-26.212 10.656 10.656 0 010-1.206 13.135 13.135 0 0113.077-13.15c2.249-.006 4.46.572 6.419 1.676a13.108 13.108 0 0118.23-6.326 13.106 13.106 0 016.49 8.3.73.73 0 11-1.42.341 11.714 11.714 0 00-22.392-1.037.71.71 0 01-.44.44.765.765 0 01-.61-.085 11.478 11.478 0 00-6.277-1.917 11.73 11.73 0 00-11.714 11.715 8.89 8.89 0 00.17 1.775.694.694 0 01-.213.639.666.666 0 01-.639.17 11.73 11.73 0 00-.043 23.457h32.319l35.399-.426a11.7 11.7 0 008.62-11.302c0-4.26-3.877-7.852-5.539-9.172a.702.702 0 11.88-1.094c1.818 1.448 6.078 5.339 6.078 10.266a13.091 13.091 0 01-9.769 12.666h-.17l-35.499.483H21.27z" fill="#057AFF"/><path d="M45.238 68.858a.696.696 0 01-.696-.695V48.625a.696.696 0 01.696-.682.71.71 0 01.71.696v19.524a.71.71 0 01-.71.695z" fill="#057AFF"/><path d="M52.082 76H38.394a.695.695 0 01-.696-.695v-7.1a.697.697 0 01.696-.71h13.688a.695.695 0 01.696.71v7.1a.695.695 0 01-.696.695zm-12.978-1.42h12.282v-5.722H39.104v5.722zM71.52 36.341a1.73 1.73 0 01-.539-.085 29.265 29.265 0 01-15.62-13.305.54.54 0 010-.298V2.363a.696.696 0 011.01-.626A12.861 12.861 0 0070.796.19a.709.709 0 01.965 0 12.866 12.866 0 0014.512 1.547.696.696 0 011.008.625v20.291c.02.09.02.181 0 .27a21.278 21.278 0 01-2.485 3.99 28.002 28.002 0 01-12.651 9.343 1.98 1.98 0 01-.626.085zM56.725 22.468A28.524 28.524 0 0071.45 34.936a.413.413 0 00.185 0 26.623 26.623 0 0011.942-8.875 21.973 21.973 0 002.258-3.564V3.455A14.446 14.446 0 0171.25 1.609a14.444 14.444 0 01-14.583 1.846l.057 19.013zm14.583-2.67a5.68 5.68 0 110-11.357 5.68 5.68 0 010 11.358zm0-9.939a4.26 4.26 0 104.26 4.26 4.26 4.26 0 00-4.26-4.316v.056z" fill="#057AFF"/><path d="M75.056 28.46h-3.75a.695.695 0 01-.695-.695v-8.661a.71.71 0 111.42 0v7.951h3.025a.71.71 0 110 1.42v-.014z" fill="#057AFF"/></svg>