<svg width="404" height="350" fill="none" xmlns="http://www.w3.org/2000/svg"><g clip-path="url(#clip0_367_10425)"><path fill-rule="evenodd" clip-rule="evenodd" d="M53.117 239.443v98.851a3.535 3.535 0 01-3.538 3.535H44.13a3.533 3.533 0 01-3.268-2.182 3.537 3.537 0 01-.27-1.353v-98.851a3.54 3.54 0 013.538-3.535h5.449a3.541 3.541 0 013.538 3.535z" fill="#6A7077"/><path fill-rule="evenodd" clip-rule="evenodd" d="M68.141 346.906v1.292a.333.333 0 01-.33.329H25.903a.337.337 0 01-.334-.329v-1.292c0-3.125 1.243-6.123 3.454-8.333a11.795 11.795 0 018.338-3.451h18.994a11.793 11.793 0 018.335 3.453 11.782 11.782 0 013.452 8.331zM7.37 233.561c0 3.005 3.469 8.907 6.48 8.907h82.33c3.013 0 5.749-4.503 5.749-7.508s-2.736-3.388-5.748-3.388H13.846c-3.012 0-6.476-1.021-6.476 1.989z" fill="#6A7077"/><path fill-rule="evenodd" clip-rule="evenodd" d="M107.746 201.604v22.308a11.04 11.04 0 01-11.05 11.043H12.15a11.05 11.05 0 01-7.811-3.235 11.038 11.038 0 01-3.234-7.808v-22.308c0-6.094.767-24.846 3.017-36.435 2.25-11.588 4.913-22.023 24.527-20.093 19.613 1.93 79.097 50.434 79.097 56.528z" fill="#057AFF"/><path d="M96.696 236.055H12.15a12.167 12.167 0 01-8.587-3.561A12.154 12.154 0 010 223.912v-22.308c0-5.607.722-24.709 3.041-36.646 2.098-10.803 4.476-23.054 25.716-20.982 19.775 1.964 80.085 50.754 80.085 57.628v22.308a12.17 12.17 0 01-12.146 12.143zm-72.504-90.11c-15.23 0-17.048 9.468-18.984 19.436-2.29 11.784-3.002 30.675-3.002 36.223v22.308a9.956 9.956 0 009.944 9.934h84.546a9.945 9.945 0 009.945-9.934v-22.303c-.359-5.053-57.843-53.439-78.12-55.433a46.31 46.31 0 00-4.329-.231z" fill="#6A7077"/><path d="M48.031 209.77a.933.933 0 01-.167 0 35.146 35.146 0 00-5.188-.27h-.418c-8.19.142-10.657.187-18.007-2.715-5.404-2.131-5.93-7.685-6.657-15.375a188.094 188.094 0 00-.634-6.01c-.845-6.747-3.385-14.279-3.44-14.353a1.1 1.1 0 01.318-1.186 1.106 1.106 0 011.776.474c.108.314 2.638 7.817 3.513 14.79.275 2.18.491 4.208.643 6.079.703 7.415 1.126 11.893 5.272 13.528 6.938 2.74 8.903 2.711 17.152 2.558h.418c1.859-.049 3.718.05 5.561.295a1.103 1.103 0 01.577 1.896 1.105 1.105 0 01-.743.299l.024-.01zm241.439-43.432c-8.584 0-16.735-2.352-25.903-5.465a455.714 455.714 0 01-50.335-20.398l-1.219-.574c-10.696-5.033-20.144-11.977-28.496-18.105-14.529-10.655-27.082-19.857-40.352-15.178-47.132 16.632-107.137 5.024-115.258-11.121-2.491-4.95-2.26-9.905.677-14.32 10.47-15.752 52.542-22.744 87.155-20.382 39.306 2.666 77.285-.358 96.79-7.704 6.259-2.352 11.025-5.593 15.231-8.446 8.352-5.677 14.941-10.16 26.241-2.946 8.687 5.539 18.887 8.612 29.686 11.863 16.749 5.048 34.068 10.268 47.191 25.323 11.487 13.174 16.847 28.215 15.088 42.347-1.557 12.516-8.509 23.383-20.105 31.426-14.587 10.11-25.818 13.68-36.391 13.68zM150.5 102.012c11.625 0 22.601 8.053 34.938 17.103 8.632 6.335 17.555 12.88 27.961 17.776l1.223.579a452.676 452.676 0 0050.011 20.255c19.506 6.619 34.172 9.649 59.357-7.812 10.809-7.488 17.264-17.559 18.704-29.118 1.641-13.185-3.439-27.307-14.297-39.774-12.499-14.334-29.352-19.416-45.654-24.321-11.025-3.325-21.436-6.462-30.506-12.247-9.462-6.03-14.41-2.666-22.6 2.902-4.353 2.947-9.291 6.315-15.919 8.81-20.242 7.61-57.867 10.645-98.205 7.905-37.767-2.558-75.535 5.917-84.172 18.915-2.305 3.437-2.457 7.061-.492 11.004 6.673 13.258 63.557 26.275 111.166 9.487a25.207 25.207 0 018.485-1.449v-.015z" fill="#6A7077"/><path fill-rule="evenodd" clip-rule="evenodd" d="M397.815 100.137c-2.869-26.177-4.25-31.088-9.06-36.872-4.81-5.784-21.357-5.892-21.357-5.892s-4.594-4.002-6.186-6.256c-1.592-2.254-.629-12.585-.629-12.585s3.547.191 5.267-4.272a6.414 6.414 0 000-4.71l.152-6.624a4.423 4.423 0 001.322-1.104c.442-.624.874-3.536-.442-9.497-1.317-5.961-7.139-8.078-12.519-9.33-5.38-1.252-21.844 3.222-23.49 4.783-1.965 1.851-.408 9.212 2.516 8.839l-1.528 3.962.491 1.704-.138 12.65s-3.886 11.485-2.54 13.827c3.169 5.45 16.941 3.756 16.941 3.756l.771 2.136-2.505 3.015s-10.672 1.473-15.389 3.094c-4.716 1.62-13.575 8.612-13.575 8.612l-19.451 17.648-8.554-33.4s-.982-11.52-3.93-17.005c-2.948-5.484-18.592-.589-19.162-.28-2.28 1.164-.137 2.51.447 3.531.585 1.022 9.787-1.473 10.603.732a9.89 9.89 0 00-4.717 6.05 1.872 1.872 0 01-1.601.82c-.983-.114-4.29.49-5.036.981-.747.491-.457 1.822 1.375 2.814 4.299 2.332 3.665 4.464 5.621 7.125 1.955 2.661 5.267 4.64 5.267 4.64s-1.037 14.525 0 27.45c.526 6.648 2.697 14.352 3.547 16.341 2.506 5.863 11.856 3.756 11.856 3.756l31.105-13.086-.491 26.57-3.72 198.869 2.649.879s-.693 5.706-.811 7.287a3.196 3.196 0 01-.983 1.566c.192.074.369.153.546.231.85.035 1.695.054 2.54.04 5.684-.094 11.246-.403 16.882.221l.491-9.708 2.874.731 3.827-95.319 16.646 97.382 3.607.368.221 7.655a28.373 28.373 0 01-3.651 4.857c-4.137 4.34-3.64 8.838-3.64 8.838l31.67-.442-22.041-167.001 2.457-5.814-4.643-3.756s23.003-20.005 29.754-27.306c6.751-7.302 3.444-15.399.344-43.501zm-32.275 50.272s-6.966-23.177-3.758-27.822 12.224-16.204 12.224-16.204l5.596 25.833-14.062 18.193z" fill="#fff"/><path fill-rule="evenodd" clip-rule="evenodd" d="M367.403 332.524l-.074 3.241s5.405-.162 8.986.491c3.582.653 6.849 7.655 6.849 7.655l3.607-.589 3.684-7.577-1.105-4.272-21.947 1.051zm-48.091-.884l-2.8 5.519s1.208 1.282 2.874 3.389c1.665 2.106 1.842 3.309 1.842 3.309l11.34-.147s1.788-1.871 2.727-3.089c.938-1.217 4.048-2.946 4.048-2.946l.649-5.077-20.68-.958z" fill="#6A7077"/><path fill-rule="evenodd" clip-rule="evenodd" d="M361.635 121.512c-1.528 2.293-.069 12.442-.069 12.442l-39.261 4.636.658-40.697s-27.558 11.294-34.755 13.022c-7.198 1.728-10.181-5.529-10.809-8.76-.629-3.231-1.258-16.985-.674-16.283.585.702 1.45 3.825 9.92 2.588 6.653-.982 8.353-5.43 8.353-5.43l1.12 4.183s9.63-9.502 18.179-17.152c8.549-7.65 21.062-10.081 21.062-10.081s1.312 2.42 2.506 4.34c1.194 1.92 7.64 5.736 16.572 4.125 8.932-1.61 24.301-9.33 24.301-9.33s8.308 1.243 12.745 6.256c4.436 5.014 10.588 53.577 11.045 64.994.456 11.416-13.895 22.347-13.114 21.119.781-1.227.383-4.91-4.146-8.205-5.14-3.742-8.741-4.188-10.603-2.774-1.862 1.414 6.107-8.613 6.107-8.613l-6.628-27.527s-10.976 14.858-12.509 17.147z" fill="#057AFF"/><path fill-rule="evenodd" clip-rule="evenodd" d="M359.154 154.377s.417 4.522 1.031 6.408a22.766 22.766 0 007.144 10.522l4.712 3.438-2.501 6.26 19.117 145.18-24.836.648-17.628-95.315-2.948 92.673-25.996-1.036 5.213-185.267 38.78-4.022 3.581 16.17-5.669 4.341z" fill="#fff"/><path fill-rule="evenodd" clip-rule="evenodd" d="M323.184 138.791l-.369 3.388 39.915-4.345-.732-3.438-38.814 4.395zM365.54 29.462c.413-.908.811-6.624.811-6.624l-8.996 1.223-5.154 9.437a16.156 16.156 0 00-.884 3.53c-.349 2.27-3.243 3.094-3.243 3.094s-2.457-2.013-3.901-3.24c-1.445-1.228-4.23-1.282-7.955-1.915-3.724-.634-3.095 2.872-3.095 2.872l-1.248-1.105s-2.142 5.225-2.874 7.803c-.732 2.578 1.4 4.449 4.122 6.33 2.722 1.88 12.013 2.455 17.014-.074 5.002-2.53 6.186-8.76 6.186-8.76l.074-5.667 3.316-7.14s5.405 1.13 5.827.236z" fill="#fff"/><path fill-rule="evenodd" clip-rule="evenodd" d="M361.767 4.714c-7.6-4.527-27.145 1.507-30.127 2.651-2.983 1.145-1.543 3.04-1.548 4.42-.005 1.38 3.022 5.293 3.022 5.293l1.695-3.604a28.215 28.215 0 006.996 1.964c3.837.54 8.382-.206 10.318.442s1.754 3.368 2.574 5.961c.821 2.593 6.044 2.092 9.576 1.547 3.533-.545 2.491-1.63 2.948-4.198.457-2.569 2.147-9.944-5.454-14.476z" fill="#6A7077"/><path fill-rule="evenodd" clip-rule="evenodd" d="M263.258 48.848c-.172 2.18 2.84 3.516 4.496 4.42.693.377 1.523 1.801 2.059 2.725 1.076 1.836 1.935 3.727 3.242 5.445.551.722 1.769 1.576 1.966 2.284.235.78.058 2.12.073 3.31.079 7.722.274 15.424.585 23.107.172 4.272.491 8.687 1.032 12.512.594 4.071 1.768 6.874 5.006 8.465 3.331 1.635 7.984 1.37 11.418.221 10.269-3.437 19.216-7.626 29.013-11.554.039 38.011-1.759 75.129-2.506 112.894-.275 13.936-.732 27.989-1.179 42.096-.437 13.99-.536 27.99-1.101 42.171-.27 6.722-.55 13.891-.589 21.05 0 1.866-.6 5.863.147 6.698.413.462 1.228.373 2.206.368-.462 2.239.044 4.65-.81 6.477a16.24 16.24 0 01-.831 1.571h2.408c.11-.283.306-.525.56-.692.26-.088.525.059.81.074 5.262.319 12.333 0 17.747.294v.324h2.206c.108-2.548.206-5.16.3-7.974 1.169-.049 2.338.191 2.795-.442.457-.633.344-4.036.369-5.225.53-26.815 1.965-54.505 2.653-80.957 5.139 28.259 10.003 57.741 15.231 86.423.191 1.026.206 2.087.589 2.646.565.83 1.617.491 3.022.491.182 1.832.182 3.197.295 5.078.094.559.118 1.128.073 1.694-.127.515-1.017 1.1-1.326 1.399-2.835 2.686-5.238 5.279-6.186 10.007-.187.933-.55 2.348.442 2.799.752.339 2.702.148 4.049.148 7.9 0 16.763.216 24.816-.148 1.474-.068 3.577.236 4.049-.368.55-.697-.099-3.717-.295-5.225-3.336-26.024-6.81-52.629-10.234-78.531-3.548-26.83-6.879-54.23-10.529-81.246-.128-.924-.423-1.916-.369-2.578.074-.884 1.076-2.544 1.474-3.438.442-1.021 1.474-2.676 1.322-3.609-.113-.746-1.361-1.286-1.965-1.689-.87-.555-1.656-1.061-2.211-1.473 8.17-7.292 16.169-14.412 24.3-21.709 4.083-3.668 8.412-7.331 9.203-13.837.417-3.398-.187-6.943-.585-10.449-1.169-10.312-2.525-20.368-3.832-30.69-.86-6.796-1.779-13.572-3.091-19.872-1.272-6.089-4.461-11.25-9.133-13.837-2.536-1.405-5.552-2.058-8.613-2.873-3.061-.815-6.535-1.164-9.944-1.542-.865-.098-2.103-1.35-2.87-2.062-1.027-.948-1.994-1.748-2.579-2.947-.757-1.551-.914-3.712-1.179-5.745-.266-2.032-.492-4.198-.585-6.25 1.921-.6 3.69-.865 4.859-2.063a6.874 6.874 0 001.69-5.224c-.044-.717-.417-1.105-.437-1.768a7.697 7.697 0 01.369-1.62 12.46 12.46 0 00.289-1.616c.123-1.208.025-2.774.222-3.61.162-.662.668-1.03.884-1.693.712-2.151.757-6.04.295-8.387a11.757 11.757 0 00-3.238-6.035c-3.179-3.177-7.463-4.645-13.624-4.91-5.071-.236-10.013 1.04-14.288 2.204-2.167.555-4.451 1.046-6.097 2.028-1.646.982-2.575 3.207-2.28 5.814a9.166 9.166 0 001.027 2.868c.413.869.624 1.753 1.621 2.21-.447.766-.491 1.34-.958 2.062-.427.638-1.852.864-1.837 1.91 0 1.257 2.658 1.473 3.827 1.964 1.553.683 2.049 1.65 2.506 3.437.254.782.355 1.606.295 2.426-.182 1.183-1.474 1.596-1.548 2.799-.064.815.452 1.016.663 1.836-.442.3-1.081.786-1.4.983-.054-1.164-.491-2.235-.491-3.438a34.251 34.251 0 00-.295-5.15c-1.253-.133-1.312 1.178-1.474 1.963-.24.991-.388 2.002-.442 3.02 0 1.473.673 2.8.589 4.046-.068 1.09-1.292 2.72-1.764 3.683a16.53 16.53 0 00-1.547 3.678c-1.012 4.493 1.857 7.827 4.638 9.418 3.144 1.802 7.748 1.812 12.592 1.473 0 .491.251.909.221 1.252-.068.717-1.852 2.387-2.505 2.647-1.13.462-2.55.6-3.754.884-3.724.889-7.561 1.802-11.045 2.873a32.713 32.713 0 00-12.003 6.476c-6.878 5.824-13.039 11.52-19.294 17.678-2.569-13.278-6.569-26.58-9.517-39.882-.982-4.36-2.25-9.03-5.227-11.186-2.373-1.719-6.918-1.537-10.529-.884a44.2 44.2 0 00-5.007 1.252c-1.007.31-3.729.933-4.048 2.284-.457 1.895 1.356 3.77 2.948 3.898 2.84.231 6.687-1.168 9.207-.29-2.324 1.12-4.392 2.736-4.643 6.252-2.388-.58-6.687.049-6.864 2.21zm12.961-6.619c.364.612.637 1.274.811 1.964-1.474 1.017-2.378 2.578-3.754 3.678-.373-.118-.683-.3-1.031-.442.019-3.03 1.695-4.42 3.974-5.2zm56.502-21.419c.983-1.9 1.833-3.958 2.8-5.892 1.632.329 3.965 1.615 6.702 1.62 2.535 0 5.203-.57 8.023-.368 2.486.181 2.516 1.605 3.022 3.83.427 1.885 1.154 3.437 2.869 3.899-1.272 2.234-2.604 4.419-3.975 6.624-.491.766-1.193 1.546-1.326 2.283-.3 1.66.363 3.064-.295 4.42-.398.814-1.656 1.1-2.427 1.62-2.457-2.833-5.611-4.945-10.755-5.082-.26-.521-.491-1.056-.737-1.616 2.059-1.797 1.518-6.197 0-8.686-.904-1.459-2.393-2.131-3.921-2.657l.02.005zm31.346 1.026c-2.054.33-6.156.86-7.66-.147-1.272-.85-1.1-3.928-1.911-5.446-2.004-3.776-8.283-1.561-12.813-1.91-2.01-.157-3.39-.928-5.302-1.473-.221-.673-.363-1.159-1.105-1.178-1.474-.035-1.651 2.73-2.432 3.604-1.165-1.655-2.137-5.475-.369-6.914.885-.722 2.909-1.115 4.422-1.547 4.702-1.35 9.561-2.848 15.319-2.578 7.075.334 13.915 3.192 14.657 10.229a20.14 20.14 0 010 3.609c-.059.751-.04 2.573-.59 3.162-.359.383-1.386.462-2.216.59zm.884 6.477c-1.351-.982-3.64.162-4.864.221-.412 0-.835-.23-1.174-.147-.609.157-1.11 1.586-1.474 2.357-1.302 2.745-2.555 5.327-2.506 8.976.087.758.112 1.521.074 2.283-.21.791-.506 1.557-.884 2.283-.85 2.092-2.069 4.803-3.754 5.74-2.697 1.503-8.809 1.592-12.592 1.248-4.132-.373-7.37-3.084-7.655-6.384-.265-3.03 1.184-4.046 2.058-6.255a1.561 1.561 0 001.253.22c1.13-.348 1.125-2.455 2.064-2.872 1.037-.457 3.061.088 3.827.221 2.811.491 4.29 1.267 5.965 2.946.683.683 1.425 1.964 2.211 2.063.914.112 2.506-.747 3.385-1.326 1.518-.982 2.049-2.598 2.137-4.783a10.647 10.647 0 010-1.768c.162-.697.86-1.527 1.327-2.278 1.474-2.372 2.707-4.42 4.196-6.698 2.294.12 4.595-.044 6.849-.49a14.655 14.655 0 01-.438 4.443h-.005zm11.561 31.205a75.45 75.45 0 01-17.687 6.919c-3.218.8-7.228 1.694-10.809 1.326a19.544 19.544 0 01-4.938-1.252c-2.977-1.125-5.07-2.387-5.817-5.593 1.041-.295 2.216-.491 3.439-.81 1.101-.26 2.457-.378 3.439-.81.713-.315 1.278-1.204 1.843-1.768.565-.565 1.542-1.135 1.695-1.91.152-.776-.256-1.572-.221-2.505 4.082-.49 5.989-2.553 7.581-5.593.864-1.645 1.926-3.633 2.137-5.372.231-1.88-.241-3.49.074-5.15.447-2.353 1.758-4.086 2.505-6.183 1.656-.49 4.658-1.37 5.228.663.054 3.482-.983 4.513-3.685 5.151-1.076.255-2.324.221-2.722.81-.398.59-.088 2.23 0 3.236.305 3.595.531 6.875 1.327 9.791.491 1.871 1.577 3.197 2.869 4.489.943.942 2.948 2.892 4.201 3.236 1.474.402 3.228.3 4.859.49 1.631.192 3.198.58 4.687.835h-.005zm11.34 268.258c.128.947.25 1.91.368 2.872-6.603.123-13.044.408-19.652.491.044-1.08-.153-2.298-.074-3.167 6.471-.059 12.774-.265 19.22-.368-.005-.147.197.054.143.172h-.005zm-.295 11.259c-.442 1.257-.757 2.455-1.179 3.609-.801.128-1.764.098-2.575.221-2.343-3.589-4.22-7.905-9.502-8.539-1.714-.206-3.714-.049-5.522-.074-.167-.152-.025-.608-.074-.883 6.559-.187 13.167-.329 19.653-.59a.21.21 0 01.147.221c.762 2.529-.275 4.14-.943 6.035h-.005zm-19.368-2.426c.688-.211 1.626-.103 2.359-.147 1.965-.128 4.078-.098 5.448.442 1.71.668 3.184 2.769 4.27 4.341.825 1.193 1.66 3.437 2.653 3.751.816.251 4.215-.029 4.785-.368 1.042-.619 1.096-3.364 1.769-4.193.285 2.091.663 4.488.811 6.476-9.777-.054-19.358.089-29.091.074.643-4.061 2.682-6.482 5.159-8.839.55-.51 1.346-1.384 1.842-1.537h-.005zm-47.358-6.329c.197-1.743.339-3.54.59-5.225 5.984 0 11.855.123 17.893.074-.029 1.856-.083 3.693-.221 5.446-6.141-.03-12.101-.256-18.262-.295zm2.801-182.812c10.612-1.316 21.283-2.573 31.881-3.904.184 1.753.46 3.495.826 5.22.879 4.993 1.798 10.061 3.39 14.2 2.225 5.795 7.207 8.53 11.634 11.785-.491.933-.879 1.91-1.326 2.946-.413.958-1.18 2.107-1.253 3.089-.094 1.223.393 2.946.589 4.488 5.989 46.648 12.214 93.915 18.179 140.132-7.488.216-15.123.289-22.601.491-4.515-26.025-9.207-52.3-13.845-78.826-4.279-24.464-8.809-49.295-12.961-73.886-.285-1.699-.388-3.55-.884-4.911-.256-.717-1.007-1.414-1.543-2.057s-1.061-1.616-2.285-1.252c-1.474 1.355 1.381 3.192 1.769 4.267.388 1.075.432 2.391.663 3.683 3.14 17.888 6.388 35.708 9.424 53.65.162.604.285 1.217.368 1.837-.052.42-.126.838-.221 1.252-.157 1.473-.098 3.005-.147 4.488-.491 13.783-.747 27.665-1.4 41.365-.752 15.757-.791 31.632-1.474 47.394-7.861-.029-15.836.074-23.584-.073 1.599-58.47 3.204-116.929 4.815-175.378h-.014zm37.639-11.942c.132.581.23 1.17.295 1.762-12.592 1.444-25.165 2.917-37.772 4.346a15.99 15.99 0 01.073-2.21c12.382-1.433 24.94-2.695 37.341-4.119.078.029.073.137.063.221zm.983-11.186c.329-2.377 2.044-3.781 3.439-5.377 3.12-3.506 5.37-7.881 8.318-11.259.816 4.031 1.745 8.072 2.653 12.438.639 3.064 1.283 6.172 1.912 9.201.206.983.702 2.574.594 3.163-.093.491-1.179 1.473-1.621 1.988-3.439 4.15-6.672 8.107-9.944 12.144a8.956 8.956 0 01-1.695 1.841c-1.018-5.804-2.339-11.593-3.165-17.677-.26-1.9-.805-4.346-.515-6.443l.024-.019zm0 28.701a17.477 17.477 0 00-3.017-.737c-.609-2.921-1.061-6.005-1.621-8.981 1.626-.211 3.248-.432 4.913-.584.555 3.157 2.678 8.333-.299 10.321l.024-.019zm-96.49-103.898c3.474-1.523 7.154.869 9.718 2.5.732.49 1.44 1.266 2.285 1.104a1.115 1.115 0 00.811-1.031c0-1.43-2.501-1.94-3.169-2.647.565-.982 1.474-1.586 2.137-2.455 2.078.85 2.054-1.6 1.621-3.162-.521-1.871-2.009-4.508-3.832-5.299-1.538-.672-4.088-.157-5.744 0-1.754.162-4.171.948-4.785-.663 4.103-1.428 8.195-2.946 13.035-2.578a7.71 7.71 0 012.456.59c3.636 1.817 4.545 8.347 5.596 13.027 1.013 4.527 2.56 10.051 3.68 14.5 2.079 8.24 4.01 17.275 5.965 25.829.29 1.262.324 2.985 1.548 3.02 1.965.053.565-2.78.491-4.047.447-.795 1.214-1.365 1.842-1.964.629-.599 1.366-1.276 2.059-1.915 4.196-3.84 8.058-8.018 12.445-11.627 2.948-2.421 5.65-4.945 9.134-6.846 3.483-1.9 7.522-2.779 12.076-3.972 1.081 3.973 3.489 5.672 7.07 7.066a20.734 20.734 0 005.651 1.32c4.087.34 8.386-.49 12.15-1.472 6.539-1.675 11.865-4.243 17.451-6.845.796-.373 1.858-1.14 2.354-1.179a8.883 8.883 0 011.965.491c7.37 2.136 10.731 8.245 12.077 16.116a386.68 386.68 0 011.4 8.839c2.088 15.266 4.333 30.11 5.744 45.406.29 2.919-.273 5.86-1.622 8.465a22.11 22.11 0 01-4.564 5.667c-9.021 8.19-17.933 16.042-27.175 24.06-1.965-1.792-4.171-3.373-5.375-5.961-1.204-2.588-1.779-5.637-2.574-8.838 1.105 0 1.999.839 3.164.663.83-.128 1.926-1.866 2.505-2.578 4.742-5.854 9.129-11.152 13.846-16.853.614-.751 2.274-2.288 2.206-3.093-.187-2.303-.914-4.695-1.401-7.066a1013.47 1013.47 0 00-1.474-7.061c-.982-4.724-2.088-9.453-2.795-14.206-.531-1.341-.806-3.113-1.253-5.225-.295-1.414-.344-4.552-1.838-4.64-1.886-.108-.614 3.54-.368 4.714.162.776.334 1.758.516 2.647.157.8.668 2.013.589 2.651-.054.403-.717 1.012-1.105 1.547-1.169 1.606-2.373 3.221-3.39 4.635-1.523 2.122-2.776 4.233-4.491 6.256-1.714 2.023-3.537 3.604-4.196 6.477-.683 2.946.384 6.516.664 9.639-12.337 1.341-24.699 2.647-36.967 4.051.304-16.587.491-35.467.491-52.624 0-1.218.197-2.563 0-3.604-.118-.658-.737-1.257-1.174-1.915-.437-.658-.821-1.542-1.695-1.474a1.085 1.085 0 00-.958.958c-.108 1.237 1.425 2.087 1.621 3.02.221 1.056 0 2.592 0 3.972 0 3.904 0 8.348-.074 11.849-9.02 3.629-17.82 7.621-27.248 10.965-2.948 1.051-6.643 2.406-10.676 1.326-3.548-.948-4.796-3.384-5.375-7.366-1.641-11.294-1.042-24.527-1.548-36.724.693.093 1.543-.06 1.621-.884.079-.825-.668-1.164-1.179-1.616-.511-.451-.982-.982-1.4-1.4-2.093-2.096-3.11-4.173-4.638-6.697-.786-1.296-1.435-2.607-2.358-3.314-.924-.707-2.256-1.08-3.091-1.837-.162-.162-.604-.555-.452-.692z" fill="#6A7077"/><path fill-rule="evenodd" clip-rule="evenodd" d="M345.957 20c-1.312-.148-5.405-.275-5.449 1.326-.083 1.964 3.931.49 5.596.879 1.342.3 2.177 1.217 3.091 1.988.167.138.579.59 1.031.59a1.167 1.167 0 001.106-1.032c.049-1.193-2.865-3.044-3.901-3.437a4.919 4.919 0 00-1.474-.314zm17.009 11.26c-.791-.305-3.695.981-3.68 1.91.025 1.56 1.857.544 2.722.147.432-.197 1.376-.408 1.474-1.1a.816.816 0 00-.516-.958zm-20.321 6.181c-.924-.353-1.022.457-2.211.59-1.189.132-3.12-.943-3.169.589-.03 1.095 1.931 1.282 3.022 1.247 1.277-.034 2.81-.776 2.869-1.542.054-.614-.216-.77-.511-.884z" fill="#6A7077"/><path d="M385.292 327.432a.919.919 0 01-.909-.796L363.635 180.21a.892.892 0 01.088-.54l3.901-7.857a.918.918 0 01.89-.53.92.92 0 01.818.634.908.908 0 01-.062.711l-3.773 7.621 20.709 146.137a.93.93 0 01-.781 1.041l-.133.005zm-46.882-2.745a.937.937 0 01-.923-.982l4.79-113.051a.913.913 0 01.297-.638.925.925 0 011.01-.156.916.916 0 01.476.518c.041.114.06.234.055.355l-4.786 113.056a.924.924 0 01-.919.898z" fill="#6A7077"/><path fill-rule="evenodd" clip-rule="evenodd" d="M363.035 141.963l-6.388 1.179 1.917 9.639 4.195.884 2.354-3.236-2.078-8.466zM336.71 26.089v2.278a1.55 1.55 0 01-1.545 1.634 1.553 1.553 0 01-1.125-.484 1.552 1.552 0 01-.42-1.15V26.09a1.548 1.548 0 113.09 0zm9.502-.221v2.278a1.547 1.547 0 01-3.095 0v-2.278a1.547 1.547 0 013.095 0z" fill="#6A7077"/><path fill-rule="evenodd" clip-rule="evenodd" d="M131.707 133.738c5.606 3.541 17.305.074 17.305.074l-9.06 51.966 6.701-1.915s-8.426 41.714-11.708 56.086c-3.282 14.373-6.387 23.226 7.218 46.595l18.178 31.205 2.428-1.174s4.156 6.791 2.874 9.418c-1.283 2.627-6.324 8.034-8.028 11.707-1.705 3.673-2.3 6.56-1.032 8.166 1.267 1.605 15.024.982 15.024.982l.516.952 36.751-1.399s-.388-5.004-4.791-7.135c-4.402-2.131-9.826-5.662-10.317-6.703-.492-1.041-1.361-1.708-1.032-4.856.329-3.147 21.014-148.185 21.014-148.185l3.537-3.977-1.621-3.437s20.866-34.157 19.294-52.05c-1.307-14.883-10.318-53.238-17.688-57.412-7.369-4.174-17.687-4.91-17.687-4.91s-1.847-3.06-3.611-3.02l-3.312.074.516-9.939s2.683-3.339 3.351-4.586a47.599 47.599 0 001.764-4.636s3.223-.854 3.537-4.124c.315-3.27-.432-4.783-.958-4.636-.525.148-1.769 1.474-1.769 1.474s.565-3.929.222-6.482c-.344-2.553-1.843-7.287-1.843-7.287l3.98-1.964a10.381 10.381 0 00-2.727-2.725 34.077 34.077 0 00-4.422-2.647l3.69-5.033a9.457 9.457 0 00-5.596-.59c-2.909.688-8.986 2.873-8.986 2.873l-.295-3.972a13.91 13.91 0 01-5.896 5.813c-4.009 1.94-10.544 3.497-11.192 9.934-.649 6.438 2.206 15.826 2.206 15.826s-2.457 1.675-2.059 3.315c.398 1.64 2.619 4.625 4.049 4.782 1.429.157 3.169-.81 3.169-.81a22.527 22.527 0 003.016 3.752c.952.89 2.049 1.613 3.243 2.136l-.82 5.96a10.742 10.742 0 01-4.86 3.83c-3.385 1.39-9.723 1.769-9.723 1.769s-16.086-.639-20.768 9.933c-4.682 10.572-12.42 41.827-14.435 48.637-2.014 6.811-2.957 14.805 2.653 18.345zm77.476-7.581l1.396-13.617 4.127 15.164-2.285 8.465-3.238-10.012zm-44.557 134.917l10.381-50.577-4.343 71.544-6.038-20.967z" fill="#fff"/><path fill-rule="evenodd" clip-rule="evenodd" d="M191.564 27.12l.541 1.993a1.58 1.58 0 11-3.061.805l-.526-1.993a1.589 1.589 0 012.319-1.715c.356.196.624.522.747.91h-.02zm-11.677 2.156l.52 1.993a1.569 1.569 0 01-.069 1.286 1.588 1.588 0 01-1.003.807 1.582 1.582 0 01-1.969-1.288l-.525-1.993a1.584 1.584 0 011.149-1.86 1.588 1.588 0 011.916 1.055h-.019zm-29.052 114.362c-3.125-.325-2.801-2.5-2.801-2.5l-8.038 45.946a47.76 47.76 0 009.797-4.488 45.946 45.946 0 008.986-7.581l4.638-32.124s-9.472 1.076-12.582.747zm58.609-15.164l1.696-17.22 3.021 12.978s5.228-4.292 10.676-4.783c5.449-.491 10.166 6.256 10.166 6.256s-.364-2.882-.442-6.329c-.079-3.448-5.277-30.936-10.092-45.932-4.815-14.996-18.066-14.28-21.648-14.942-3.581-.663-3.63-1.193-5.674-2.279a12.41 12.41 0 00-3.68-1.325l.074 4.12 1.768.22a29.904 29.904 0 012.796 8.392c.982 5.17 2.948 20.584 1.4 37.245-1.548 16.661-1.041 39.322-.589 45.175.452 5.854.982 8.967 1.989 8.687 1.008-.28 8.318-9.492 8.318-9.492l3.027-11.569-2.806-9.202zM173.362 56.12c-.89.491-7.154 1.37-15.025 2.063a17.13 17.13 0 00-9.243 3.48 17.109 17.109 0 00-5.781 8.005c-2.084 5.784-14.823 48.185-15.836 54.687-1.012 6.501 5.96 10.596 9.129 11.264 3.169.668 13.187-2.136 13.187-2.136s-3.577-1.827-5.011-8.686a9.473 9.473 0 014.053-10.086l-3.022-.074s-2.456-31.186-2.574-33.783c-.118-2.598 3.773-1.832 10.529-2.284 6.755-.451 19.161-1.247 19.161-1.247s1.332-9.53 1.916-14.137a42.494 42.494 0 012.359-9.05s-2.958 1.503-3.842 1.984z" fill="#6A7077"/><path fill-rule="evenodd" clip-rule="evenodd" d="M206.467 151.921s-4.677 6.143-6.628 6.256c-1.95.113-1.616-9.934-1.616-9.934l-.811-1.399s-13.88 12.767-21.947 14.574c-8.068 1.807-14.219-3.928-14.219-3.928l-2.353 17.677-12.593 9.639s-13.226 63.834-14.582 72.212c-1.356 8.377 4.422 19.282 4.422 19.282l24.453 41.513 8.023-4.488 1.695-30.769-5.744-21.64 11.198-59.415-6.879 120.053 24.821 1.473 19.442-143.382 4.422-3.437-2.211-3.02a59.34 59.34 0 01-5.817-9.713 22.738 22.738 0 01-2.064-11.117l-1.012-.437z" fill="#fff"/><path fill-rule="evenodd" clip-rule="evenodd" d="M204.241 339.025c4.501 1.606 5.012 8.756 5.012 8.756l-37.488-.295s-13.02-.172-15.319-.805c-2.299-.634-.58-4.66.295-7.366.874-2.705 8.455-11.225 10.529-11.927 2.073-.702 5.896 1.031 5.896 1.031l.289 6.035 3.612 4.346 2.063.442a55.406 55.406 0 018.171-4.788 10.388 10.388 0 017.586-.368s4.854 3.334 9.354 4.939zM171.155 17.721c.536-2.077 7.729-.594 11.64-.662 3.911-.07 8.657-4.12 10.317-4.42 1.661-.3 3.096 5.593 3.096 5.593l1.474 11.265.584-.442c.444-2.973.641-5.977.59-8.981-.167-4.14-2.353-5.593-2.353-5.593l5.08-1.768a12.72 12.72 0 00-2.506-2.868 36.986 36.986 0 00-4.638-3.167l3.39-4.12s-2.294-.206-5.306-.147-8.77 2.873-8.77 2.873l-.226-3.81-2.648 2.72a38.14 38.14 0 01-3.906 1.399c-1.912.545-8.908 5.15-10.75 9.644-1.843 4.493 2.653 16.341 2.653 16.341l2.501 1.69s-.752-13.465-.222-15.547z" fill="#6A7077"/><path fill-rule="evenodd" clip-rule="evenodd" d="M188.048 77.48l4.819 60.241a2.207 2.207 0 01-2.024 2.381l-39.797 3.177a2.213 2.213 0 01-2.378-2.023l-4.829-60.235a2.198 2.198 0 012.024-2.377l39.797-3.182a2.213 2.213 0 012.388 2.019z" fill="#fff"/><path d="M150.835 144.207a3.133 3.133 0 01-3.115-2.877l-4.82-60.24a3.136 3.136 0 012.87-3.369l39.796-3.182a3.151 3.151 0 013.371 2.868l4.82 60.24a3.137 3.137 0 01-2.87 3.373l-39.796 3.177a1.993 1.993 0 01-.256.01zm34.987-67.836l-39.9 3.177a1.295 1.295 0 00-1.184 1.39l4.825 60.24a1.265 1.265 0 00.447.878c.261.22.598.328.938.3l39.797-3.177a1.299 1.299 0 001.184-1.39l-4.825-60.24a1.292 1.292 0 00-1.262-1.178h-.02z" fill="#6A7077"/><path fill-rule="evenodd" clip-rule="evenodd" d="M182.692 78.723l10.033 59.258c.103 1.218-1.342 2.833-2.55 3.02l-39.473 6.152a2.218 2.218 0 01-2.525-1.841l-9.335-59.74a2.208 2.208 0 011.842-2.523l39.473-6.153a2.213 2.213 0 012.535 1.827z" fill="#fff"/><path d="M150.343 148.086a3.138 3.138 0 01-3.095-2.646l-9.335-59.74a3.133 3.133 0 012.609-3.574l39.472-6.153a3.151 3.151 0 012.334.565 3.094 3.094 0 011.243 2.038l10.033 59.238c.157 1.851-1.739 3.84-3.316 4.085l-39.453 6.148a3.119 3.119 0 01-.492.039zm30.167-70.31a1.376 1.376 0 00-.201 0l-39.473 6.191a1.289 1.289 0 00-1.076 1.473l9.335 59.739a1.296 1.296 0 00.514.844 1.29 1.29 0 00.96.232l39.468-6.153c.771-.118 1.833-1.335 1.779-2.038l-10.028-59.189a1.273 1.273 0 00-.516-.85 1.25 1.25 0 00-.762-.25z" fill="#6A7077"/><path fill-rule="evenodd" clip-rule="evenodd" d="M143.926 125.95c-.334-4.699 3.091-11.338 3.091-11.338s-1.381.045 1.253-.294c2.633-.339 19.367-3.324 22.168-4.911 2.8-1.586 3.267-4.463 5.227-7.286 1.961-2.824 3.351-2.23 4.496-2.284 1.145-.054 2.776-1.841 4.122-2.647 1.346-.805.929 1.056 1.032 2.72.103 1.665-1.872 1.621-2.801 2.358-.928.736-2.058 2.651-2.058 2.651s11.713-2.754 13.265-3.167c1.553-.412.983 1.802.443 3.241a3.435 3.435 0 01-1.917 1.91s-.319 7.518-1.252 10.233c-.934 2.716-2.231 3.605-4.639 4.562-2.407.958-16.129 4.125-16.129 4.125l-22.341 7.488s-3.626-2.661-3.96-7.361z" fill="#fff"/><path fill-rule="evenodd" clip-rule="evenodd" d="M139.564 115.644c-.226-1.645 2.063-1.473 3.169-1.621 1.39-.176 2.707-.633 3.753-.663a42.432 42.432 0 006.388-.879c3.694-.682 7.369-1.389 10.971-2.283 1.705-.422 3.709-.79 5.085-1.547 1.474-.825 2.456-2.391 3.311-3.751 1.199-1.92 2.029-4.228 3.607-5.298 1.336-.914 2.83-.663 4.421-1.326 1.42-.594 2.948-2.99 4.914-2.8 1.965.192 1.719 4.337.884 5.373-.835 1.036-2.324 1.08-3.095 2.136.073 0 .088-.059.147-.074 2.638-.712 5.552-1.537 8.544-2.209.948-.212 2.265-.595 3.091-.29 1.94.707.948 4.586-.222 5.593-.348.299-.82.491-.958.805-.177.417-.098 1.247-.147 1.841-.329 4.096-.712 8.79-2.796 11.333-1.847 2.259-5.08 2.824-8.617 3.831-1.661.491-3.292.883-4.914 1.247-1.719.388-3.522.491-5.301.957-1.253.319-2.555 1.027-3.901 1.547a691.27 691.27 0 01-12.003 4.488 104.298 104.298 0 01-12.519 3.899c-1.563.428-3.17.677-4.79.741a12.46 12.46 0 01-8.981-3.756c-1.966-2.082-3.474-5.401-3.169-9.639a18.85 18.85 0 01.516-2.652c.211-.893.285-1.964.589-2.573.374-.756 1.794-1.856 2.359-2.504.221-.255.584-.712.736-.589-.54 2.833-1.763 5.357-1.989 8.318-.516 6.791 3.753 10.862 9.575 11.186 3.469.191 2.118-2.013 5.218-2.725-5.311-1.626-3.64-10.617-.383-14.241-1.272-.162-3.223.069-3.493-1.875zm44.995-17.678c-1.347.983-2.825 2.245-4.914 2.721-.908.206-1.965.294-2.579.736-1.007.707-1.965 3.079-2.648 4.199a16.53 16.53 0 01-2.948 3.825c-1.877 1.635-4.466 2.268-7.291 2.946a20.83 20.83 0 00-2.722.658c-.845.334-1.72 1.223-2.58 1.915a9.737 9.737 0 00-2.21 2.21c-.787 1.296-1.396 4.075-1.396 6.108 0 2.269.983 2.716 2.722 3.438.953.402 2.049.982 3.022.957.727 0 1.665-.54 2.574-.884l2.506-.982c1.597-.604 3.439-1.473 5.006-1.91 1.474-.413 3.199-.579 4.712-.884 1.513-.304 3.012-.589 4.496-1.031 3.336-.982 7.541-1.444 9.055-3.973.933-1.561 1.09-3.869 1.547-5.74-.958.256-2.235.192-2.284-.81-.059-1.257 1.523-1.262 2.579-1.62 0-.796.167-1.4.148-2.21-.983.422-2.654.702-2.654-.663 0-2.072 5.68-1.183 5.007-4.488-3.351.594-6.933 1.665-10.382 2.652-1.164.329-4.082 1.659-4.269-.074-.084-.776.82-1.699 1.253-2.283a11.586 11.586 0 014.122-3.438c.196-.265.113-.859.128-1.36v-.014zm-27.981 16.116c-.993.067-1.979.215-2.948.442-.982.172-2.093.221-2.874.442a8.724 8.724 0 00-2.28 1.409 6.872 6.872 0 00-1.768 1.842c-1.474 2.7-1.553 8.838.294 11.259a5.5 5.5 0 002.031 1.442 5.506 5.506 0 002.46.395c.983-.123 2.093-.742 3.095-1.1 1.086-.398 2.103-.806 3.091-1.105-2.088-1.007-4.285-1.871-4.565-4.709-.388-3.953 1.16-8.706 3.464-10.302v-.015z" fill="#6A7077"/><path fill-rule="evenodd" clip-rule="evenodd" d="M128.612 123.422c.162-1.856.811-3.929 1.327-5.893a1139.646 1139.646 0 0111.118-39.228c2.339-7.725 4.176-14.476 11.192-17.59a38.835 38.835 0 0111.561-2.867c4.294-.457 8.922.152 12.082-2.283-1.327 3.04-1.966 7.444-2.654 11.333a631.347 631.347 0 00-1.557 9.26 4.486 4.486 0 012.235-.078 496.22 496.22 0 011.165-7.12c1.395.653 2.835 1.674 4.785 2.21 1.961.5 3.954.868 5.965 1.1 2.348.304 4.456.378 6.259-.364a21.616 21.616 0 004.422-2.651c2.349 10.92 1.646 24.797 1.032 37.755-.457 9.556-.958 18.871-.958 28.996 0 2.156.187 4.91.295 7.213.098.78.123 1.568.073 2.352-.118.536-.953 1.194-1.547 1.842a58.657 58.657 0 01-5.081 5.003 38.419 38.419 0 01-8.101 5.299c-2.909 1.473-6.505 3.309-10.603 2.725-3.788-.54-6.741-2.161-9.718-3.683.566-4.066 1.136-8.13 1.71-12.192a3.747 3.747 0 01-1.813.491 3.56 3.56 0 01-.462-.03c-1.253 8.785-2.486 17.771-3.779 26.546-.137.923-.127 2.003-.368 2.578-.206.491-1.194 1.075-1.769 1.542-4.299 3.515-8.318 7.085-13.919 9.128 2.02-12.674 4.422-26.207 6.554-39.229.138-.845.536-2.077.443-2.573-.094-.496-.954-.899-1.18-1.62a4.087 4.087 0 01-.147-1.105c0-.226.359-.648-.074-.879-.417 0-.368.795-.442 1.247a6851.26 6851.26 0 01-7.37 44.085c-.191 1.11-.52 2.318.217 2.721.737.402 1.989-.251 2.8-.585.983-.398 1.872-.884 2.579-1.105-4.23 21.223-9.187 42.568-13.034 64.468-.58 3.285-1.327 6.575-1.327 9.718 0 7.223 2.314 12.31 4.913 17.221 2.585 4.836 5.405 9.575 8.029 14.132 4.574 7.895 9.61 16.297 14.356 24.36.521.879 1.474 3.231 2.358 3.383.885.152 1.253-.545 1.916-.81.85 1.861 2.86 3.859 2.722 6.624-.054 1.203-1.061 2.455-1.616 3.314a79.053 79.053 0 01-1.99 2.868c-1.366 1.836-3.1 3.619-4.196 5.593a24.829 24.829 0 00-1.4 3.241c-.388 1.016-.983 2.367-.958 3.604.066.829.318 1.633.737 2.352a4.053 4.053 0 002.427 1.989c2.127.761 5.463.388 8.175.491 1.533.073 3.052-.157 4.27.073.545.103.983.595 1.4.663.812.027 1.624.003 2.432-.073 10.48 0 20.434-.516 31.219-.516 1.321 0 3.93.167 4.421-.442.561-.687-.088-2.519-.368-3.437a17.857 17.857 0 00-1.253-2.946c-1.051-2.004-2.899-3.005-4.491-3.899-2.569-1.444-5.63-2.608-7.954-4.636-.742-.653-1.69-1.502-1.837-2.357-.207-1.149.324-3.24.491-4.856 2.756-23.712 6.387-47.179 9.576-70.508 3.434-24.826 6.873-47.728 10.278-72.501.056-.769.179-1.531.368-2.278.271-.722 1.288-1.473 1.99-2.284.526-.599 1.72-1.591 1.764-2.455.079-1.424-1.474-1.694-1.911-2.946 5.237-10.474 11.276-21.478 16.213-32.752a36.373 36.373 0 003.228-12.993 59.16 59.16 0 00-.958-12.369c-1.808-11.004-4.279-22.588-6.996-32.747-2.029-7.572-3.002-13.936-8.102-18.473-3.405-3.035-8.264-4.994-13.993-5.892-1.763-.275-3.93-.27-5.738-.884-1.966-.673-3.326-3.192-6.481-2.873 0-2.347.246-4.42.364-6.693a12.947 12.947 0 01.074-2.21c.137-.55 1.061-1.217 1.547-1.767a13.357 13.357 0 003.096-6.698c.52-.23 1.346-.294 1.916-.663 1.017-.653 2.314-3.142 2.5-4.91.276-2.671-.628-5.691-3.311-4.42a24.136 24.136 0 00-1.327-11.259c.713-.903 3.857-.874 4.049-2.357.157-1.188-1.867-2.705-2.648-3.437a11.466 11.466 0 00-3.685-2.357c.663-.82 5.08-4.478 2.063-5.892-1.837-.86-5.306-.143-7.369.294-2.555.545-4.565 1.473-6.26 1.989-.113-1.174.457-3.486-.958-3.535-.943-.03-1.317.8-1.837 1.473-.521.672-1.047 1.37-1.474 1.841-1.121 1.228-2.58 1.9-4.054 2.5-3.439 1.404-6.087 2.514-8.244 4.934a12.769 12.769 0 00-3.243 9.787 43.104 43.104 0 002.432 10.744c-1.213 1.546-2.825 3.437-1.547 5.666.825 1.473 2.987 3.928 4.859 4.198a6.78 6.78 0 002.8-.294c1.69 1.694 3.194 3.575 5.08 5.077-.176 1.738-.23 3.594-.368 5.372a22.16 22.16 0 01-4.638 3.162c-1.916.904-4.191.894-6.702 1.031-9.674.54-17.977 2.716-22.237 8.687-2.132 2.985-3.385 6.717-4.643 10.803a1123.13 1123.13 0 00-10.381 35.988c-.526 1.964-1.101 4.021-1.622 6.108-.52 2.087-1.243 4.326-1.395 6.33-.437 5.617 2.191 9.653 5.744 11.701a13.393 13.393 0 006.996 1.768c2.54-.108 4.943-.919 7.213-1.473.117-.246-.492-.56-.811-.884-.319-.324-.521-.919-.88-.884-3.817 1.311-8.445 1.355-11.634-.491-2.801-1.68-4.825-5.082-4.417-9.747zm70.327-89.197c.079-.756.103-1.566.216-2.283.846-.442 1.966-2.038.448-2.578.398-.187.643-.53 1.1-.658.457 2.347-.285 4.625-1.764 5.52zm-3.095-19.43c-.737-1.542-1.695-3.192-4.343-2.578-3.336.776-5.508 4.125-9.571 4.42a35.185 35.185 0 01-5.085-.222c-1.474-.127-3.415-.613-5.007-.294-1.326.26-2.28 1.964-2.427 3.383-.211 2.043.226 4.14.369 6.108.142 2.053.309 4.007.363 6.035-.982-.432-1.086-1.655-1.395-2.646-.31-.992-.654-2.146-.885-3.241-.491-2.313-1.139-4.808-.982-7.287.309-4.262 2.948-7.218 6.038-8.839 1.641-.86 3.493-1.473 5.228-2.21a11.726 11.726 0 003.832-2.725c.088-.088.098-.49.364-.29-.118 2.839 2.142 1.474 3.758.88 3.135-1.184 6.549-2.25 10.603-2.132a11.92 11.92 0 01-2.064 2.205c-.594.555-1.827 1.316-1.764 2.21.054.746.939.982 1.617 1.252 2.167.83 3.994 2.052 4.913 3.604-1.223.727-3.218.722-3.562 2.367zM186.789 46a11.797 11.797 0 01-6.038-1.252c-2.093-.982-3.931-3.305-5.449-5.077-.54-.634-1.145-1.61-1.99-1.547-.845.064-1.061 1.296-2.653.81-.845-.658-3.277-2.381-3.311-3.678 0-.741.638-1.753 1.247-1.841.61-.088 1.135.673 1.548 1.178-.683.148-1.14.369-1.1 1.1.078 1.665 3.684.452 3.827-.584.054-.388-.246-.982-.295-1.4-.398-3.393-.643-8.224-.884-11.995-.084-1.331-.315-2.79.737-3.438 3.439.128 6.387.8 9.428.59 2.216-.153 3.931-1.051 5.444-1.915 1.847-1.037 3.356-2.456 5.601-2.574.085.03.161.08.221.148 3.169 4.42 4.314 11.966 3.68 18.694-.309 3.314-.845 6.413-2.8 8.607-1.774 1.974-4.255 3.973-7.213 4.174zm43.958 92.727c-2.402-5.593-7.895-8.097-15.231-8.755.904-1.807.148-3.835-.221-5.74 2.722-2.539 6.181-4.852 11.119-4.419 2.948.26 4.368 2.072 5.596 4.124.55.919 1.43 2.274 1.548 3.241a13.737 13.737 0 01-.295 3.236 26.778 26.778 0 01-2.516 8.313zm-15.904 32.31c-1.729-2.455-3.439-4.871-4.49-8.244a58.504 58.504 0 01-1.695-7.798c-.143-.864-.57-2.175-.443-2.799.069-.338.669-.775.958-1.104 1.229-1.4 1.548-3.438 2.138-5.593 1.041-3.796 2.044-7.533 3.016-11.186.197-.732.285-1.537.737-2.136 7.537.398 12.514 3.344 14.583 9.202a628.286 628.286 0 01-14.804 29.658zm-2.869-36.798c-.182-2.288-1.474-4.483-1.474-7.061 0-3.368.737-6.909.953-10.312.747 3.722 1.602 7.332 2.359 11.039-.664 2.062-1.072 4.385-1.838 6.334zM172.87 346.857c.162-3.073.491-6.604.811-9.786.83.432 1.12 1.817 2.211 2.279a9.05 9.05 0 003.237.52c.585-.088 1.587-.786 2.285-1.179 3.709-2.111 6.815-4.473 12.814-3.928 1.547 1.444 3.699 2.49 5.817 3.536 1.724.849 4.422 2.018 5.591 3.383 1.022 1.218 1.341 2.809 1.916 4.567-11.608.173-23.169.376-34.682.608zm19.441-14.274c-6.308-.098-9.443 2.976-13.55 5.077-.649-.088-1.233-.24-1.916-.294-.447-.619-.944-1.12-1.474-1.768-.383-.491-1.283-1.311-1.4-1.915-.153-.761.142-1.837.221-2.72.24-2.809.457-5.677.663-8.318 5.896.22 11.792.49 17.599.81-.123 2.912-1.533 6.737-.143 9.128zm-24.595-4.125c1.818-.226 3.164 1.022 4.343 1.326-.457 5.402-.874 10.837-1.4 16.342-2.132-.035-4.206-.152-6.48-.152-2.516 0-6.157.314-6.845-1.248-.25-.564-.221-2.312-.073-3.02a16.825 16.825 0 011.248-3.162c.928-2.038 2.456-3.525 3.685-5.156.668-.874 1.198-1.875 1.837-2.573.786-.839 2.526-2.209 3.685-2.357zm-3.685-11.406a86.196 86.196 0 014.054-2.573c-.128 2.347-.354 4.601-.369 7.066.644 1.316 3.218.707 4.913.952 0 1.473-.27 3.315-.368 4.935-1.592-.54-3.533-1.591-5.596-.982 1.1-3.629-1.342-6.987-2.634-9.398zm36.235-157.274c.815 0 1.297-.609 1.837-1.105 1.302-1.198 2.418-2.455 3.607-3.751.226-.246.437-.796.663-.442.177.27.123 1.139.226 1.694.683 3.805 1.503 7.596 2.948 10.523 1.798 3.663 3.93 6.01 6.259 9.123-.923 1.503-2.746 2.293-3.311 3.977-.413 1.218-.442 2.824-.668 4.341-1.519 10.312-3.052 20.864-4.422 30.837-4.855 35.477-10.067 71.141-14.74 106.275-7.563-.373-15.149-.717-22.758-1.031 2.545-41.453 5.002-84.89 7.527-126.81.084-1.37.423-3.187.148-4.046-.305-.982-2.015-1.635-3.091-2.352-.575-.383-.982-.688-1.621-1.105-.811-.54-2.604-1.498-2.727.147-.078 1.085 1.715 1.891 2.432 2.352 1.096.702 2.054 1.149 2.874 1.915-.147 2.087-.231 4.228-.368 6.33-.138 2.101-.089 4.296-.369 6.329-.334 2.372-.982 4.773-1.474 7.214-3.208 15.939-6.156 31.593-9.335 47.468-.26 1.291-.712 2.705-.658 3.751.039.87.531 1.935.806 2.947 1.656 5.966 3.243 11.701 4.938 17.588.285.983.8 2.014.884 2.873.093 1.016-.147 2.22-.221 3.31-.546 8.033-.86 15.615-1.4 23.623a774.985 774.985 0 01-7.439 4.709c-7.94-13.837-16.366-27.242-24.025-41.482-2.511-4.675-4.683-10.459-3.901-17.516.343-3.127 1.031-6.221 1.542-9.329.511-3.108 1.165-6.114 1.769-9.129 3.685-18.305 7.409-36.243 11.119-54.46 3.321-2.038 6.112-4.385 9.128-6.845.924-.752 2.457-1.626 2.801-2.573.403-1.095.408-2.647.589-3.904.605-4.144 1.081-8.038 1.695-11.996 3.056 1.257 5.95 2.858 9.719 3.388 3.969.555 7.645-.874 10.681-2.283a45.932 45.932 0 0015.167-11.407c0-.078.093-.059.074.074.466 2.656.172 6.231.884 8.539.344 1.065 1.105 2.224 2.211 2.239zm-33.655 105.685c-.344-1.242-1.165-3.073-1.18-4.272 0-.707.335-1.659.516-2.573 2.565-12.727 5.208-26.898 7.734-39.081-1.15 19.533-2.197 39.17-3.538 58.512-1.13-4.238-2.353-8.318-3.532-12.586zm26.875-207.909c.118-.422-.251-1.33.226-1.4 2.717.08 3.36 1.773 5.227 2.579 1.671.717 3.931.717 5.67.982 8.868 1.208 15.393 4.964 18.179 12.217 1.115 2.897 1.862 6.167 2.722 9.492 1.557 6.005 3.036 12.953 4.49 19.798 1.435 6.717 2.919 13.258 3.464 20.898-.634-.638-1.204-1.669-1.916-2.352-2.093-2.013-5.684-2.524-9.202-1.841a15.546 15.546 0 00-6.849 3.31c-.197.157-.492.545-.811.368-.766-3.437-1.474-6.875-2.206-10.228-.108-.491-.408-.982-.442-1.4.015-.741.089-1.48.221-2.209.388-3.688.796-7.44 1.174-11.039.167-1.59.113-3.172.442-4.488.241-.948.865-1.964 1.401-3.162.466-1.051 2.24-4.09.073-4.051-.982 0-1.596 1.964-2.063 3.02-.639 1.438-1.297 2.627-1.548 3.677a40.216 40.216 0 00-.491 4.42c-.831 7.473-1.563 15.222-2.211 22.587-.27 3.05-.884 6.232-.663 9.271.103 1.429.614 2.74.982 4.267.369 1.527.492 3.28.958 4.346.197.442.821.633.885.957-.806 2.902-1.504 5.696-2.285 8.535a18.377 18.377 0 01-.811 2.872c-.344.722-1.272 1.409-1.916 2.131-1.685 1.896-3.183 3.629-4.859 5.298-.309.315-.732.874-1.027.737-2.948-18.988-.555-41.64-.147-62.111.083-4.243.422-8.53.221-12.806a115.741 115.741 0 00-2.373-17.167c-.344-1.699-.634-3.928-1.327-5.23-.638-1.158-1.852-1.688-3.188-2.278zm-17.594 7.287c.329-1.758.55-3.25.879-4.861 4.348-1.198 3.061-8.028 3.685-12.949 3.213 1.405 8.726 1.68 11.266-.49.128 2.906-.84 8.465-.442 11.553.172 1.346 2.024 3.094 3.311 2.647.752 1.807 1.076 4.031 1.474 6.182-1.778.913-3.38 3.015-6.112 3.388-2.624.354-5.655-.412-8.097-.957a13.361 13.361 0 01-3.464-1.105c-.722-.373-2.638-1.252-2.795-1.841-.103-.383.201-1.1.295-1.567z" fill="#6A7077"/><path fill-rule="evenodd" clip-rule="evenodd" d="M188.7 35.472c-.604.81-.732 2.377.516 2.456.644.029 1.076-.629 1.4-1.179.324-.55.816-1.174.737-1.837-.093-.785-1.071-1.016-1.769-1.399-.697-.383-1.474-.835-1.763-1.4-.629-1.178-.629-3.142-.521-4.512.152-1.606 1.081-3.197 2.284-3.756 1.504-.693 3.086-.216 5.154-.074.364-.334.659-.462.664-1.026 0-1.297-2.457-1.586-4.123-1.473-3.483.23-5.949 2.779-6.185 6.55-.211 3.393.781 6.806 3.606 7.65zm-8.907-11.259c-1.288-.064-3.272.285-4.27.884-.82.49-1.965 1.473-1.916 2.283a1.142 1.142 0 00.737.982c1.292.28 1.69-1.056 2.501-1.473a6.002 6.002 0 012.727-.515c1.174.029 3.439 1.006 3.237-.884-.122-1.243-2.034-1.228-3.016-1.277zm2.722 16.121c.595.108 4.054 1.566 4.864.368a1.004 1.004 0 00-.147-1.252 4.913 4.913 0 00-1.474-.148 6.788 6.788 0 01-2.064-.515c-1.193-.491-2.682-1.346-3.311.074-.187 2.415 1.199 3.77 3.366 4.551.982.354 2.751.732 2.726-.338-.029-1.464-3.503-1.336-3.96-2.74z" fill="#6A7077"/><path fill-rule="evenodd" clip-rule="evenodd" d="M169.283 256.217l.442 1.915 24.301 27.896 21.726-17.373.737 1.031 15.467-12.659 8.789 75.664-3.169 4.419s-10.047 2.313-12.592 5.52c-2.545 3.206-2.285 5.077-2.285 5.077l36.604.221 1.4-95.02 38.224 5.666s11.163 5.514 24.817 3.383c13.654-2.131 17.589-7.429 19.52-9.418 1.931-1.988 1.887-3.977 2.948-7.655 1.061-3.678-.914-10.876-4.122-20.83-3.209-9.953-11.433-32.83-11.433-32.83s18.085.186 19.652.147c1.568-.039 12.824-.437 8.176-12.217-4.648-11.78-30.919-31.136-37.193-31.873-6.274-.737-6.338-.221-6.338-.221l-.147-28.338s-1.774-14.24-10.318-17.294c-8.544-3.054-17.142-1.792-24.379 1.837-7.237 3.628-12.76 6.236-15.089 13.11-2.328 6.875-.697 19.219-3.532 21.35-2.835 2.132-6.132 2.603-7.291 6.62-1.16 4.016 1.056 6.467.162 10.076-1.386 5.548-6.043 7.11-6.495 10.243-.452 3.132 2.648 10.375 2.648 10.375l9.502-.442-5.896 9.792-20.031-20.462s-2.81-7.488-4.913-9.717c-2.103-2.23-7.473-8.991-8.323-9.129-.85-.137-2.688 2.244-1.838 4.051a59.505 59.505 0 001.769 3.437l.143 2.652s-5.361-.589-9.055-1.326c-3.695-.736-11.758-4.242-12.372-3.309-.614.933-.368 2.867-.368 2.867s-2.398 1.4-1.548 2.652a11.341 11.341 0 002.206 2.278 2.236 2.236 0 00-.117 1.667c.179.55.565 1.008 1.075 1.28 1.882 1.119 9.723 4.91 9.723 4.91l1.843 1.841 13.265 1.179 1.032 1.473s11.374 19.828 14.067 24.286a77.298 77.298 0 005.743 8.171s-28.128 32.62-34.569 40.363c-6.441 7.744-14.74 17.295-14.74 17.295l-2.21 2.062-1.966.516s-8.843-5.893-14.14-6.845a34.079 34.079 0 00-9.512-.364zm91.248-54.102l17.309-15.222 1.327.515a10.86 10.86 0 002.869 4.636c2.206 2.087 9.06 2.283 9.06 2.283l1.965 3.31-.442 9.791-3.169 9.33-28.919-14.643z" fill="#fff"/><path fill-rule="evenodd" clip-rule="evenodd" d="M291.715 126.378l-.462 1.551a1.47 1.47 0 01-2.693.267 1.47 1.47 0 01-.132-1.106l.462-1.552a1.473 1.473 0 112.825.84z" fill="#6A7077"/><path fill-rule="evenodd" clip-rule="evenodd" d="M278.695 135.874c-2.265-5.789-1.051-8.259-.59-10.748a40.949 40.949 0 011.681-5.711l-1.474-.84s.776-1.119 4.864-4.046c4.088-2.927 12.592-1.179 12.592-1.179s-.108 5.859.221 8.098c.33 2.239 3.607 7.945 3.607 7.945s4.024-1.194 5.085 1.62c2.368 6.31-6.338 6.771-6.338 6.771s2.388 10.661 2.653 12.37c.265 1.708 3.051.044 5.527-1.326 2.477-1.37 8.844-1.326 8.844-1.326s1.366-21.665-.811-32.163c-2.176-10.498-9.914-14.063-17.746-15.605-7.832-1.542-18.921 5.451-25.087 9.025-6.166 3.575-8.421 12.59-8.5 21.002-.078 8.411-3.626 9.914-7.217 12.001-3.592 2.087-1.282 7.655-1.174 11.554.108 3.899-5.734 8.185-7.287 12.217-1.552 4.031 3.44 9.717 3.44 9.717l8.765-.589s6.657-10.803 10.971-15.089c4.314-4.287 16.744-4.503 18.93-5.225 2.187-.722 1.027-3.609 1.027-3.609l-1.837-9.565s-7.07 2.548-10.146-5.299z" fill="#6A7077"/><path fill-rule="evenodd" clip-rule="evenodd" d="M296.388 205.169l5.306-14.574 10.087-1.915s0 2.74-.074 4.12-1.788 4.537-2.948 7.434c-1.159 2.897.31 4.881.442 6.256.133 1.375-.81 3.364-1.768 4.64-.959 1.277-2.211-2.578-2.211-2.578s-1.062 2.652-1.764 3.978c-.703 1.326-3.169-.516-3.169-.516l-3.901-6.845z" fill="#fff"/><path fill-rule="evenodd" clip-rule="evenodd" d="M260.973 253.104l38.662 4.91s8.067 5.215 27.106 3.929c16.887-1.174 19.736-16.916 19.736-16.916s-3.601-4.395-12.519-10.744c-8.917-6.349-30.786-11.353-30.786-11.353l-42.567-20.314a27.59 27.59 0 01-6.849 1.915c-3.336.368-7.861-1.179-7.861-1.179l-40.451 47.911 11.414 18.315 15.393-12.953 8.175 69.128 18.99-.884 1.557-71.765z" fill="#6A7077"/><path d="M313.987 191.445a.925.925 0 01-.719-1.501.926.926 0 01.586-.336c2.339-.339 3.896-3 3.469-5.922a5.918 5.918 0 00-2.201-3.898 3.708 3.708 0 00-2.815-.771.928.928 0 01-.985-.786.925.925 0 01.714-1.036 5.658 5.658 0 014.181 1.114 7.771 7.771 0 012.948 5.112c.575 3.928-1.68 7.518-5.021 8.009a.685.685 0 01-.157.015zm-85.204-19.759a4.274 4.274 0 01-1.514-.261 2.511 2.511 0 01-1.577-1.65.925.925 0 011.774-.491c0 .069.079.285.467.437.786.3 2.329.138 4.029-.903 1.699-1.041 2.525-2.396 2.432-3.133 0-.123-.054-.403-.59-.57a.905.905 0 01-.543-.448.92.92 0 011.083-1.309 2.51 2.51 0 011.877 2.096c.207 1.635-1.086 3.57-3.296 4.911a8.215 8.215 0 01-4.142 1.321z" fill="#6A7077"/><path fill-rule="evenodd" clip-rule="evenodd" d="M250.169 175.27a6.714 6.714 0 01-2.044-2.455 12.92 12.92 0 01-1.302-3.187 10.133 10.133 0 01.698-6.383 20.777 20.777 0 013.091-5.078c1.351-1.527 3.001-2.813 3.169-5.077.181-2.504-.885-4.012-1.032-6.109a8.384 8.384 0 012.358-6.383c1.41-1.473 3.764-1.817 5.228-3.535.751-.879.982-2.151 1.105-3.531.123-1.38.334-2.853.442-4.193.212-2.75.182-6.079.659-8.613.982-5.249 3.498-8.657 6.996-11.554a51.249 51.249 0 0111.561-6.993c4.304-1.964 9.723-3.8 15.393-3.383 10.927.8 15.884 6.315 18.852 14.938 1.528 4.419 1.179 9.987 1.179 15.747 0 5.593-.123 11.201-.074 16.695 4.771-.25 8.397 1.365 11.561 3.236 9.423 5.583 17.147 12.458 24.374 20.093 2.299 2.455 4.943 4.974 6.702 8.097 1.818 3.231 1.709 9.286-.442 11.923-2.152 2.637-6.972 2.867-11.93 2.867-4.957 0-9.762-.147-14.582-.294 4.761 13.886 10.18 27.311 14.214 41.949.58 2.116 1.321 4.591 1.321 6.771a21.623 21.623 0 01-4.913 13.911c-5.67 6.875-16.11 9.639-28.644 8.318-4.913-.525-9.978-1.168-13.55-2.946-.383-.191-1.405-.913-1.69-.884-1.327.148-3.007-.284-4.57-.515-10.779-1.586-21.686-3.187-32.176-4.636-.491 15.846-.526 31.461-1.032 47.542-.245 7.705-.132 15.655-.491 23.771-.27 5.672-.378 11.844-.442 17.737 0 1.689.221 5.047-.442 5.671-.664.624-3.253.339-4.638.363-9.94.202-19.393.369-29.312.737-1.632.064-3.852.329-4.344-.516-.491-.844.3-1.915.664-2.646.437-.874.8-1.65 1.179-2.284 2.019-3.378 4.088-4.782 7.861-6.034 1.705-.56 3.793-.938 5.227-1.763a7.892 7.892 0 001.838-1.768c.491-.614 1.376-1.63 1.474-2.21.098-.579-.128-1.473-.221-2.278-2.747-23.668-5.449-47.851-7.861-71.465-4.059 3.226-8.525 7.056-12.74 10.528-.624.491-1.322 1.301-1.965 1.394-.389.059-.983-.432-1.327-.363-.226.039-.806.687-1.253 1.026-5.959 4.596-11.452 8.745-17.304 13.322-.811.638-1.99 1.925-2.869 1.841-.639-.064-1.351-1.09-1.843-1.62-.624-.673-1.145-1.311-1.621-1.842-6.667-7.414-13.266-14.328-19.515-22.15-.683-.86-2.747-2.996-2.648-4.341.206-2.774 6.667-1.915 9.055-1.547 2.387.369 4.215 1.292 5.895 2.063 3.071 1.409 5.061 2.563 7.807 4.119.531.3 2.034 1.385 2.727 1.326.437-.039 1.341-.982 1.838-1.547 14.3-16.97 28.586-33.829 42.857-50.576 2.069-2.45 4.034-5.087 6.491-7.243-2.413-1.93-3.975-4.812-5.596-7.582-4.073-6.962-7.911-14.053-11.792-21.345-.432-.815-1.725-3.771-2.501-4.12-.776-.348-2-.28-3.021-.368-1.022-.088-2.241-.132-3.238-.221-2.137-.186-4.604-.182-6.333-.589-.914-.216-1.474-1.296-2.653-2.062a25.961 25.961 0 00-3.091-1.474c-2.339-1.09-4.471-1.905-6.038-3.093a4.283 4.283 0 01-.737-.737c-.344-.466-.457-1.257-.811-1.836-.683-1.11-2.668-1.792-2.358-4.125.137-1.036.904-1.424 1.105-2.205.162-.633.035-1.247.148-1.767.071-.51.274-.993.589-1.4 1.268-1.473 4.53-.073 6.26.369 4.962 1.266 9.905 3.142 15.019 3.604-.127-1.964-1.965-3.163-1.911-5.372.054-1.915.929-4.979 3.017-4.709 1.508.196 3.277 3.27 3.979 4.193 1.243 1.65 2.59 3 3.754 4.42 1.965 2.357 3.312 4.934 4.712 7.576.491.904.801 1.925 1.326 2.799.526.874 1.602 1.581 2.359 2.357 5.434 5.549 11.221 11.672 16.567 16.852 1.327-2.376 2.997-4.807 4.196-7.066-.32.703-4.515 1.852-7.95-.142zm1.106-2.062c2.727.049 5.645-.094 8.249.073 1.621-2.637 3.277-5.278 5.007-7.856 1.729-2.578 3.237-5.313 5.694-7.228 3.7-2.892 8.672-4.135 14.739-4.636 1.853-.157 4.098.133 5.081-1.325-.339-3.904-1.312-7.179-1.916-10.803-3.931.378-6.53-.452-8.466-1.842-2.211-1.586-3.473-3.884-3.611-7.856-.049-1.473 0-2.691 1.032-2.72 1.223-.035.982 1.291 1.031 2.72.212 4.822 2.683 7.473 7.439 7.655 1.705.06 3.411-.089 5.08-.442 1.086-.28 3.67-1.723 3.828 0 .157 1.724-3.273 1.65-4.27 2.21.491 2.74 1.174 5.401 1.695 8.313.226 1.291.575 2.642.148 3.683a4.215 4.215 0 01-2.211 2.131c-2.413.707-6.299.304-8.982.957-.265 3.276.172 6.03 2.28 7.14 3.002 1.581 7.37 1.021 10.603.074a34.48 34.48 0 008.765-3.752c4.913-3.192 9.561-7.655 13.55-11.19-4.171.25-7.738.569-11.045 1.841-.899.344-2.333 1.08-3.39.884-1.911-.354-2.338-4.547-2.795-6.477a339.379 339.379 0 01-.885-3.751c-.294-1.292-.825-2.544-.884-3.683a3.093 3.093 0 01.295-1.473c.417-.491 1.572-.324 2.574-.442 1.769-.211 4.073-.712 4.349-2.431.127-.825-.462-2.455-1.106-2.725-1.032-.413-2.457.324-3.685.147-1.066-.152-1.385-1.375-1.764-2.352a24.03 24.03 0 01-1.105-3.02c-1.017-.579-1.636-1.345-2.874-1.91-1.238-.565-4.786-.255-4.786-1.841 0-1.473 2.054-1.027 3.243-.81a9.993 9.993 0 013.385 1.178c-.599-2.165-.491-5.313-.368-7.95-4.914-.903-9.91 0-13.035 1.964a4.346 4.346 0 00-1.616 1.763c2.294.432 3.778 1.886 3.753 4.125 0 1.782-1.474 3.633-2.653 4.341-.781.491-1.7.721-3.238.957-1.208.187-2.948.565-3.021-.663-.079-1.114 1.1-1.119 2.505-1.321 1.239-.186 2.197-.407 2.875-.888.491-.339 1.474-1.474 1.474-2.5a2.211 2.211 0 00-1.396-1.915c-1.272-.442-3.066.403-3.39-.732-.265-.928.767-1.964 1.253-2.577a10.794 10.794 0 011.842-1.989c1.799-1.36 4.914-2.455 7.581-2.873a22.303 22.303 0 014.914 0c1.518.118 3.827.118 4.2 1.031.197.491.04 1.503 0 2.21-.339 5.893.983 9.561 2.722 13.617 3.803-1.086 6.776 1.222 6.333 4.91-.348 2.946-3.832 4.213-7.065 4.341.934 3.874 1.774 7.856 2.948 11.48 3.371-1.537 7.571-2.244 12.077-2.647 0-5.509.073-10.709.073-16.12 0-5.534.428-10.941-.884-15.306a27.568 27.568 0 00-2.501-5.593c-2.083-3.683-4.608-5.892-8.912-7.287a24.276 24.276 0 00-7.218-1.178c-5.493 0-9.89 1.964-13.845 3.83a43.516 43.516 0 00-10.75 6.855c-3.253 2.946-5.242 6.457-5.817 11.853-.285 2.686-.251 5.642-.59 8.24-.383 2.946-.265 5.053-1.837 6.919a9.941 9.941 0 01-2.506 1.841c-.865.491-2.044.953-2.727 1.615a7.063 7.063 0 00-1.837 4.493c0 2.181 1.105 3.722 1.105 6.183 0 4.065-2.884 5.425-4.717 8.092-1.026 1.915-2.663 4.218-2.427 6.771.197 2.406 1.455 3.83 2.403 5.667zm-30.265-26.639a5.599 5.599 0 00-.737 2.72c.088 1.198 1.218 1.852 1.621 2.947.373.982.349 2.298.516 3.383.167 1.085.383 2.175.516 3.314.497.025.991.099 1.474.221 1.13.28 3.901 1.12 3.901 2.352 0 1.763-1.838.653-2.796.221a5.603 5.603 0 00-3.021-.663c-1.219.128-2.403.86-3.607 1.326-1.474.58-3.051 1.738-5.011 1.4-3.022-.526-4.574-4.081-7.581-4.636-1.44.889.457 2.102 1.1 2.721 1.386 1.33 2.516 2.283 3.98 3.535.614.521 1.42 1.473 2.059 1.689.869.27 2.383.211 3.537.295 1.155.083 2.457.201 3.533.294 2.309.202 5.208.079 6.48 1.179.948.82 1.607 2.72 2.359 4.12 4.5 8.421 8.843 16.626 13.919 24.581.835 1.311 1.68 2.828 2.721 3.683 2.418 1.964 7.67 2.975 11.487 1.325 1.931-.834 3.833-2.366 5.523-3.756 1.69-1.39 3.37-2.946 4.913-4.267 3.439-2.946 6.638-5.578 9.792-8.686-.909-4.287.924-7.499 2.579-9.934-.383-1.129-2.373-1.964-2.358-3.241a.979.979 0 01.958-1.026c1.096-.093 1.676 1.144 2.206 1.763.614.707 1.661 1.571 1.695 2.283.045.874-1.39 2.494-1.764 3.162a10.252 10.252 0 00-1.326 3.536c-.609 6.147 3.321 9.943 8.726 10.449 1.729.162 3.439-.054 3.979 1.547 1.794-2.613 3.518-5.358 5.375-7.95 1.858-2.593 3.69-5.205 6.333-6.919 5.405-3.516 13.974-3.437 22.753-3.825-2.176-1.198-4.141-2.062-6.48-3.236-.683-.344-1.675-.766-1.695-1.547-.054-2.283 3.213-.235 3.98.148 2.638 1.325 4.746 2.361 7.369 3.677.398.197.983.737 1.401.811 1.11.211 3.237-.128 4.564-.148 1.326-.019 3.69-.564 3.685 1.032 0 1.473-2.845 1.139-4.054 1.178-5.104.157-10.15.295-14.945.516-6.314.284-12.907.982-16.568 4.046-1.076.893-1.862 2.136-2.727 3.236-2.643 3.383-4.849 6.648-7.291 10.454 0 3.83.236 7.778.443 11.627.063 1.174-.143 3.187.884 3.089.545-.049.722-2.092.811-2.946a22.99 22.99 0 00-.074-6.992c-.182-1.12-.491-2.583.737-2.652 1.228-.069 1.263 1.448 1.474 2.725.447 2.73.688 4.419 1.248 6.993.236 1.065.403 2.298 1.105 2.867-.55-2.779-1.1-6.113-1.69-9.33-.211-1.149-1.11-3.746.491-3.83 1.273-.058 1.243 1.636 1.474 2.873.659 3.545 1.43 7.262 1.966 10.803.56-.521.771-1.68 1.252-2.5.172-.299.418-.491.443-.736.039-.432-.516-1.999-.669-2.652-.412-1.797-.85-3.535-1.248-5.372-.26-1.208-1.012-3.437.59-3.437 1.238-.029 1.287 1.763 1.474 2.647.717 3.437 1.577 6.747 2.353 10.012 1.411-1.778.217-5.126.369-7.803.206-3.52 1.965-5.99 2.722-9.202.314-1.311.285-4.193 1.695-4.193.806 0 1.017.633 1.105 1.473 8.991.545 18.813.373 28.207.81 3.137.196 6.283.221 9.423.074 1.695-.113 3.666-.447 5.081-1.179 2.672-1.389 3.021-6.506 1.768-9.643-.712-1.778-2.363-3.551-3.611-5.004a137.732 137.732 0 00-12.887-12.954 92.11 92.11 0 00-15.147-10.699 18.197 18.197 0 00-2.948-1.4c-.983-.358-2.644-.982-3.39-.884-.398.054-1.18.865-1.695 1.326-5.808 5.21-11.365 10.803-19.069 14.059-2.815 1.183-6.003 2.406-9.335 2.646-6.804.491-11.678-2.259-10.809-9.786-3.596 1.031-6.75 2.273-8.843 4.91-1.966 2.49-3.7 5.402-5.523 8.245a594.491 594.491 0 00-9.202 14.937c-.491.791-.875 1.719-1.695 1.694-.983-.029-1.287-1.237-.663-1.964-5.567-5.726-11.065-11.574-16.789-17.299a24.762 24.762 0 01-2.358-2.5c-1.125-1.532-1.705-3.398-2.575-5.003-1.788-3.29-4.063-5.942-6.387-8.76-1.243-1.419-2.299-3.02-3.581-4.4zm-20.469 5.225c-.378.216-.24.942-.368 1.399 3.493.82 7.183 2.043 11.192 3.015 1.091.265 2.742.378 2.796 1.399.103 1.749-2.157.889-3.386.59-.982-.236-1.813-.423-2.579-.59a27.211 27.211 0 013.022 2.063c.8.648 1.916 1.89 2.948 2.057 1.174.197 2.387-.717 3.463-1.105 1.229-.437 2.177-.883 3.238-1.32-.074-.909-.275-1.685-.368-2.578-7.115-1.184-13.266-3.33-19.958-4.93zm-1.105 3.53a1.308 1.308 0 00-.315 1.063 1.315 1.315 0 00.61.926c1.356-1.326 3.822-.575 5.154.294.329-.29.741-.47 1.179-.515-2.167-.643-3.936-1.66-6.628-1.768zm4.269 3.978c-.766-.172-1.528-.943-2.432-.516.054 2.107 1.867 2.455 3.169 3.31-.329-.546-1.262-1.557-.737-2.794zm58.325 43.004c8.789 4.361 17.879 8.427 26.727 12.733.754-2.21 1.62-4.38 2.595-6.501.364-.656.661-1.347.884-2.063.142-.982-.118-2.244-.147-3.383-.059-1.841-.182-3.511-.148-5.524a29.13 29.13 0 00-1.769-2.426c-6.166 0-9.914-2.455-11.708-6.845-5.409 4.739-10.764 9.516-16.434 14.009zm50.512-10.748c-.413 3.383-2.52 5.838-2.795 9.472-.158 2.121.658 4.134.294 6.383-.28 1.734-1.366 5.181-3.316 4.911-.712-.094-.909-.585-1.179-1.253-.6.933-.914 1.965-1.838 2.431-2.319 1.193-5.208-1.203-5.674-3.167-.408.982-.615 2.047-1.691 2.357-1.557.452-3.282-.408-3.68-1.694-.8 1.389-1.233 3.137-1.768 4.782a19.2 19.2 0 003.311 1.768c3.38 1.586 6.829 3.344 10.608 4.562 5.036 1.63 10.204 3.241 15.231 4.91 10.121 3.457 18.905 8.186 25.352 15.149.176-2.48-.443-4.862-1.032-7.066-1.71-6.384-3.891-12.59-5.965-18.768-2.746-8.175-5.704-16.15-8.686-24.286-5.793-.113-11.404-.388-17.172-.516v.025zm-52.723 12.192c-2.761 2.038-8.996 2.455-12.445.737-4.059 3.265-7.105 7.557-10.456 11.48a12477.968 12477.968 0 00-30.191 35.551c3.606 5.293 6.633 11.176 10.16 16.558 2.487-1.788 4.693-3.722 7.218-5.893 1.67-1.434 3.562-2.946 5.449-4.488.56-.466 1.582-1.149 1.695-1.547.132-.491-.138-1.473-.221-2.283-.408-3.879-.678-7.498-.983-11.554-.113-1.611-.364-3.236-.221-4.709.408-4.243 3.139-7.935 5.817-10.228 2.363-2.028 6.879-5.269 11.634-4.493 2.187.358 4.619 2.19 6.334 3.241 13.796 8.436 26.654 17.755 39.762 26.786 1.877 1.296 3.655 2.72 5.675 3.928a21.953 21.953 0 006.77 2.72c4.952 1.09 10.863 2.205 17.088 1.621 5.493-.516 10.809-1.734 14.577-4.42a18.022 18.022 0 006.334-7.95c.398-.982 1.198-2.715 1.105-3.604-.054-.52-1.243-1.537-1.842-2.136-4.693-4.694-9.959-8.23-16.42-11.186-3.695-1.694-7.768-2.818-11.708-4.119-3.941-1.302-7.876-2.868-11.807-3.919a13.679 13.679 0 01-2.948-1.031c-2.496-1.301-5.404-2.593-8.023-3.825-7.276-3.393-14.174-6.708-21.431-10.081-3.719-1.719-7.286-3.501-10.922-5.156zm-18.926 120.554c5.896 0 11.615-.123 17.452-.147.683-17.736.457-36.312 1.253-54.387.182-4.164.152-9.065.294-13.617.045-1.473-.147-3.727.443-4.193.692-.555 3.1.049 4.269.221 9.989 1.448 20.11 2.946 29.971 4.419.088-.177-.801-.771-1.18-1.031-13.103-9.069-26.172-18.399-39.983-27.09a64.054 64.054 0 00-3.095-1.837c-1.13-.624-2.663-1.625-3.901-1.694-3.97-.221-7.11 2.269-9.335 4.193a14.495 14.495 0 00-3.169 3.61 12.89 12.89 0 00-1.843 4.856c-.211 1.787.148 3.791.295 5.74 2.073 27.316 5.773 54.343 8.529 80.957zM205.4 253.207c-2.053 2.141-3.886 4.508-5.817 6.771 3.076 4.312 6.343 8.427 9.424 12.733 1.886-1.331 3.655-2.774 5.448-4.193-2.938-5.186-6.107-10.14-9.055-15.311zm-34.466 3.928c3.504 4.886 7.537 9.305 11.492 13.749 3.955 4.444 7.861 8.962 12.003 13.258 1.995-1.708 4.24-3.172 6.186-4.91-1.67-1.287-3.41-1.797-5.965-1.031-.742.221-1.729.874-2.505.81-.875-.069-1.966-1.66-2.727-2.426-1.911-1.915-3.194-3.363-4.913-5.377-.983-1.153-2.344-2.234-2.427-4.046-.074-1.473.732-2.455.879-3.678.197-1.581-.491-2.98-.658-4.345-2.845-1.606-7.002-2.48-11.365-2.028v.024zm13.919 3.236c.025.663.364 2.082.295 3.015-.103 1.473-1.017 2.603-.884 3.757.103.849 1.282 1.964 1.842 2.651 2.069 2.426 4.27 4.709 6.481 6.845 1.503-.54 3.12-1.237 4.913-1.105 2.039.143 3.611 1.474 4.859 2.353 1.73-1.218 3.321-2.569 5.007-3.826-2.673-3.486-5.429-7.056-8.171-10.743-.255-.344-.919-1.537-1.105-1.547-.187-.01-1.705 1.964-1.99 2.209a3.931 3.931 0 01-2.575.953c-1.316-.113-3.031-1.385-4.348-2.131-1.607-.948-2.899-1.694-4.324-2.455v.024zm73.344 65.991c-5.723 0-11.3.122-17.009.147.058 1.038.181 2.071.369 3.093 5.512-.181 11.241-.147 16.704-.368v-2.652c.02-.103.02-.206-.064-.22zm-16.419 5.371c.393 1.901-.752 3.084-1.695 4.272-1.037 1.307-2.049 2.343-3.607 2.947 2.609.982 4.398 2.764 6.112 4.635 3.744-.079 7.301-.354 11.045-.442a24.355 24.355 0 014.422-5.814c.088-1.851.074-3.8.147-5.666a.204.204 0 00-.147-.221c-5.375.152-10.809.24-16.277.289zm-17.737 15.974c11.345-.167 22.458-.57 33.798-.737.088-2.023.118-4.105.147-6.182-.177-.118-.363.201-.442.295a15.46 15.46 0 00-1.174 1.841c-.452.737-.983 2.028-1.695 2.279-.791.279-2.226.181-3.169.22-2.275.104-4.098.192-6.481.295-1.051.044-2.383.285-3.238.074-.609-.148-1.282-1.247-1.768-1.768a15.862 15.862 0 00-1.769-1.689c-1.312-.982-3.415-1.473-4.859-2.062-.069-.03-.138-.192-.295-.148-1.68.491-3.822 1.13-5.08 1.989-1.911 1.296-2.899 3.629-3.975 5.593z" fill="#6A7077"/><path fill-rule="evenodd" clip-rule="evenodd" d="M301.94 131.185c-.423-.128-.958.093-1.695.147-1.194.094-2.545-.122-2.575.982-.054 1.714 4.835 1.071 4.914-.147a.78.78 0 00-.644-.982zm-21.796 3.093c1.853.202 3.14-.78 5.007-.81-.069.707-.673 1.252-1.843 1.4-1.169.147-2.604-.369-2.358 1.026.27 1.507 4.098.314 4.717-.147.909-.673 1.277-1.601 1.253-2.947-.58-1.669-3.223-.869-4.938-.442-1.395.354-2.914.619-1.838 1.92z" fill="#6A7077"/><path fill-rule="evenodd" clip-rule="evenodd" d="M302.519 341.525a6.38 6.38 0 01-3.942 5.897 6.389 6.389 0 01-8.709-4.652 6.378 6.378 0 012.716-6.553 6.391 6.391 0 018.065.794 6.385 6.385 0 011.87 4.514zm32.776 0a6.38 6.38 0 01-3.943 5.897 6.385 6.385 0 01-6.961-1.384 6.385 6.385 0 01-1.384-6.956 6.392 6.392 0 0110.417-2.071 6.381 6.381 0 011.871 4.514zm13.845 0a6.38 6.38 0 01-3.942 5.897 6.388 6.388 0 01-8.346-8.34 6.391 6.391 0 0110.418-2.071 6.38 6.38 0 011.87 4.514zm-30.196 0a6.38 6.38 0 01-3.943 5.897 6.385 6.385 0 01-6.96-1.384 6.378 6.378 0 01.968-9.821 6.391 6.391 0 018.064.794 6.381 6.381 0 011.871 4.514z" fill="#fff"/><path d="M296.113 348.851a7.336 7.336 0 01-6.773-4.523 7.32 7.32 0 011.589-7.984 7.34 7.34 0 017.989-1.588 7.33 7.33 0 014.525 6.769 7.34 7.34 0 01-7.33 7.326zm0-12.806a5.49 5.49 0 00-5.071 3.387 5.483 5.483 0 004.003 7.478 5.49 5.49 0 006.556-5.385 5.489 5.489 0 00-5.488-5.48zm32.775 12.806a7.33 7.33 0 01-7.19-8.756 7.337 7.337 0 019.995-5.339 7.332 7.332 0 014.526 6.769 7.335 7.335 0 01-7.331 7.326zm0-12.806a5.485 5.485 0 102.104 10.55 5.486 5.486 0 003.384-5.07 5.484 5.484 0 00-5.488-5.48z" fill="#6A7077"/><path d="M342.734 348.851a7.336 7.336 0 01-6.773-4.523 7.328 7.328 0 011.589-7.984 7.334 7.334 0 0111.279 1.11 7.33 7.33 0 011.235 4.071 7.33 7.33 0 01-7.33 7.326zm0-12.806a5.49 5.49 0 00-5.071 3.387 5.485 5.485 0 007.174 7.163 5.475 5.475 0 002.462-2.022 5.484 5.484 0 00-4.565-8.528zm-30.196 12.806a7.337 7.337 0 01-6.787-4.509 7.326 7.326 0 015.33-10.001 7.328 7.328 0 018.767 7.184 7.34 7.34 0 01-7.31 7.326zm0-12.806a5.487 5.487 0 00-5.383 6.556 5.49 5.49 0 009.948 1.972 5.485 5.485 0 00-4.565-8.528z" fill="#6A7077"/><path fill-rule="evenodd" clip-rule="evenodd" d="M359.842 199.429v29.221a8.836 8.836 0 01-2.59 6.25 8.846 8.846 0 01-6.254 2.589h-40.779a8.846 8.846 0 01-6.254-2.589 8.836 8.836 0 01-2.59-6.25v-29.221a8.84 8.84 0 018.844-8.839h40.779a8.84 8.84 0 018.844 8.839z" fill="#fff"/><path d="M351.003 238.402h-40.78a9.762 9.762 0 01-9.757-9.752v-29.221a9.764 9.764 0 019.757-9.757h40.78a9.778 9.778 0 016.9 2.861 9.761 9.761 0 012.862 6.896v29.221a9.767 9.767 0 01-9.762 9.752zm-40.78-46.888a7.923 7.923 0 00-7.915 7.915v29.221a7.922 7.922 0 007.915 7.911h40.78a7.927 7.927 0 007.92-7.911v-29.221a7.924 7.924 0 00-7.92-7.925l-40.78.01z" fill="#6A7077"/><path fill-rule="evenodd" clip-rule="evenodd" d="M325.203 279.09v52.26a3.537 3.537 0 01-3.532 3.536h-5.449a3.527 3.527 0 01-3.268-2.183 3.527 3.527 0 01-.269-1.353v-52.26a3.527 3.527 0 013.537-3.531h5.449a3.53 3.53 0 013.532 3.531z" fill="#6A7077"/><path fill-rule="evenodd" clip-rule="evenodd" d="M346.477 333a2.873 2.873 0 01-2.869 2.873h-48.98a2.875 2.875 0 01-1.955-4.859 2.872 2.872 0 011.955-.881h48.98a2.871 2.871 0 012.651 1.77c.144.348.218.721.218 1.097z" fill="#6A7077"/><path fill-rule="evenodd" clip-rule="evenodd" d="M300.166 333.869v2.49a3.685 3.685 0 01-1.079 2.602 3.676 3.676 0 01-2.606 1.076h-.737a3.68 3.68 0 01-3.68-3.678v-2.504a3.678 3.678 0 013.68-3.678h.737a3.669 3.669 0 012.611 1.081 3.676 3.676 0 011.074 2.611zm46.395 0v2.49a3.68 3.68 0 01-3.68 3.678h-.737a3.667 3.667 0 01-2.605-1.076 3.668 3.668 0 01-1.08-2.602v-2.504a3.673 3.673 0 013.685-3.678h.737a3.682 3.682 0 013.404 2.281c.184.447.278.927.276 1.411zm-13.624 0v2.49a3.68 3.68 0 01-3.68 3.678h-.737a3.667 3.667 0 01-2.605-1.076 3.668 3.668 0 01-1.08-2.602v-2.504a3.673 3.673 0 013.685-3.678h.737a3.674 3.674 0 013.404 2.281c.184.447.278.927.276 1.411zm-16.346 0v2.49a3.668 3.668 0 01-1.079 2.602 3.676 3.676 0 01-2.606 1.076h-.737a3.68 3.68 0 01-3.68-3.678v-2.504a3.678 3.678 0 013.68-3.678h.737a3.669 3.669 0 013.409 2.279c.184.449.278.929.276 1.413zm38.214-62.626v2.946a5.896 5.896 0 01-5.895 5.893h-61.459a5.896 5.896 0 01-5.896-5.893v-2.946a5.896 5.896 0 015.896-5.893h61.463a5.9 5.9 0 014.166 1.728 5.89 5.89 0 011.725 4.165z" fill="#6A7077"/><path fill-rule="evenodd" clip-rule="evenodd" d="M356.295 266.76v6.383a2.947 2.947 0 01-2.948 2.946h-70.033a2.947 2.947 0 01-2.948-2.946v-6.383a7.368 7.368 0 017.37-7.366h61.194a7.364 7.364 0 017.365 7.366z" fill="#fff"/><path d="M353.351 277.214h-70.038a4.056 4.056 0 01-4.053-4.051v-6.384a8.468 8.468 0 018.47-8.494h61.199a8.47 8.47 0 018.47 8.465v6.383a4.058 4.058 0 01-4.048 4.081zm-65.621-16.695a6.261 6.261 0 00-6.259 6.256v6.383a1.827 1.827 0 00.54 1.3 1.832 1.832 0 001.302.536h70.038a1.836 1.836 0 001.837-1.836v-6.383a6.258 6.258 0 00-6.259-6.256H287.73z" fill="#6A7077"/><path fill-rule="evenodd" clip-rule="evenodd" d="M350.742 223.087v2.573a7.37 7.37 0 01-7.369 7.366h-9.935a7.37 7.37 0 01-7.37-7.366v-2.573a7.364 7.364 0 017.37-7.365h9.94a7.368 7.368 0 017.364 7.365zm.06 47.611v2.946a5.894 5.894 0 01-5.896 5.892h-10.141a5.897 5.897 0 01-5.896-5.892v-2.946a5.898 5.898 0 015.896-5.893h10.141a5.894 5.894 0 015.896 5.893z" fill="#6A7077"/><path fill-rule="evenodd" clip-rule="evenodd" d="M346.404 226.024v42.916a4.93 4.93 0 01-4.936 4.932 4.935 4.935 0 01-4.935-4.932v-42.916a4.936 4.936 0 019.871 0z" fill="#fff"/><path d="M341.466 274.788a5.859 5.859 0 01-5.857-5.848v-42.912a5.857 5.857 0 0111.713 0v42.912a5.852 5.852 0 01-1.718 4.134 5.863 5.863 0 01-4.138 1.714zm0-52.776a4.02 4.02 0 00-4.014 4.016v42.912a4.012 4.012 0 004.014 4.012 4.017 4.017 0 004.014-4.012v-42.912a4.021 4.021 0 00-4.014-4.016z" fill="#6A7077"/><path fill-rule="evenodd" clip-rule="evenodd" d="M8.618 206.264l1.621 1.694 2.722.148 1.474 1.173 3.017-.952.727 1.615 1.966-.957 1.326-4.488 6.628-.369s-2.211 3.369-.81 4.42c1.4 1.05 4.569.805 7.733.515 3.164-.29 5.728-.078 4.274-4.193a212.34 212.34 0 01-2.58-7.803l2.654-10.744s6.323 18.498 13.202 31.127c6.76 12.35 6.775 13.101 6.775 13.101a59.576 59.576 0 00-2.653 9.276c-.983 4.61-.492 4.345-.492 4.345a28.14 28.14 0 005.213-1.399 19.632 19.632 0 003.538-1.768l30.638 55.129s-2.731.672-2.948 2.209c-.216 1.537 4.172 11.923 5.818 11.702a27.668 27.668 0 004.2-1.1l21.505 39.597s21.225-8.112 27.544-11.996c6.318-3.884 8.558-10.936 7.512-11.338-1.047-.403-6.707-2.784-11.124-1.763-4.417 1.021-6.829 1.311-8.76 1.247-1.931-.064-4.864-1.105-4.864-1.105l-10.17-23.992s1.503-2.028-.295-5.151a38.87 38.87 0 01-3.021-7.365l-1.622.363-20.385-52.472 1.474-.957s-.614 2.067 2.432 2.209c3.047.143 5.665.521 6.186-.368.521-.889.147-3.388.147-3.388s28.453-1.915 32.477-6.109c4.023-4.193 6.667-14.387 4.127-18.62-2.54-4.232-12.151-14.137-12.151-14.137s.983-7.856-2.432-10.375a26.163 26.163 0 00-7.586-3.678l-24.158-29.29s.462-31.917-.737-38.497c-1.199-6.58-2.982-10.312-6.628-11.854-3.645-1.542-10.897-1.91-10.897-1.91l2.78-10.533s9.37-.525 11.714-5.593c4.633-10.022-3.022-18.551-3.022-18.551s5.311-3.761-.073-8.166c-5.385-4.404-14.21-7.596-21.58-5.74-7.369 1.856-8.69 2.946-8.69 2.946s-.6-4.812-3.828-5.74c-3.228-.928-11.615 1.645-13.61 7.945-1.994 6.3-3.478 29.432-6.111 35.256-2.634 5.824-5.248 8.775-10.318 10.523-5.07 1.748-8.603 4.449-10.234 8.245-1.631 3.795-3.587 7.581-.492 10.748a19.498 19.498 0 005.965 4.341s-3.591 7.788 2.407 10.896c6 3.108 11.05 1.252 11.05 1.252a236.534 236.534 0 00-7.713 25.171c-4.04 16.616-7.07 35.698-7.07 35.698l-3.975 1.841-3.852-.648-1.4 1.4-2.207.294-2.358 6.683zm76.96-5.892l22.316 9.791-1.548 1.4s-.491-2.181-3.606-1.547c-3.115.633-6.387.952-6.48 1.841a8.257 8.257 0 01-.295 1.473l-4.275 1.326-6.112-14.284zM63.263 81.05l4.864 1.326c.875.55 1.85.924 2.869 1.1a8.534 8.534 0 003.243-.074s-1.194 12.713-3.39 13.543c-2.197.83-7.37 1.547-7.37 1.547l-.216-17.442z" fill="#fff"/><path fill-rule="evenodd" clip-rule="evenodd" d="M85.715 199.851l22.905 10.381-3.017.736 4.491 21.935s22.881-1.513 29.681-5.303c6.8-3.791 7.188-11.888 5.895-19.642-1.292-7.753-12.15-13.749-12.15-13.749a7.603 7.603 0 01-1.105 2.431c-.949 1.473-2.653-.958-2.653-.958s0 .982-2.064.442c-2.063-.54-1.71-3.437-2.869-6.476-1.16-3.04-7.159-7.729-7.861-7.508-.703.221.535 2.99.884 4.709.349 1.718-.349 2.249-1.474 2.651-1.125.403-.766-.402-.958-1.547-.192-1.144-.752-1.124-3.238-2.798-2.486-1.675-3.169-8.535-3.169-8.535l-17.628-8.686-3.017-6.771-10.608-15.326-24.708.295s-2.948 3.472-6.48 11.186c-5.154 11.254-6.85 28.19-6.85 28.19s4.545 14.834 5.67 17.289c1.126 2.456 6.879 13.479 12.706 23.482 5.827 10.002 38.225 70.144 38.225 70.144l15.54-6.771a76.076 76.076 0 017.954-3.02l-34.102-86.781zM63.007 80.22l.491 18.552a54.604 54.604 0 01-5.822 1.321c-2.329.329-5.847 2.342-8.844 8.023-2.997 5.681-7.37 25.323-7.37 25.323s-10.838 5.853-17.161-.81c-3.827-4.032-.663-9.33-.663-9.33s-7.046-.653-6.702-10.312c.344-9.658 9.684-11.873 15.172-13.91 5.488-2.039 6.024-6.473 7.861-12.002 1.837-5.529 2.457-24.488 5.522-32.825 3.066-8.338 9.7-8.515 12.485-8.034 2.786.481 4.717 5.52 4.717 5.52s1.473-1.665 10.317-3.168c8.844-1.502 16.042 3 20.694 6.335 4.653 3.334-.663 7.508-.663 7.508l-4.343-4.862s-3.985 7.366-7.291 11.044c-3.307 3.678-9.335 7.802-9.335 7.802s-2.855 0-3.828 1.321c-.972 1.321.148 4.567.148 4.567l-5.385-2.063z" fill="#fff"/><path fill-rule="evenodd" clip-rule="evenodd" d="M99.246 149.996s.855-12.005.663-17.372c-.192-5.367-.31-18.66-2.8-26.644-2.491-7.984-12.224-7.365-12.224-7.365s2.368 2.848 2.874 4.856c.506 2.008.491 3.663-2.137 6.702-2.629 3.04-4.044 2.127-8.397 1.616-4.353-.511-7.154-3.491-9.502-5.961a87.839 87.839 0 01-5.523-6.845 78.27 78.27 0 00-7.512 2.504c-3.876 1.527-5.66 6.693-7.522 10.469-13.442 27.115-19.923 58.87-19.923 58.87s1.848 3.172 7.655 3.83c5.807.658 7.075-1.547 7.075-1.547s1.12-8.632 3.44-14.794a58.51 58.51 0 017.217-13.322l24.929.663 5.031-6.202 2.28 16.563 5.227 9.128 2.506 2.647s-.525-3.968 2.506-8.608c3.031-4.641 9.792-2.505 9.792-2.505l-5.655-6.683z" fill="#6A7077"/><path fill-rule="evenodd" clip-rule="evenodd" d="M78.002 146.844l5.97-9.497s8.656.256 10.675-6.55c2.88-9.693-4.27-14.279-4.27-14.279l-3.094-7.508s-2.973 4.139-6.388 4.493c-3.414.353-9.28-3.094-9.28-3.094l-7.808 15.753-11.654 20.314 25.849.368zm15.525 21.885a5.75 5.75 0 01-.683-4.006c.649-4.047 4.506-7.749 8.559-8.186 2.123-.226 3.842.491 4.869 1.812l-12.745 10.38z" fill="#fff"/><path d="M93.527 169.834a1.106 1.106 0 01-.939-.52 6.827 6.827 0 01-.835-4.768c.728-4.537 5.007-8.623 9.532-9.104 2.417-.265 4.55.55 5.856 2.224a1.108 1.108 0 01.091 1.226 1.117 1.117 0 01-.668.52 1.095 1.095 0 01-.84-.104 1.116 1.116 0 01-.327-.281c-.835-1.076-2.206-1.567-3.876-1.39-3.543.378-7.016 3.702-7.586 7.257a4.643 4.643 0 00.53 3.251 1.11 1.11 0 01-.938 1.689zm-57.135 5.824c-2.845 0-5.896-.776-7.935-2.161-2.221-1.512-2.339-3.088-2.211-3.893.128-.806.766-2.372 3.542-3.192 3.44-1.022 8.441-.3 11.36 1.64 2.26 1.498 2.422 3.079 2.314 3.894-.109.815-.664 2.283-3.228 3.147-1.243.393-2.54.583-3.843.565zm-3.071-7.508a10.433 10.433 0 00-2.904.378c-1.366.403-1.921.982-1.965 1.419-.044.437.403 1.13 1.277 1.729 2.422 1.655 7.011 2.273 9.827 1.326 1.027-.349 1.68-.85 1.744-1.346.064-.496-.447-1.173-1.341-1.768-1.696-1.104-4.27-1.738-6.638-1.738z" fill="#6A7077"/><path fill-rule="evenodd" clip-rule="evenodd" d="M92.74 70.478l-.294 1.567a1.473 1.473 0 11-2.894-.545l.295-1.567a1.473 1.473 0 112.894.545zm-10.017 1.179l-.294 1.566a1.47 1.47 0 01-1.141 1.232 1.475 1.475 0 01-1.753-1.777l.294-1.571a1.473 1.473 0 112.894.55zm57.165 254.277c-1.656.192-5.748-1.325-5.748-1.325l-3.017-7.508-18.783 8.907 6.628 12.222s1.046-.319 3.095.879c2.049 1.198 3.68 3.903 3.68 3.903l12.892-6.383c.06-2.141.483-4.257 1.253-6.256 1.297-3.506 5.817-5.598 5.817-5.598s-4.166.968-5.817 1.159zM58.045 57.157c1.346-2.382 5.08-4.91 5.08-4.91L61.504 49.3a18.065 18.065 0 00-6.26 6.256c-2.668 4.385.221 7.14.221 7.14a50.915 50.915 0 012.58-5.54z" fill="#6A7077"/><path d="M100.808 295.706a.937.937 0 01-.815-.491c-.33-.623-33.13-62.626-41.227-76.896-17.319-30.513-17.255-46.54-17.245-47.208a.984.984 0 01.938-.903.9.9 0 01.646.279.914.914 0 01.259.653c0 .163 0 16.273 17 46.271 8.116 14.299 40.926 76.316 41.27 76.945a.921.921 0 01-.826 1.35zm7.572-74.082a1.105 1.105 0 01-.143-2.2l18.459-2.387 1.474-.844-45.958-22.789a1.107 1.107 0 01-.387-1.421 1.105 1.105 0 011.37-.543l47.8 23.702a1.098 1.098 0 01.059 1.964l-3.439 1.964a1.014 1.014 0 01-.413.143l-18.67 2.425-.152-.014z" fill="#6A7077"/><path d="M222.833 121.35l-9.247-5.338a1.116 1.116 0 00-1.105 0l-9.242 5.338a1.104 1.104 0 00-.55.982v10.67a1.113 1.113 0 00.55.957l9.242 5.333c.169.096.36.147.555.147.193 0 .383-.05.55-.147l9.247-5.333a1.115 1.115 0 00.55-.957v-10.695a1.112 1.112 0 00-.55-.957z" fill="#fff"/><path fill-rule="evenodd" clip-rule="evenodd" d="M258.959 33.813l-17.83 9.467 17.83 9.467V33.813z" fill="#fff"/><path d="M258.96 53.852a1.08 1.08 0 01-.521-.133l-17.83-9.467a1.104 1.104 0 010-1.964l17.825-9.452a1.109 1.109 0 011.626.982v18.934a1.108 1.108 0 01-1.105 1.105l.005-.005zM243.483 43.28l14.371 7.63V35.65l-14.371 7.63z" fill="#fff"/><path fill-rule="evenodd" clip-rule="evenodd" d="M119.174 71.2a9.65 9.65 0 008.918-5.95 9.638 9.638 0 00-2.088-10.511 9.655 9.655 0 00-14.848 1.459 9.636 9.636 0 00-1.627 5.358 9.66 9.66 0 009.645 9.644z" fill="#057AFF"/><path d="M119.174 72.634a11.11 11.11 0 01-10.263-6.854 11.092 11.092 0 012.408-12.099 11.112 11.112 0 0118.964 7.85 11.12 11.12 0 01-11.109 11.102zm0-19.283a8.195 8.195 0 00-7.567 5.054 8.186 8.186 0 0010.705 10.692 8.188 8.188 0 005.052-7.565 8.196 8.196 0 00-8.19-8.18z" fill="#fff"/><path d="M257.779 51.706a.894.894 0 01-.432-.108l-14.145-7.508a.924.924 0 01-.491-.813.922.922 0 01.491-.812l14.145-7.503a.92.92 0 011.351.81v15.016a.902.902 0 01-.447.786.891.891 0 01-.472.132zM245.6 43.28l11.256 5.976V37.319l-11.256 5.96z" fill="#057AFF"/><path d="M119.174 70.915a9.394 9.394 0 01-8.671-5.796 9.376 9.376 0 012.039-10.224 9.39 9.39 0 0116.026 6.637 9.389 9.389 0 01-2.754 6.634 9.405 9.405 0 01-6.64 2.75zm0-16.926a7.555 7.555 0 00-6.977 4.66 7.545 7.545 0 005.507 10.29 7.553 7.553 0 009.022-7.407 7.558 7.558 0 00-7.552-7.518v-.025z" fill="#fff"/><path d="M213.036 137.873a.903.903 0 01-.462-.123l-8.062-4.655a.92.92 0 01-.462-.8v-9.33a.92.92 0 01.462-.795l8.062-4.655a.916.916 0 01.924 0l8.087 4.674a.916.916 0 01.462.796v9.329a.935.935 0 01-.462.801l-8.063 4.655a.919.919 0 01-.486.103zm-7.144-6.109l7.144 4.125 7.144-4.125v-8.244l-7.144-4.13-7.144 4.13v8.244z" fill="#057AFF"/><path fill-rule="evenodd" clip-rule="evenodd" d="M84.398 78.173a1.037 1.037 0 00-1.326.584c-.413 1.571 1.965 2.833 3.39 2.873 1.115.03 2.825-.148 3.017-1.105.427-2.102-2.197-.84-3.386-1.105-.796-.177-.918-1.056-1.695-1.247zm-10.75.437c-.815-.187-4.063-.516-3.827 1.031.162 1.066 4.603 1.223 4.712-.074.068-.834-.521-.869-.885-.957z" fill="#6A7077"/><path fill-rule="evenodd" clip-rule="evenodd" d="M12.16 198.796c.187-.117.384-.216.59-.295.24-.079.545.025.81-.074.683-.255.983-.982 2.064-1.105a7.488 7.488 0 011.837.074c.507.157 1.024.28 1.548.368 1.032 0 2.167-.898 3.316-.736 1.474-10.906 3.042-21.517 5.223-31.574 2.182-10.056 5.306-19.401 8.544-28.259-2.068.643-4.368.31-6.387-.147-1.852-.417-3.93-1.007-5.154-2.062-2.457-2.058-4.161-6.551-2.206-10.45-3.857-1.473-6.618-4.335-6.56-9.496.06-4.616 2.58-8.412 4.914-11.039a13 13 0 014.638-3.383c1.788-.776 3.764-1.247 5.817-2.136 3.675-1.59 5.749-5.21 6.923-9.05a66.255 66.255 0 002.5-13.543c.409-4.763.664-9.79 1.696-14.279.904-3.928 2.132-8.583 4.564-11.407a12.775 12.775 0 014.79-3.236c1.882-.81 4.083-1.63 6.55-1.252 2.83.428 3.852 3.28 5.011 5.446 5.459-2.946 15.374-3.403 22.237-1.4 3.263.953 6.235 2.505 8.323 4.71.944.982 2.157 2.636 2.354 4.198.245 1.925-.447 3.52-1.396 5.077.197.393 1.042.452 1.175 1.031.162.688-.389.982 0 1.62 5.591 9.159.776 22.696-10.677 21.636-.756 3.093-1.66 6.044-2.456 9.123 8.485.491 13.938 3.683 15.982 10.528a35.939 35.939 0 011.253 7.582c.393 5.308.462 11.077.737 16.926.275 6 0 12.05-.074 17.736 6.181 7.4 12.563 14.967 18.921 22.587.889 1.061 1.744 2.456 2.727 3.163.698.52 1.538.933 2.284 1.399a48.329 48.329 0 016.388 4.562c1.356 1.218 2.5 2.391 3.09 4.198.609 1.738.565 4.125.565 6.649 0 .594.948 1.031 1.548 1.542a52.253 52.253 0 014.269 4.345c1.803 1.964 3.724 4.272 4.913 6.551a20.36 20.36 0 012.506 8.976c.162 6.845-3.306 12.389-7.733 15.089-2.491 1.518-5.405 1.837-8.981 2.5-6.216 1.154-13.345 2.067-20.326 2.651-.207.938-.28 1.645-.983 2.21-1.351 1.119-5.09 1.34-6.923 1.026a3.266 3.266 0 01-1.842-.952c-.03-.03-.192-.29-.29-.148 6.21 15.438 12.239 31.309 18.483 47.027.403 1.021.742 2.406 1.248 3.088.325.437 1.086.668 1.474 1.105 1.022 1.154 1.607 3.374 2.285 5.225.811 2.229 2.005 4.149 1.174 6.55 3.199 7.994 6.22 16.16 9.429 24.139 2.211.55 4.377 1.282 6.775.884 2.206-.368 4.299-1.124 6.387-1.546 3.513-.698 7.217.132 10.318 1.031.982.289 2.456.54 2.653 1.326.196.785-.604 2.008-1.032 2.867-1.292 2.617-2.732 5.087-4.564 6.919-1.312 1.311-2.978 2.16-4.643 3.02-7.684 3.967-15.428 7.331-23.584 10.891-.943.412-2.122 1.169-2.869 1.031-.845-.152-1.204-1.316-1.695-2.21-6.908-12.639-13.727-24.895-20.547-37.603-1.253.319-2.545 1.35-4.27.805-1.896-.599-2.775-2.872-3.753-4.856-.467-.938-.914-1.905-1.4-2.946-.447-.948-1.273-2.018-1.4-2.868-.398-2.666 2-3.054 3.39-3.825a5749.231 5749.231 0 00-29.381-53.759c-.325-.122-.678.246-.983.437-1.592 1.086-3.591 1.665-6.038 2.21-.668.147-2.206.565-2.648.074-.58-.653.255-2.947.442-3.752.86-3.791 1.582-7.591 2.5-11.186-3.439-6.643-7.09-12.816-10.676-19.209-3.586-6.393-6.81-13.106-8.057-21.699-.536 1.856-.845 3.32-1.248 5.151a8.28 8.28 0 00-.369 1.768c0 .57.565 1.345.885 2.062.319.717.574 1.503.805 2.058.57 1.365 1.332 2.867 1.474 4.272.256 2.455-.653 4.586-2.427 5.372-1.44.633-3.714.52-5.67.442-2.48-.104-6.112 0-6.775-1.842-.383-1.07.157-2.214.442-2.946-1.238.137-2.456.29-3.685.442-.162 2.652-.982 4.94-3.9 4.635a3.536 3.536 0 01-1.843-.81c-.747.069-1.425.329-2.354.221-.49-.059-.982-.555-1.695-.736-1.994-.492-4.043-.546-4.564-2.456v-1.473c.732-2.902 1.042-5.46 3.287-6.81zm24.964-64.252c2.692-7.327 5.645-15.055 8.76-22.151 1.602-3.639 3.056-7.233 5.748-9.718 2.693-2.484 6.51-3.437 10.972-4.488-.153-4.6-.398-9.776-.492-14.73.051-.654.051-1.311 0-1.965-.118-.393-1.14-.85-1.547-1.178-3.312-2.681-5.705-7.366-5.965-13.101-.31-6.251 2.177-10.744 5.34-13.69.508-.395.977-.837 1.4-1.321-1.05-1.591-1.65-4.243-3.9-4.42-2.693-.21-5.655 1.302-7.218 2.353-1.965 1.316-3.036 3.255-3.906 5.593a45.156 45.156 0 00-2.132 7.365c-.491 2.686-.786 5.569-1.032 8.46-.982 11.294-2.294 23.487-9.797 28.265-1.577 1.006-3.93 1.561-5.67 2.204a13.32 13.32 0 00-4.637 2.652 17.46 17.46 0 00-3.164 4.193c-1.047 1.837-2.148 4.061-1.917 7.214a6.587 6.587 0 003.901 5.814c.605.304 2.595.736 2.875 1.546.226.649-.35 1.64-.59 2.357a8.97 8.97 0 00-.59 2.5c0 2.131 1.2 4.34 2.727 5.298 1.337.835 3.351 1.286 5.154 1.62a9.592 9.592 0 005.68-.672zm29.454-53.523c-.653-3.526 1.19-5.981 4.712-5.446.491.069 1.071.418 1.474.368.62-.078 1.828-1.605 2.457-2.21a78.028 78.028 0 0012.076-15.452c.526-.874 1.135-2.534 1.966-2.578 1.424-.069 1.267 1.866.442 2.504 1.174 1.302 2.358 2.598 3.537 3.9 2.491-4.48-2.319-7.764-5.449-9.272-6.131-2.946-17.117-2.946-23.2 0a13.973 13.973 0 00-7.065 8.24c-1.474 4.36-.806 9.109.88 12.806a12.277 12.277 0 008.17 7.14zm-2.432 18.988c.315.751.983 1.346 1.548 1.964a45.425 45.425 0 011.695 1.989c1.056 1.301 1.906 2.877 3.164 4.12 1.258 1.242 3.046 1.964 4.864 2.578 2.108.731 5.562 1.826 7.655.663 1.297-.722 3.518-2.844 3.758-4.709.197-1.547-.49-3.05-1.031-4.12a20.911 20.911 0 00-1.966-3.094c-1.306-.245-3.168.128-3.439-1.03-.172-.693.359-1.94.59-2.8.678-2.553 1.538-5.602 2.132-7.945-1.027-.196-2.137-.24-2.206-1.252-.128-1.797 1.995-.86 3.09-.663 6.987 1.252 11.728-3.496 12.15-9.786.232-3.437-.76-6.163-2.058-8.613-.255-.49-.638-1.448-1.105-1.694-1.587-.83-4.088 1.14-4.49 2.062-1.057 2.411.982 4.69 2.353 5.593.49.314 1.572.634 1.695 1.4.122.766-.448 1.36-.737 1.841-.29.481-.595 1.159-1.327 1.179-1.322.03-1.268-1.552-.491-2.357-.875-.855-1.911-1.316-2.575-2.284-1.263-1.836-1.774-4.91-.516-6.84.934-1.434 2.54-2.381 4.49-2.799a11.159 11.159 0 00-2.795-3.162c-3.542 6.109-8.131 11.215-13.034 16.116-.678.677-1.474 1.66-2.359 1.767-1.115.133-2.864-1.1-3.974-.225-.58.461-.767 1.915-.492 2.725.35 1.149 1.995 1.807 3.09 2.136 1.239.368 3.661.324 3.833 1.542.108.81-.334 2.249-.516 3.314-.535 3.133-1.061 6.703-2.358 9.124-1.543 2.715-5.449 2.386-8.638 3.28v-.02zm.148-17.589c-.025 4.955.334 10.165.442 15.222 1.832-.731 4.299-.22 5.596-1.325.983-.835 1.518-3.673 1.843-5.151a76.171 76.171 0 001.031-5.893c-1.808-.324-3.478-.79-4.712-1.694-1.763.01-2.933-.594-4.2-1.14v-.019zm-2.796 18.169c-4.525 1.139-8.613 2.725-10.602 6.383 3.026 2.411 6.387 4.419 8.907 7.503 1.75 2.131 3.012 5.185 4.053 8.318.33 1.007.88 2.323.806 3.241-.054.707-.747 1.733-1.174 2.499-3.002 5.402-6.25 10.97-8.986 16.268h23.047c1.823-2.416 2.983-4.296 4.717-6.771.467-.673 1.14-1.807 1.764-2.062.624-.256 1.548-.251 2.21-.369 5.027-.893 9.267-4.223 8.845-10.596-.236-3.575-2.02-5.775-3.975-7.95-.403-.447-1.032-.943-1.032-1.547 0-.879 1.106-1.542 1.548-1.964 1.346-1.345 2.147-2.278 3.385-3.683.427-.491 1.474-1.38 1.548-1.915.068-.726-.983-2.327-1.4-2.946-1.799-2.652-4.28-4.301-7.803-5.004-.584-.117-.491 0-.22.491 1.016 1.906 2.613 4.95 1.473 7.724-.924 2.244-3.71 5.402-6.628 5.741-3.179.358-6.112-.761-8.323-1.616a13.01 13.01 0 01-4.859-3.093c-1.326-1.375-2.265-3.025-3.532-4.488-1.268-1.464-2.378-2.775-3.769-4.135v-.029zm-11.487 8.092a404.074 404.074 0 00-15.983 40.996c-4.75 14.353-7.197 30.361-9.497 47.321 1.332.285 4.614-.353 4.86 1.179.329 2.038-2.948 1.021-4.422.982-1.966-.093-4.422 0-5.228.81-.933.894-.89 3.113-.884 4.267a14.193 14.193 0 00.59 4.488c1.503.246 1.473-1.659 1.694-3.162.221-1.503.108-3.462 1.396-3.462.855 0 1.154.786 1.031 1.915 1.867-.064 4.25-1.016 5.818-.221 1.405-.201 5.198-.893 5.227.884.04 2.028-3.4.462-5.006 1.252-.727.354-.82 1.007-1.106 1.91 1.545.367 3.13.541 4.717.516 2.103.039 4.702.437 5.522-.81.393-.599.492-1.964.369-2.721a17.357 17.357 0 00-.983-2.946c-.368-.923-.766-2.214-1.179-2.646-.413-.433-1.155-.31-1.327-.958-.137-.525.256-1.802.443-2.652 2.456-10.842 4.716-21.34 7.173-32.157.383-1.67.565-3.438 1.105-4.911.492-1.316 1.474-2.764 2.28-4.193 4.992-9.016 9.88-17.756 14.95-26.884.389-.698 1.067-1.611 1.106-2.058.054-.697-.6-1.964-.884-2.799-.953-2.705-2.073-5.278-3.68-7.139-2.5-2.888-5.282-4.758-8.102-6.772v-.029zm47.127 1.547c-1.7 1.561-2.731 3.795-4.49 5.298 3.124 3.01 5.984 8.603 3.975 14.353-1.646 4.709-5.823 7.596-11.561 8.097-.383.795-1.317 1.286-1.474 2.131-.182.982.31 3.108.442 4.198.491 4.199 1.243 8.122 2.506 11.26 1.877 4.679 4.117 8.347 6.26 12.069a255.849 255.849 0 0113.265 6.919c.589.382 1.203.725 1.837 1.026.32.123.894.054 1.179.221.728.433 1.293 3.801 1.622 4.714a14.175 14.175 0 002.211 4.12c1.262 1.473 2.918 2.337 3.532 4.488 1.499-1.596-.344-2.912-.884-4.635-.423-1.351-.58-3.722.958-3.825 1.214-.084 2.864 1.964 3.533 2.646 2.097 2.097 4.421 3.988 5.669 6.698.334.72.63 1.458.885 2.21.491 1.473.869 2.833 2.284 3.162-.137-3.599-.226-6.791-1.4-9.565-.393-.933-2.049-3.349 0-3.389 1.233 0 1.558 1.616 1.916 2.431 1.16 2.661 1.425 5.441 1.622 9.197.029.56-.104 1.606.442 1.694.668.113.707-1.203.806-1.91.363-2.568.53-6.099-.443-8.023-.972-1.925-3.218-3.408-5.006-4.709-1.965-1.434-4.167-2.456-5.896-3.757-1.017-.756-1.936-2.175-2.869-3.309-6.432-7.808-13.29-15.674-19.516-23.477.285-10.012.08-20.726-.442-30.616-.181-3.349-.226-6.712-.963-9.688v-.029zm-15.461 32.604c-.983 1.179-1.754 2.568-2.727 3.752 1.341 1.851 2.736 3.643 4.048 5.519-.457-2.769-1.061-6.02-1.321-9.241v-.03zm-5.233 4.12c-7.812-.034-15.53.034-23.264.074-1.72 3.054-3.356 6.074-5.085 9.202-.54.982-1.474 2.101-1.769 3.162-.56 2.008-.943 4.139-1.395 6.256-1.1 5.121-2.285 10.312-3.44 15.605-.23 1.036-.702 2.411-.658 3.089.098.327.219.647.364.957.275.982.378 2.234.59 3.31.84 4.232 1.91 8.671 3.39 12.275 2.034 4.994 4.795 9.384 7.212 13.691 15.03 26.741 29.617 54.303 44.405 80.809 3.518-1.586 7.026-3.108 10.529-4.64 3.503-1.532 7.021-3.177 10.903-4.267-11.477-29.507-23.584-60.28-35.375-90.228-1.115-2.838-2.6-6.472-3.828-9.639-.397-1.031-1.144-2.563-1.105-3.314.04-.752.693-1.292 1.18-1.911.982-1.242 1.66-2.116 2.726-3.461.457-.585.983-1.4 1.764-1.326a1.107 1.107 0 01.884.663c.295 1.154-1.518 2.715-1.99 3.314-.953 1.213-1.572 2.023-2.28 2.946a5971.89 5971.89 0 005.896 15.016c10.018 4.646 20.94 9.536 31.297 14.348 1.111.521 3.975 1.297 3.975 2.505 0 1.964-2.697.456-3.532.073-2.01-.923-3.351-1.522-5.375-2.43-.89-.398-1.926-1.154-2.654-1.248-1.12-.147-1.763.56-2.869.491a105.953 105.953 0 013.606 19.642c6.181-.722 12.745-1.139 18.631-2.279 3.086-.599 6.265-.824 8.618-1.841 4.368-1.885 7.699-6.963 7.949-12.88.128-3.059-.825-6.025-1.965-8.465-1.606-3.364-4.422-6.158-6.849-8.839a11.889 11.889 0 00-2.751-2.18c-.241 1.09-.413 2.121-1.327 2.431-.81.27-1.719-.118-2.574-.148-.492 0-1.027.138-1.4.074a5.578 5.578 0 01-3.391-2.357c-.982-1.566-1.179-3.644-2.206-5.298-1.316-2.117-3.041-3.688-4.785-5.299-.172-.157-.491-.608-.663-.441.457.888 1.38 1.792 1.4 3.24 0 1.842-1.474 4.042-2.874 4.046-1.607 0-2.133-2.268-2.874-3.314-.541-.761-1.298-1.287-1.966-2.057-1.808-2.043-3.07-5.196-3.832-8.245-4.545-2.804-9.365-5.22-14.356-7.729-.718-.358-1.617-.609-2.064-1.026-.59-.56-1.179-2.028-1.695-2.946-.6-1.071-1.302-1.93-1.764-2.799-3.233-6.03-7.38-11.397-11.364-16.582v-.03zm-60.82 52.58c-1.066 2.013-.732 6.251-.221 8.608a6.99 6.99 0 001.542-.221c-.314-2.691-.412-6.167.443-8.313a4.102 4.102 0 00-1.764-.074zm-2.727 1.473c-1.219 1.287-1.602 3.403-1.916 5.593a4.074 4.074 0 001.965.663 34.495 34.495 0 01-.05-6.261v.005zm74.45.516c1.306 3.967 3.114 8.077 4.637 12.069 1.022-.132 1.966-.319 2.948-.515-.668-1.881 1.602-2.067 3.385-2.573 1.877-.535 4.142-1.272 6.26-.663.693.196 1.194.83 1.769.442-6.274-2.986-12.71-5.804-19-8.765v.005zm9.865 11.554c1.72 7.483 3.272 15.129 5.596 22.008 1.626.349 4.348.211 5.67-.442a97.692 97.692 0 00-2.575-17.957c-.353-1.473-.908-4.522-2.21-4.783-2.128-.442-4.58.717-6.48 1.169v.005zm-4.422 2.578c2.221 5.676 4.422 11.392 6.702 16.999.31-.196.059-.726 0-.982-1.386-5.126-2.796-10.989-4.054-16.263 0-.103 0-.206-.073-.221-.845.172-1.68.344-2.57.462l-.005.005zm-32.85 17.142c-.982 3.383-1.65 7.081-2.426 10.67 2.653-.491 5.139-1.144 6.77-2.647-1.395-2.715-2.914-5.318-4.343-8.023zm33.582 66.604c.919 2.705 2.191 4.954 3.533 7.508.393.746.919 1.821 1.695 1.915.88.103 2.506-.81 3.385-1.179 3.14-1.316 6.358-2.779 9.335-4.124 4.363-1.965 8.51-3.796 12.224-5.741-.575-1.998-1.616-4.768-2.506-7.061-.339-.879-.624-1.964-1.4-2.136a5.223 5.223 0 00-2.427.295c-1.965.624-4.009 1.699-6.038 2.573-5.842 2.529-12.435 5.19-17.79 7.95h-.01zm10.637 9.712c2.712 5.191 5.601 10.204 8.323 15.385 5.788-2.75 11.453-5.628 17.231-8.392-1.995-5.289-4.014-10.562-6.112-15.748-6.422 3.001-12.956 5.868-19.442 8.755zm9.424 17.3c1.739 3.29 3.567 6.496 5.306 9.786 3.439.825 5.331 3.206 7.065 5.74 3.867-1.925 7.64-3.928 11.418-5.961-.137-4.601 1.936-7.366 4.123-9.418a14.447 14.447 0 01-4.786-.491c-1.125-.26-2.628-.393-3.316-.982-.688-.589-1.057-2.234-1.474-3.315-.55-1.429-.924-2.592-1.396-3.604-5.728 2.666-11.32 5.495-16.965 8.245h.025zm7.119 12.894c1.194 2.662 2.874 5.47 4.348 8.092 7.036-2.848 14.386-6.476 21.279-9.712 2.349-1.105 4.835-2.146 6.775-3.536 2.673-1.905 3.764-5.214 5.449-8.018-3.002-1.1-6.613-1.964-10.318-1.179a13.36 13.36 0 00-2.21.491c-.713.344-1.474 1.297-2.138 1.91-2.142 1.935-4.191 3.929-4.422 7.656-.029.535.177 1.311 0 1.915-.28.982-2.387 1.654-3.311 2.136-3.135 1.615-5.734 3.064-8.844 4.635-.584.295-1.346.796-1.911.737-.983-.108-1.734-1.906-2.285-2.652a9.918 9.918 0 00-2.412-2.475z" fill="#6A7077"/></g><defs><clipPath id="clip0_367_10425"><path fill="#fff" d="M0 0h403.24v350H0z"/></clipPath></defs></svg>