<svg width="589" height="597" fill="none" xmlns="http://www.w3.org/2000/svg"><path opacity=".34" fill-rule="evenodd" clip-rule="evenodd" d="M537.778 351.972c60.862-60.862 60.862-159.538 0-220.4-60.862-60.862-159.539-60.862-220.401 0-60.862 60.862-60.862 159.538 0 220.4 60.862 60.862 159.539 60.862 220.401 0zm.961.961c61.393-61.392 61.393-160.93 0-222.322-61.393-61.393-160.93-61.393-222.323 0-61.392 61.392-61.392 160.93 0 222.322 61.393 61.393 160.93 61.393 222.323 0z" fill="#6A7077"/><path d="M413.078 230.189c.262-.113.567-.188.913-.223.503-.057.878-.177 1.126-.361.191-.389.287-1.38.287-2.973v-1.677l.021-1.009-.021-.743.021-1.37-.032-3.451c0-.389-.057-.644-.17-.764-.163-.177-.594-.34-1.295-.489-.29-.063-.467-.12-.531-.169-.064-.057-.103-.16-.117-.308.163-.036.276-.053.34-.053h.754l.393-.011c.261 0 .552.028.87.085.651.042 1.32.064 2.007.064.198 0 .481-.011.849-.032a40.95 40.95 0 012.103-.085c.856 0 1.663.085 2.42.255.765.169 1.551.484 2.358.945.502.29 1.015.75 1.539 1.38a6.608 6.608 0 011.2 2.049c.276.736.414 1.568.414 2.495 0 .828-.152 1.649-.457 2.463a6.484 6.484 0 01-1.252 2.124c-.538.595-1.083 1.044-1.636 1.348-.552.298-1.394.556-2.527.775-.467.085-1.306.128-2.516.128-.8 0-1.451-.025-1.954-.074a4.4 4.4 0 00-.637-.043.717.717 0 00-.116.011l-4.332.074-.022-.085a.313.313 0 01-.021-.117l.021-.159zm5.405-.414a5.021 5.021 0 001.635.276c.715 0 1.416-.11 2.102-.329a6.078 6.078 0 001.816-.945 5.874 5.874 0 001.306-1.38c.339-.517.58-.981.722-1.391.198-.602.297-1.384.297-2.347 0-.92-.195-1.854-.584-2.803-.269-.658-.743-1.288-1.423-1.89a6.207 6.207 0 00-2.389-1.316 10.097 10.097 0 00-2.983-.425c-.736 0-1.281.081-1.635.244a1.41 1.41 0 00-.128.149c-.042.177-.063.34-.063.488a81.486 81.486 0 01.042 2.304l-.011 2.41c0 3.54.064 5.511.191 5.914.135.397.503.744 1.105 1.041zm11.403-12.529v-.329c.12-.028.216-.046.287-.053l.998-.053a62.86 62.86 0 012.782-.17c.41-.014 1.058-.021 1.943-.021 1.203 0 2.084.088 2.643.265.814.262 1.42.658 1.816 1.189.403.524.605 1.108.605 1.752 0 1.048-.747 1.929-2.24 2.644l-.053.085c.764.205 1.391.492 1.879.86a3.75 3.75 0 011.126 1.348c.191.39.286.899.286 1.529 0 1.055-.481 1.996-1.444 2.825-.955.821-2.275 1.231-3.96 1.231h-1.582l-1.603.053c-1.416.015-2.244.022-2.485.022-.248 0-.492-.011-.733-.032v-.117c0-.085.018-.145.054-.181.042-.042.123-.077.244-.106.885-.184 1.384-.308 1.497-.371a.535.535 0 00.244-.329c.085-.284.127-1.013.127-2.188 0-.106-.003-.24-.01-.403a52.755 52.755 0 01-.021-.818v-1.104c0-1.869-.022-3.5-.064-4.895l-.011-2.134-.01-.265a17.158 17.158 0 00-1.593-.159 3.74 3.74 0 01-.722-.075zm4.215 5.373c.354.07.726.106 1.115.106 1.529 0 2.566-.336 3.111-1.009.545-.672.818-1.341.818-2.007 0-.297-.05-.598-.149-.902a1.966 1.966 0 00-.51-.839 2.194 2.194 0 00-.902-.552 5.948 5.948 0 00-1.89-.308c-.602 0-1.161.067-1.678.202-.007.149-.01.258-.01.329 0 .071.007.273.021.605.007.213.011.425.011.637l-.032 1.285.01.764.075 1.498.01.191zm2.495 7.22c.701-.05 1.289-.199 1.763-.446.219-.114.478-.315.775-.605.304-.298.538-.652.701-1.062.17-.411.255-.807.255-1.189 0-.291-.061-.648-.181-1.073a2.696 2.696 0 00-.595-1.115c-.276-.325-.69-.591-1.242-.796a5.055 5.055 0 00-1.826-.318c-1.288 0-2.01.024-2.166.074a9.556 9.556 0 00-.011.361l.011.393-.011.796v.903c.022 1.663.061 2.647.117 2.951.057.305.248.566.574.786.332.219.944.333 1.836.34z" fill="#057AFF"/><path d="M388.243 252.764a1.818 1.818 0 00-.845-1.367c-.495-.324-1.101-.486-1.819-.486-.525 0-.984.085-1.378.255-.39.17-.695.403-.915.7a1.679 1.679 0 00-.325 1.014c0 .317.076.589.226.817.155.223.352.411.591.561.239.147.49.269.753.365.262.093.504.168.724.226l1.204.324c.309.081.653.193 1.031.336.382.143.747.338 1.095.585.351.243.641.556.869.938.227.383.341.852.341 1.408 0 .641-.168 1.22-.504 1.737-.332.517-.818.929-1.459 1.234-.637.305-1.411.457-2.322.457-.85 0-1.585-.137-2.207-.411-.618-.274-1.104-.656-1.459-1.147a3.263 3.263 0 01-.597-1.708h1.483c.038.448.189.818.451 1.112a2.45 2.45 0 001.008.648c.409.139.85.209 1.321.209.548 0 1.04-.089 1.476-.266.437-.182.782-.433 1.037-.753.255-.325.382-.703.382-1.135 0-.394-.11-.715-.33-.962a2.41 2.41 0 00-.869-.602 9.063 9.063 0 00-1.164-.406l-1.459-.417c-.927-.266-1.66-.646-2.201-1.14-.54-.495-.811-1.141-.811-1.941 0-.664.18-1.243.539-1.737a3.575 3.575 0 011.459-1.158c.614-.278 1.3-.417 2.056-.417.765 0 1.444.137 2.039.411.595.27 1.066.641 1.413 1.112a2.77 2.77 0 01.556 1.604h-1.39zm8.222 5.189h1.576l1.32 1.738.348.463 1.969 2.618h-1.575l-1.298-1.738-.324-.44-2.016-2.641zm5.699-2.224c0 1.251-.226 2.332-.677 3.243-.452.912-1.072 1.614-1.859 2.109-.788.494-1.688.741-2.699.741-1.012 0-1.911-.247-2.699-.741-.788-.495-1.407-1.197-1.859-2.109-.452-.911-.678-1.992-.678-3.243s.226-2.332.678-3.243c.452-.911 1.071-1.614 1.859-2.108s1.687-.741 2.699-.741c1.011 0 1.911.247 2.699.741.787.494 1.407 1.197 1.859 2.108.451.911.677 1.992.677 3.243zm-1.39 0c0-1.027-.172-1.893-.515-2.6-.34-.707-.801-1.241-1.384-1.604a3.59 3.59 0 00-1.946-.545 3.62 3.62 0 00-1.952.545c-.579.363-1.04.897-1.384 1.604-.34.707-.51 1.573-.51 2.6 0 1.027.17 1.894.51 2.601.344.706.805 1.241 1.384 1.604a3.619 3.619 0 001.952.544c.718 0 1.367-.181 1.946-.544.583-.363 1.044-.898 1.384-1.604.343-.707.515-1.574.515-2.601zm3.805 5.931v-11.861h1.437v10.587h5.513v1.274h-6.95zm11.027-1.622l-.093.626c-.065.44-.166.911-.301 1.413-.131.502-.268.975-.411 1.419-.143.444-.26.797-.353 1.059h-1.043c.051-.247.116-.573.197-.978.081-.406.162-.859.244-1.361.084-.498.154-1.008.208-1.529l.07-.649h1.482zm16.71-10.239v11.861h-1.39l-6.463-9.313h-.116v9.313h-1.436v-11.861h1.39l6.486 9.336h.116v-9.336h1.413zm6.302 12.046c-.803 0-1.507-.191-2.113-.573-.603-.383-1.074-.917-1.414-1.605-.336-.687-.503-1.49-.503-2.409 0-.926.167-1.735.503-2.426.34-.691.811-1.228 1.414-1.61.606-.383 1.31-.574 2.113-.574.803 0 1.506.191 2.108.574.607.382 1.078.919 1.414 1.61.339.691.509 1.5.509 2.426 0 .919-.17 1.722-.509 2.409a3.841 3.841 0 01-1.414 1.605c-.602.382-1.305.573-2.108.573zm0-1.228c.61 0 1.112-.156 1.506-.469.394-.313.685-.724.875-1.233a4.73 4.73 0 00.283-1.657c0-.594-.094-1.148-.283-1.662a2.812 2.812 0 00-.875-1.245c-.394-.317-.896-.475-1.506-.475s-1.112.158-1.505.475a2.804 2.804 0 00-.875 1.245 4.779 4.779 0 00-.284 1.662c0 .595.095 1.147.284 1.657.189.509.481.92.875 1.233.393.313.895.469 1.505.469zm12.789-7.853a1.818 1.818 0 00-.845-1.367c-.494-.324-1.101-.486-1.819-.486-.525 0-.984.085-1.378.255-.39.17-.695.403-.915.7a1.685 1.685 0 00-.324 1.014c0 .317.075.589.225.817.155.223.352.411.591.561.239.147.49.269.753.365.263.093.504.168.724.226l1.205.324c.308.081.652.193 1.03.336.383.143.747.338 1.095.585.351.243.641.556.869.938.227.383.341.852.341 1.408 0 .641-.168 1.22-.503 1.737-.333.517-.819.929-1.46 1.234-.637.305-1.411.457-2.322.457-.85 0-1.585-.137-2.207-.411-.618-.274-1.104-.656-1.459-1.147-.352-.49-.55-1.06-.597-1.708h1.483c.038.448.189.818.452 1.112a2.44 2.44 0 001.007.648c.41.139.85.209 1.321.209.548 0 1.04-.089 1.477-.266.436-.182.781-.433 1.036-.753.255-.325.382-.703.382-1.135 0-.394-.11-.715-.33-.962a2.415 2.415 0 00-.868-.602 9.063 9.063 0 00-1.164-.406l-1.46-.417c-.927-.266-1.66-.646-2.201-1.14-.54-.495-.81-1.141-.81-1.941 0-.664.179-1.243.538-1.737.363-.498.85-.884 1.46-1.158.613-.278 1.299-.417 2.056-.417.764 0 1.444.137 2.038.411.595.27 1.066.641 1.413 1.112.352.471.537 1.006.556 1.604h-1.39zm8.223 5.189h1.575l1.32 1.738.348.463 1.969 2.618h-1.575l-1.298-1.738-.324-.44-2.015-2.641zm5.698-2.224c0 1.251-.225 2.332-.677 3.243-.452.912-1.072 1.614-1.859 2.109-.788.494-1.687.741-2.699.741-1.012 0-1.911-.247-2.699-.741-.787-.495-1.407-1.197-1.859-2.109-.452-.911-.677-1.992-.677-3.243s.225-2.332.677-3.243c.452-.911 1.072-1.614 1.859-2.108.788-.494 1.687-.741 2.699-.741 1.012 0 1.911.247 2.699.741.787.494 1.407 1.197 1.859 2.108.452.911.677 1.992.677 3.243zm-1.39 0c0-1.027-.171-1.893-.515-2.6-.34-.707-.801-1.241-1.384-1.604a3.59 3.59 0 00-1.946-.545 3.62 3.62 0 00-1.952.545c-.579.363-1.04.897-1.384 1.604-.34.707-.51 1.573-.51 2.6 0 1.027.17 1.894.51 2.601.344.706.805 1.241 1.384 1.604a3.619 3.619 0 001.952.544c.718 0 1.367-.181 1.946-.544.583-.363 1.044-.898 1.384-1.604.344-.707.515-1.574.515-2.601zm3.805 5.931v-11.861h1.437v10.587h5.513v1.274h-6.95z" fill="#fff"/><path opacity=".34" fill-rule="evenodd" clip-rule="evenodd" d="M349.061 540.69c60.862-60.862 60.862-159.539 0-220.401-60.862-60.862-159.539-60.862-220.401 0-60.862 60.862-60.862 159.539 0 220.401 60.862 60.862 159.539 60.862 220.401 0zm.961.961c61.393-61.393 61.393-160.93 0-222.323-61.393-61.392-160.93-61.392-222.323 0-61.393 61.393-61.393 160.93 0 222.323s160.93 61.393 222.323 0z" fill="#6A7077"/><path d="M197.849 406.155v-.329c.12-.029.216-.046.286-.053l.998-.053a63.05 63.05 0 012.782-.17 62.82 62.82 0 011.943-.022c1.204 0 2.085.089 2.644.266.814.262 1.419.658 1.816 1.189.403.524.605 1.108.605 1.752 0 1.048-.747 1.929-2.241 2.644l-.053.085c.765.205 1.391.492 1.88.86.488.368.863.817 1.125 1.348.191.389.287.899.287 1.529 0 1.055-.481 1.996-1.444 2.824-.956.821-2.276 1.232-3.961 1.232h-1.582l-1.603.053c-1.415.014-2.244.021-2.484.021-.248 0-.492-.01-.733-.032v-.116c0-.085.018-.145.053-.181a.533.533 0 01.244-.106c.885-.184 1.384-.308 1.497-.372a.531.531 0 00.245-.329c.085-.283.127-1.012.127-2.187 0-.106-.003-.241-.011-.403a53.087 53.087 0 01-.021-.818v-1.104c0-1.869-.021-3.501-.063-4.895l-.011-2.134-.011-.266a17.456 17.456 0 00-1.592-.159 3.741 3.741 0 01-.722-.074zm4.215 5.372c.354.071.725.107 1.115.107 1.529 0 2.566-.337 3.111-1.009.545-.673.817-1.341.817-2.007 0-.297-.049-.598-.148-.902a1.96 1.96 0 00-.51-.839 2.204 2.204 0 00-.903-.552 5.912 5.912 0 00-1.89-.308c-.601 0-1.16.067-1.677.202a7.915 7.915 0 00-.011.329c0 .071.007.272.022.605.007.212.01.425.01.637l-.032 1.285.011.764.074 1.497.011.191zm2.495 7.22c.701-.049 1.288-.198 1.762-.446.22-.113.478-.315.776-.605.304-.297.538-.651.7-1.062.17-.41.255-.806.255-1.189 0-.29-.06-.647-.18-1.072a2.713 2.713 0 00-.595-1.115c-.276-.326-.69-.591-1.242-.796a5.034 5.034 0 00-1.826-.319c-1.289 0-2.011.025-2.166.075a9.498 9.498 0 00-.011.361l.011.392-.011.797v.902c.021 1.664.06 2.648.117 2.952.056.304.248.566.573.786.333.219.945.332 1.837.339zm15.013-.881a.551.551 0 01.064.202c0 .106-.085.294-.255.563-.219.353-.463.612-.732.775-.17.106-.404.159-.701.159-.51 0-.892-.156-1.147-.467-.156-.184-.265-.513-.329-.988l-1.189.828c-.418.241-.736.393-.956.457a5.117 5.117 0 01-1.274.138c-.361 0-.648-.106-.86-.318-.205-.22-.308-.499-.308-.839 0-.489.297-1.073.892-1.752.602-.68 1.416-1.235 2.442-1.667.722-.304 1.164-.499 1.327-.584.014-.234.021-.488.021-.765 0-.899-.127-1.507-.382-1.826-.247-.318-.605-.478-1.072-.478-.489 0-.945.192-1.37.574-.262.24-.46.693-.594 1.359a2.242 2.242 0 01-.245.594c-.304.199-.548.298-.732.298a.708.708 0 01-.425-.138c-.071-.05-.106-.106-.106-.17 0-.184.195-.598.584-1.242.396-.652.892-1.137 1.486-1.455.602-.326 1.126-.488 1.572-.488.608 0 1.062.056 1.359.169.297.107.559.298.786.574.226.276.364.577.414.902.028.156.042.712.042 1.667l-.032 1.688.011 1.232c0 .163-.004.301-.011.414-.007.205-.01.358-.01.457 0 .233.067.421.201.562a.638.638 0 00.478.213c.269 0 .499-.135.69-.404l.128-.17a.981.981 0 01.233-.074zm-3.121-.308c.049-.899.074-1.532.074-1.9 0-.191-.011-.45-.032-.775a7.245 7.245 0 00-1.508.775c-.53.346-.952.746-1.263 1.199-.227.326-.34.634-.34.924 0 .276.092.506.276.69a.987.987 0 00.712.276c.219 0 .485-.077.796-.233.411-.205.839-.524 1.285-.956zm11.806-.191l.011.69c-.552.588-1.097.998-1.635 1.232-.538.233-1.171.35-1.901.35a3.87 3.87 0 01-2.144-.616c-.637-.417-1.129-1.005-1.476-1.762-.34-.757-.51-1.501-.51-2.23 0-.8.205-1.554.616-2.261.418-.715.966-1.246 1.646-1.593.686-.354 1.546-.531 2.58-.531.991 0 1.745.17 2.261.51.291.198.436.453.436.764a.766.766 0 01-.223.563.776.776 0 01-.574.223c-.354 0-.743-.219-1.168-.658-.261-.269-.499-.453-.711-.552a1.555 1.555 0 00-.711-.16c-.63 0-1.154.259-1.572.775-.58.737-.87 1.66-.87 2.772 0 1.146.297 2.059.891 2.739.595.679 1.289 1.019 2.082 1.019.552 0 1.04-.088 1.465-.265.432-.184.934-.521 1.507-1.009zm.861 1.943l-.022-.308a.362.362 0 01.16-.074c.049-.014.226-.032.53-.053.312-.021.507-.089.584-.202.078-.12.117-.605.117-1.455l.021-4.194-.021-.743c0-.063.007-.301.021-.711.015-.191.022-.421.022-.69l-.043-1.848.011-1.614c0-.389-.057-.637-.17-.743-.106-.113-.492-.216-1.157-.308v-.127c0-.043.003-.103.01-.181a6.283 6.283 0 001.073-.318c.162-.071.576-.29 1.242-.659h.329c-.007.163-.011.262-.011.298v.924l-.01.456.032.839-.011 1.263.011 2.103-.032 2.612v.807c0 .099.003.237.01.414l.117.01c.241 0 .485-.088.733-.265 1.111-.793 1.808-1.331 2.091-1.614.284-.29.425-.499.425-.627 0-.077-.046-.176-.138-.297a2.261 2.261 0 00-.711-.233 7.46 7.46 0 01-.255-.053 3.001 3.001 0 00-.319-.075l-.021-.106c0-.05.018-.12.053-.212a77.234 77.234 0 012.92-.064c.467 0 .966.011 1.497.032v.138a.5.5 0 01-.053.191l-.499.096c-.439.07-.771.169-.998.297-.545.29-1.108.697-1.688 1.221-.347.311-.648.573-.903.786l-.382.329c.028.049.074.109.138.18.028.028.085.092.17.191s.237.266.457.499c.764.807 1.33 1.43 1.698 1.869.121.142.255.297.404.467.552.616.874.959.966 1.03.198.128.492.227.881.297.184.036.344.068.478.096a.696.696 0 01.043.202l-.011.106a14.41 14.41 0 00-1.083-.064h-.191l-2.952.085a2.283 2.283 0 01-.233.021.654.654 0 01-.223-.042.417.417 0 01-.032-.149v-.074c.042-.064.081-.103.117-.117.7-.057 1.107-.103 1.221-.138a.346.346 0 00.18-.117c0-.12-.103-.315-.308-.584-.205-.269-.718-.86-1.539-1.773-.524-.58-.864-.916-1.02-1.009-.148-.099-.357-.148-.626-.148h-.404c-.028.255-.042.839-.042 1.752 0 .849.071 1.394.212 1.635.078.134.262.219.552.255.291.035.478.088.563.159.057.042.092.142.106.297-.424-.007-.782-.01-1.072-.01-.467 0-.977.01-1.529.031-.333.015-.595.022-.786.022-.141 0-.375-.004-.7-.011zm15.586-.17a.529.529 0 01.181-.117c.12-.035.325-.063.615-.085.687-.042 1.112-.106 1.275-.191.099-.141.148-.339.148-.594l-.01-.743.01-2.697-.021-1.274.011-2.665-.053-3.026c-.008-.722-.054-1.129-.138-1.222-.128-.134-.507-.212-1.137-.233a4.893 4.893 0 01-.711-.064c-.092-.049-.138-.113-.138-.191a.51.51 0 01.053-.202.363.363 0 01.17-.053c.099 0 .219.004.361.011.418.035.849.053 1.295.053l.786-.021 1.869.042c.934 0 1.663-.01 2.187-.032.524-.021.878-.032 1.062-.032.163 0 .566.015 1.21.043l1.508-.011.18.032.882-.032.106.053c.035.057.06.117.074.181 0 .099-.018.251-.053.456a4.14 4.14 0 00-.042.383c0 .736.024 1.359.074 1.868-.007.043-.028.071-.064.085a.674.674 0 01-.212-.031 6.126 6.126 0 01-.319-.712 7.754 7.754 0 00-.584-1.178c-.177-.298-.315-.475-.414-.531-.099-.057-.304-.085-.616-.085a95.255 95.255 0 01-1.422-.032l-3.026.064h-.266c-.389 0-.623.049-.701.148-.12.17-.18.669-.18 1.497 0 .085.018.935.053 2.549v1.475a.937.937 0 00.255.032h.18c.121 0 .298.004.531.011.368.014.616.021.743.021.085 0 .16-.003.223-.01a81.12 81.12 0 012.952-.043c.375-.064.595-.138.658-.223.107-.127.184-.46.234-.998.057-.538.177-.842.361-.913.092 0 .177.018.255.053a.67.67 0 01.021.159c0 .05-.007.131-.021.244-.036.262-.053 1.083-.053 2.464 0 .368.017.778.053 1.231.042.453.064.698.064.733 0 .064-.011.149-.032.255a.336.336 0 01-.138.042h-.075c-.113-.198-.223-.506-.329-.923-.184-.715-.379-1.161-.584-1.338-.198-.184-.524-.276-.977-.276-.099 0-.279.007-.541.021-.262.007-.651.011-1.168.011h-.69c-.984 0-1.628.021-1.933.063l-.01.351.01 1.953-.01 1.232.01 1.2c.007.722.053 1.139.138 1.253.121.155.383.233.786.233l.648-.01c.056 0 .276.007.658.021.389.007.867.01 1.433.01 1.367 0 2.276-.056 2.729-.169a2.38 2.38 0 001.115-.627c.297-.297.669-.938 1.115-1.922.134-.29.269-.435.403-.435.064 0 .135.028.213.085-.206.701-.322 1.161-.351 1.38a11.826 11.826 0 00-.138 1.519.959.959 0 01-.17.583h-.233l-2.984.032-1.338-.01-3.185.042h-1.295c-.163 0-.315.004-.457.011a71.675 71.675 0 01-2.813.085c-.107 0-.181-.018-.223-.053-.036-.036-.053-.089-.053-.16l.01-.106zm14.143-.17c.177-.049.382-.092.616-.127.446-.064.711-.138.796-.223.092-.085.138-.28.138-.584l.021-.382c.007-.142.011-.322.011-.542l-.021-3.259c0-.439-.057-.722-.17-.85-.191-.198-.545-.336-1.062-.414v-.382c.517-.142.913-.326 1.189-.552.404-.319.743-.751 1.019-1.296l.361.011c.022.333.032.57.032.711v.701l.011.191c.085-.056.184-.127.297-.212.425-.319.86-.577 1.306-.775a6.137 6.137 0 011.189-.425 3.02 3.02 0 01.744-.085c.58 0 1.079.156 1.497.467.417.312.686.68.807 1.105.127.417.191 1.253.191 2.505v1.604c0 .042-.007.184-.022.424-.007.241-.01.517-.01.829 0 .495.021.81.064.945.035.092.127.184.276.276.679.092 1.076.201 1.189.329v.085c0 .07-.021.159-.064.265h-.202l-1.401-.011-1.38.022c-.51.014-.981.01-1.413-.011l-.063-.223c0-.042.024-.099.074-.17.191-.085.46-.141.807-.17.205-.014.347-.035.425-.063.078-.029.173-.085.286-.17.085-.17.128-.312.128-.425 0-.049-.007-.149-.021-.297-.022-.326-.036-1.136-.043-2.432v-.552l.021-.849c0-.913-.184-1.543-.552-1.89-.368-.347-.86-.52-1.476-.52a3.25 3.25 0 00-1.391.318c-.453.205-.891.517-1.316.935a21.55 21.55 0 00-.021.87l.031 2.347c0 1.224.018 1.975.054 2.251.014.113.038.191.074.233.056.057.17.103.34.138a8.3 8.3 0 01.584.149c.226.064.375.102.446.117.141.035.237.106.286.212l-.01.212h-1.115l-2.294-.032c-.531.015-.867.022-1.008.022h-.266l-.021-.138c0-.05.011-.121.032-.213zm18.453-7.368l.011-.308-.011-1.242.011-2.347c0-.651-.071-1.065-.213-1.242-.141-.177-.555-.358-1.242-.542a13.773 13.773 0 00-.233-.063v-.117c0-.071.007-.149.021-.234.963-.099 1.791-.265 2.484-.499l.542-.01c.028.481.042 1.019.042 1.613l-.042 4.088.074 4.608-.032 2.453c0 .502.036.786.107.849.141.142.453.216.934.223.099 0 .233.007.403.022v.191c0 .049-.003.102-.01.159-.22.049-.446.095-.68.138l-1.539.297a3.063 3.063 0 01-.542.064v-1.019c-.12.035-.308.106-.563.212-1.104.467-2.12.701-3.047.701-.559 0-1.129-.181-1.709-.542a3.599 3.599 0 01-1.338-1.529 4.57 4.57 0 01-.467-1.996c0-.609.102-1.189.308-1.741.205-.559.474-1.023.807-1.391.212-.241.513-.478.902-.711.389-.241.711-.393.966-.457.63-.163 1.051-.244 1.264-.244.955 0 1.741.141 2.357.425.191.092.336.155.435.191zm.011 6.561c.028-.474.042-1.451.042-2.93 0-1.253-.06-2.042-.18-2.368-.113-.332-.404-.644-.871-.934a2.867 2.867 0 00-1.571-.446c-.814 0-1.504.315-2.071.945-.566.63-.849 1.561-.849 2.792 0 1.083.304 1.947.913 2.591.616.644 1.38.966 2.293.966.524 0 1.002-.071 1.434-.212.432-.142.718-.276.86-.404z" fill="#057AFF"/><path d="M171.404 438.707v11.861h-1.39l-6.463-9.313h-.116v9.313h-1.436v-11.861h1.389l6.487 9.336h.116v-9.336h1.413zm6.302 12.046c-.803 0-1.507-.191-2.114-.573-.602-.382-1.073-.917-1.413-1.604-.336-.688-.504-1.491-.504-2.41 0-.926.168-1.735.504-2.426.34-.691.811-1.228 1.413-1.61.607-.382 1.311-.574 2.114-.574.803 0 1.506.192 2.108.574.607.382 1.078.919 1.414 1.61.339.691.509 1.5.509 2.426 0 .919-.17 1.722-.509 2.41-.336.687-.807 1.222-1.414 1.604-.602.382-1.305.573-2.108.573zm0-1.228c.61 0 1.112-.156 1.506-.469a2.77 2.77 0 00.875-1.233 4.73 4.73 0 00.283-1.657c0-.594-.094-1.148-.283-1.662a2.812 2.812 0 00-.875-1.245c-.394-.316-.896-.475-1.506-.475s-1.112.159-1.505.475a2.804 2.804 0 00-.875 1.245 4.779 4.779 0 00-.284 1.662c0 .595.095 1.147.284 1.657.189.509.481.921.875 1.233.393.313.895.469 1.505.469zm9.477 1.228c-.742 0-1.396-.187-1.964-.562-.567-.378-1.011-.911-1.332-1.598-.32-.691-.48-1.508-.48-2.45 0-.934.16-1.745.48-2.432.321-.687.767-1.218 1.338-1.593.571-.374 1.232-.562 1.981-.562.579 0 1.036.097 1.372.29.34.189.599.405.776.649.182.239.323.436.423.59h.116v-4.378h1.367v11.861h-1.321v-1.367h-.162a8.72 8.72 0 01-.428.614c-.186.243-.45.461-.794.654-.344.19-.801.284-1.372.284zm.185-1.228c.548 0 1.011-.142 1.39-.428.378-.29.666-.689.863-1.199.197-.513.295-1.106.295-1.778 0-.664-.096-1.245-.289-1.743-.194-.502-.479-.892-.858-1.17-.378-.282-.845-.423-1.401-.423-.579 0-1.062.149-1.448.446-.382.294-.67.693-.863 1.199a4.772 4.772 0 00-.284 1.691c0 .633.097 1.209.29 1.726.197.513.486.923.869 1.228.386.301.864.451 1.436.451zm10.314 1.228c-.857 0-1.596-.189-2.218-.567a3.817 3.817 0 01-1.43-1.599c-.332-.687-.498-1.486-.498-2.397 0-.912.166-1.715.498-2.41.336-.698.803-1.243 1.401-1.633.603-.394 1.305-.591 2.108-.591.464 0 .921.078 1.373.232.452.155.863.406 1.234.753.37.344.666.799.886 1.367.22.567.33 1.266.33 2.096v.579h-6.857v-1.181h5.467c0-.502-.101-.95-.301-1.344a2.275 2.275 0 00-.846-.932c-.363-.228-.791-.342-1.286-.342-.544 0-1.015.135-1.413.406a2.662 2.662 0 00-.909 1.042 3.068 3.068 0 00-.318 1.378v.788c0 .672.115 1.241.347 1.709.236.463.562.816.979 1.059.417.24.901.359 1.453.359.359 0 .684-.05.973-.15a2.08 2.08 0 00.759-.463c.212-.209.376-.468.492-.776l1.321.37a2.933 2.933 0 01-.701 1.182 3.414 3.414 0 01-1.216.787 4.498 4.498 0 01-1.628.278zm7.801-1.807l-.092.626c-.066.44-.166.911-.301 1.413-.132.502-.269.975-.412 1.419-.142.444-.26.797-.353 1.06h-1.042l.197-.979c.081-.406.162-.859.243-1.361.085-.498.154-1.008.208-1.529l.07-.649h1.482zm11.845-10.239h1.437v8.479c0 .756-.139 1.399-.417 1.928-.278.529-.67.931-1.176 1.205-.506.274-1.102.411-1.79.411-.648 0-1.225-.118-1.731-.353a2.855 2.855 0 01-1.193-1.019c-.29-.441-.435-.964-.435-1.57h1.414c0 .336.083.629.249.88.169.247.401.44.695.579a2.31 2.31 0 001.001.209c.414 0 .765-.087 1.054-.261.29-.173.51-.428.661-.764.154-.34.231-.755.231-1.245v-8.479zm10.801 2.965a1.814 1.814 0 00-.845-1.366c-.494-.325-1.101-.487-1.819-.487-.525 0-.984.085-1.378.255-.39.17-.695.403-.915.701a1.68 1.68 0 00-.324 1.013c0 .317.075.589.225.817.155.224.352.411.591.561.24.147.491.269.753.365.263.093.504.168.724.226l1.205.325c.308.081.652.193 1.03.335.383.143.748.338 1.095.585.351.244.641.556.869.939.228.382.341.851.341 1.407 0 .641-.167 1.22-.503 1.737-.332.518-.819.929-1.46 1.234-.637.305-1.411.457-2.322.457-.85 0-1.585-.137-2.207-.411-.617-.274-1.104-.656-1.459-1.146a3.275 3.275 0 01-.597-1.709h1.483c.039.448.189.819.452 1.112.266.29.602.506 1.007.649.41.139.85.208 1.321.208.548 0 1.04-.089 1.477-.266.436-.182.781-.433 1.036-.753.255-.324.383-.703.383-1.135 0-.394-.111-.715-.331-.962a2.415 2.415 0 00-.868-.602 9.063 9.063 0 00-1.164-.405l-1.46-.417c-.926-.267-1.66-.647-2.201-1.141-.54-.494-.81-1.141-.81-1.94 0-.664.179-1.244.538-1.738.363-.498.85-.884 1.46-1.158.614-.278 1.299-.417 2.056-.417.764 0 1.444.137 2.038.411.595.27 1.066.641 1.413 1.112.352.471.537 1.006.556 1.604h-1.39zm5.767 7.274l-.092.626c-.066.44-.167.911-.302 1.413-.131.502-.268.975-.411 1.419a42 42 0 01-.353 1.06h-1.043c.051-.247.116-.574.197-.979.081-.406.163-.859.244-1.361.085-.498.154-1.008.208-1.529l.07-.649h1.482zm11.845-10.239h1.436v8.479c0 .756-.139 1.399-.417 1.928a2.83 2.83 0 01-1.175 1.205c-.506.274-1.103.411-1.79.411-.648 0-1.226-.118-1.731-.353a2.855 2.855 0 01-1.193-1.019c-.29-.441-.435-.964-.435-1.57h1.413c0 .336.083.629.249.88.17.247.402.44.695.579.294.139.628.209 1.002.209.413 0 .765-.087 1.054-.261.29-.173.51-.428.66-.764.155-.34.232-.755.232-1.245v-8.479zm6.747 12.069a3.622 3.622 0 01-1.535-.318 2.629 2.629 0 01-1.094-.933c-.27-.409-.406-.903-.406-1.482 0-.51.101-.923.302-1.24.2-.32.469-.571.805-.752a4.2 4.2 0 011.112-.406c.409-.092.82-.166 1.233-.22.541-.069.979-.121 1.315-.156.34-.039.587-.103.741-.191.158-.089.238-.244.238-.464v-.046c0-.571-.157-1.015-.47-1.332-.308-.317-.778-.475-1.407-.475-.652 0-1.164.143-1.535.429-.37.285-.631.59-.781.915l-1.298-.464c.232-.54.541-.961.927-1.262.39-.305.815-.518 1.274-.637a5.271 5.271 0 011.367-.186c.285 0 .614.035.984.105a3.12 3.12 0 011.083.411c.352.208.643.523.875.944.231.421.347.984.347 1.691v5.861h-1.366v-1.205h-.07c-.093.193-.247.4-.463.62-.217.22-.504.407-.863.562-.359.154-.798.231-1.315.231zm.209-1.227c.54 0 .996-.107 1.366-.319.375-.212.657-.486.846-.822.193-.336.29-.689.29-1.06v-1.251c-.058.069-.186.133-.383.191a6.589 6.589 0 01-.672.145c-.251.038-.496.073-.735.104-.236.027-.427.05-.573.07a5.213 5.213 0 00-.997.225 1.718 1.718 0 00-.741.458c-.185.201-.278.475-.278.822 0 .475.176.834.527 1.078.355.239.805.359 1.35.359zm13.318-7.877l-3.289 8.896h-1.39l-3.29-8.896h1.483l2.456 7.089h.092l2.456-7.089h1.482zm4.151 9.104a3.617 3.617 0 01-1.534-.318 2.625 2.625 0 01-1.095-.933c-.27-.409-.405-.903-.405-1.482 0-.51.1-.923.301-1.24.201-.32.469-.571.805-.752a4.213 4.213 0 011.112-.406c.409-.092.82-.166 1.233-.22.541-.069.979-.121 1.315-.156.34-.039.587-.103.741-.191.159-.089.238-.244.238-.464v-.046c0-.571-.157-1.015-.469-1.332-.309-.317-.778-.475-1.408-.475-.652 0-1.164.143-1.534.429-.371.285-.632.59-.782.915l-1.297-.464c.231-.54.54-.961.926-1.262.39-.305.815-.518 1.274-.637a5.277 5.277 0 011.367-.186c.286 0 .614.035.985.105.374.065.735.202 1.083.411.351.208.642.523.874.944.232.421.348.984.348 1.691v5.861h-1.367v-1.205h-.07c-.092.193-.247.4-.463.62-.216.22-.504.407-.863.562-.359.154-.797.231-1.315.231zm.209-1.227c.54 0 .996-.107 1.367-.319a2.165 2.165 0 001.135-1.882v-1.251c-.058.069-.186.133-.382.191a6.589 6.589 0 01-.672.145 34.152 34.152 0 01-1.309.174 5.22 5.22 0 00-.996.225 1.728 1.728 0 00-.742.458c-.185.201-.277.475-.277.822 0 .475.175.834.527 1.078.355.239.805.359 1.349.359zm8.402-.603l-.093.626c-.065.44-.166.911-.301 1.413-.131.502-.268.975-.411 1.419-.143.444-.261.797-.353 1.06h-1.043l.197-.979c.081-.406.162-.859.243-1.361a23.47 23.47 0 00.209-1.529l.069-.649h1.483zm7.304 1.622v-11.861h4.008c.93 0 1.691.168 2.282.504.594.332 1.034.782 1.32 1.349.286.568.429 1.201.429 1.9 0 .699-.143 1.334-.429 1.905-.282.572-.718 1.027-1.309 1.367-.59.336-1.347.504-2.27.504h-2.872v-1.274h2.826c.637 0 1.148-.11 1.534-.33.387-.22.667-.518.84-.892.178-.379.267-.805.267-1.28s-.089-.9-.267-1.274a1.891 1.891 0 00-.845-.88c-.39-.217-.908-.325-1.552-.325h-2.525v10.587h-1.437zm10.352 0v-11.861h1.437v5.282h6.324v-5.282h1.436v11.861h-1.436v-5.305h-6.324v5.305h-1.437zm12.073 0v-11.861h4.007c.931 0 1.691.168 2.282.504.595.332 1.035.782 1.321 1.349.285.568.428 1.201.428 1.9 0 .699-.143 1.334-.428 1.905-.282.572-.719 1.027-1.309 1.367-.591.336-1.348.504-2.271.504h-2.872v-1.274h2.826c.637 0 1.149-.11 1.535-.33.386-.22.666-.518.84-.892.177-.379.266-.805.266-1.28s-.089-.9-.266-1.274a1.898 1.898 0 00-.846-.88c-.39-.217-.907-.325-1.552-.325h-2.525v10.587h-1.436z" fill="#fff"/><path opacity=".34" fill-rule="evenodd" clip-rule="evenodd" d="M272.523 277.523c60.862-60.862 60.862-159.539 0-220.4-60.862-60.863-159.539-60.863-220.4 0-60.863 60.861-60.863 159.538 0 220.4 60.861 60.862 159.538 60.862 220.4 0zm.961.961c61.393-61.393 61.393-160.93 0-222.323-61.393-61.392-160.93-61.392-222.323 0-61.392 61.393-61.392 160.93 0 222.323 61.393 61.393 160.93 61.393 222.323 0z" fill="#6A7077"/><path d="M109.276 146.299l.011-.265c.156-.078.414-.145.775-.202.368-.063.619-.124.754-.18.141-.064.258-.145.35-.244.064-.312.096-.875.096-1.689l-.149-8.26.032-1.37c0-.283-.053-.478-.159-.584-.099-.106-.365-.202-.797-.286-.431-.092-.686-.167-.764-.223-.078-.057-.117-.117-.117-.181 0-.035.011-.081.032-.138a.538.538 0 01.287-.085c.106 0 .322.007.647.021h.298c.099 0 .378-.007.839-.021h1.475l3.048-.053 3.227-.127h.287l.457-.011c.127 0 .24.035.339.106.043.113.068.195.075.244l-.011.425.096 1.901c0 .077-.007.177-.022.297a.786.786 0 01-.308.074.183.183 0 01-.148-.063c-.057-.078-.092-.227-.106-.446-.029-.305-.138-.698-.329-1.179a.809.809 0 00-.457-.467c-.425-.163-1.14-.244-2.145-.244-.474 0-.916.014-1.327.042-.411.021-.662.032-.754.032l-.828-.011c-.34 0-.619.05-.839.149-.148.064-.223.216-.223.457v.159c.021.361.032.761.032 1.2l-.032 2.888c0 .283.021.552.064.807l.308.021.594-.032h2.028c.814 0 1.381-.057 1.699-.17a.955.955 0 00.478-.35c.035-.05.124-.329.265-.839l.138-.881a.482.482 0 01.192-.064c.035 0 .092.018.169.053.029.163.046.411.054.743l.127 3.908a.81.81 0 01-.276.074l-.117-.021c-.113-.708-.29-1.264-.531-1.667-.085-.142-.18-.223-.286-.245-.184-.042-1.027-.063-2.527-.063-.468 0-.79.003-.967.01-.424.022-.679.032-.764.032h-.106c-.213 0-.365.029-.457.085a.68.68 0 00-.042.181v.732c0 .085.003.439.01 1.062l-.021 3.514c0 .1.028.223.085.372.149.12.418.202.807.244.396.036.768.128 1.115.276.198.092.297.195.297.308 0 .05-.014.096-.042.138a.26.26 0 01-.149.096c-.58-.121-1.384-.181-2.41-.181-.545 0-1.122.05-1.731.149a9.545 9.545 0 01-1.433.096l-.213-.054zm11.743-.127l-.042-.138c0-.05.032-.124.096-.223l.626-.127.881-.16a.302.302 0 00.149-.148c.042-.092.064-.365.064-.818 0-2.407-.015-3.794-.043-4.162-.028-.375-.092-.612-.191-.711-.099-.099-.354-.177-.764-.234a2.582 2.582 0 01-.574-.138l.043-.318c.743-.305 1.242-.567 1.497-.786.354-.319.654-.736.902-1.253l.361.011c.043.353.064 1.139.064 2.357l-.011.18c0 .043.007.11.022.202a6.165 6.165 0 011.008-1.349l.244-.244c.1-.113.195-.201.287-.265.496-.297.864-.446 1.104-.446a1 1 0 01.765.318c.198.206.297.461.297.765 0 .241-.071.428-.212.563a.941.941 0 01-.659.265c-.113 0-.336-.06-.668-.18-.333-.121-.553-.181-.659-.181-.198 0-.336.032-.414.096-.198.155-.439.474-.722.955-.219.361-.329.694-.329.998l.053 1.752.021 2.102c.022.241.05.397.085.468a.658.658 0 00.213.18c.764.064 1.217.11 1.359.138.099.007.173.014.223.021.304.007.516.05.637.128a.171.171 0 01.095.159c0 .043-.028.099-.085.17l-1.178-.011-.446-.01-.648.01h-1.083l-.584.032-1.784.032zm7.603-4.3c0-.481.099-.995.297-1.54a4.287 4.287 0 01.924-1.476c.41-.438.846-.764 1.306-.976.644-.298 1.429-.446 2.357-.446 1.323 0 2.428.453 3.312 1.359.892.906 1.338 1.996 1.338 3.27 0 1.133-.467 2.145-1.401 3.037-.928.884-2.103 1.327-3.525 1.327-.878 0-1.706-.23-2.485-.69-.58-.347-1.079-.86-1.497-1.54-.418-.679-.626-1.454-.626-2.325zm4.693 4.141c.538 0 1.054-.145 1.55-.436.502-.29.902-.753 1.2-1.39.297-.645.446-1.388.446-2.23 0-.552-.117-1.193-.351-1.922-.226-.729-.58-1.274-1.062-1.635-.474-.368-1.033-.552-1.677-.552-.467 0-.945.11-1.434.329-.481.219-.891.641-1.231 1.263-.333.623-.499 1.508-.499 2.655 0 1.288.29 2.265.87 2.93.588.659 1.317.988 2.188.988zm6.041-.213c.177-.049.382-.092.616-.127.446-.064.711-.138.796-.223.092-.085.138-.28.138-.584l.021-.382c.008-.142.011-.322.011-.542l-.021-3.259c0-.439-.057-.722-.17-.85-.191-.198-.545-.336-1.062-.414v-.382c.517-.142.913-.326 1.189-.552.404-.319.744-.75 1.02-1.295l.361.01c.021.333.032.57.032.712v.7l.01.191c.085-.056.184-.127.297-.212.425-.318.86-.577 1.306-.775a6.143 6.143 0 011.19-.425c.219-.056.467-.085.743-.085.58 0 1.079.156 1.497.467.418.312.686.68.807 1.105.127.417.191 1.253.191 2.505v1.604c0 .042-.007.184-.021.424-.007.241-.011.517-.011.829 0 .495.021.81.064.945.035.092.127.184.276.276.679.092 1.076.201 1.189.329v.085a.733.733 0 01-.064.265h-.201l-1.402-.01-1.38.021c-.51.014-.981.01-1.412-.011l-.064-.223c0-.042.025-.099.074-.17.191-.085.46-.141.807-.17.205-.014.347-.035.425-.063.078-.029.173-.085.287-.17.085-.17.127-.312.127-.425 0-.049-.007-.148-.021-.297-.021-.326-.036-1.136-.043-2.432v-.552l.022-.849c0-.913-.185-1.543-.553-1.89-.368-.347-.86-.52-1.475-.52-.475 0-.938.106-1.391.318-.453.206-.892.517-1.317.935-.014.339-.021.63-.021.87l.032 2.347c0 1.224.017 1.975.053 2.251.014.113.039.191.074.233.057.057.17.103.34.138.17.036.364.085.584.149.226.064.375.103.446.117.141.035.237.106.286.212l-.01.212h-1.115l-2.293-.031a52.87 52.87 0 01-1.009.021h-.266l-.021-.138c0-.05.011-.121.032-.213zm13.739-10.15l.329.011.043 1.008-.021 1.306c.134.007.219.011.254.011.184 0 .535-.014 1.052-.043.332-.021.651-.031.955-.031.142 0 .354.003.637.01.014.142.021.255.021.34 0 .092-.021.237-.063.435h-.181l-1.645.053-.818.022-.191.021a2.011 2.011 0 00-.085.616l.032 1.592-.021 2.803c0 .736.095 1.225.286 1.466.184.247.46.371.828.371.184 0 .531-.056 1.041-.17.156-.035.364-.152.626-.35h.096c.064 0 .113.021.149.064a.183.183 0 01.063.148l-.01.075a2.82 2.82 0 01-1.051.732c-.39.149-.91.223-1.561.223-.46 0-.843-.106-1.147-.318-.297-.213-.488-.464-.573-.754-.085-.29-.128-.924-.128-1.901l.043-2.389-.011-1.146v-.425c0-.198-.007-.397-.021-.595l-.181-.01-.87.031-.085.011a.279.279 0 01-.181-.053.175.175 0 01-.053-.127.27.27 0 01.075-.202c.056-.057.219-.142.488-.255.184-.078.396-.223.637-.435.248-.22.457-.46.626-.722.085-.142.206-.411.361-.807.114-.29.199-.496.255-.616zm9.28 10.32a.509.509 0 01.181-.116c.12-.036.325-.064.615-.085.687-.043 1.112-.107 1.274-.192.1-.141.149-.339.149-.594l-.01-.743.01-2.697-.021-1.274.011-2.665-.054-3.026c-.007-.722-.053-1.129-.138-1.221-.127-.135-.506-.213-1.136-.234a4.893 4.893 0 01-.711-.064c-.092-.049-.138-.113-.138-.191 0-.056.018-.124.053-.202a.363.363 0 01.17-.053c.099 0 .219.004.361.011.417.035.849.053 1.295.053l.786-.021 1.869.042c.934 0 1.663-.01 2.187-.032.524-.021.878-.031 1.062-.031.162 0 .566.014 1.21.042l1.508-.011.18.032.881-.032.107.054c.035.056.06.116.074.18 0 .099-.018.251-.053.457a4.258 4.258 0 00-.043.382c0 .736.025 1.359.075 1.869a.102.102 0 01-.064.084.67.67 0 01-.212-.031 6.126 6.126 0 01-.319-.712 7.754 7.754 0 00-.584-1.178c-.177-.298-.315-.475-.414-.531-.099-.057-.304-.085-.616-.085a95.255 95.255 0 01-1.422-.032l-3.026.064h-.266c-.389 0-.623.049-.701.148-.12.17-.18.669-.18 1.497 0 .085.017.935.053 2.549v1.475a.937.937 0 00.255.032h.18c.121 0 .298.004.531.011.368.014.616.021.743.021.085 0 .16-.003.223-.01a81.12 81.12 0 012.952-.043c.375-.064.595-.138.658-.223.106-.127.184-.46.234-.998.056-.538.177-.842.361-.913.092 0 .177.018.255.053a.67.67 0 01.021.159c0 .05-.007.131-.021.245-.036.261-.053 1.083-.053 2.463 0 .368.017.778.053 1.231.042.453.063.698.063.733 0 .064-.01.149-.031.255a.336.336 0 01-.138.042h-.075c-.113-.198-.223-.506-.329-.923-.184-.715-.379-1.161-.584-1.338-.198-.184-.524-.276-.977-.276-.099 0-.279.007-.541.021-.262.007-.651.011-1.168.011h-.69c-.984 0-1.628.021-1.933.063l-.01.351.01 1.953-.01 1.232.01 1.2c.007.722.053 1.139.138 1.253.121.155.383.233.786.233l.648-.01c.056 0 .276.007.658.021.389.007.867.01 1.433.01 1.366 0 2.276-.056 2.729-.169a2.38 2.38 0 001.115-.627c.297-.297.669-.938 1.115-1.922.134-.29.269-.435.403-.435.064 0 .135.028.213.085-.206.701-.322 1.161-.351 1.38a11.826 11.826 0 00-.138 1.519.964.964 0 01-.17.584h-.233l-2.984.031-1.338-.01-3.185.042h-1.295c-.163 0-.315.004-.457.011a69.707 69.707 0 01-2.814.085c-.106 0-.18-.018-.222-.053-.036-.036-.054-.089-.054-.16l.011-.106zm14.143-.17c.177-.049.382-.092.616-.127.445-.064.711-.138.796-.223.092-.085.138-.28.138-.584l.021-.382c.007-.142.011-.322.011-.542l-.022-3.259c0-.439-.056-.722-.169-.85-.192-.198-.545-.336-1.062-.414v-.382c.517-.142.913-.326 1.189-.552.403-.319.743-.75 1.019-1.295l.361.01c.022.333.032.57.032.712v.7l.011.191c.085-.056.184-.127.297-.212.425-.318.86-.577 1.306-.775a6.137 6.137 0 011.189-.425c.22-.056.467-.085.743-.085.581 0 1.08.156 1.498.467.417.312.686.68.806 1.105.128.417.192 1.253.192 2.505v1.604c0 .042-.007.184-.022.424-.007.241-.01.517-.01.829 0 .495.021.81.063.945.036.092.128.184.277.276.679.092 1.075.201 1.189.329v.085a.755.755 0 01-.064.265h-.202l-1.401-.01-1.381.021c-.509.014-.98.01-1.412-.011l-.063-.223c0-.042.024-.099.074-.17.191-.085.46-.141.807-.17.205-.014.347-.035.425-.063.077-.029.173-.085.286-.17.085-.17.128-.312.128-.425 0-.049-.007-.148-.022-.297-.021-.326-.035-1.136-.042-2.432v-.552l.021-.849c0-.913-.184-1.543-.552-1.89-.368-.347-.86-.52-1.476-.52a3.25 3.25 0 00-1.391.318 4.607 4.607 0 00-1.316.935c-.014.339-.022.63-.022.87l.032 2.347c0 1.224.018 1.975.053 2.251.015.113.039.191.075.233.056.057.17.103.339.138.17.036.365.085.584.149.227.064.376.103.446.117.142.035.238.106.287.212l-.011.212h-1.114l-2.294-.031c-.531.014-.867.021-1.008.021h-.266l-.021-.138c0-.05.01-.121.032-.213zm18.453-7.368l.011-.308-.011-1.242.011-2.347c0-.651-.071-1.065-.213-1.242-.141-.177-.555-.358-1.242-.542a13.773 13.773 0 00-.233-.063v-.117c0-.071.007-.149.021-.234.962-.099 1.791-.265 2.484-.499l.542-.01c.028.481.042 1.019.042 1.614l-.042 4.087.074 4.608-.032 2.453c0 .503.036.786.106.849.142.142.453.216.935.223.099 0 .233.007.403.022v.191c0 .049-.003.102-.01.159-.22.05-.446.096-.68.138l-1.539.297a3.063 3.063 0 01-.542.064v-1.019c-.12.035-.308.106-.563.212-1.104.467-2.12.701-3.047.701-.559 0-1.129-.181-1.709-.542a3.599 3.599 0 01-1.338-1.529 4.57 4.57 0 01-.467-1.996c0-.608.102-1.189.308-1.741.205-.559.474-1.023.806-1.391.213-.241.514-.478.903-.711.389-.241.711-.393.966-.457.63-.163 1.051-.244 1.264-.244.955 0 1.741.142 2.357.425.191.092.336.155.435.191zm.011 6.561c.028-.474.042-1.451.042-2.93 0-1.253-.06-2.042-.18-2.368-.114-.332-.404-.644-.871-.934a2.867 2.867 0 00-1.571-.446c-.814 0-1.505.315-2.071.945-.566.63-.849 1.561-.849 2.792 0 1.083.304 1.947.913 2.591.616.644 1.38.966 2.293.966.524 0 1.002-.07 1.434-.212.431-.142.718-.276.86-.404z" fill="#057AFF"/><path d="M70.247 177.398v-11.86h1.436v5.281h6.324v-5.281h1.436v11.86h-1.436v-5.304h-6.324v5.304h-1.436zm11.423-10.586v-1.274h8.896v1.274h-3.73v10.586H85.4v-10.586h-3.73zm11.112-1.274h1.715l4.03 9.845h.14l4.03-9.845h1.715v11.86h-1.344v-9.011h-.116l-3.706 9.011h-1.298l-3.706-9.011h-.116v9.011h-1.344v-11.86zm14.509 11.86v-11.86h1.437v10.586h5.513v1.274h-6.95zm11.027-1.621l-.092.625c-.066.441-.166.912-.302 1.413-.131.502-.268.975-.411 1.419-.143.444-.26.798-.353 1.06h-1.042l.196-.979c.082-.405.163-.859.244-1.361.085-.498.154-1.007.208-1.528l.07-.649h1.482zm16.849-6.533h-1.436a2.997 2.997 0 00-1.211-1.876 3.243 3.243 0 00-.99-.487 3.957 3.957 0 00-1.135-.162c-.718 0-1.369.182-1.952.544-.579.363-1.04.898-1.384 1.605-.34.706-.51 1.573-.51 2.6 0 1.027.17 1.894.51 2.6.344.707.805 1.242 1.384 1.605a3.619 3.619 0 001.952.544c.394 0 .772-.054 1.135-.162.363-.108.693-.268.99-.481a3.07 3.07 0 00.765-.793c.212-.317.361-.68.446-1.089h1.436a4.77 4.77 0 01-.591 1.627 4.444 4.444 0 01-1.065 1.222 4.68 4.68 0 01-1.431.759 5.324 5.324 0 01-1.685.261c-1.012 0-1.911-.247-2.699-.742-.788-.494-1.407-1.197-1.859-2.108-.452-.911-.678-1.992-.678-3.243s.226-2.332.678-3.243c.452-.911 1.071-1.614 1.859-2.108s1.687-.742 2.699-.742c.598 0 1.16.087 1.685.261a4.61 4.61 0 011.431.765c.424.332.78.737 1.065 1.216.286.475.483 1.017.591 1.627zm8.807-.741a1.816 1.816 0 00-.845-1.367c-.494-.324-1.101-.486-1.819-.486-.525 0-.984.085-1.378.254-.39.17-.695.404-.915.701a1.68 1.68 0 00-.324 1.014c0 .316.075.588.225.816.155.224.352.411.591.562.24.147.49.268.753.365.263.093.504.168.724.226l1.205.324c.308.081.652.193 1.03.336.383.143.748.338 1.095.585.351.243.641.556.869.938.228.382.341.851.341 1.407a3.13 3.13 0 01-.503 1.738c-.332.517-.819.928-1.46 1.233-.637.305-1.411.458-2.322.458-.85 0-1.585-.137-2.207-.411-.618-.274-1.104-.657-1.459-1.147-.352-.49-.55-1.06-.597-1.708h1.483c.038.447.189.818.452 1.112a2.45 2.45 0 001.007.648c.41.139.85.209 1.321.209.548 0 1.04-.089 1.477-.267.436-.181.781-.432 1.036-.753a1.78 1.78 0 00.382-1.135c0-.394-.11-.714-.33-.961a2.415 2.415 0 00-.868-.602 9.063 9.063 0 00-1.164-.406l-1.46-.417c-.926-.266-1.66-.646-2.201-1.141-.54-.494-.81-1.141-.81-1.94 0-.664.179-1.243.538-1.737.363-.498.85-.884 1.46-1.159.614-.278 1.299-.417 2.056-.417.764 0 1.444.138 2.038.412.595.27 1.066.641 1.413 1.112.352.471.537 1.005.556 1.604h-1.39zm10.4 0a1.816 1.816 0 00-.845-1.367c-.494-.324-1.101-.486-1.819-.486-.525 0-.984.085-1.378.254-.39.17-.695.404-.915.701a1.681 1.681 0 00-.325 1.014c0 .316.076.588.226.816.155.224.352.411.591.562.239.147.49.268.753.365.263.093.504.168.724.226l1.205.324c.308.081.652.193 1.03.336.383.143.747.338 1.095.585.351.243.641.556.869.938.227.382.341.851.341 1.407a3.13 3.13 0 01-.503 1.738c-.333.517-.819.928-1.46 1.233-.637.305-1.411.458-2.322.458-.85 0-1.585-.137-2.207-.411-.618-.274-1.104-.657-1.459-1.147-.352-.49-.55-1.06-.597-1.708h1.483c.038.447.189.818.452 1.112a2.45 2.45 0 001.007.648c.41.139.85.209 1.321.209.548 0 1.04-.089 1.477-.267.436-.181.781-.432 1.036-.753a1.78 1.78 0 00.382-1.135c0-.394-.11-.714-.33-.961a2.415 2.415 0 00-.868-.602 9.063 9.063 0 00-1.164-.406l-1.46-.417c-.927-.266-1.66-.646-2.201-1.141-.54-.494-.81-1.141-.81-1.94 0-.664.179-1.243.538-1.737.363-.498.85-.884 1.46-1.159.613-.278 1.299-.417 2.056-.417.764 0 1.444.138 2.038.412.595.27 1.066.641 1.413 1.112.352.471.537 1.005.556 1.604h-1.39zm5.767 7.274l-.093.625c-.065.441-.166.912-.301 1.413-.131.502-.268.975-.411 1.419-.143.444-.261.798-.353 1.06h-1.043c.051-.247.116-.573.197-.979.081-.405.162-.859.243-1.361a23.44 23.44 0 00.209-1.528l.069-.649h1.483zm11.845-10.239h1.436v8.478c0 .757-.139 1.4-.417 1.929-.278.529-.67.93-1.175 1.204-.506.275-1.103.412-1.79.412-.649 0-1.226-.118-1.732-.354a2.86 2.86 0 01-1.193-1.019c-.289-.44-.434-.963-.434-1.569h1.413c0 .336.083.629.249.88.17.247.402.44.695.579.294.139.628.209 1.002.209.413 0 .765-.087 1.054-.261.29-.174.51-.429.66-.765.155-.339.232-.754.232-1.245v-8.478zm6.747 12.069a3.607 3.607 0 01-1.535-.319 2.634 2.634 0 01-1.094-.932c-.271-.409-.406-.903-.406-1.483 0-.509.101-.922.301-1.239.201-.32.47-.571.805-.753a4.26 4.26 0 011.112-.405c.41-.093.821-.166 1.234-.22.541-.07.979-.122 1.315-.157.339-.038.587-.102.741-.191.158-.089.237-.243.237-.463v-.046c0-.572-.156-1.016-.469-1.332-.309-.317-.778-.475-1.407-.475-.653 0-1.164.142-1.535.428-.37.286-.631.591-.782.915l-1.297-.463c.232-.541.541-.961.927-1.263.39-.305.814-.517 1.274-.637a5.312 5.312 0 011.367-.185c.285 0 .614.035.984.104a3.16 3.16 0 011.083.411c.352.209.643.524.875.944.231.421.347.985.347 1.692v5.86h-1.367v-1.204h-.069a2.434 2.434 0 01-.463.62c-.217.22-.504.407-.863.561-.359.155-.798.232-1.315.232zm.208-1.228c.541 0 .997-.106 1.367-.318a2.17 2.17 0 001.135-1.883v-1.25c-.058.069-.185.133-.382.191a6.347 6.347 0 01-.672.144 29.526 29.526 0 01-1.309.174 5.22 5.22 0 00-.996.226c-.305.1-.552.253-.741.458-.185.2-.278.474-.278.822 0 .475.176.834.527 1.077.355.24.805.359 1.349.359zm13.319-7.876l-3.289 8.895h-1.39l-3.29-8.895h1.483l2.455 7.089h.093l2.456-7.089h1.482zm4.151 9.104a3.603 3.603 0 01-1.534-.319 2.63 2.63 0 01-1.095-.932c-.27-.409-.405-.903-.405-1.483 0-.509.1-.922.301-1.239.201-.32.469-.571.805-.753a4.247 4.247 0 011.112-.405c.409-.093.82-.166 1.233-.22.541-.07.979-.122 1.315-.157.34-.038.587-.102.741-.191.159-.089.238-.243.238-.463v-.046c0-.572-.157-1.016-.469-1.332-.309-.317-.778-.475-1.408-.475-.652 0-1.164.142-1.534.428-.371.286-.632.591-.782.915l-1.298-.463c.232-.541.541-.961.927-1.263.39-.305.815-.517 1.274-.637a5.318 5.318 0 011.367-.185c.286 0 .614.035.985.104.374.066.735.203 1.083.411.351.209.642.524.874.944.232.421.347.985.347 1.692v5.86h-1.366v-1.204h-.07a2.41 2.41 0 01-.463.62c-.216.22-.504.407-.863.561-.359.155-.797.232-1.315.232zm.209-1.228c.54 0 .996-.106 1.367-.318a2.174 2.174 0 001.135-1.883v-1.25c-.058.069-.186.133-.383.191a6.38 6.38 0 01-.671.144 28.937 28.937 0 01-1.309.174 5.22 5.22 0 00-.996.226c-.305.1-.552.253-.742.458-.185.2-.278.474-.278.822 0 .475.176.834.527 1.077.356.24.805.359 1.35.359zm13.035-7.876a1.817 1.817 0 00-.846-1.367c-.494-.324-1.1-.486-1.818-.486-.525 0-.985.085-1.379.254a2.21 2.21 0 00-.915.701 1.68 1.68 0 00-.324 1.014c0 .316.075.588.226.816.154.224.351.411.591.562.239.147.49.268.753.365.262.093.503.168.724.226l1.204.324c.309.081.653.193 1.031.336.382.143.747.338 1.095.585.351.243.64.556.868.938.228.382.342.851.342 1.407 0 .641-.168 1.221-.504 1.738-.332.517-.818.928-1.459 1.233-.637.305-1.411.458-2.323.458-.849 0-1.585-.137-2.206-.411-.618-.274-1.104-.657-1.46-1.147a3.27 3.27 0 01-.596-1.708h1.482c.039.447.19.818.452 1.112.267.289.602.505 1.008.648.409.139.849.209 1.32.209.549 0 1.041-.089 1.477-.267.436-.181.782-.432 1.037-.753a1.78 1.78 0 00.382-1.135c0-.394-.11-.714-.33-.961a2.419 2.419 0 00-.869-.602 9.063 9.063 0 00-1.164-.406l-1.459-.417c-.927-.266-1.661-.646-2.201-1.141-.541-.494-.811-1.141-.811-1.94 0-.664.18-1.243.539-1.737a3.586 3.586 0 011.459-1.159c.614-.278 1.299-.417 2.056-.417.765 0 1.444.138 2.039.412.594.27 1.065.641 1.413 1.112.351.471.537 1.005.556 1.604h-1.39zm3.728 8.895v-8.895h1.321v1.343h.092c.162-.44.456-.797.881-1.071a2.589 2.589 0 011.436-.411c.1 0 .226.002.376.006.151.004.265.009.342.017v1.39a3.802 3.802 0 00-.319-.052 3.134 3.134 0 00-.515-.041c-.432 0-.819.091-1.158.273a2.047 2.047 0 00-.8.741c-.193.313-.289.67-.289 1.071v5.629h-1.367zm6.068 0v-8.895h1.367v8.895h-1.367zm.695-10.378a.97.97 0 01-.689-.272.875.875 0 01-.284-.654c0-.255.095-.473.284-.655a.974.974 0 01.689-.272c.266 0 .494.091.683.272.193.182.29.4.29.655a.867.867 0 01-.29.654.949.949 0 01-.683.272zm3.175 13.714v-12.231h1.321v1.413h.162c.1-.154.239-.351.417-.591.181-.243.44-.459.776-.648.34-.193.799-.29 1.378-.29.749 0 1.409.187 1.981.562.571.374 1.017.905 1.338 1.592.32.688.48 1.498.48 2.433 0 .942-.16 1.758-.48 2.45-.321.687-.765 1.22-1.332 1.598-.568.375-1.222.562-1.964.562-.571 0-1.029-.095-1.372-.284-.344-.193-.608-.411-.794-.654a8.96 8.96 0 01-.428-.614h-.116v4.702h-1.367zm1.344-7.783c0 .671.098 1.264.295 1.778.197.509.485.909.863 1.198.378.286.842.429 1.39.429.571 0 1.048-.151 1.431-.452.386-.305.675-.714.868-1.227a4.82 4.82 0 00.296-1.726c0-.626-.097-1.19-.29-1.691-.189-.506-.477-.906-.863-1.199-.382-.298-.863-.446-1.442-.446-.556 0-1.023.141-1.401.423-.379.278-.665.668-.858 1.169-.193.499-.289 1.08-.289 1.744zm12.463-4.448v1.158h-4.61v-1.158h4.61zm-3.266-2.131h1.366v8.478c0 .386.056.676.168.869a.87.87 0 00.44.382c.182.062.373.093.574.093.15 0 .274-.008.37-.023l.232-.047.278 1.228c-.093.035-.222.07-.388.104a2.829 2.829 0 01-.631.058c-.386 0-.765-.083-1.135-.249a2.256 2.256 0 01-.915-.758c-.24-.34-.359-.769-.359-1.286v-8.849z" fill="#fff"/><path d="M229.958 320.179c23.533 23.533 61.688 23.533 85.221 0 23.534-23.533 23.534-61.688 0-85.221-23.533-23.533-61.688-23.533-85.221 0s-23.533 61.688 0 85.221zM70.47 57.122c0 10.133-8.215 18.347-18.348 18.347s-18.347-8.214-18.347-18.347c0-10.133 8.214-18.347 18.347-18.347 10.133 0 18.347 8.214 18.347 18.347z" fill="#057AFF"/><path fill-rule="evenodd" clip-rule="evenodd" d="M50.957 56.442v-6.795h1.359v6.795h5.921v1.36h-5.921v6.795h-1.36V57.8h-6.309v-1.359h6.31z" fill="#fff"/><path d="M582.833 156.333c0 10.133-8.215 18.347-18.348 18.347-10.132 0-18.347-8.214-18.347-18.347 0-10.133 8.215-18.347 18.347-18.347 10.133 0 18.348 8.214 18.348 18.347z" fill="#057AFF"/><path fill-rule="evenodd" clip-rule="evenodd" d="M563.321 155.653v-6.795h1.359v6.795h5.921v1.359h-5.921v6.796h-1.359v-6.796h-6.31v-1.359h6.31z" fill="#fff"/><path d="M210.452 577.64c0 10.133-8.215 18.347-18.347 18.347-10.133 0-18.348-8.214-18.348-18.347 0-10.133 8.215-18.348 18.348-18.348 10.132 0 18.347 8.215 18.347 18.348z" fill="#057AFF"/><path fill-rule="evenodd" clip-rule="evenodd" d="M190.94 576.96v-6.795h1.359v6.795h5.921v1.359h-5.921v6.796h-1.359v-6.796h-6.31v-1.359h6.31z" fill="#fff"/><path d="M249.726 261.32a.546.546 0 01.266-.085h.244c.049 0 .134-.003.255-.01.545-.05.867-.1.966-.149.247-.135.46-.368.637-.701.368-.722.782-1.745 1.242-3.068.219-.63.358-1.013.414-1.147.177-.425.347-.871.51-1.338l.998-2.792c.156-.439.531-1.444 1.125-3.016.149-.396.329-.927.542-1.592l.308-.022.371.011c.305.602.574 1.249.807 1.943.128.368.336.917.627 1.646l1.614 4.364.86 2.367c.453 1.345.75 2.173.891 2.485.142.304.273.506.393.605.036.028.167.071.393.127.234.057.397.1.489.128.325.092.552.17.679.233a.59.59 0 01.043.181.631.631 0 01-.032.159c-.227.007-.386.011-.478.011-.361 0-.998-.011-1.911-.032l-1.062-.032-1.285.021c-.085 0-.173-.003-.265-.01a1.392 1.392 0 00-.223-.021h-.234a.552.552 0 01-.212-.064c0-.099.018-.195.053-.287a.69.69 0 01.234-.074l1.114-.075c.291-.014.51-.053.659-.116.042-.128.063-.223.063-.287 0-.127-.092-.457-.276-.987a25.03 25.03 0 01-.339-1.009c-.092-.319-.468-1.366-1.126-3.143a4.667 4.667 0 00-.764-.074l-2.272.021-.669-.011c-.241 0-.506.018-.797.053a5.064 5.064 0 00-.18.457l-.935 2.92c-.396 1.111-.594 1.723-.594 1.837 0 .063.032.17.095.318.149.043.347.082.595.117l1.444.127c.078.064.117.121.117.17a.629.629 0 01-.032.16c-.319.007-.563.01-.733.01-.566 0-1.224-.017-1.975-.053a20.985 20.985 0 00-.743-.021c-.148 0-.407.007-.775.021-.241.014-.414.021-.52.021-.17 0-.389-.01-.658-.031v-.064c0-.05.014-.117.042-.202zm5.065-6.37c.757.042 1.621.063 2.59.063.552 0 1.037-.017 1.455-.053a7.206 7.206 0 00-.244-.775c-.46-1.232-.715-1.911-.765-2.039l-.966-2.452-.106-.191c-.043.085-.198.449-.467 1.093-.453 1.105-.779 1.965-.977 2.58a40.8 40.8 0 01-.287.829c-.099.269-.163.46-.191.573a1.567 1.567 0 01-.106.329l.064.043zm10.055 12.252a2.064 2.064 0 01-.011-.212c0-.05.007-.11.021-.181l1.062-.212c.17-.085.308-.188.414-.308.035-.127.053-.255.053-.382 0-1.09-.028-3.168-.085-6.233l-.032-3.886c-.014-.616-.053-1.005-.116-1.168a.45.45 0 00-.16-.201c-.177-.135-.531-.248-1.062-.34l.064-.319c.765-.325 1.274-.577 1.529-.754.262-.184.51-.438.743-.764l.128-.032c.049 0 .12.021.212.064-.007.446-.01.74-.01.881l.01 1.168a5.772 5.772 0 011.635-.881 5.307 5.307 0 011.763-.297c1.09 0 2.01.385 2.76 1.157.751.764 1.126 1.752 1.126 2.962 0 .899-.213 1.706-.637 2.421a3.932 3.932 0 01-1.742 1.603 5.098 5.098 0 01-2.229.531c-.637 0-1.366-.173-2.187-.52a26.985 26.985 0 00-.361-.149 57.447 57.447 0 00-.022 1.508c0 2.187.06 3.412.181 3.674.064.141.262.226.594.254.567.043.942.124 1.126.245.106.063.177.191.212.382l-1.051.021-.956-.021-1.592.01-1.38-.021zm2.771-12.146a1.98 1.98 0 00-.021.276c0 2.527.024 3.942.074 4.247.099.559.297.952.594 1.178.461.361 1.119.542 1.975.542.885 0 1.632-.305 2.241-.913.608-.616.913-1.412.913-2.389 0-1.175-.322-2.106-.966-2.793-.645-.686-1.494-1.03-2.549-1.03-.446 0-.856.075-1.231.223a3.025 3.025 0 00-1.03.659zm8.335 12.146a2.064 2.064 0 01-.011-.212c0-.05.007-.11.021-.181l1.062-.212c.17-.085.308-.188.414-.308.035-.127.053-.255.053-.382 0-1.09-.028-3.168-.085-6.233l-.032-3.886c-.014-.616-.053-1.005-.116-1.168a.45.45 0 00-.16-.201c-.177-.135-.531-.248-1.061-.34l.063-.319c.765-.325 1.274-.577 1.529-.754.262-.184.51-.438.743-.764l.128-.032c.049 0 .12.021.212.064-.007.446-.01.74-.01.881l.01 1.168a5.772 5.772 0 011.635-.881 5.307 5.307 0 011.763-.297c1.09 0 2.01.385 2.76 1.157.751.764 1.126 1.752 1.126 2.962 0 .899-.213 1.706-.637 2.421a3.932 3.932 0 01-1.742 1.603 5.098 5.098 0 01-2.229.531c-.637 0-1.366-.173-2.187-.52a26.985 26.985 0 00-.361-.149 57.447 57.447 0 00-.022 1.508c0 2.187.06 3.412.181 3.674.064.141.262.226.594.254.567.043.942.124 1.126.245.106.063.177.191.212.382l-1.051.021-.956-.021-1.592.01-1.38-.021zm2.771-12.146a1.98 1.98 0 00-.021.276c0 2.527.024 3.942.074 4.247.099.559.297.952.594 1.178.461.361 1.119.542 1.975.542.885 0 1.632-.305 2.241-.913.608-.616.913-1.412.913-2.389 0-1.175-.322-2.106-.966-2.793-.645-.686-1.494-1.03-2.549-1.03-.446 0-.856.075-1.231.223a3.034 3.034 0 00-1.03.659zm9.609 3.907c.262.672.46 1.108.594 1.306.269.403.591.718.966.945.376.219.783.329 1.222.329.403 0 .803-.173 1.199-.52.283-.262.425-.566.425-.913 0-.46-.166-.885-.499-1.274-.333-.383-.966-.747-1.901-1.094-.927-.354-1.55-.729-1.868-1.126a2.106 2.106 0 01-.478-1.359c0-.481.131-.906.393-1.274a2.374 2.374 0 011.083-.828c.46-.191.885-.287 1.274-.287.502 0 .952.039 1.348.117.404.078.751.198 1.041.361.056.361.103.892.138 1.593l.021.34c-.092.007-.17.01-.233.01h-.149c-.212-.587-.538-1.051-.977-1.391-.432-.346-.86-.52-1.285-.52-.424 0-.768.131-1.03.393-.261.255-.392.591-.392 1.009 0 .318.106.601.318.849.212.248.708.531 1.487.849.785.319 1.355.616 1.709.892.361.269.626.598.796.988.17.389.255.761.255 1.115 0 .488-.163.945-.488 1.369a2.52 2.52 0 01-1.211.892c-.481.177-.913.266-1.295.266a6.125 6.125 0 01-2.485-.499c-.07-.057-.109-.163-.116-.319 0-.064-.007-.166-.022-.308-.113-.955-.169-1.522-.169-1.699 0-.085.017-.141.053-.17.035-.028.127-.042.276-.042z" fill="#fff"/><path opacity=".3" fill-rule="evenodd" clip-rule="evenodd" d="M305.586 275.93h-66.594v-1.359h66.594v1.359z" fill="#fff"/><path d="M250.268 289.329c.057.467.085.736.085.807l-.043.945c-.014.404-.031.662-.053.775a.413.413 0 01-.159.043l-.095-.022c-.227-.991-.613-1.713-1.158-2.166-.538-.453-1.196-.679-1.975-.679-.807 0-1.468.226-1.985.679-.517.453-.775.981-.775 1.582 0 .46.18.882.541 1.264.361.382 1.285.955 2.771 1.72 1.133.587 1.943 1.069 2.432 1.444.488.368.856.796 1.104 1.285.248.488.372 1.033.372 1.635 0 .757-.198 1.469-.595 2.134a3.82 3.82 0 01-1.582 1.508c-.665.332-1.547.499-2.644.499a8.347 8.347 0 01-2.75-.457c-.516-.184-.831-.333-.945-.446a.506.506 0 01-.169-.361c0-.078.007-.177.021-.297.099-.835.152-1.522.159-2.06.014-.333.039-.527.074-.584.029-.049.082-.074.16-.074.063 0 .113.025.148.074.043.043.071.127.085.255.078.871.482 1.649 1.211 2.336.722.686 1.539 1.03 2.452 1.03a3.39 3.39 0 001.54-.351c.474-.233.842-.57 1.104-1.008.269-.446.404-.878.404-1.296 0-.573-.202-1.097-.606-1.571-.403-.474-1.214-1.026-2.431-1.656-1.218-.638-2.01-1.101-2.378-1.391-.595-.475-1.041-.977-1.338-1.508-.22-.411-.329-.888-.329-1.433 0-.984.389-1.816 1.168-2.496.778-.686 1.822-1.03 3.132-1.03.722 0 1.345.082 1.868.245.383.127.776.336 1.179.626zm10.395 7.496l-4.258.032h-.807c-.326 0-.658.014-.998.042-.064.213-.096.358-.096.436l.011.106v.106l-.011.52c0 .432.135.963.404 1.593.276.623.665 1.101 1.168 1.433.509.326 1.143.499 1.9.521.404-.022.726-.071.967-.149.24-.078.58-.258 1.019-.541l.764-.627.064.425c0 .049-.004.102-.011.159a4.663 4.663 0 01-1.21 1.062 5.794 5.794 0 01-1.486.669c-.241.063-.638.095-1.19.095a3.79 3.79 0 01-1.486-.308 3.654 3.654 0 01-1.71-1.497c-.41-.693-.615-1.532-.615-2.516 0-.311.056-.711.17-1.2.12-.488.332-1.008.637-1.561.205-.375.456-.683.753-.923.425-.34.797-.577 1.115-.712.46-.191.995-.286 1.604-.286.658 0 1.196.12 1.613.361.567.318.988.729 1.264 1.231.283.503.425.963.425 1.381v.148zm-5.925-.382h.499c.361 0 1.437-.057 3.228-.17.283-.014.456-.042.52-.085.127-.134.191-.255.191-.361 0-.219-.071-.467-.212-.743a1.43 1.43 0 00-.658-.648 2.124 2.124 0 00-1.02-.233c-.821 0-1.479.308-1.975.923-.382.468-.573.906-.573 1.317zm7.018 6.02l-.042-.138c0-.049.032-.124.095-.223l.627-.127.881-.16a.302.302 0 00.149-.148c.042-.092.063-.365.063-.818 0-2.406-.014-3.794-.042-4.162-.028-.375-.092-.612-.191-.711-.099-.099-.354-.177-.765-.234a2.586 2.586 0 01-.573-.138l.042-.318c.744-.305 1.243-.567 1.498-.786.353-.319.654-.736.902-1.253l.361.011c.042.354.064 1.139.064 2.357l-.011.18c0 .043.007.11.021.202a6.165 6.165 0 011.009-1.348l.244-.245c.099-.113.195-.201.287-.265.495-.297.863-.446 1.104-.446.312 0 .566.106.765.319.198.205.297.46.297.764 0 .241-.071.428-.212.563a.943.943 0 01-.659.265c-.113 0-.336-.06-.669-.18-.332-.121-.552-.181-.658-.181-.198 0-.336.032-.414.096-.198.155-.439.474-.722.955-.219.361-.329.694-.329.998l.053 1.752.021 2.103c.021.24.05.396.085.467.028.049.099.109.212.18.765.064 1.218.11 1.359.138.1.007.174.014.223.021.305.008.517.05.638.128a.171.171 0 01.095.159c0 .043-.028.099-.085.17l-1.178-.011-.446-.01-.648.01h-1.083l-.584.032-1.784.032zm7.56-8.462a33.49 33.49 0 012.06.074c.417 0 .722-.007.913-.021.134-.007.219-.011.255-.011l1.189.011c.163.028.294.046.393.053.042.014.081.053.117.117a.472.472 0 01-.064.223c-.12.035-.244.056-.372.064a7.694 7.694 0 00-1.338.244c-.049.035-.074.071-.074.106 0 .071.035.18.106.329l.096.255 1.062 2.548a40.692 40.692 0 001.316 2.952 20.17 20.17 0 00.765-1.625c.233-.559.577-1.44 1.03-2.643.127-.34.247-.761.361-1.264.021-.099.031-.184.031-.255 0-.085-.049-.177-.148-.276-.092-.106-.252-.191-.478-.255-.05-.007-.372-.06-.966-.159a.5.5 0 01-.138-.117v-.085c0-.035.003-.081.01-.138.17-.021.294-.032.372-.032l1.253.011c.085 0 .287-.011.605-.032 1.126 0 1.801.011 2.028.032.042.014.081.057.117.127a.448.448 0 01-.064.213l-.329.085a3.737 3.737 0 00-.202.021c-.609.057-.984.142-1.125.255-.106.078-.273.442-.499 1.093-.106.319-.262.722-.467 1.211l-.553 1.338-.254.626-1.646 3.801h-.319a5.354 5.354 0 00-.233-.531l-.807-1.709-1.901-4.449c-.382-.863-.612-1.331-.69-1.401-.078-.071-.531-.22-1.359-.446a.838.838 0 01-.064-.245l.011-.095zm11.817-4.619c0-.233.089-.435.266-.605a.936.936 0 01.658-.255c.262 0 .492.096.69.287.198.191.298.396.298.616 0 .219-.1.428-.298.626a.964.964 0 01-.69.287.893.893 0 01-.658-.266c-.177-.177-.266-.407-.266-.69zm-.892 5.5l.011-.308c.46-.134.708-.212.743-.233a3.4 3.4 0 00.797-.521c.283-.233.52-.495.711-.785.085-.014.152-.022.202-.022l.127.011c.029.34.043.588.043.743 0 .036-.007.195-.022.478v.563l.011 3.058-.032 3.238c-.007.262.036.446.128.552.092.099.364.213.817.34.283.078.496.145.637.202a.337.337 0 01.032.127.347.347 0 01-.053.159c-.276-.007-.63-.024-1.062-.053a17.891 17.891 0 00-1.168-.074c-.092 0-.658.018-1.699.053a5.744 5.744 0 00-.615.053.695.695 0 01-.17-.032.227.227 0 01-.053-.127c0-.099.067-.177.201-.234.029-.014.39-.095 1.083-.244.227-.042.376-.113.446-.212.121-.149.181-.386.181-.712.014-.545.021-2.038.021-4.48 0-.489-.021-.793-.064-.913-.035-.085-.131-.181-.286-.287-.149-.113-.471-.227-.967-.34zm12.858 5.606l.011.69c-.552.588-1.097.998-1.635 1.232-.538.234-1.172.35-1.901.35a3.878 3.878 0 01-2.144-.615c-.637-.418-1.129-1.006-1.476-1.763-.34-.757-.51-1.501-.51-2.23 0-.799.205-1.553.616-2.261.418-.715.966-1.246 1.646-1.593.686-.354 1.546-.531 2.58-.531.991 0 1.745.17 2.261.51.291.198.436.453.436.764a.764.764 0 01-.223.563.776.776 0 01-.574.223c-.354 0-.743-.219-1.168-.658-.262-.269-.499-.453-.711-.552a1.568 1.568 0 00-.711-.16c-.63 0-1.154.259-1.572.776-.58.736-.87 1.659-.87 2.771 0 1.146.297 2.06.891 2.739.595.68 1.289 1.019 2.081 1.019.553 0 1.041-.088 1.466-.265.432-.184.934-.52 1.507-1.009zm8.994-3.663l-4.258.032h-.807c-.326 0-.658.014-.998.042-.064.213-.096.358-.096.436l.011.106v.106l-.011.52c0 .432.135.963.404 1.593.276.623.665 1.101 1.168 1.433.509.326 1.143.499 1.9.521.404-.022.726-.071.966-.149.241-.078.581-.258 1.02-.541l.764-.627.064.425c0 .049-.004.102-.011.159a4.663 4.663 0 01-1.21 1.062 5.784 5.784 0 01-1.487.669c-.24.063-.637.095-1.189.095a3.79 3.79 0 01-1.486-.308 3.654 3.654 0 01-1.71-1.497c-.41-.693-.615-1.532-.615-2.516 0-.311.056-.711.169-1.2a6.51 6.51 0 01.638-1.561c.205-.375.456-.683.753-.923.425-.34.797-.577 1.115-.712.46-.191.995-.286 1.603-.286.659 0 1.197.12 1.614.361.567.318.988.729 1.264 1.231.283.503.425.963.425 1.381v.148zm-5.925-.382h.499c.361 0 1.437-.057 3.228-.17.283-.014.456-.042.52-.085.127-.134.191-.255.191-.361 0-.219-.071-.467-.212-.743a1.428 1.428 0 00-.659-.648 2.12 2.12 0 00-1.019-.233c-.821 0-1.479.308-1.975.923-.382.468-.573.906-.573 1.317z" fill="#fff"/></svg>