<svg width="390" height="350" fill="none" xmlns="http://www.w3.org/2000/svg"><g clip-path="url(#clip0_367_10527)"><path fill-rule="evenodd" clip-rule="evenodd" d="M290.785 285.912s-3.024-.667-3.467-.506c-.444.162-5.765 1.92-5.765 1.92l-3.713 4.846-1.734 5.558.912 8.524-.887 3.895-4.378 4.548-1.547 2.834-1.094 4.043.726 2.925 1.733 3.35 2.827 2.137 3.023 1.551s3.331 1.011 6.178-.55c2.847-1.562 5.316-5.68 6.047-10.05.73-4.371-1.784-7.736-1.094-10.752a16.187 16.187 0 012.278-5.25l2.192-4.386-2.237-14.637zm-31.972 13.889c3.023-1.627 8.425.703 8.566 4.462.071 1.693.277 5.002-1.325 7.195-1.945 2.653-5.79 4.275-6.087 7.271a12.067 12.067 0 002.418 7.276c2.651 3.597-6.394 12.576-14.431 5.82-8.037-6.755 1.95-8.246 2.338-13.253.388-5.007-5.099-11.419 8.521-18.771zm110.463-46.004l5.22 3.567 2.489 4.163.711 4.689-.474 4.189-1.658 5.164-3.562 3.208-4.163 2.38-2.136 2.021.831 5.169.595 5.184-1.426 3.805-4.626 3.067-5.099 1.809-1.744 2.384v4.629l-.594 4.279-4.273 3.219-3.794 1.187s-7.322 1.375-12.935-15.35l1.068-3.673 2.832-2.021 4.882-2.259 2.253-3.451.831-3.809-1.688-6.923.121-4.163.827-3.143 2.615-1.263 4.152-1.47h3.2l2.257-3.239 1.068-7.422 2.847-4.876 4.268-1.072s3.422-1.141 5.105.021z" fill="#fff"/><path fill-rule="evenodd" clip-rule="evenodd" d="M386.957 182.72a2.433 2.433 0 012.26 1.503 2.445 2.445 0 01-.522 2.669 2.433 2.433 0 01-3.755-.366 2.457 2.457 0 01.298-3.087 2.424 2.424 0 011.719-.719zm-8.313 0a2.43 2.43 0 011.357.408 2.454 2.454 0 01.381 3.764 2.435 2.435 0 01-3.755-.366 2.449 2.449 0 01-.229-2.294 2.447 2.447 0 011.315-1.324c.295-.123.611-.187.931-.188zm-8.32 0a2.44 2.44 0 012.404 2.917 2.448 2.448 0 01-1.914 1.927 2.435 2.435 0 01-2.507-1.038 2.456 2.456 0 01-.411-1.36 2.443 2.443 0 01.707-1.729 2.436 2.436 0 011.721-.717z" fill="#6A7077"/><path fill-rule="evenodd" clip-rule="evenodd" d="M370.324 182.72a2.44 2.44 0 012.404 2.917 2.448 2.448 0 01-1.914 1.927 2.435 2.435 0 01-2.507-1.038 2.456 2.456 0 01-.411-1.36 2.443 2.443 0 01.707-1.729 2.436 2.436 0 011.721-.717zm-8.324 0a2.433 2.433 0 012.26 1.503 2.445 2.445 0 01-.522 2.669 2.433 2.433 0 01-3.755-.366 2.457 2.457 0 01.298-3.087 2.424 2.424 0 011.719-.719zm-8.314 0a2.43 2.43 0 011.357.408 2.454 2.454 0 01.381 3.764 2.435 2.435 0 01-3.755-.366 2.449 2.449 0 01-.229-2.294 2.447 2.447 0 011.315-1.324c.295-.123.611-.187.931-.188zm-8.32 0a2.447 2.447 0 01.49 4.844 2.435 2.435 0 01-2.507-1.038 2.456 2.456 0 01-.411-1.36 2.436 2.436 0 011.496-2.259c.296-.123.612-.187.932-.187zm41.591 0a2.433 2.433 0 012.26 1.503 2.445 2.445 0 01-.522 2.669 2.433 2.433 0 01-3.755-.366 2.457 2.457 0 01.298-3.087 2.424 2.424 0 011.719-.719zm-8.313 0a2.43 2.43 0 011.357.408 2.454 2.454 0 01.381 3.764 2.435 2.435 0 01-3.755-.366 2.449 2.449 0 01-.229-2.294 2.447 2.447 0 011.315-1.324c.295-.123.611-.187.931-.188z" fill="#6A7077"/><path fill-rule="evenodd" clip-rule="evenodd" d="M370.324 182.72a2.44 2.44 0 012.404 2.917 2.448 2.448 0 01-1.914 1.927 2.435 2.435 0 01-2.507-1.038 2.456 2.456 0 01-.411-1.36 2.443 2.443 0 01.707-1.729 2.436 2.436 0 011.721-.717z" fill="#6A7077"/><path fill-rule="evenodd" clip-rule="evenodd" d="M370.324 182.72a2.44 2.44 0 012.404 2.917 2.448 2.448 0 01-1.914 1.927 2.435 2.435 0 01-2.507-1.038 2.456 2.456 0 01-.411-1.36 2.443 2.443 0 01.707-1.729 2.436 2.436 0 011.721-.717zm-8.324 0a2.433 2.433 0 012.26 1.503 2.445 2.445 0 01-.522 2.669 2.433 2.433 0 01-3.755-.366 2.457 2.457 0 01.298-3.087 2.424 2.424 0 011.719-.719zm-8.314 0a2.43 2.43 0 011.357.408 2.454 2.454 0 01.381 3.764 2.435 2.435 0 01-3.755-.366 2.449 2.449 0 01-.229-2.294 2.447 2.447 0 011.315-1.324c.295-.123.611-.187.931-.188zm-8.32 0a2.447 2.447 0 01.49 4.844 2.435 2.435 0 01-2.507-1.038 2.456 2.456 0 01-.411-1.36 2.436 2.436 0 011.496-2.259c.296-.123.612-.187.932-.187zm41.591 8.378a2.437 2.437 0 012.261 1.504 2.453 2.453 0 01-.525 2.669 2.438 2.438 0 01-2.66.531 2.448 2.448 0 01-.794-3.987 2.429 2.429 0 011.718-.717zm-8.313 0a2.44 2.44 0 012.402 2.918 2.448 2.448 0 01-1.916 1.926 2.434 2.434 0 01-2.506-1.043 2.447 2.447 0 01-.409-1.361c0-.646.256-1.266.711-1.723a2.427 2.427 0 011.718-.717zm-8.32 0a2.437 2.437 0 012.261 1.504 2.445 2.445 0 01-1.774 3.34 2.434 2.434 0 01-2.506-1.043 2.447 2.447 0 01-.409-1.361 2.428 2.428 0 01.709-1.725 2.418 2.418 0 011.719-.715z" fill="#6A7077"/><path fill-rule="evenodd" clip-rule="evenodd" d="M370.324 191.098a2.437 2.437 0 012.261 1.504 2.445 2.445 0 01-1.774 3.34 2.434 2.434 0 01-2.506-1.043 2.447 2.447 0 01-.409-1.361 2.428 2.428 0 01.709-1.725 2.418 2.418 0 011.719-.715zm-8.324 0a2.437 2.437 0 012.261 1.504 2.453 2.453 0 01-.525 2.669 2.438 2.438 0 01-2.66.531 2.448 2.448 0 01-.794-3.987 2.429 2.429 0 011.718-.717zm-8.314 0a2.44 2.44 0 012.402 2.918 2.448 2.448 0 01-1.916 1.926 2.434 2.434 0 01-2.506-1.043 2.447 2.447 0 01-.409-1.361c0-.646.256-1.266.711-1.723a2.427 2.427 0 011.718-.717zm-8.32 0a2.437 2.437 0 012.261 1.504 2.445 2.445 0 01-1.774 3.34 2.434 2.434 0 01-2.506-1.043 2.447 2.447 0 01-.409-1.361 2.428 2.428 0 01.709-1.725 2.418 2.418 0 011.719-.715z" fill="#6A7077"/><path d="M143.682 134.807l-8.579 8.603 2.191 2.197 8.58-8.603-2.192-2.197z" fill="#057AFF"/><path d="M137.292 134.796l-2.19 2.198 8.581 8.602 2.191-2.198-8.582-8.602z" fill="#057AFF"/><path d="M339.052 131.082a2.016 2.016 0 011.435 1.762 2.04 2.04 0 01-.089.795 2.055 2.055 0 01-2.58 1.313 2.016 2.016 0 01-1.153-1.002 2.026 2.026 0 01-.122-1.524 2.01 2.01 0 012.509-1.344zm2.036-7.872a2.05 2.05 0 011.262.921c.283.462.373 1.017.25 1.545a2.031 2.031 0 01-.914 1.282 2.023 2.023 0 01-1.555.233 2.046 2.046 0 01-1.456-2.45 2.014 2.014 0 012.413-1.531zm1.558-7.983a2.003 2.003 0 011.321.829 2.026 2.026 0 01.337 1.525 1.994 1.994 0 01-.81 1.326 1.978 1.978 0 01-1.513.331 2.069 2.069 0 01-1.303-.841 2.08 2.08 0 01-.355-1.513 2.031 2.031 0 01.819-1.311 2.004 2.004 0 011.504-.346zm1.007-8.064a1.977 1.977 0 011.366.739c.167.209.29.449.361.707.072.257.092.527.057.792a2.015 2.015 0 01-.742 1.371 2.01 2.01 0 01-1.495.433 2.027 2.027 0 01-1.359-.753 2.042 2.042 0 01-.19-2.252 2.03 2.03 0 012.002-1.037zm.448-8.13a2.011 2.011 0 011.844 1.322c.092.252.134.521.122.79a2.054 2.054 0 01-.667 1.418c-.4.365-.929.557-1.47.532a2.016 2.016 0 01-1.899-2.112 2.045 2.045 0 012.07-1.95zm-.125-8.12a2.015 2.015 0 012.116 1.966 1.976 1.976 0 01-1.965 2.097 2.08 2.08 0 01-2.071-1.966c-.02-.533.17-1.052.53-1.445a2.011 2.011 0 011.39-.652zm-.706-8.099a1.962 1.962 0 011.495.42 1.98 1.98 0 01.728 1.373 2.044 2.044 0 01-.428 1.5 2.025 2.025 0 01-1.366.749 2.043 2.043 0 01-2.222-1.794 2.087 2.087 0 011.793-2.248zm-1.471-7.994a2.035 2.035 0 012.105.843 2.06 2.06 0 01.029 2.272 2.043 2.043 0 01-1.287.887 2.023 2.023 0 01-2.394-1.577 2.038 2.038 0 01.29-1.526 2.03 2.03 0 011.282-.874l-.025-.025zm-2.217-7.821a1.953 1.953 0 012.52 1.319 2.038 2.038 0 01-.123 1.557 2.012 2.012 0 01-1.193 1.004 2.05 2.05 0 01-2.519-1.313 2.123 2.123 0 011.315-2.567zm-3.316-7.413a2.013 2.013 0 012.741.915 1.95 1.95 0 01-.286 2.267 1.942 1.942 0 01-.661.461 2.121 2.121 0 01-2.681-.944 2.07 2.07 0 01-.094-1.527 2.06 2.06 0 01.981-1.172zm-4.575-6.689a2.007 2.007 0 012.297-.21c.238.136.445.319.61.538a1.996 1.996 0 01.127 2.305 1.982 1.982 0 01-.565.585 2.062 2.062 0 01-2.766-.43 2.028 2.028 0 01.297-2.788zm-5.815-5.654a1.904 1.904 0 012.17-.586c.25.096.477.244.667.434a2.03 2.03 0 01.173 2.857 2.014 2.014 0 01-2.849.175 2.155 2.155 0 01-.631-1.41 2.157 2.157 0 01.47-1.47zm-6.692-4.578a2.086 2.086 0 012.857-.728 2.06 2.06 0 01.889 1.326 2.068 2.068 0 01-.32 1.565 2.01 2.01 0 01-2.736.505 1.97 1.97 0 01-.69-2.668zm-7.341-3.415a1.972 1.972 0 012.645-1.127 1.931 1.931 0 011.296 1.848 1.957 1.957 0 01-.172.779 2.122 2.122 0 01-2.641 1.127 2.092 2.092 0 01-1.128-2.628zm-7.836-2.032a1.954 1.954 0 012.409-1.602 2.047 2.047 0 011.547 2.481 2.02 2.02 0 01-.895 1.226 2.01 2.01 0 01-1.493.255 2.116 2.116 0 01-1.568-2.36zm-8.068-.733a2.074 2.074 0 01.666-1.43 2.056 2.056 0 011.481-.535 1.948 1.948 0 011.821 1.366c.081.259.108.532.079.801a2.1 2.1 0 01-2.137 1.875 2.014 2.014 0 01-1.377-.648 2.024 2.024 0 01-.533-1.429zm-8.102.243a2.043 2.043 0 01.502-1.474 2.02 2.02 0 011.398-.678 1.958 1.958 0 011.473.485 1.967 1.967 0 01.664 1.404 2.092 2.092 0 01-.524 1.458c-.354.401-.849.65-1.381.695a2.049 2.049 0 01-2.132-1.89zm-8.047 1a1.967 1.967 0 01.033-.793 1.978 1.978 0 011.685-1.495 2.012 2.012 0 012.042.97c.136.231.225.487.261.753a2.052 2.052 0 01-1.718 2.289 2.073 2.073 0 01-2.303-1.724zm-7.956 1.572a1.979 1.979 0 01.277-1.53 1.986 1.986 0 011.29-.86 2.017 2.017 0 012.087.834c.15.22.256.467.312.727a2.045 2.045 0 01-.282 1.526 2.029 2.029 0 01-1.275.88 2.077 2.077 0 01-2.409-1.577zm-7.866 1.985a2.01 2.01 0 01.208-1.54 1.997 1.997 0 011.249-.92 2.014 2.014 0 012.459 1.455c.133.52.055 1.072-.217 1.534a2.018 2.018 0 01-1.235.932 2.062 2.062 0 01-2.464-1.46zm-7.78 2.285a2.032 2.032 0 011.381-2.512 2.017 2.017 0 012.504 1.385 2.03 2.03 0 01-2.912 2.356 2.032 2.032 0 01-.973-1.21v-.02zm-7.725 2.5a2.03 2.03 0 01.606-2.157 2.014 2.014 0 013.322 1.679 2.018 2.018 0 01-1.368 1.772 2.036 2.036 0 01-2.56-1.294zm-7.669 2.643a2.02 2.02 0 01.564-2.168 2.013 2.013 0 013.354 1.612 2.022 2.022 0 01-1.333 1.799 2.011 2.011 0 01-2.585-1.243zm-7.634 2.749a2.022 2.022 0 011.214-2.608 2.014 2.014 0 012.595 1.208 2.034 2.034 0 01-1.988 2.732 2.025 2.025 0 01-1.821-1.332zm-7.604 2.824a2.03 2.03 0 01.512-2.183 2.014 2.014 0 013.391 1.538 2.023 2.023 0 01-1.298 1.827 2.01 2.01 0 01-2.605-1.182zm-7.583 2.89a2.026 2.026 0 01.505-2.183 2.01 2.01 0 013.086.393 2.027 2.027 0 01-.056 2.24 2.017 2.017 0 01-2.471.683 2.01 2.01 0 01-1.064-1.133zm-7.745 2.37a2.04 2.04 0 01.217-1.536 2.03 2.03 0 011.237-.932 2.013 2.013 0 012.119.745 2.028 2.028 0 01-1.112 3.181 2.014 2.014 0 01-1.531-.218 2.027 2.027 0 01-.93-1.24zm-8.042.96a2.023 2.023 0 01.509-1.436 2.01 2.01 0 011.365-.671 2.014 2.014 0 012.167 1.794 2.03 2.03 0 01-1.86 2.177 2.02 2.02 0 01-2.171-1.864h-.01zm-8.103-.182a2.09 2.09 0 012.132-1.895 2.053 2.053 0 011.919 2.107 2.03 2.03 0 01-.661 1.421 2.017 2.017 0 01-1.475.52 1.967 1.967 0 01-1.823-1.355 1.978 1.978 0 01-.092-.798zm-8.042-1.021a2.046 2.046 0 012.298-1.697 2.07 2.07 0 011.708 2.31 1.97 1.97 0 01-.787 1.34 1.973 1.973 0 01-1.511.357 2.011 2.011 0 01-1.672-1.516 2.021 2.021 0 01-.036-.794zm-7.956-1.591a2.026 2.026 0 011.615-1.575 2.021 2.021 0 012.069.894 2.027 2.027 0 01.281 1.53 2.03 2.03 0 01-2.406 1.563 2.028 2.028 0 01-1.559-2.412zm-7.866-1.966a2.02 2.02 0 013.702-.527 2.029 2.029 0 01-2.246 2.998 2.033 2.033 0 01-1.456-2.47zm-7.795-2.253a2.03 2.03 0 012.519-1.375c.516.153.95.505 1.207.979a2.04 2.04 0 01-.204 2.25 2.023 2.023 0 01-2.852.303 2.046 2.046 0 01-.742-1.367 2.03 2.03 0 01.072-.79zm-7.73-2.41a2.021 2.021 0 011.741-1.416 2.019 2.019 0 012.189 2.225 2.019 2.019 0 01-1.434 1.726 2.018 2.018 0 01-2.496-2.535zm-7.735-2.511a2.022 2.022 0 011.76-1.384 2.012 2.012 0 011.951 1.097 2.034 2.034 0 01-.26 2.228 2.019 2.019 0 01-2.151.615 2.02 2.02 0 01-1.3-2.557zm-7.704-2.552a2.023 2.023 0 011.764-1.378 2.012 2.012 0 011.947 1.102 2.025 2.025 0 01-1.248 2.858 2.011 2.011 0 01-2.348-1.03 2.038 2.038 0 01-.115-1.552zm-7.705-2.527a2.014 2.014 0 013.917.867 2.029 2.029 0 01-1.449 1.709 2.01 2.01 0 01-2.349-1.026 2.034 2.034 0 01-.119-1.55zm-7.734-2.455a2.021 2.021 0 011.738-1.417 2.013 2.013 0 011.97 1.069 2.02 2.02 0 01-2.378 2.874 2.026 2.026 0 01-1.33-2.526zm-7.775-2.329a2.014 2.014 0 012.519-1.38 2.015 2.015 0 011.451 1.735 2.04 2.04 0 01-.075.792 2.025 2.025 0 01-3.728.406 2.041 2.041 0 01-.167-1.548v-.005zm-7.821-2.153a2.013 2.013 0 013.689-.493 2.028 2.028 0 01-.136 2.238 2.016 2.016 0 01-2.111.736 2.012 2.012 0 01-1.237-.94 2.022 2.022 0 01-.205-1.54zm-7.885-1.9a2.014 2.014 0 013.954.127 2.021 2.021 0 01-2.054 2.343 2.012 2.012 0 01-1.819-1.301 2.017 2.017 0 01-.081-1.169zm-7.957-1.576a2.024 2.024 0 011.574-1.626c.262-.055.532-.057.794-.006a2.012 2.012 0 011.615 1.572c.054.261.057.53.008.793a2.067 2.067 0 01-.856 1.286c-.441.302-.981.42-1.508.33a2.012 2.012 0 01-1.613-1.56 2.024 2.024 0 01-.014-.789zm-8.022-1.208a2.025 2.025 0 011.49-1.682c.258-.067.525-.083.788-.046a2.03 2.03 0 011.697 1.496 2.045 2.045 0 01-.728 2.144 2.032 2.032 0 01-1.503.403 2.07 2.07 0 01-1.342-.802 2.081 2.081 0 01-.402-1.512zm-8.083-.652a2.03 2.03 0 011.368-1.784 2.015 2.015 0 012.561 1.269c.085.252.12.518.103.783a2.023 2.023 0 01-.69 1.37 2.01 2.01 0 01-1.452.49 2.014 2.014 0 01-1.382-.673 2.024 2.024 0 01-.508-1.454zm-8.107-.085c-.006-.54.202-1.06.578-1.445a2.025 2.025 0 012.868-.032 2.037 2.037 0 01.032 2.876 2.026 2.026 0 01-3.478-1.4zm-8.077.697a2.039 2.039 0 011.046-2 2.023 2.023 0 012.985 1.57 2.036 2.036 0 01-.44 1.492 2.025 2.025 0 01-3.591-1.062zm-7.966 1.486a2.038 2.038 0 01.271-1.533 2.028 2.028 0 012.801-.618 2.033 2.033 0 01.616 2.808 2.028 2.028 0 01-2.8.619 2.034 2.034 0 01-.888-1.276zm-7.71 2.495a2.026 2.026 0 011.21-2.678 2.06 2.06 0 012.605 1.32 1.98 1.98 0 01-1.265 2.526 2.01 2.01 0 01-2.55-1.168zm-7.095 3.907a1.994 1.994 0 01.64-2.835 1.952 1.952 0 012.807.692 2.111 2.111 0 01-.68 2.754 2.056 2.056 0 01-2.767-.612zm-6.303 5.113a2.036 2.036 0 01-.294-2.243 2.036 2.036 0 011.169-1.027 2.025 2.025 0 012.178.587 2.04 2.04 0 01-.188 2.872 2.026 2.026 0 01-2.865-.19zm-5.543 5.927a2.028 2.028 0 011.22-3.539c.534-.032 1.06.15 1.46.507a2.028 2.028 0 01-1.219 3.538 2.017 2.017 0 01-1.461-.507zm-4.868 6.502a2.02 2.02 0 01-.804-2.116c.061-.26.174-.507.33-.724a1.974 1.974 0 011.313-.846 1.964 1.964 0 011.514.377 2.082 2.082 0 01.459 2.83 2.05 2.05 0 01-2.812.48zm-4.258 6.908a2.018 2.018 0 01-.987-2.03c.037-.265.126-.52.262-.75a2.019 2.019 0 012.042-.985c.265.04.52.133.75.273a2.061 2.061 0 01.695 2.769 2.018 2.018 0 01-2.018.982 2.015 2.015 0 01-.744-.26zm-3.693 7.25a2.018 2.018 0 01-1.16-1.927 2.024 2.024 0 011.337-1.807 2.01 2.01 0 012.175.551 2.024 2.024 0 01-.821 3.256 2.01 2.01 0 01-1.531-.073zm-3.164 7.488a1.985 1.985 0 01-1.283-1.862c0-.268.054-.534.16-.78a2.022 2.022 0 011.084-1.118 2.01 2.01 0 012.65 1.082c.207.493.215 1.048.019 1.546a2.078 2.078 0 01-2.63 1.132zm-2.601 7.7a2.013 2.013 0 01-1.194-1.001 2.025 2.025 0 01-.126-1.555 1.992 1.992 0 011.76-1.422c.268-.02.536.015.79.103a2.092 2.092 0 011.3 2.557 2.022 2.022 0 01-1.748 1.404 2.008 2.008 0 01-.782-.086zm-2.076 7.877a2.027 2.027 0 01-1.249-.922 2.037 2.037 0 01.688-2.79 2.022 2.022 0 012.783.689 2.037 2.037 0 01-.688 2.79 2.022 2.022 0 01-1.534.233zm-1.547 7.969a2.03 2.03 0 01-1.31-.837 2.04 2.04 0 01.5-2.834 2.025 2.025 0 012.825.5 2.04 2.04 0 01-.499 2.834 2.03 2.03 0 01-1.516.337zm-.922 8.074A2.015 2.015 0 01.58 109.1a2.024 2.024 0 01-.076-.795 2.024 2.024 0 011.44-1.75 2 2 0 01.792-.069c.528.063 1.011.33 1.347.744a2.022 2.022 0 01-1.74 3.298zm-.327 8.129a1.967 1.967 0 01-1.457-.603A1.993 1.993 0 010 116.576a2.024 2.024 0 01.623-1.416 2.011 2.011 0 012.85.064c.37.388.57.907.558 1.443a2.074 2.074 0 01-.614 1.395 2.06 2.06 0 01-1.401.595zm.302 8.12a2.02 2.02 0 01-1.473-.501 2.02 2.02 0 01-.679-1.404 1.991 1.991 0 011.117-1.959c.24-.116.501-.181.768-.193a2.069 2.069 0 011.458.521c.401.356.65.853.693 1.389a2.055 2.055 0 01-.507 1.457 2.042 2.042 0 01-1.377.69zm1.038 8.064a2.032 2.032 0 01-1.514-.377 2.048 2.048 0 01-.427-2.859 2.035 2.035 0 013.654.912 2.046 2.046 0 01-1.713 2.324zm1.754 7.938a1.956 1.956 0 01-1.547-.208 1.969 1.969 0 01-.908-1.272 2.028 2.028 0 01.781-2.143 2.043 2.043 0 013.164 1.157 2.106 2.106 0 01-1.49 2.466zm2.605 7.695a2.01 2.01 0 01-2.62-1.202 1.97 1.97 0 01.516-2.21c.201-.178.437-.314.693-.397a2.093 2.093 0 012.585 1.217 2.027 2.027 0 01-1.174 2.592zm3.416 7.372a2.031 2.031 0 01-1.547.107 2.03 2.03 0 01-1.275-2.572 2.032 2.032 0 011.018-1.173 2.008 2.008 0 011.519-.072 2.02 2.02 0 011.136 1.012 2.025 2.025 0 01-.851 2.698zm4.222 6.937a2.022 2.022 0 01-2.806-.591 2.037 2.037 0 011.323-3.11 2.026 2.026 0 012.368 1.623 2.04 2.04 0 01-.885 2.078zm5.257 6.185a2.024 2.024 0 01-1.466.568 2.006 2.006 0 01-1.427-.659 1.95 1.95 0 01-.371-2.257c.121-.244.292-.46.502-.633a2.115 2.115 0 012.837.141 2.055 2.055 0 01-.076 2.84zm6.121 5.315a2.022 2.022 0 01-2.852.298 2.035 2.035 0 011.067-3.601 2.026 2.026 0 012.227 1.812 2.036 2.036 0 01-.442 1.491zm6.702 4.573a2.024 2.024 0 01-2.802.611 2.038 2.038 0 01-.61-2.809 2.026 2.026 0 013.688.667 2.037 2.037 0 01-.276 1.531zm7.12 3.891a2.03 2.03 0 01-1.975 1.084 2.021 2.021 0 01-1.375-.72 2.024 2.024 0 01-.465-1.483 2.024 2.024 0 013.951-.43 2.037 2.037 0 01-.136 1.549zm7.357 3.42c-.217.494-.621.88-1.122 1.075a2.029 2.029 0 01-2.587-2.717 2.03 2.03 0 011.122-1.074 2.03 2.03 0 012.622 1.161 2.037 2.037 0 01-.035 1.555zm7.553 2.971a2.015 2.015 0 01-2.62 1.193 2.025 2.025 0 01-1.17-2.643 2.021 2.021 0 011.065-1.111 2.009 2.009 0 011.536-.036 2.02 2.02 0 011.189 2.597zm7.679 2.612a2.017 2.017 0 01-2.565 1.309 2.013 2.013 0 01-1.182-1.012 2.025 2.025 0 01-.113-1.555 2.058 2.058 0 012.56-1.283 2.025 2.025 0 011.3 2.541zm7.77 2.33a2.022 2.022 0 01-3.722.419 2.038 2.038 0 01.795-2.762 2.018 2.018 0 012.244.191 2.02 2.02 0 01.75 1.362c.03.265.007.533-.067.79zm7.846 2.072a2.03 2.03 0 01-.929 1.244 2.009 2.009 0 01-1.535.216 2.025 2.025 0 01-1.454-2.468 2.018 2.018 0 012.462-1.458c.515.14.955.476 1.227.936.272.461.354 1.009.229 1.53zm7.911 1.839a2.036 2.036 0 01-1.635 1.554 2.026 2.026 0 01-2.342-1.661 2.038 2.038 0 01.918-2.063 2.025 2.025 0 012.797.636c.287.456.38 1.008.262 1.534zm7.931 1.652a2.022 2.022 0 01-1.595 1.602 2.019 2.019 0 01-.794-.005 2.012 2.012 0 01-1.29-.864 2.021 2.021 0 01-.297-1.526 2.025 2.025 0 013.673-.733c.299.448.408.997.303 1.526zm7.971 1.475a2.021 2.021 0 01-1.551 1.616 2.015 2.015 0 01-2.447-1.93 2.027 2.027 0 011.2-1.893 2.01 2.01 0 012.467.691 2.029 2.029 0 01.331 1.516zm8.002 1.36a2.027 2.027 0 11-4-.657 2.03 2.03 0 012.328-1.678 2.036 2.036 0 011.672 2.335zm8.023 1.202a2.02 2.02 0 01-2.664 1.619 2.022 2.022 0 01.95-3.908 2.017 2.017 0 011.714 2.289zm8.037 1.081a2.021 2.021 0 01-1.472 1.692 2.01 2.01 0 01-2.122-.715 2.018 2.018 0 01-.154-2.24 2.015 2.015 0 013.748 1.263zm8.052.985a2.03 2.03 0 01-.47 1.074 2.01 2.01 0 01-3.112-.06 2.02 2.02 0 01-.181-2.236 2.015 2.015 0 012.741-.784 2.01 2.01 0 01.96 1.217c.072.257.093.525.062.789zm8.067.89a2.027 2.027 0 01-1.433 1.721 2.012 2.012 0 01-2.136-.665 2.025 2.025 0 01.619-3.058 2.017 2.017 0 011.902.005 2.034 2.034 0 01.977 1.207c.075.256.099.524.071.79zm8.072.803a2.025 2.025 0 01-1.413 1.737 2.01 2.01 0 01-2.143-.64 2.03 2.03 0 01-.235-2.23 2.021 2.021 0 011.962-1.075 2.023 2.023 0 011.374.722 2.016 2.016 0 01.455 1.486zm8.078.753a2.02 2.02 0 01-2.571 1.757 2.02 2.02 0 01-1.228-2.867 2.013 2.013 0 013.714.321c.08.255.109.523.085.789zm8.082.652a2.025 2.025 0 01-1.38 1.768 2.02 2.02 0 01-1.17.027 2.024 2.024 0 01-.451-3.707 2.008 2.008 0 012.52.442 2.017 2.017 0 01.481 1.47zm8.088.626a2.026 2.026 0 01-1.382 1.764 2.015 2.015 0 01-2.628-1.674 2.023 2.023 0 011.005-2.004 2.012 2.012 0 012.911 1.129c.083.253.115.52.094.785zm8.087.617a2.022 2.022 0 01-1.381 1.764 2.02 2.02 0 01-2.431-2.826 2.008 2.008 0 013.328-.415 2.015 2.015 0 01.484 1.477zm8.093.556a2.027 2.027 0 01-1.37 1.814c-.255.086-.524.12-.792.101a1.98 1.98 0 01-1.797-1.367 1.983 1.983 0 01-.092-.791 2.086 2.086 0 012.161-1.885 2.018 2.018 0 011.89 2.128zm8.107-.076a2.036 2.036 0 01-.542 1.467 2.024 2.024 0 01-.647.464 2.038 2.038 0 01-.776.176 1.988 1.988 0 01-2.086-1.956 2.06 2.06 0 011.965-2.071 2.013 2.013 0 011.436.531c.39.359.624.858.65 1.389zm8.083-.657a2.022 2.022 0 01-2.19 2.224 2.014 2.014 0 01-1.74-1.415 2.024 2.024 0 011.718-2.608 2.02 2.02 0 012.212 1.799zm8.036-1.086a2.018 2.018 0 01-1.708 2.309 2.03 2.03 0 01-1.501-.379 2.02 2.02 0 01-.794-1.332 2.022 2.022 0 01.962-2.035 2.02 2.02 0 01.743-.266 2.046 2.046 0 011.494.384c.429.318.717.791.804 1.319zm7.982-1.461a2.036 2.036 0 01-.308 1.531 2.025 2.025 0 01-1.305.854 2.01 2.01 0 01-2.368-1.607 2.07 2.07 0 01.324-1.514c.3-.443.76-.752 1.284-.86a2.012 2.012 0 012.373 1.596zm7.921-1.748a2.013 2.013 0 01-.25 1.533 2.014 2.014 0 01-2.427.822 2.018 2.018 0 01-1.299-1.826 2.026 2.026 0 011.182-1.904 2.006 2.006 0 012.207.362c.291.272.496.625.587 1.013zm7.851-2.046a2.022 2.022 0 01-.195 1.548 2.013 2.013 0 01-1.236.948 2.025 2.025 0 01-1.534-.188 2.025 2.025 0 01-.951-1.222 2.038 2.038 0 011.429-2.493 2.024 2.024 0 012.487 1.432v-.025zm7.785-2.284a2.048 2.048 0 01-.156 1.549 2.036 2.036 0 01-1.202.985 2.02 2.02 0 01-1.545-.156 2.051 2.051 0 01-.611-.505 2.038 2.038 0 01.987-3.235 2.028 2.028 0 012.527 1.362zm7.7-2.557a2.027 2.027 0 01-1.634 2.66 2.01 2.01 0 01-2.013-.983 2.025 2.025 0 011.082-2.93 2.005 2.005 0 011.541.093 2.012 2.012 0 011.024 1.16zm7.613-2.804a2.037 2.037 0 01-.508 2.206 2.01 2.01 0 01-.676.416 2.011 2.011 0 01-2.61-1.177 2.058 2.058 0 011.189-2.617 2.018 2.018 0 012.605 1.172zm7.523-3.042a2.032 2.032 0 01-2.653 2.653 2.034 2.034 0 011.558-3.755c.496.207.89.604 1.095 1.102zm7.402-3.324a2.04 2.04 0 01-.361 2.229 2.008 2.008 0 01-.642.464 2.006 2.006 0 01-1.55.055 2.017 2.017 0 01-1.135-1.061 2.037 2.037 0 011.002-2.693 2.028 2.028 0 012.686 1.006zm7.277-3.598a2.018 2.018 0 01.124 1.558 2.026 2.026 0 01-1.021 1.181 2.013 2.013 0 01-2.721-.895 2.061 2.061 0 01.907-2.723 2.008 2.008 0 011.537-.123c.508.165.93.525 1.174 1.002zm7.14-3.855a2.04 2.04 0 01-.797 2.764 2.025 2.025 0 01-2.995-1.551 2.025 2.025 0 011.03-1.996 2.055 2.055 0 012.762.783zm6.939-4.204a2.034 2.034 0 01-.66 2.799 2.023 2.023 0 01-2.792-.662 2.034 2.034 0 012.193-3.048c.523.125.976.452 1.259.911zm6.746-4.532a2.025 2.025 0 01.049 2.264 1.989 1.989 0 01-.553.57 2 2 0 01-1.51.333 2.01 2.01 0 01-1.301-.838 2.073 2.073 0 01.503-2.829 2.027 2.027 0 011.51-.336 2.009 2.009 0 011.302.836zm6.455-4.901a1.969 1.969 0 01.436 1.499 1.968 1.968 0 01-.783 1.35 2.034 2.034 0 01-.703.357 2.025 2.025 0 01-1.534-.188 2.01 2.01 0 01-.953-1.22 2.03 2.03 0 01.701-2.137 2.068 2.068 0 012.836.339zm6.112-5.351a2.016 2.016 0 01.537 1.471 2.033 2.033 0 01-.673 1.414 1.983 1.983 0 01-1.465.544 1.977 1.977 0 01-1.402-.69 2.08 2.08 0 01.161-2.86 2.01 2.01 0 012.842.121zm5.695-5.785a1.968 1.968 0 01.664 1.419 1.97 1.97 0 01-.579 1.456 2.012 2.012 0 01-2.852.086 2.04 2.04 0 01-.457-.643 2.046 2.046 0 01-.046-1.548c.094-.248.236-.476.418-.669a2.078 2.078 0 012.852-.101zm5.094-6.321a2.013 2.013 0 01.798 1.349 2.012 2.012 0 01-.405 1.516 1.964 1.964 0 01-2.847.368 2.113 2.113 0 01-.358-2.839 2.012 2.012 0 012.812-.394zm4.358-6.847a2.03 2.03 0 01.97 1.248 2.031 2.031 0 01-2.3 2.523 2.053 2.053 0 01-.751-.284 2.026 2.026 0 01-.64-2.749 2.01 2.01 0 012.721-.738zm3.442-7.362a1.945 1.945 0 011.137 1.094 1.946 1.946 0 01-.043 1.579 1.996 1.996 0 01-1.095 1.117 1.972 1.972 0 01-1.561-.025 2.088 2.088 0 01-1.073-2.653 2.113 2.113 0 012.635-1.112z" fill="#6A7077"/><path fill-rule="evenodd" clip-rule="evenodd" d="M249.45 331.896c1.159-2.051 3.185-3.537 3.366-6.674.111-1.946-.468-3.972-.468-6.281 0-4.163 2.086-6.76 4.227-8.948.504-.505 2.731-2.845 3.13-.945.171.808-.731 1.405-1.25 1.89-1.935 1.783-4.031 4.229-4.072 7.771 0 1.945.504 4.264.469 6.124-.035 5.957-4.888 6.568-4.464 12.879.201 2.981 1.375 5.714 2.519 7.928.388.757 1.043 1.49 1.008 2.435-.433.278-1.391-.066-2.016-.081-1.879-3.537-4.504-8.771-3.129-14.147-2.262-1.632-4.409-3.113-4.464-6.599a7.525 7.525 0 01.937-3.608c.902-1.516 3.351-2.915 3.683-4.633.333-1.718-.67-3.537-.781-5.103-.362-4.942 1.638-8.241 4.147-10.758 1.955-1.96 4.964-3.986 8.224-4.239 5.981-.47 9.755 5.811 7.281 11.303-.796 1.768-2.373 3.375-3.678 4.714-1.305 1.339-3.336 2.906-3.528 4.79-.166 1.637.877 2.956 1.568 4.159.856 1.515 2.081 3.077 1.642 5.34-.363 1.9-2.358 3.335-3.991 4.239-.911.504-1.854.949-2.821 1.334-1.008.394-2.52.895-2.661-.308-.086-.894 1.038-1.197 1.804-1.516a20.673 20.673 0 002.267-1.01c1.185-.647 3.21-1.814 3.447-3.138.338-1.869-1.189-3.385-1.799-4.477-.71-1.268-1.632-2.864-1.511-4.714.181-2.314 2.06-4.103 3.446-5.492 1.875-1.88 4.293-3.709 4.465-6.993.186-3.592-1.935-6.255-5.17-6.28-3.235-.026-5.649 1.854-7.362 3.536-2.152 2.112-4.031 4.826-3.754 9.262.131 1.976 1.068 3.678.781 5.558-.398 2.627-3.447 3.835-4.308 6.2-1.154 3.198.776 5.153 2.816 6.482z" fill="#6A7077"/><path fill-rule="evenodd" clip-rule="evenodd" d="M13.408 347.393c1.134-.298 3.638-.081 5.482-.081h337.103c2.565.071 2.519 2.526-.081 2.592-6.313.212-12.96 0-18.946 0H17.248c-1.935 0-4.243.232-4.702-.707a1.234 1.234 0 01.333-1.573c.155-.118.337-.198.53-.231z" fill="#6A7077"/><path fill-rule="evenodd" clip-rule="evenodd" d="M287.938 284.578h.862c4.631.47 5.835 3.577 7.054 7.695.927 3.148 1.567 6.568 0 9.186-.806 1.349-2.066 2.526-3.209 3.693-1.366 1.364-3.054 2.749-3.215 5.023-.162 2.273.821 4.764 1.008 7.382.549 7.149-2.52 11.161-6.738 14.056-.609.42-2.358 1.561-2.66.233-.222-.96 1.068-1.445 1.799-1.966 3.527-2.526 6.334-6.609 5.543-13.031-.338-2.784-1.598-5.558-.706-8.322 1.3-4.082 5.442-5.345 6.813-8.953.947-2.501-.212-5.725-1.008-8.084-.736-2.143-1.512-3.891-3.129-4.548-2.52-1.046-5.76.394-7.518 1.516-2.736 1.708-5.13 4.088-5.477 7.69-.459 4.649 1.778 10.106-.237 13.981-1.552 2.996-4.535 4.548-6.112 7.377a9.277 9.277 0 00-.308 7.619c.978 2.148 3.2 3.482 5.246 4.316-.686-3.78-.504-7.746.781-10.439 1.285-2.693 3.698-4.649 4.535-7.387 1.007-3.214-1.008-7.701.393-10.828.912-2.021 3.174-3.785 5.401-4.871.701-.339 2.016-.667 2.192.394.197 1.228-2.227 1.859-3.053 2.435-1.477 1.011-2.857 2.39-3.054 4.472-.156 1.693.277 3.537.393 5.26.368 5.386-3.356 7.892-5.039 11.464-1.244 2.683-.927 6.513-.468 9.601.776 5.174 1.728 11.282 1.174 17.745-.051.621 0 1.616-1.094 1.647-1.557-.187-.922-2.436-.861-3.689a55.868 55.868 0 00-.943-13.425c-4.303-1.652-7.891-4.042-8.374-9.504v-1.253a10.996 10.996 0 013.048-6.831c1.467-1.627 3.527-3.173 4.465-5.341 1.587-3.673-.469-8.327-.156-12.632.251-3.42 2.161-5.936 4.227-7.771a14.435 14.435 0 018.425-3.91zm52.843 29.462c1.925-3.966-.68-9.181 1.174-12.879 1.069-2.123 3.13-3.35 5.251-4.71 1.426-.914 3.19-2.021 3.835-3.456 1.788-4.042-2.434-9.034-.469-13.137a5.987 5.987 0 012.192-2.122c3.129-1.798 8.133-2.228 10.259-5.022a12.398 12.398 0 001.799-3.769c.252-.874.333-4.012 1.512-4.083 1.365-.086 1.083 1.516.861 2.749-.625 3.431-1.955 6.154-4.147 7.852-1.461 1.126-3.497 1.93-5.482 2.587-1.744.576-4.505 1.121-5.17 2.829-.559 1.44 0 3.537.312 5.028.54 2.592 1.326 5.704.081 8.16-.892 1.763-2.837 2.991-4.535 4.082-1.698 1.092-3.905 2.34-4.621 4.169-.69 1.743-.231 4.37-.08 6.356.176 2.253-.03 4.269-.781 5.886-.701 1.516-1.724 2.8-2.585 4.245-3.306 5.527-3.235 15.441-2.822 24.182.045.874.131 2.021.237 3.218.07.773.237 2.224-.781 2.279-1.245.071-1.159-1.879-1.255-3.138-.791-10.54-.912-23.56 4.072-29.371a71.445 71.445 0 01-4.621-6.124c-1.562-2.471-4.031-6.513-2.424-10.206.912-2.127 3.316-3.81 5.321-5.184 1.774-1.208 4.782-2.784 5.402-5.023.705-2.526-.821-5.239-1.33-7.852-.802-4.138-.403-8.306 2.428-9.974 3.059-1.793 8.567-1.303 10.179-4.158.862-1.516.937-3.537 1.174-5.265.307-2.172.66-4.547 1.723-6.199 1.356-2.128 4.193-3.492 7.362-3.694a11.926 11.926 0 015.606.873 11.952 11.952 0 014.573 3.366 16.226 16.226 0 013.759 10.444c.035 4.805-1.658 8.155-3.835 10.525a18.445 18.445 0 01-3.996 3.218c-1.355.784-3.733 1.572-4.152 2.982-.357 1.243.277 2.854.63 4.163.395 1.3.632 2.644.706 4.002a9.707 9.707 0 01-1.162 4.564 9.675 9.675 0 01-3.172 3.475 15.983 15.983 0 01-4.147 1.96c-1.512.505-3.376.824-3.996 2.122-1.007 2.122.252 6.008-.705 8.716-.791 2.238-3.054 3.734-5.089 4.709-.965.435-1.958.801-2.973 1.097-1.104.333-2.611.702-2.822-.39-.212-1.091 1.098-1.202 2.116-1.515 3.593-1.011 6.959-2.567 7.201-6.827.166-2.92-.504-5.856 1.008-7.619 1.224-1.4 3.617-1.834 5.482-2.526 2.711-1.011 5.21-3.032 5.951-5.968.443-1.748.07-3.673-.393-5.34-.393-1.415-1.139-3.653-.544-5.336.927-2.637 4.136-3.345 6.182-4.79a12.567 12.567 0 004.777-6.205c2.232-6.229-.368-13.248-4.308-15.936-3.28-2.243-10.078-2.612-12.371 1.011-2.443 3.87-.811 10.257-4.227 12.955-1.27 1.01-3.21 1.516-5.17 1.96-2.162.506-4.727.874-5.634 2.749-2.081 4.28 1.441 9.474 1.331 13.582-.106 3.779-3.261 5.558-5.795 7.306-2.333 1.607-5.326 3.203-5.543 6.119-.207 2.617 1.34 5.179 2.52 6.993a30.734 30.734 0 004.121 5.305zm-214.809-97.36l-1.804 33.853s-.972 11.247 3.759 13.819c4.732 2.572 11.741 3.441 11.741 3.441l3.442-4.548s-10.441-1.622-10.728-8.008c-.287-6.387 2.192-37.466 2.192-37.466l-8.602-1.091zm5.08 55.832h-3.916a2.64 2.64 0 00-1.728.692 2.655 2.655 0 00-.847 1.662l-6.6 69.106a2.103 2.103 0 002.126 2.36h3.915a2.643 2.643 0 001.73-.694 2.655 2.655 0 00.845-1.666l6.601-69.106a2.12 2.12 0 00-.529-1.662 2.094 2.094 0 00-1.597-.692zm55.312-.748h3.925a2.643 2.643 0 012.58 2.365l6.616 69.095a2.116 2.116 0 01-.527 1.666 2.092 2.092 0 01-1.599.694h-3.925a2.657 2.657 0 01-2.58-2.36l-6.616-69.095a2.104 2.104 0 012.126-2.365z" fill="#6A7077"/><path fill-rule="evenodd" clip-rule="evenodd" d="M127.046 260.719h64.241c1.661 0 3.254.662 4.429 1.84a6.285 6.285 0 011.834 4.44v5.654a2.363 2.363 0 01-.687 1.665 2.354 2.354 0 01-1.661.69h-72.056a2.354 2.354 0 01-2.348-2.355v-5.638a6.296 6.296 0 011.824-4.446 6.26 6.26 0 014.424-1.85z" fill="#fff"/><path d="M195.202 276.003h-72.056a3.33 3.33 0 01-2.352-.978 3.35 3.35 0 01-.979-2.356v-5.654a7.293 7.293 0 012.127-5.134 7.254 7.254 0 015.119-2.132h64.226a7.243 7.243 0 015.121 2.131 7.288 7.288 0 012.125 5.135v5.654a3.345 3.345 0 01-.977 2.358 3.328 3.328 0 01-2.354.976zm-68.156-14.274a5.29 5.29 0 00-3.736 1.554 5.317 5.317 0 00-1.55 3.747v5.654a1.38 1.38 0 00.847 1.269c.166.069.344.105.524.105h72.056a1.376 1.376 0 001.371-1.374v-5.669a5.309 5.309 0 00-1.55-3.732 5.286 5.286 0 00-3.721-1.554h-64.241z" fill="#6A7077"/><path fill-rule="evenodd" clip-rule="evenodd" d="M207.543 17.361v13.996c2.472 0 4.843.985 6.591 2.738a9.362 9.362 0 010 13.22 9.308 9.308 0 01-6.591 2.737v19.059h-16.241a9.36 9.36 0 01-2.73 6.61 9.308 9.308 0 01-13.183 0 9.358 9.358 0 01-2.731-6.61h-16.492v51.8h103.01V69.156c.036 0 .036-51.795.036-51.795h-51.669zM124.355 161.12h36.023a9.392 9.392 0 016.646 2.759 9.432 9.432 0 012.751 6.665v44.918a9.44 9.44 0 01-2.754 6.662 9.386 9.386 0 01-6.643 2.761h-36.023a9.388 9.388 0 01-6.644-2.761 9.44 9.44 0 01-2.754-6.662v-44.918a9.432 9.432 0 012.751-6.665 9.384 9.384 0 016.647-2.759z" fill="#fff"/><path d="M160.378 225.855h-36.023a10.367 10.367 0 01-7.334-3.05 10.43 10.43 0 01-3.042-7.353v-44.919a10.43 10.43 0 013.04-7.356 10.369 10.369 0 017.336-3.052h36.023c2.751.002 5.39 1.1 7.335 3.052a10.43 10.43 0 013.04 7.356v44.919a10.43 10.43 0 01-3.042 7.353 10.364 10.364 0 01-7.333 3.05zm-36.023-63.765a8.417 8.417 0 00-5.951 2.476 8.46 8.46 0 00-2.469 5.967v44.919a8.467 8.467 0 002.47 5.964 8.425 8.425 0 005.95 2.474h36.023a8.416 8.416 0 005.95-2.467 8.466 8.466 0 002.475-5.961v-44.919a8.462 8.462 0 00-2.468-5.968 8.418 8.418 0 00-5.952-2.475l-36.028-.01zm134.815-40.204H156.16a.975.975 0 01-.977-.98V69.101a.976.976 0 01.977-.98h16.508a1.007 1.007 0 01.977.975c0 2.216.878 4.342 2.441 5.909a8.323 8.323 0 0011.787 0 8.369 8.369 0 002.441-5.91 1.01 1.01 0 01.982-.975h15.263V50.022a.98.98 0 01.978-.98 8.318 8.318 0 005.897-2.45 8.366 8.366 0 002.442-5.913 8.384 8.384 0 00-2.442-5.913 8.344 8.344 0 00-5.897-2.449.974.974 0 01-.912-.626.99.99 0 01-.066-.385v-13.95a.98.98 0 01.978-.98h51.669a.974.974 0 01.93.598c.051.12.078.25.077.382V69.15c0 .094-.014.188-.04.278v51.477a.979.979 0 01-1.003.98zm-102.027-1.96h101.045V69.151a.97.97 0 01.04-.273V18.351h-49.709v12.066a10.29 10.29 0 016.634 3.338 10.342 10.342 0 012.674 6.942 10.34 10.34 0 01-2.674 6.942 10.29 10.29 0 01-6.634 3.337v18.125a.98.98 0 01-.982.98h-15.313a10.337 10.337 0 01-3.334 6.631 10.278 10.278 0 01-13.821 0 10.337 10.337 0 01-3.334-6.631h-14.612l.02 49.845z" fill="#6A7077"/><path d="M233.487 79.327a10.322 10.322 0 01-6.871-2.654 10.375 10.375 0 01-3.368-6.567h-16.492a.98.98 0 010-1.96h17.409a1.008 1.008 0 01.983.97 8.378 8.378 0 002.514 5.783 8.331 8.331 0 0011.655 0 8.38 8.38 0 002.515-5.783.975.975 0 01.977-.97h16.437a.98.98 0 010 1.96h-15.515a10.386 10.386 0 01-3.371 6.566 10.336 10.336 0 01-6.873 2.655z" fill="#6A7077"/><path d="M208.036 121.886a.977.977 0 01-.978-.98v-14.699a10.29 10.29 0 01-6.568-3.364 10.343 10.343 0 01-2.64-6.905c0-2.55.94-5.01 2.64-6.905a10.291 10.291 0 016.568-3.365V69.131a.987.987 0 01.98-.915.982.982 0 01.98.915v17.462a1.008 1.008 0 01-.967.98 8.335 8.335 0 00-5.768 2.522 8.382 8.382 0 000 11.686 8.337 8.337 0 005.768 2.522.978.978 0 01.967.98v15.623a.97.97 0 01-.288.695.978.978 0 01-.694.285z" fill="#6A7077"/><path fill-rule="evenodd" clip-rule="evenodd" d="M195.958 22.454a9.365 9.365 0 00-3.592-6.183 9.314 9.314 0 00-6.899-1.825L183.582.56l-51.195 6.973 6.958 51.37 16.357-2.228a9.348 9.348 0 003.55 6.266 9.316 9.316 0 006.941 1.871 9.304 9.304 0 006.205-3.636 9.36 9.36 0 001.781-6.982c0-.035 16.362-2.264 16.362-2.264l-2.57-18.952a9.323 9.323 0 006.167-3.604 9.377 9.377 0 001.82-6.92z" fill="#057AFF"/><path d="M165.039 66.19a10.294 10.294 0 01-6.401-2.26 10.345 10.345 0 01-3.616-5.758l-15.444 2.122a.967.967 0 01-.98-.476.978.978 0 01-.124-.363l-6.958-51.37a.953.953 0 01.191-.728.967.967 0 01.645-.38L183.562 0a.952.952 0 01.726.192.967.967 0 01.378.647l1.774 12.965c2.554-.09 5.05.774 7.005 2.424a10.347 10.347 0 013.576 6.51 10.371 10.371 0 01-1.725 7.245 10.325 10.325 0 01-6.13 4.209l2.439 18.017a.983.983 0 01-.837 1.107l-15.414 2.107a10.35 10.35 0 01-6.266 9.943 10.28 10.28 0 01-4.049.824zm-9.221-10.105c.215 0 .424.07.595.202.205.16.34.394.378.652a8.381 8.381 0 003.195 5.546 8.333 8.333 0 006.17 1.656 8.33 8.33 0 005.531-3.203 8.385 8.385 0 001.652-6.187 1.009 1.009 0 01.831-1.142l15.394-2.102-2.434-17.977a.977.977 0 01.821-1.102 8.33 8.33 0 003.081-1.062 8.363 8.363 0 003.87-5.1 8.398 8.398 0 00-.86-6.35 8.35 8.35 0 00-8.338-4.08.936.936 0 01-.726-.188 1.014 1.014 0 01-.378-.652l-1.738-12.91-49.26 6.71 6.696 49.421 15.404-2.097.116-.035z" fill="#6A7077"/><path fill-rule="evenodd" clip-rule="evenodd" d="M293.481 216.76s30.117 46.763 32.657 49.471c2.54 2.709 7.856 8.029 5.402 13.981-2.454 5.952-10.748 18.478-16.608 23.571-5.861 5.093-7.78 3.633-9.166 2.279-1.386-1.354-1.33-4.315-1.33-4.315s-8.063 8.205-10.809 8.397c-2.746.192-5.764-5.805-4.777-9.974.988-4.168 3.21-18.695 3.21-18.695s-39.868-41.851-49.885-50.264c-10.017-8.413-14.613-16.674-14.331-21.358.282-4.683 2.162-12.237 7.831-14.996 5.668-2.759 37.983-8.17 37.983-8.17l10.34-16.881s-4.243-1.956-4.938-4.548c-.696-2.592-2.192-9.029-2.192-9.029s-3.553-1.046-4.853-2.021a14.979 14.979 0 01-2.519-2.673s-14.825 6.195-18.644 1.577c-3.82-4.619-15.117-32.282-15.117-32.282l-3.023-3.608s-4.903-2.289-4.701-4.709c.201-2.42 2.519-4.865 2.519-4.865s2.666-2.497 3.371-2.436a5.411 5.411 0 011.562.47s.867-2.238 1.804-2.198c.45.05.904-.004 1.33-.157 0 0-4.918-11.035-3.834-12.171 1.083-1.137 2.076-2.294 3.129-.314s7.271 15.77 7.271 15.77 1.275-5.872 2.585-5.417c1.31.455 1.638.258 1.562 1.415-.076 1.157-.398 5.8-.388 7.619.01 1.819.156 7.221.156 7.221l10.728 17.81s9.211-7.639 13.55-8.402c4.338-.763 9.78-1.43 10.077-2.436.298-1.005 1.119-11.242 1.119-11.242s-5.286 1.314-7.437-2.021a27.67 27.67 0 01-3.135-7.538 6.573 6.573 0 01-1.642-2.022c-.439-1.056-.368-1.217.156-1.728.524-.51 2.368-.853 4.464-6.598 2.097-5.745 7.614-9.787 15.036-6.988 7.423 2.799 9.836 1.076 15.586 24.874 5.749 23.798 12.93 45.717 11.665 46.879-1.265 1.162-3.754.945-3.754.945s11.932 28.138 14.875 34.788c2.942 6.649 5.215 11.459 4.857 13.506-.358 2.046.146 2.96-1.567 3.223-1.713.263-40.644 1.804-40.644 1.804l.469 4.456z" fill="#fff"/><path fill-rule="evenodd" clip-rule="evenodd" d="M279.74 95.95a1.253 1.253 0 00-1.562.844l-.404 1.355a1.274 1.274 0 00.054.998 1.25 1.25 0 001.269.688 1.253 1.253 0 001.076-.964l.408-1.354a1.258 1.258 0 00-.841-1.566z" fill="#6A7077"/><path fill-rule="evenodd" clip-rule="evenodd" d="M324.768 199.308c-.807-5.27-2.6-10.267-4.636-15.158a187.691 187.691 0 00-2.263-5.108c-.871-1.879-1.788-3.729-2.519-5.654-.549-1.425-1.038-2.865-1.542-4.305-.06-.101-25.87 1.036-25.87 1.036l-11.413 20.014s-24.187.237-40.432 7.862c-16.245 7.624-2.429 21.676-2.429 21.676l50.666 50.734a20.97 20.97 0 011.149-4.649 14.167 14.167 0 011.734-3.536c.446-.642.952-1.239 1.511-1.784a18.106 18.106 0 011.794-1.415 15.995 15.995 0 012.56-1.445 23.624 23.624 0 013.29-1.324 21.511 21.511 0 013.865-.505c.092-.331.219-.651.378-.955a6.86 6.86 0 011.749-2.213 9.676 9.676 0 011.461-1.051 16.2 16.2 0 011.577-.687c.912-.359 1.88-.551 2.807-.874.37-.31.762-.592 1.174-.844a6.459 6.459 0 012.696-.798 3.539 3.539 0 011.204.096 10.73 10.73 0 011.542-.046 121.147 121.147 0 00-1.779-2.632 17.28 17.28 0 01-2.237-2.799c-.575-.92-1.083-1.88-1.633-2.81a54.617 54.617 0 00-.766-1.288 38.947 38.947 0 01-1.673-2.052 28.7 28.7 0 01-2.625-4.572 30.718 30.718 0 00-1.673-2.648c-.836-1.046-1.718-2.056-2.519-3.128a9.546 9.546 0 01-1.93-3.845l-.045-.293a5.439 5.439 0 01-1.406-1.617 4.168 4.168 0 01.136-4.269l-2.872-4.477 24.756-.879a5.561 5.561 0 011.249-1.177c.802-.571 1.613-1.142 2.399-1.738.312-.253.625-.506.927-.778.01-.325.047-.648.111-.965.378-1.825 1.224-3.537 1.592-5.336.028-.589.006-1.179-.065-1.764z" fill="#fff"/><path fill-rule="evenodd" clip-rule="evenodd" d="M288.815 183.226s-.504 6.957 2.192 10.287c2.695 3.33 7.442 6.205 7.442 6.205s5.497-2.941 6.107-7.074c.61-4.133-.393-8.878-.393-8.878l-15.348-.54zm24.67 0s-1.078 5.957 1.643 9.499c2.721 3.542 7.518 6.285 7.518 6.285l1.643-1.258s.504-2.526-1.512-6.988a677.612 677.612 0 00-3.759-8.17l-5.533.632z" fill="#fff"/><path fill-rule="evenodd" clip-rule="evenodd" d="M315.869 177.516c1.528.105 3.06.127 4.591.066.085 0 2.579-.637 2.665-.652l-8.375-19.513-6.792 1.409 4.777 12.405 3.134 6.285z" fill="#057AFF"/><mask id="mask0_367_10527" style="mask-type:luminance" maskUnits="userSpaceOnUse" x="243" y="127" width="41" height="31"><path d="M279.216 149.635s2.091-3.259 3.134-9.6c.66-4.202.974-8.453.937-12.707l-2.192-.157s-8.102 1.602-10.808 3.3c-2.706 1.697-10.078 6.831-10.078 6.831l-5.246-8.873s-6.399-.677-9.317 3.3c-2.917 3.976-1.804 5.654-1.804 5.654l6.108 15.158s1.34 6.113 6.399 5.103c5.059-1.011 22.867-8.009 22.867-8.009z" fill="#fff"/></mask><g mask="url(#mask0_367_10527)"><path fill-rule="evenodd" clip-rule="evenodd" d="M278.233 148.079s2.087-3.259 3.13-9.6c.661-4.208.976-8.463.942-12.723l-2.197-.944s-6.878 1.768-10.803 4.087c-3.926 2.319-10.103 6.831-10.103 6.831l-5.241-8.857s-5.931-1.304-8.853 2.673c-2.923 3.976-2.973 5.416-2.973 5.416l6.787 16.022s1.361 6.104 6.42 5.109c5.059-.996 22.891-8.014 22.891-8.014z" fill="#057AFF"/></g><path d="M242.372 136.291a1.186 1.186 0 01-1.149-.929c-.625-2.916 1.743-6.746 5.512-8.903 2.414-1.38 5.039-1.839 6.964-1.228a4.175 4.175 0 012.6 2.188 1.183 1.183 0 01-.189 1.294 1.172 1.172 0 01-1.932-.284 1.831 1.831 0 00-1.179-.955c-1.315-.409-3.276 0-5.1 1.011-2.821 1.612-4.787 4.466-4.378 6.361a1.18 1.18 0 01-.897 1.4c-.082.025-.167.04-.252.045zm42.326 130.905a.995.995 0 01-.721-.313c-1.799-1.965-44.629-48.238-48.998-55.777-1.461-2.526-1.764-4.845-.912-6.886 1.511-3.537 6.046-5.053 7.936-5.558 2.227-.571 6.047-1.385 15.706-2.618 4.792-.601 10.33-1.116 14.371-1.515 2.394-.228 4.681-.44 5.619-.566l7.8-20.939a.982.982 0 011.839.687l-7.982 21.444a.883.883 0 01-.141.268c-.347.475-.347.475-6.953 1.086-4.031.379-9.574.895-14.306 1.516-9.574 1.213-13.292 2.021-15.464 2.572-1.255.323-5.442 1.597-6.616 4.401-.605 1.445-.338 3.178.801 5.148 4.233 7.347 48.293 54.938 48.736 55.423a.982.982 0 01.26.704.968.968 0 01-.315.681.944.944 0 01-.66.242z" fill="#6A7077"/><path d="M279.553 269.875a.976.976 0 01-.902-.667c-.06-.192-1.471-4.679 2.732-10.323 7.447-9.989 15.116-7.751 15.419-7.655a.986.986 0 01-.58 1.88c-.262-.086-6.697-1.87-13.267 6.952-3.558 4.77-2.49 8.383-2.439 8.534a1.014 1.014 0 01-.635 1.233 1.04 1.04 0 01-.328.046z" fill="#6A7077"/><path d="M283.781 274.119a.971.971 0 01-.922-.667c-.065-.192-1.476-4.679 2.731-10.323 7.443-9.989 15.117-7.751 15.419-7.655a.98.98 0 01.645 1.228.978.978 0 01-1.224.647c-.267-.076-6.697-1.87-13.273 6.952-3.557 4.78-2.484 8.388-2.438 8.539a.98.98 0 01-.938 1.279zm12.118-22.662a.98.98 0 01-.856-1.455c.126-.232 3.184-5.619 9.574-7.23 4.499-1.142 6.898.197 6.999.257a.992.992 0 01.458.594.986.986 0 01-.096.745 1.007 1.007 0 01-1.34.364s-1.874-.985-5.543-.061c-5.543 1.415-8.294 6.236-8.319 6.281a1.015 1.015 0 01-.877.505z" fill="#6A7077"/><path d="M299.245 256.515a.99.99 0 01-.941-.714.982.982 0 01.084-.746c.131-.228 3.185-5.614 9.574-7.226 4.5-1.141 6.898.197 6.999.253a.985.985 0 01-.977 1.708s-1.875-.985-5.543-.061c-5.543 1.41-8.294 6.235-8.319 6.281a1.015 1.015 0 01-.877.505z" fill="#6A7077"/><path fill-rule="evenodd" clip-rule="evenodd" d="M333.202 275.372s-3.527-3.032-7.286.702c-3.759 3.734-7.558 7.867-13.157 16.022-5.598 8.155-6.928 11.02-6.344 12.485.585 1.466.394 1.728.394 1.728l-2.898-4.401s9.146-13.551 10.965-16.956a15.513 15.513 0 001.879-6.286s.328-9.257 2.661-11.308 6.047-1.804 6.047-1.804 4.066 4.325 5.245 5.811a31.827 31.827 0 012.494 4.007z" fill="#6A7077"/><path fill-rule="evenodd" clip-rule="evenodd" d="M317.224 277.868s-4.489-2.082-9.16 5.558c-4.671 7.639-10.814 15.188-13.237 18.467-2.424 3.279-3.83 6.165-3.054 6.604.776.44-2.907-3.102-2.585-5.972.323-2.87.862-8.559.862-8.559l2.897 1.515 8.536-12.631s.176-9.469 2.273-11.465c2.096-1.996 3.134-4.214 4.852-2.668 1.718 1.546 8.616 9.151 8.616 9.151zm-29.468-171.625l-3.058 48.294s-1.149 3.683 1.723 4.082 30.233 0 30.233 0 3.457-.091 3.054-2.198c-.403-2.107-16.528-61.88-16.528-61.88s-1.511-7.362-10.581-9.191c-9.151-1.844-12.31 2.324-12.295 2.36.015.035.947 4.886 2.348 6.988a57.276 57.276 0 012.897 5.103s4.303-1.693 5.326 1.258c1.023 2.951-3.119 5.184-3.119 5.184z" fill="#6A7077"/><path fill-rule="evenodd" clip-rule="evenodd" d="M316.8 159.726c5.836 13.344 11.696 26.137 17.38 39.729.735 1.748 2.056 4.093 2.272 5.811.313 2.471-.66 5.078-2.192 5.886-1.753.93-5.301.829-7.906.945-1.436.061-2.902.04-4.308.076-1.406.035-2.973-.142-4.228 0-.504.06-1.224.545-1.96.626-2.58.314-5.512 0-8.299 0-16.482 0-32.838-.075-49.175-.075h-4.152c-1.179 0-2.872.04-2.816-1.254.045-1.131 1.375-1.101 3.053-1.101 19.148 0 38.034.157 57.398.157 1.346 0 2.862.126 3.991-.076.948-.172 1.986-1.102 2.817-1.733a10.648 10.648 0 003.419-3.97 10.68 10.68 0 001.116-5.125c-1.774.394-3.961-1.349-5.402-2.526-3.124-2.527-5.129-6.064-5.482-11.622-.076-1.162-.171-2.571.312-3.062.781-.793 3.079-.141 4.228-.394-1.078-2.688-2.59-5.618-3.835-8.402-9.755.116-20.533.298-30.384.313a566.94 566.94 0 00-7.201 11.702c-.413.687-.61 1.516-1.098 1.804-.489.288-1.582.333-2.52.47-9.407 1.425-18.14 2.971-27.018 4.951-3.276.728-6.798 1.279-9.161 2.668-2.167 1.268-3.719 3.628-4.853 6.356a19.57 19.57 0 00-1.647 9.601c.232 2.213 1.33 4.239 2.272 6.123.943 1.885 2.419 3.345 3.679 4.71 18.14 19.579 37.141 37.713 56.068 56.691.67.672 1.844 1.672 1.96 2.198.176.828-.237 2.147-.393 3.062a615.7 615.7 0 00-1.512 8.715c.685.339 1.456.582 1.96 1.102 2.454-4.113 4.979-8.145 7.518-12.172.67-6.225.842-13.278 6.813-14.213-12.094-16.528-25.91-33.121-39.465-48.915-.796-.93-2.575-2.34-2.353-3.537a1.112 1.112 0 01.942-.859c1.25-.132 2.877 2.627 3.527 3.375 13.752 15.896 27.13 32.105 39.727 49.143 1.92 2.587 3.794 5.29 6.188 7.457.771-4.881 2.358-8.938 7.437-9.499-9.332-14.304-19.374-29.346-28.973-44.206-.6-.929-2.701-3.537-.625-3.85 1.305-.197 2.429 2.284 3.053 3.224 5.871 8.791 11.555 17.891 17.304 26.536 3.411 5.124 6.505 9.57 10.027 14.997a62.475 62.475 0 005.478 7.074c1.854 2.147 4.404 5.088 3.683 9.034-.63 3.42-2.605 6.427-4.308 9.095a110.017 110.017 0 01-11.665 15.158c-1.718 1.869-4.787 5.123-7.362 6.063-2.419.869-5.084-1.096-6.047-2.526a4.815 4.815 0 01-.705-1.648c-1.25 1.011-2.489 2.446-3.915 3.689-1.311 1.142-3.16 2.951-4.853 3.218-2.907.455-5.175-1.667-5.951-3.612-.947-2.365-.866-5.765-.549-8.479.464-3.986 1.149-8.291 1.879-12.485.237-1.359.792-2.996.706-4.002-.045-.505-1.22-1.515-1.88-2.203-16.225-16.264-32.334-31.892-48.237-48.445a505.767 505.767 0 01-8.143-8.635 20.044 20.044 0 01-3.527-4.866c-.897-1.889-1.915-4.183-2.116-6.285-.175-2.76.153-5.528.967-8.17 1.214-4.416 3.678-8.736 7.594-10.444a41.272 41.272 0 016.903-2.102c9.76-2.319 20.095-3.901 30.536-5.558 3.32-5.098 6.424-10.414 9.574-15.704-4.853-1.571-5.175-7.685-6.42-12.879-3.693-.354-6.047-2.021-7.442-4.709-2.389.844-4.374 1.637-6.576 2.435s-4.434 1.789-7.125 1.804c-2.691.015-4.198-1.551-5.407-3.537-3.411-5.598-5.78-11.727-8.687-18.139a1095.8 1095.8 0 00-4.233-9.186 29.696 29.696 0 00-1.406-3.062c-.453-.717-1.511-1.046-2.015-1.884-.504-.839-.559-1.516-1.008-2.279-2.681-.844-5.281-3.416-5.245-6.594 0-2.178 1.688-4.633 3.759-5.103.826-1.107 1.365-2.501 3.441-2.355.817-.833 1.431-1.864 2.822-2.122-.433-1.334-1.104-2.764-1.723-4.32-.57-1.415-1.336-3.032-1.512-4.477-.232-2.213 1.008-4.84 3.21-4.547 2.202.293 3.497 4.426 4.303 6.28 1.204 2.754 2.187 5.053 3.134 7.458.58-.576.806-1.667 1.799-2.279 1.169-.712 3.28-.636 3.996.475.504.753.247 2.279.076 3.537a45.36 45.36 0 00-.152 7.852c.051 1.364-.06 2.804.152 3.926.136.692.771 1.44 1.179 2.198 2.776 5.149 5.497 10.388 8.218 15.391 3.366-2.062 6.44-4.487 10.078-6.362 3.638-1.874 8.027-2.718 13-3.456.368-3.107.504-6.437.701-9.736-5.583.717-8.536-2.815-9.861-7.458-.353-1.218-1.346-4.123.544-4.083 1.27 0 1.154 1.551 1.511 2.668.978-.126 1.361-1.657 2.58-1.566a1.071 1.071 0 011.008.94c.202 1.601-1.955 2.101-2.817 2.981.978 2.137 2.112 4.042 4.853 4.239 1.396.096 3.477-.763 4.227-.076.751.687.162 5.25.081 6.675-.06 1.01-.136 2.299-.232 3.456-.211 2.39-.277 4.163-2.585 4.32.741.505 2.298.914 3.13 1.334.534-6.69 1.007-13.446 1.511-20.181-.65-.348-1.97-.359-2.015-1.177-.182-2.309 4.968-1.061 4.147-4.79a2.015 2.015 0 00-1.567-1.339c-1.311-.09-2.59 2.072-3.991 1.576a1.711 1.711 0 01-.706-.864c-.151-.965.686-1.01.862-1.652-.801-1.687-1.733-3.239-3.29-4.158-2.52.798-2.243-2.592.156-1.966-.348-.96-.681-1.935-1.008-2.905-1.099.844-1.733 2.557-2.348 4.396-.615 1.84-1.008 4.512-2.192 5.416-1.008.778-4.535 1.653-4.621-.151-.065-1.612 2.101-1.061 3.134-1.733 1.336-3.24 1.915-6.756 3.991-9.262 1.955-2.354 4.535-4.487 8.38-4.79a21.53 21.53 0 0111.04 2.355c6.047 3.031 7.866 9.802 9.63 17.118 2.6 10.757 4.912 21.772 7.754 32.337 1.356 5.053 2.772 10.49 4.228 15.785.469 1.698 1.315 3.689 1.33 5.336-.035 2.162-1.048 3.077-3.346 2.885zm-1.647-12.632c-.917-3.345-1.829-6.73-2.741-10.105-2.726-10.151-4.928-20.661-7.438-31.095-1.688-7.013-2.892-14.177-8.455-17.275-3.568-1.98-11.64-3.89-14.88-.394a41.346 41.346 0 004.384 9.818c2.403-1.087 4.736.535 5.407 2.435.871 2.486-.575 4.936-2.585 5.967-.877 12.708-1.749 25.425-2.666 38.082-.302 4.219-.736 8.489-.625 12.718 1.232.285 2.498.392 3.759.318 9.574 0 19.098.228 28.425-.237-.514-3.522-1.653-6.847-2.585-10.247v.015zm-84.568-32.337c-.655-.98-.927-2.749.549-2.749 1.29 0 1.693 2.239 2.192 3.456.267.647.615 1.395.862 1.961.214.685.503 1.344.861 1.965.398.505 1.371.91 1.724 1.415.771 1.106 1.36 2.718 2.015 4.158 2.016 4.31 3.875 8.651 5.795 12.88 1.849 4.082 3.724 8.655 6.047 12.561.806 1.364 1.688 3.031 2.821 3.456 1.9.692 5.009-.506 6.657-1.102 4.882-1.708 9.362-3.501 14.169-5.416 1.27-.506 3.925-1.941 3.84.237-.046 1.177-2.389 1.723-3.366 2.117-1.512.602-2.676.96-3.996 1.516a4.991 4.991 0 003.527 2.981c.927.263 2.318.056 3.134.47 1.008.505 1.311 4.376 1.567 5.497.867 3.825 1.512 6.988 5.246 7.696 1.975.374 4.782.176 7.054.08 6.349-.267 12.83-.308 18.876-.626-.937-2.466-1.96-4.846-2.822-7.382h-16.769c-1.794 0-3.976.146-5.402-.238-2.368-.636-2.131-2.854-1.96-5.558.504-8.301 1.744-16.395 2.273-24.419-1.008-.505-2.348-1.041-3.371-1.572-.832-.434-2.127-1.268-3.054-1.333-1.119-.081-2.766.505-4.147.864-3.956 1.061-7.196 3.339-9.947 5.184-2.948 1.97-5.936 4.042-8.767 6.28-.686.536-2.152 2.107-3.21 1.88a1.076 1.076 0 01-.786-1.178c.05-1.157 1.834-1.92 2.585-2.526a26.5 26.5 0 002.816-2.354c-2.741-5.053-5.799-10.657-8.611-15.861a11.86 11.86 0 01-1.174-2.38c-.262-1.086-.141-2.465-.156-3.693-.061-3.84-.358-7.579.312-10.914-1.008.045-1.36.844-1.643 1.571a6.55 6.55 0 00-.393 2.825c.101.869.817 1.344.706 2.198a1.106 1.106 0 01-1.174.945c-.852 0-1.2-.981-1.567-1.804-1.885-4.204-3.361-8.12-5.09-12.096-.725-1.668-1.239-3.477-2.428-4.472-1.104 1.915.282 4.042.937 5.73.72 1.86 1.511 3.739 2.116 5.497.57.546 1.512.743 1.487 1.728a1.107 1.107 0 01-1.094 1.097c-1.008.06-2.358-1.885-3.371-.47.323.631.937.596.862 1.49-.141 1.728-1.975.692-2.973.394-.872-.257-1.053-.151-1.567.551.468.616 1.32.723 1.254 1.728-.136 2.062-2.726.313-3.371-.081-2.04 1.021-1.743 4.815-.075 5.791v.025zm79.247 45.151c2.015 5.921 4.6 11.242 7.125 16.643h4.696c-2.424-5.628-4.943-11.166-7.437-16.724-1.527-.066-2.812.116-4.384.055v.026zm.856 9.731c-3.87.349-8.334.243-12.839.394-4.505.152-8.949.334-13 .157-.192.45-.922 1.157-.706 1.516 9.191-.159 18.429-.263 27.714-.314-.272-.909-.453-1.839-1.169-1.778v.025zm13.157 21.222a18.908 18.908 0 01.705 14.208c.56.318.932.434.938 1.182 0 1.88-3.669 2.274-4.384 3.688 2.373-.096 4.454-.106 7.054-.237 1.613-.081 4.031-.025 5.009-.627.761-.469 1.149-2.283.942-3.612-.156-1.011-.877-2.183-1.33-3.3-3.134-7.654-6.777-15.779-9.866-22.924-1.542.051-3.291-.106-4.702.076 1.698 3.461 3.941 7.377 5.634 11.505v.041zm-9.629-6.837c-.061 7.311 3.149 11.344 7.986 13.744 1.754-.531.554-3.184.076-4.477-1.24-3.37-3.024-6.644-4.303-9.343-1.326-.085-2.505.016-3.759.036v.04zm1.567 101.686a157.106 157.106 0 01-8.693 13.268c-.589.813-1.713 1.96-1.803 2.592.029.906.27 1.792.705 2.587.564.935 1.97 1.794 2.973 1.733 1.093-.066 2.867-1.733 3.84-2.592 3.597-3.183 6.273-6.568 9.07-10.287 2.796-3.719 5.502-7.352 7.749-11.541.726-1.359 1.628-3.264 1.648-4.87.035-3.537-2.681-5.75-4.464-7.771-.464-.506-1.008-1.329-1.512-1.516a7.36 7.36 0 00-2.736 0c-3.275 1.152-4.031 5.588-4.535 9.655 1.602 3.108-.811 6.246-2.242 8.701v.041zm-24.691 21.12c.504.798 1.794 1.738 2.897 1.652 1.104-.086 2.847-1.738 3.84-2.592 3.568-3.082 6.354-6.72 8.924-10.444 2.741-3.971 5.099-7.533 7.518-11.858.66-1.178 2.076-3.093 2.015-4.472-.045-1.784-2.096-3.062-3.209-4.239a23.562 23.562 0 01-1.643-2.021c-.559-.748-1.068-1.622-1.723-2.021-.655-.4-2.313-1.011-2.898-.627-2.418 1.546-2.842 4.401-3.29 7.771-.192 1.47-.202 3.36-.625 4.714-.332 1.071-1.416 2.527-2.192 3.77-1.658 2.677-2.973 4.633-4.62 7.301-.721 1.162-1.512 3.304-2.742 3.299-1.229-.005-1.3-1.43-2.519-1.516-.292 3.002-1.361 8.625.287 11.242l-.02.041z" fill="#6A7077"/><path fill-rule="evenodd" clip-rule="evenodd" d="M284.144 104.055c-.202-.424-.504-.869-.076-1.415.212-.257 2.358-1.086 2.897-1.177a1.004 1.004 0 01.848.172 1.01 1.01 0 01.402.768c.01 1.233-2.963 1.92-4.071 1.652zm4.62 78.438c.827-.247 2.908-.126 3.996-.076 2.49.101 4.989.076 7.75.076 1.154 0 2.908-.131 3.684.238.886.424.932 1.813 1.174 3.061.286 1.237.443 2.501.468 3.77 0 4.325-1.965 7.144-4.535 9.261-.705.581-2.076 1.703-2.822 1.733-.665 0-1.809-.783-2.519-1.182a16.206 16.206 0 01-5.795-5.26 13.737 13.737 0 01-2.015-5.335c-.237-1.329-.867-5.76.468-6.286.036-.015.111.015.146 0zm.943 2.021c-.111 7.675 3.472 11.621 8.692 13.981 2.474-1.652 5.21-3.87 5.482-7.857a20.113 20.113 0 00-.705-6.2c-4.389-.106-8.954-.025-13.313-.156a.196.196 0 00-.133.092.194.194 0 00-.023.16v-.02z" fill="#6A7077"/><path fill-rule="evenodd" clip-rule="evenodd" d="M219.837 314.323l17.893-66.994s1.225-10.812-5.406-13.743c-6.631-2.931-51.765-7.695-51.765-7.695l9.408-37.931 18.089 19.003 15.167-13.505-19.248-32.747s-4.424-7.468-13.076-7.933c-8.652-.465-15.822.132-15.429-2.526.393-2.658 2.907-12.864 2.907-12.864s8.219-2.926 7.594-9.343c-.625-6.417-3.91-13.9-3.91-13.9l2.192-6.755-3.528 1.011-.781-8.246s-1.385 4.123-2.585 5.027c-1.199.904-2.519 1.96-2.519 1.96l-2.268-3.299-2.741 4.244s-10.969-.606-13.942 4.239c-2.973 4.846-2.973 6.993-2.973 6.993l-2.253 1.339 2.822 2.279s.418 9.297 4.621 12.566c4.202 3.269 7.054 2.905 7.054 2.905l-1.648 9.818s-.267 4.077-2.978 4.396c-2.71.318-17.313-2.421-21.924 3.612-4.61 6.033-8.566 16.598-11.826 25.264-3.26 8.665-8.385 25.612-5.639 29.058 2.747 3.446 15.273 1.809 15.273 1.809l-1.829 2.374s-7.488 26.659-6.046 32.984c1.441 6.326 4.479 12.218 10.183 13.35 5.704 1.131 18.795.545 18.795.545l10.103 86.073 33.438.076.157-1.097 23.179-.394s-1.568-8.913-6.344-11.464a46.4 46.4 0 00-8.224-3.537l4.742-17.74 5.265.788zm-28.157 20.019l-7.055-2.592-2.579-18.144 4.227-.157-2.192-54.968 24.903.313-17.304 75.548z" fill="#fff"/><path fill-rule="evenodd" clip-rule="evenodd" d="M193.998 326.555l-2.519 7.302s3.24 1.253 5.089 3.38c1.849 2.127 2.822 3.375 2.822 3.375l6.197.788a10.602 10.602 0 014.621-5.108 13.572 13.572 0 016.183-1.647l-6.576-2.906 1.114-3.819-16.931-1.365zm-28.571 2.517l.861 5.81a38.489 38.489 0 013.286 3.77 11.374 11.374 0 011.511 3.612l9.07.783s2.066-4.163 5.322-5.81c3.255-1.647 8.535-1.011 8.535-1.011l-9.402-4.264-.781-4.159-18.402 1.269zm4.56-207.641a1.18 1.18 0 011.456.804l.353 1.207a1.185 1.185 0 01-.367 1.29 1.154 1.154 0 01-.417.22 1.162 1.162 0 01-.916-.111 1.188 1.188 0 01-.553-.742l-.352-1.202a1.192 1.192 0 01.796-1.466z" fill="#6A7077"/><path fill-rule="evenodd" clip-rule="evenodd" d="M181.643 114.378l-3.603-3.451a45.85 45.85 0 01-7.518 2.198c-4.253.859-8.97.141-9.005 2.748-.035 2.608 5.271 12.971 5.271 12.971l-1.723.464a3.234 3.234 0 01-1.956-.939c-.891-.89-1.511-1.572-1.511-1.572s-4.596 1.157-2.661 4.245c1.935 3.087 3.2 2.89 3.996 3.137a5.314 5.314 0 001.955.081s1.431 1.294 1.255 1.804c-.176.51-1.487 2.749-1.487 2.749a14.195 14.195 0 01-9.402-7.539c-3.024-6.346-2.424-8.009-2.424-8.009l-2.429-1.652 2.898-2.526s-.504-6.624 6.737-9.191c7.241-2.567 9.775-2.663 9.775-2.663l2.978-3.845 2.348 3.062s2.459-1.127 3.21-2.668a19.318 19.318 0 011.88-2.986l.942 7.382 3.134-.237-2.66 6.437zm-17.97 198.889l22.242-.157-2.585-54.569 25.28-.348-11.493 53.892 22.397 1.515 17.853-65.73s3.643-13.006-9.79-16.33c-13.434-3.325-46.907-5.265-46.907-5.265l-6.501 1.177.958-3.815-26.152.475-1.839 6.291-15.712.298-3.083 10.146s-.812 17.053 9.004 19.705c9.816 2.653 20.05.945 20.05.945l6.278 51.77zm14.779-193.104a1.177 1.177 0 011.437.799l.347 1.207a1.181 1.181 0 01-.373 1.276 1.18 1.18 0 01-.878.258 1.174 1.174 0 01-1.001-.872l-.353-1.213a1.175 1.175 0 01.821-1.455z" fill="#6A7077"/><path fill-rule="evenodd" clip-rule="evenodd" d="M151.429 196.413c-3.235 0-5.85 3.088-5.835 6.892.015 3.805 2.655 6.887 5.895 6.887l-.06-13.779z" fill="#fff"/><path d="M151.49 211.374c-3.88 0-7.055-3.617-7.055-8.084a8.605 8.605 0 012.384-6.063 6.517 6.517 0 014.625-1.991 1.174 1.174 0 011.175 1.177 1.18 1.18 0 01-1.175 1.178 4.127 4.127 0 00-2.962 1.298 6.258 6.258 0 00-1.699 4.411c0 3.153 2.132 5.72 4.722 5.72a1.178 1.178 0 010 2.354h-.015z" fill="#6A7077"/><path fill-rule="evenodd" clip-rule="evenodd" d="M158.892 152.364s.59-5.558 2.273-6.361a8.195 8.195 0 013.446-.708s3.996 2.208 7.518 2.36c3.523.151 4.465-1.183 4.465-1.183s2.781-.308 2.973 1.572c.191 1.879-.55 5.184-.55 5.184a21.09 21.09 0 014.991 7.059 21.156 21.156 0 011.747 8.473c0 9.969-5.09 34.161-5.09 34.161l-5.482 20.913-25.608-.237 2.424-13.031s13.247-2.84 14.179-5.654c.933-2.814 1.562-4.239 1.562-4.239s6.475 1.672 6.974.545c.3-.774.407-1.61.313-2.435 0 0 2.675-.207 2.66-1.804-.015-1.596-1.093-1.884-1.093-1.884s3.104-1.233 2.741-2.83-8.516-4.719-8.516-4.719.716-1.905 3.679-2.021c2.962-.116 5.729.136 5.638-1.647-.091-1.784 1.537-2.34-1.33-2.36-2.867-.02-12.053-.369-14.804 4.633a30.644 30.644 0 00-3.366 9.504l-4.152.394s8.782-30.821 7.361-35.106c-1.421-4.284-4.953-8.579-4.953-8.579z" fill="#fff"/><path fill-rule="evenodd" clip-rule="evenodd" d="M181.93 107.056c1.083-.04 2.282-.894 3.053-.156.857.823-.332 3.031-.7 4.082-.559 1.632-.968 2.896-1.411 3.926.252.41.252.657.469 1.011.458.773 1.39.844 1.567 1.571.126.506-.237.849-.313 1.334 1.361 3.502 3.291 7.63 2.112 12.329-1.008 3.956-4.147 5.977-7.75 7.301-.419 2.304-.943 4.497-1.411 6.755 1.103.566 2.388.829 2.897 2.021.509 1.193.146 2.734 0 4.24 3.941.252 7.795.449 11.277.783 3.774.364 6.4 1.359 8.768 3.299a27.122 27.122 0 015.719 6.356 66.533 66.533 0 014.147 7.857c4.49 9.601 8.884 19.014 13.55 28.735.544 1.142 1.925 3.173 1.486 4.163a.964.964 0 01-1.098.627c-1.053-.051-1.804-2.309-2.348-3.451-4.364-9.191-8.723-18.321-12.996-27.406-2.625-5.558-4.817-10.641-8.929-14.213-2.262-1.96-4.338-3.193-7.911-3.613-3.225-.374-6.752-.48-10.803-.702 1.179 2.471 3.154 4.042 4.152 6.826.998 2.784 1.174 6.139 1.174 9.898 0 7.019-1.179 13.976-2.197 20.024-2.111 12.546-5.543 24.475-8.375 36.036a82.922 82.922 0 003.366-.702c4.384-15.199 9.096-31.388 13.55-47.036.312-1.106.635-2.43 1.486-2.526 2.575-.248.217 4.426.157 5.26 3.446 6.856 7.23 14.38 10.884 21.514.438.859 2.393 3.795.156 3.845-1.048.025-1.552-1.475-1.96-2.274-3.266-6.467-6.707-13.243-10.023-19.629a4078.263 4078.263 0 00-11.589 40.199c11.882 1.273 23.597 2.314 35.393 3.769 3.87.475 7.871.637 11.277 1.728 6.274 2.021 11.444 8.741 10.023 17.826-.605 3.876-1.709 7.625-2.742 11.384-4.777 17.427-9.881 34.646-14.874 52.214-.283.981-.6 2.193-1.008 2.527-.953.727-2.948-.051-4.384 0-1.739 5.295-3.205 10.873-4.858 16.254 6.208 1.658 11.061 4.431 13.233 10.444.287.783.614 1.839.942 2.986.302 1.056.867 2.729.156 3.295-.957.758-4.197.232-5.543.232-5.86 0-12.093-.172-17.545-.232-.403.505-.469 1.096-1.094 1.253-1.078.278-2.947 0-4.308-.076-4.495-.212-8.158-.076-12.839-.076-4.308 0-8.687-.035-12.688.076-1.607.045-3.95.222-4.535-.47-.584-.692-.64-4.042-.781-5.26-3.154-26.284-6.364-54.261-9.352-80.221-7.715-.162-16.513 1.293-21.3-1.88a13.812 13.812 0 01-3.915-3.926 21.006 21.006 0 01-3.834-11.859c.04-4.523.834-9.007 2.348-13.268-2.847 0-1.205-3.411-.706-5.184 1.159-4.118 2.52-8.675 3.527-12.48-6.943 1.369-13.534-.945-13.469-7.695.056-2.151.37-4.287.938-6.362 1.975-7.538 4.61-15.259 6.968-22.302 1.215-3.618 2.339-7.327 3.84-10.833 1.502-3.507 2.978-6.933 5.009-9.6 3.28-4.265 8.984-5.503 15.898-6.064 2.166-.166 4.494 0 6.344-.939 1.058-2.81.977-6.771 5.089-6.518.549-1.334.635-3.133 1.008-4.634-3.437-.909-6.591-2.354-8.617-5.179-1.799-2.526-2.645-5.209-3.527-8.559a8.764 8.764 0 00-.313-1.339c-.549-1.011-2.711-1.47-2.585-3.375.106-1.546 1.84-1.875 2.822-2.431.867-3.895 2.52-6.881 5.714-8.715a24.409 24.409 0 017.987-2.83c1.008-.177 2.222-.05 3.21-.389.705-.248 1.254-1.359 1.879-2.122.625-.763 1.215-1.824 2.117-1.809 1.37.035 1.511 2.117 2.111 2.83 2.121-1.062 2.318-4.629 4.308-5.654a1.287 1.287 0 011.174 0c1.713.808 1.018 4.926 1.346 7.179zm-4.147-.626c-.711.808-2.223 2.021-3.21 1.885-1.159-.167-1.094-1.739-1.885-2.436-1.007.945-1.33 2.461-2.58 2.905a10.12 10.12 0 01-2.015.238 24.14 24.14 0 00-5.543 1.334c-2.121.758-4.454 1.46-5.951 3.299-1.033 1.268-1.577 2.961-2.015 4.548-.162.566-.152 1.308-.469 1.803-.438.693-1.471.708-2.273 1.178.414.884 1.613 1.187 2.016 2.021.372.968.659 1.967.857 2.986 1.632 5.831 3.814 9.893 10.077 10.99.247-.728-.282-.844-.549-1.253-3.467 0-6.319-1.981-6.656-5.26a4.002 4.002 0 01.861-3.224c.504-.556 2.439-1.652 3.603-1.41 1.285.268 1.169 2.274 2.822 2.355-.967-1.89-1.678-3.608-2.585-5.492-.862-1.789-2.252-3.608-2.192-6.064.106-4.345 6.399-3.723 10.254-4.476a19.11 19.11 0 003.84-1.334c.967-.409 4.701-2.587 4.696-.313 0 1.192-2.298 1.768-3.29 2.197a27.195 27.195 0 01-4.067 1.516 40.565 40.565 0 01-4.782.708c-1.511.182-3.92.419-4.303 1.258s.378 2.597.862 3.607c1.088 2.299 1.94 4.093 3.053 6.205.504.965 1.593 2.345 1.487 3.219-.161 1.349-1.955 1.01-3.759 1.182-1.275.121-3.618 1.551-3.447-.394.071-.758.61-.642 1.255-1.102-.126-.237-.393-.338-.469-.626-1.229.121-1.733.808-1.567 2.122a3.91 3.91 0 001.96 2.668c.907.409 2.303.172 3.21.47.806.262 1.986 1.561 2.111 2.278a6.649 6.649 0 01-.236 2.193c-.434 2.284-.817 3.871-1.174 6.205a10.144 10.144 0 003.915 1.491c1.184.212 3.774.833 4.857.318.676-.323.736-1.203.938-2.122.367-1.647.771-3.537 1.098-5.023-1.597-.075-5.951.506-5.951-1.414 0-1.435 1.804-.986 2.897-.864a11.127 11.127 0 006.657-1.258c2.439-1.228 4.394-3.259 4.621-6.438.307-4.365-1.593-7.579-2.978-11.07-1.477-.541-3.432-.142-4.072.783-.338.505-.726 2.092-.156 2.905.902 1.304 3.96.622 4.384 2.36.458 1.88-2.137 3.219-2.424.864-1.512-.414-2.792-.763-3.603-1.733-2.585-3.077.418-8.352 4.772-7.69-.348-.874-1.94-3.451-.232-3.77.56-.106.902.309 1.099.157a11.19 11.19 0 00.856-2.673c-.635.111-1.229.505-1.874.313-1.683-.434-.378-4.597-1.099-6.118-.478.783-.826 2.056-1.652 2.996zm-1.008 41.063c-.504.041-1.23.92-2.016 1.102-2.625.586-6.47-.415-8.223-1.178-.761-.333-1.562-.899-2.192-1.01-2.651-.505-2.761 1.122-3.21 2.748a31.74 31.74 0 01-.862 2.668c2.157 2.35 4.072 4.967 4.535 8.949.504 4.128-.267 8.589-1.007 12.409-1.467 7.417-3.785 14.724-5.543 21.595a9.213 9.213 0 001.879-.237c.54-1.91 1.185-3.643 1.799-5.341.615-1.698 1.109-3.501 2.192-5.022 2.086-2.931 6.717-4.103 11.433-4.32 1.689-.081 3.709-.086 4.853.47 1.144.555 1.753 2.309 1.255 3.769-1.043 3.031-5.72 1.642-8.612 2.824 2.056 1.274 8.168 1.693 6.969 5.816-.272.925-1.144 1.127-1.723 1.88.881 1.515.242 3.91-1.643 3.85-.03 1.874-.726 3.42-2.197 3.688-1.89.344-4.031-.834-5.795-.94-1.093 2.875-1.778 5.846-4.303 7.221-2.953 1.611-6.974 1.556-10.652 2.673-.968 4.001-2.016 7.917-2.973 11.934 8.062-.131 16.064-.278 24.116-.394 2.837-11.364 5.775-22.813 7.83-35.096 1.049-6.25 2.051-12.743 1.648-19.63-.216-3.648-.589-6.361-2.116-8.64-.922-1.369-2.419-3.032-3.291-4.709-.267-.505-.866-1.324-.937-1.804-.216-1.47.822-3.092.313-4.547-.62-.303-.933-.773-1.537-.728h.01zm-23.738 6.361c-5.327.425-10.033.95-13.313 3.381-1.935 1.43-3.412 3.971-4.621 6.437a77.04 77.04 0 00-3.285 7.852c-2.948 8.119-5.639 16.674-8.143 25.203-.877 2.965-1.895 5.679-2.116 9.029-.278 4.133 2.317 6.305 5.638 6.674 1.512.167 3.316-.121 4.933-.313a253.915 253.915 0 0026.938-4.547c1.426-.334 3.18-.612 4.147-1.183 1.854-1.086 2.303-3.698 3.134-5.81-1.274-.435-2.353-.182-2.353-1.491 0-1.596 1.935-.985 3.059-.707 1.774.444 3.104.808 5.008 1.177 1.008.197 2.162.505 2.192-.47 0-.535-1.466-1.081-2.267-1.415a51.45 51.45 0 00-5.795-1.879c-1.008-.288-2.328-.576-2.272-1.652.105-2.067 4.031-.278 5.17.075 1.433.433 2.844.939 4.227 1.516.776.349 2.016 1.592 2.898.546.267-1.233-1.235-1.566-2.117-1.961-2.076-.929-3.809-1.566-6.046-2.43-.792-.308-2.52-.748-2.52-1.809 0-1.884 2.52-.702 3.527-.313 2.565 1.01 5.271 2.102 7.438 3.062.191-.425 1.3-.374 1.174-1.177-.081-.506-1.693-.94-2.429-1.259-1.874-.803-3.527-1.515-5.321-2.197-1.048-.405-2.116-.683-2.116-1.648 0-1.111 1.068-1.419 2.116-.864a10.556 10.556 0 014.777-1.571c1.738-.177 4.867.369 4.696-1.491-2.278-.763-5.543-.353-7.594.076-2.202.47-4.494 1.011-5.794 2.749-.716.97-1.215 2.496-1.724 3.85-1.103 2.931-1.793 5.265-2.741 8.398-.302 1.01-.796 3.668-1.879 3.774-2.474.232-.565-3.537-.393-4.401-8.476.662-16.805 1.89-25.291 2.279-.327-.409-.604-.505-.549-1.177.151-1.87 5.478-1.072 6.813-1.572 1.758-4.734 3.905-10.216 5.795-15.158.534-1.389 1.148-4.472 2.423-4.547 1.981-.127.963 2.122.555 3.223-1.956 5.215-3.885 10.106-5.8 15.072a2.15 2.15 0 00-.232 1.097c4.308-.384 8.566-.819 12.844-1.253 1.305-5.169 2.782-10.388 4.147-15.861 1.341-5.371 3.023-11.065 2.585-17.431-.272-3.957-2.066-6.352-4.308-8.484-1.451.44-3.558.47-5.215.601zm-1.956 57.631a230.444 230.444 0 01-15.897 2.527c-1.456 5.219-2.983 10.353-4.384 15.628 5.155.167 10.582.076 15.736.232 1.557-6.038 3.306-12.298 4.545-18.387zm-1.007 13.9c-.267 1.142-.539 2.153-.867 3.456-.247 1.011-.428 2.739-1.25 3.138-.821.399-2.65.126-3.683.081-4.061-.187-8.279.071-11.902-.081-1.597 4.598-3.149 10.5-2.267 16.098.765 4.886 3.426 9.726 7.281 11.621 2.217 1.092 5.684 1.097 8.929 1.097 3.335 0 6.843.055 9.941-.152-.06-1.268-.357-3.032-.549-4.633-.146-1.253-.771-3.815.862-3.85 1.134 0 1.25 1.445 1.411 2.829 2.207 18.988 4.459 38.684 6.576 57.242 6.606.126 13.378.091 20.049.157-1.113-21.545-1.189-43.08-2.675-64.301-.288-4.133-.645-8.408-2.424-10.995-2.696-3.91-8.884-4.951-15.349-4.239-1.572.177-5.038 1.263-5.089-.545-.05-1.602 3.502-1.632 5.246-1.809 6.898-.692 12.819.571 16.124 4.082 4.722 5.013 3.462 14.502 4.308 23.324 7.841-.172 15.757-.273 23.648-.395.252-.955.62-2.42.937-3.769.257-1.096.292-3.158 1.804-2.981 1.512.177.67 2.435.469 3.294-4.485 19.029-9.025 38.699-13.469 57.242 6.782.506 13.675.945 20.438 1.491 3.053-10.449 5.945-20.423 8.767-30.619 2.822-10.197 6.294-20.464 8.536-30.938.69-3.203 1.008-5.583.474-8.559a12.328 12.328 0 00-3.364-6.47 12.264 12.264 0 00-6.427-3.423c-11.181-1.885-23.607-2.982-35.312-4.083-3.049-.288-6.072-.864-9.005-.864-1.386 0-3.054.611-4.626.94-1.194.257-3.794 1.066-4.227-.157-.434-1.223.761-2.294.705-3.608-8.039.095-16.049.221-24.03.379h.01zm34.854 34.783c.342 15.082 1.552 31.948 1.799 47.662.03 1.748.675 5.897-.232 6.599-.675.505-2.041.091-3.21.232.706 5.494 1.409 10.99 2.111 16.487 1.799.657 3.452 1.466 5.327 2.021 5.628-24.53 11.488-48.829 17.132-73.334-7.705.075-15.223.308-22.927.333zm10.022 65.18c5.039.318 9.927.778 14.956 1.101a3283.64 3283.64 0 003.446-11.777c-5.26-.324-10.44-.738-15.661-1.102-.972 3.83-2.015 7.988-2.761 11.768l.02.01zm-28.58 2.279c5.381-.384 10.712-.824 16.124-1.178-.504-3.915-1.053-7.791-1.486-11.777-5.402 0-10.617-.137-16.054-.081.246 4.234.957 8.7 1.395 13.026l.021.01zm28.112 0c0-.187-.217.03-.157.156-.504 2.102-1.038 4.199-1.511 6.362 3.023 1.46 5.88 3.056 7.362 6.063 1.471.121 2.962.222 4.383.389 2.293-2.491 4.031-5.558 7.755-6.569-.675-.146-1.557-.626-2.429-.788-.332-.06-.665.051-.937-.076-1.511-.702.156-2.991.232-4.395-4.908-.415-9.745-.849-14.719-1.152l.021.01zm-27.8 2.278c.05 1.728.398 3.158.469 4.871 2.544 1.516 3.935 4.214 5.169 7.074 2.52-.061 4.787.121 7.282.076 2.423-2.855 4.535-6.013 8.611-7.221-1.239-.687-3.376-.904-4.459-1.728-1.008-.757-.585-2.622-.943-4.239-5.442.339-10.763.773-16.149 1.157l.02.01zm52.621 7.852c-.751-.742-2.015-1.94-3.29-1.96a10.752 10.752 0 00-4.535.94c-1.084.591-2.187 1.955-3.134 2.981-.696.763-2.016 2.935-2.973 3.143-1.436.318-3.024-.425-4.233-.314.151 1.011.413 1.94.549 2.981 7.125 0 14.346.329 21.38.162-.907-3.032-1.859-6.013-3.784-7.943l.02.01zm-22.317 1.728a14.188 14.188 0 00-2.348-1.728c-1.139-.753-2.046-1.48-3.603-1.334a13.213 13.213 0 00-4.777 1.648c-1.239.818-2.136 2.101-3.21 3.375-.74.879-1.753 2.526-2.585 2.748-1.007.283-3.492.041-4.696 0-1.008-.03-3.663.278-4.701-.237-.801-.394-1.184-2.067-1.643-2.981-.277-.546-.589-1.041-.862-1.516-.272-.475-.579-1.147-.942-1.101.292 2.773.635 5.492.942 8.246 10.34 0 20.811-.086 30.929.156-.287-2.637-.766-5.462-2.524-7.286l.02.01z" fill="#6A7077"/><path fill-rule="evenodd" clip-rule="evenodd" d="M170.028 117.344c1.118-.137 3.915-.116 2.741 1.49-.504.698-2.626.172-3.759.789a4.34 4.34 0 00-1.331 1.333c-.388.506-.473 1.269-1.486 1.178-2.096-.187.458-3.194 1.008-3.689a4.98 4.98 0 012.827-1.101zm4.776 12.955c-.065 0-.075-.076-.156-.076a3.947 3.947 0 003.149 1.602c1.28.055 3.024-.733 3.195.434.171 1.168-1.789 1.516-2.832 1.481-1.829-.086-3.386-.591-4.374-1.476-.428-.389-1.34-1.515-1.33-2.359a1.928 1.928 0 011.567-1.804c1.189-.167 1.451.748 2.817.94 1.366.192 4.107-1.516 4.152.318.025 1.092-2.414 1.824-4.228 1.647a6.105 6.105 0 01-1.96-.707z" fill="#6A7077"/><path fill-rule="evenodd" clip-rule="evenodd" d="M61.903 126.701l-17.132 12.172s-6.017 2.779-9.79.627c-3.775-2.153-7.54-6.705-5.967-17.275 1.572-10.571 4.984-46.839 12.532-51.826 10.355-6.851 22.71-4.325 22.71-4.325s-1.008-6.988 1.33-7.22a17.34 17.34 0 014.465.156l.156-10.504s-4.444.131-6.5-2.355c-2.056-2.486-2.897-6.235-2.897-6.235s-4.853-3.031-3.366-6.674a6.77 6.77 0 013.527-3.431s-1.955-2.683.312-5.103c2.268-2.42 5.07-1.334 6.344-2.825 1.275-1.49 6.223-7.922 9.574-7.387 2.963.48 2.192 2.436 2.192 2.436s5.498-3.704 7.911-1.728c2.414 1.975 1.96 4.082 1.96 4.082s3.462.556 4.072 2.526c.61 1.971-2.898 6.438-2.898 6.438l1.487 5.81a26.42 26.42 0 011.567 3.062c.353 1.013.564 2.071.625 3.143 0 0 5.29 1.703 5.794 3.375a3.725 3.725 0 01-.388 2.986s1.623.506 1.175 2.592c-.449 2.087-2.43 3.537-2.43 3.537s.55 1.875-1.486 3.456c-3.356 2.607-5.482 1.652-5.482 1.652l-3.623-.818-4.933.237-.55 2.198s6.188.344 6.5 1.728c.313 1.385-.312 5.104-.312 5.104s19.224-1.516 23.965 5.497c4.742 7.013 10.255 19.14 10.255 19.14s3.95-22.697 5.164-23.4a4.703 4.703 0 001.568-1.258s.841-26.309 3.527-29.447a13.447 13.447 0 011.955-2.02l1.174 8.321-1.406 3.456s6.651-1.566 7.518-.47 1.603 1.99.151 3.138c-1.451 1.147-5.87 3.38-5.87 3.38a27.7 27.7 0 01.937 5.053c.298 2.956-.937 7.614-.937 7.614l2.348.864 3.447 1.258-1.331 6.063 2.349 6.12s-3.764 22.939-5.327 28.507c-1.562 5.568-4.444 13.137-13.232 11.545-6.772-1.213-14.804-17.275-14.804-17.275l-.076 222.995.862 8.797s10.743 5.856 12.451 8.716a14.73 14.73 0 011.955 5.558l-34.924-.334s-1.578-14.122-1.96-28.032c-.383-13.91-3.76-139.313-3.76-139.313L58.226 330.249s-1.391 8.736-1.568 11.621c-.176 2.885-.544 6.518-.544 6.518l-29.76.157s-.045-7.205 3.528-9.737c3.572-2.531 7.054-4.633 7.054-4.633l25.598-185.409s.912-8.665.55-13.268a88.244 88.244 0 00-1.18-8.797z" fill="#fff"/><path fill-rule="evenodd" clip-rule="evenodd" d="M51.487 104.793l-2.015 8.872 5.633-4.396-3.618-4.476z" fill="#fff"/><path fill-rule="evenodd" clip-rule="evenodd" d="M89.365 327.041l.55 8.17s2.594 2.167 3.915 4.158a7.75 7.75 0 011.33 3.85h9.952s1.174-3.769 4.696-4.714c3.522-.945 8.38.788 8.38.788l-7.055-5.497-1.325-6.382-20.443-.373zm-51.452 1.177l20.518.156-.937 7.226-4.701 9.186-5.795-.314s-1.214-4.34-5.175-5.497a341.12 341.12 0 01-7.906-2.43l3.442-1.966.554-6.361z" fill="#6A7077"/><mask id="mask1_367_10527" style="mask-type:luminance" maskUnits="userSpaceOnUse" x="28" y="58" width="116" height="96"><path d="M141.593 82.06s-3.462.506-8.38-3.536c-4.918-4.042-5.014-5.053-5.326-7.074-.166-1.7-.14-3.414.076-5.108l-5.639 24.97s-6.43-16.916-10.128-19.847c-3.699-2.93-8.062-4.775-14.255-5.027-6.193-.253-10.023-.475-10.023-.475s2.52-4.073.474-4.628c-2.046-.556-20.443-2.219-20.443-2.219s-2.857-1.824-3.29.632a42.286 42.286 0 00-.393 6.2s-13.56-1.01-19.733 2.526c-6.172 3.537-7.83 10.661-10.269 21.05-2.439 10.388-6.011 37.804-5.472 40.598.54 2.794 2.741 11.065 11.982 9.817 9.242-1.248 21.537-14.213 21.537-14.213.417 3.229.626 6.481.624 9.737.03 5.755-.075 13.743-.075 13.743l47.144 4.083v-50.81l8.299 13.511s10.012 9.68 15.036 2.197c5.024-7.483 9.715-36.672 9.715-36.672l-1.461.546zm-92.212 31.888l2.424-9.347 3.92 5.416-6.344 3.931zm35.005-3.612c-.408 2.162-4.152 1.571-4.152 1.571l-8.838-.243-3.054 1.728a32.29 32.29 0 01.469 4.24c0 1.571-1.487 3.845-1.487 3.845a3.399 3.399 0 01-2.665.945c-1.512-.233-4.812-3.451-6.344-7.62-1.532-4.168-.232-6.437-.232-6.437l2.016-2.117s-.504-7.377-.237-12.41c.267-5.032 4.308-6.128 4.308-6.128l-.393-4.24 23.26.081s-2.233 24.622-2.64 26.785h-.01z" fill="#fff"/></mask><g mask="url(#mask1_367_10527)"><path fill-rule="evenodd" clip-rule="evenodd" d="M141.985 84.956c-3.572.258-8.289-1.486-10.995-3.724a11.554 11.554 0 01-2.605-2.92l-5.321 22.302s-9.468-23.975-13.187-26.91c-3.718-2.936-8.062-4.77-14.255-5.023-6.192-.252-8.213-.444-8.213-.444s2.091-4.073.05-4.634c-2.04-.56-21.828-2.228-21.828-2.228s-2.857-1.824-3.29.632a13.058 13.058 0 000 4.471s-11.716-1.223-20.116 4.245c-6.172 3.506-7.835 10.656-10.26 21.044-2.423 10.388-6.046 37.804-5.481 40.598.564 2.794 2.74 11.066 11.972 9.818 9.231-1.248 21.536-14.214 21.536-14.214.418 3.229.627 6.481.625 9.737.03 5.755-.08 13.743-.08 13.743l45.632 3.077.841-70.798 2.016.591c-.169.31-.316.633-.439.965-.035.101.121 66.792.121 66.792l14.361-5.917s9.171-18.958 14.2-26.446c5.029-7.488 11.398-38.905 11.398-38.905s-.67 3.723-6.682 4.148zM40.199 124.038l5.936-8.963s1.81-6.432 3.024-10.611c1.214-4.178 3.099-9.186 3.099-9.186l.665 1.4-1.109 7.913 2.726 3.158.771 5.35L40.2 124.038zm42.549-13.137c-.413 2.163-4.268 1.122-4.268 1.122h-7.71l-4.761 3.618c.251 1.401.41 2.817.473 4.239 0 1.571-1.511 3.85-1.511 3.85a3.392 3.392 0 01-2.66.94c-1.513-.232-4.818-3.451-6.345-7.614-1.527-4.164-.232-6.443-.232-6.443l5.216-3.84s-1.648-6.694-1.401-11.727c.247-5.032 2.293-5.083 2.293-5.083l2.655-2.804 20.257-1.36s-1.588 22.94-1.996 25.102h-.01z" fill="#6A7077"/></g><path fill-rule="evenodd" clip-rule="evenodd" d="M54.42 330.699c1.754 0 3.175 1.773 3.175 3.961 0 2.188-1.421 3.966-3.175 3.966-1.753 0-3.169-1.773-3.169-3.966 0-2.193 1.416-3.961 3.17-3.961zm38.452 0c1.748 0 3.17 1.773 3.17 3.961 0 2.188-1.422 3.966-3.17 3.966-1.749 0-3.175-1.773-3.175-3.966 0-2.193 1.421-3.961 3.175-3.961zM72.142 32.984s6.229 11.237 7.519 11.075c1.29-.161 3.345-2.854 6.893-3.612a16.584 16.584 0 017.674.156c1.406.349 4.696.733 5.402 2.43.705 1.698-.313 3.957-.313 3.957a2.515 2.515 0 011.333 1.424 2.533 2.533 0 01-.078 1.951c-1.008 2.39-2.822 2.355-2.822 2.355s2.207 3.759-2.978 4.633c-5.185.874-7.599-.814-7.599-.814s-5.245 2.729-9.573-1.803c-4.329-4.532-2.822-6.988-2.822-6.988l-4.989-9.737s-1.194-1.591-2.74-1.177c-1.548.414-3.453 1.283-2.58 4.002.87 2.718 2.252 3.506 3.365 3.537.89 0 1.778-.054 2.66-.162l-1.33 4.088s-4.005-.46-5.638-3.062a49.194 49.194 0 01-2.973-5.735s-5.25-3.032-3.215-6.518c2.036-3.487 3.92-2.279 3.92-2.279s-3.17-4.547.625-6.831c3.794-2.284 3.714-.232 5.014-1.253 1.3-1.02 3.678-5.887 6.263-6.993 2.585-1.107 3.865-1.4 4.853-1.01 1.29.505 1.567 2.121 1.567 2.121s6.087-3.435 8.304-1.177c2.217 2.259 1.174 3.537 1.174 3.537s4.278.637 4.464 3.3c.187 2.662-2.585 5.896-2.585 5.896l-1.803-2.355s-.162-.505-2.016-.869a43.833 43.833 0 00-3.835-.545s1.305 2.284-1.174 2.592c-2.479.308-5.326-1.516-5.326-1.516s.73 3.365-.942 5.103a8.804 8.804 0 01-3.699 2.279z" fill="#fff"/><path fill-rule="evenodd" clip-rule="evenodd" d="M80.96 33.97a1.17 1.17 0 011.216.473c.088.127.151.27.184.42l.333 1.516a1.182 1.182 0 01-.462 1.243 1.171 1.171 0 01-1.83-.737l-.338-1.516a1.174 1.174 0 01.897-1.4z" fill="#6A7077"/><path fill-rule="evenodd" clip-rule="evenodd" d="M136.443 39.916c.358.329-.06 1.178-.156 1.572a2.28 2.28 0 01-.08 2.117c.388.647.76.859.393 1.804 1.829-.258 4.293-1.203 6.046-.39 1.31.612 2.056 2.572 1.331 4.24-.857 1.955-4.445 2.91-6.188 4.082 1.214 2.749 1.189 6.473.549 9.818-.242 1.238-.368 3.294-1.648 3.294-1.794 0-.866-2.395-.625-3.688a16.082 16.082 0 000-7.074c-.241-.935-.922-2.294-.781-3.062.222-1.208 2.545-1.885 3.528-2.43a71.553 71.553 0 001.879-1.102c.847-.505 1.567-.834 1.008-1.804-.973-.505-2.016-.075-2.897.076-.967.082-1.918.294-2.827.632a4.04 4.04 0 00-1.411 1.571c-.685 1.091-1.376 2.612-2.741 1.334-.383 3.84-.6 7.695-.938 11.621a19.224 19.224 0 01-.473 3.694c-.262.864-1.058 1.253-1.411 2.02-.469 1.067-.504 2.557-.857 4.083-1.819 8.196-3.431 15.835-5.326 24.34-.227 1.01-.735 4.723-2.519 3.142-.832-.748.116-3.082.317-4.002.136-.636.323-1.359.469-2.02.193-.66.325-1.338.393-2.022 0-.667-.66-1.703-1.008-2.526-2.474-5.558-4.883-11.814-8.46-16.169-2.248-2.749-5.251-3.981-9.473-4.633a89.824 89.824 0 00-9.474-1.102c-1.148-.055-2.428-.222-3.446-.156-.771.05-.832.793-1.724.55-1.904-.505 0-4.365-.312-5.891-6.41-1.188-13.968-1.642-21.456-1.516-.337.692-.201 1.445-.236 2.355 0 .712-.333 1.89-.076 2.526.257.637 1.2.323 1.174 1.415-.04 1.637-2.686 1.081-4.071 1.01-4.802-.212-11.04-.197-14.412 1.01-5.442 1.956-8.4 4.973-10.334 10.52-1.78 5.094-2.787 10.985-3.76 17.114-1.511 9.403-2.76 17.826-3.915 27.33-.398 3.274-.68 6.568.393 9.095a11.525 11.525 0 004.853 5.558c2.48 1.334 5.664.743 8.304-.47 2.167-1.011 4.097-2.663 6.183-4.239 5.039-3.8 9.755-7.286 14.487-11.541.876-.788 2.333-1.874 2.585-2.829.23-1.11.283-2.249.156-3.375-.09-1.082-.504-2.395-.237-3.143.564-1.577 5.326-1.258 3.527-3.845-1.043-.101-1.567.293-2.52.783-.559.293-2.902 1.829-3.21.081a1.437 1.437 0 01.475-1.258c1.34-1.597 1.965-3.31 3.527-4.866.564-.571 1.456-1.193 1.406-1.966a1.2 1.2 0 00-1.174-1.096c-1.114-.03-2.55 1.768-3.13 2.592a14.33 14.33 0 00-1.174 2.117c-.559 1.228-.977 2.946-2.52 2.122.197 1.167.535 2.223.943 3.764.292 1.107 1.255 3.679-.549 3.694-1.31 0-1.386-1.945-1.723-3.219-.358-1.359-.736-2.612-1.008-3.85-4.59 3.36-10.632 7.999-15.747 11.813-.665.506-1.647 1.567-2.585 1.334a1.36 1.36 0 01-.786-.939c-.105-1.011.917-1.39 1.567-1.885 1.96-1.491 3.8-2.996 5.72-4.396 1.007-4.067 2.277-8.872 3.441-13.349.313-1.193.55-3.734 1.648-3.926 2.303-.41 1.008 2.789.705 4.002-.398 1.515-.59 2.587-.942 3.612.76 1.41 1.708 2.633 2.52 4.007a30.058 30.058 0 003.91-2.905c-.801-3.855-1.255-8.084-.469-12.172a7.292 7.292 0 012.348-4.32c1.053-1.01 2.64-2.355 4.389-2.274 1.748.081 3.643 2.021 3.366 3.85-.277 1.83-1.955 2.264-2.897 3.537 3.235-1.314 6.187 1.198 5.039 4.548.766.96 1.683 1.869 1.642 3.299-.065 2.365-2.489 3.537-3.446 5.027 2.887-1.01 4.827 2.552 3.759 4.785-.655 1.37-2.343 1.809-3.679 2.436.247 2.294.504 4.81-.237 6.568-.786 1.86-2.897 3.274-4.383 4.548-.429.368-1.406 1.081-1.512 1.414-.136.546.267 1.875.393 2.754.892 6.063 1.481 13.349.156 19.544 14.729 1.228 29.85 2.056 44.715 3.143.237-16.75-.236-34.667-.236-51.588 0-4.159-.096-8.352.075-12.718.061-1.516-.111-3.37 1.255-3.375 1.365-.005 1.139 1.905 1.098 3.45-.085 3.214-.307 5.988-.156 9.273.061 1.404-.191 3.274.076 4.547.181.879 1.602 2.582 2.116 3.38 2.137 3.305 4.243 6.751 6.5 9.737 1.643 2.177 3.482 3.87 6.657 4.239 3.29.384 5.709-1.096 7.513-3.143 1.728-1.95 2.227-4.805 3.053-7.852 2.419-8.867 3.286-17.81 5.251-27.32-.469.465-1.482 1.597-2.52 1.334-1.753-.45-.171-5.052.081-6.518.504-2.83.544-5.098 1.008-7.225.201-.89.902-1.965 1.33-2.824a23.595 23.595 0 001.955-5.104c.282-1.096.393-2.142 1.179-2.36 2.096-.575 1.577 1.971 1.174 3.457a30.101 30.101 0 01-2.015 5.34c-.368.743-1.043 1.516-1.336 2.355a10.921 10.921 0 00-.388 2.355 13.22 13.22 0 00-.237 2.526c.071.43.504.738.625 1.253a8.23 8.23 0 01.197 3.27c1.617.469.982 3.986.665 5.76-.857 4.779-1.809 9.958-2.661 14.526-.604 3.249-1.093 6.437-1.96 9.6-.866 3.163-1.567 6.159-3.129 8.322a10.55 10.55 0 01-6.732 4.476 11.557 11.557 0 01-8.773-2.021c-2.015-1.45-3.577-4.087-5.013-6.205a412.867 412.867 0 01-4.46-6.674c.222 66.337.076 132.148.076 199.44 0 9.428-.393 19.048.705 27.875 2.923 2.021 5.901 3.805 8.929 5.968 1.305.929 2.812 2.021 3.759 3.688.447.838.839 1.704 1.174 2.592.333.839.958 2.077.55 2.83-.409.753-2.52.505-4.077.545-8.818.359-18.241.081-27.482.081-1.32 0-3.794.248-4.465-.156-.59-.359-.851-2.875-1.007-4.245-1.295-10.575-1.406-23.384-1.724-34.777-1.128-40.685-2.433-81.106-3.527-121.629-8.153 46.197-15.903 93.187-24.045 139.899-.822 4.724-1.336 10.222-1.88 15.704-.181 1.839-.116 4.684-1.008 5.184-.614.344-2.59.157-3.834.157-7.922 0-15.46.08-23.648.08-1.512 0-3.366.157-3.84-.394-.8-.939.268-3.946.625-5.184a12.002 12.002 0 012.117-4.32c2.015-2.471 4.943-3.653 7.598-5.26 1.845-17.431 4.379-34.651 6.652-51.82 2.272-17.169 4.786-34.293 7.054-51.431 2.278-17.25 4.565-34.288 7.206-51.27 1.29-8.332 2.68-16.755 3.99-25.208.66-4.249 1.366-8.59 1.643-12.955.277-4.366-.468-8.812-1.093-13.349-3.653 2.743-7.382 5.618-11.197 8.559-3.336 2.557-8.848 6.351-14.502 4.163-4.252-1.647-7.734-6.361-7.91-12.015-.091-2.976.544-6.008.967-9.039a813.045 813.045 0 013.834-25.991c.953-5.816 1.835-11.338 3.679-16.169 1.91-4.997 4.892-8.337 9.574-10.363a22.122 22.122 0 018.062-1.885c2.993-.126 6.253-.227 9.63-.08.256-2.527-.369-5.285.941-6.675.933-.985 2.671-.611 4.621-.702.182-2.699.025-5.735.076-8.56-4.747-1.05-7.69-3.905-8.924-8.483-2.268-.743-5.05-4.886-3.78-7.998.565-1.41 2.041-2.097 3.367-2.906a4.494 4.494 0 01-.313-4.633 6.561 6.561 0 014.465-3.219c.645-.09 1.426.036 2.267-.237 1.204-.38 2.278-2.021 3.21-3.219 1.582-2.02 2.787-3.729 5.639-4.547 1.778-.505 4.273-.768 4.776 1.177 3.553-2.556 10.204-1.925 10.416 3.375 3.482-.06 5.412 2.92 4.384 6.205-.504 1.592-1.769 2.845-2.52 4.007.197.702.847 1.334.469 2.198-.378.864-2.68.642-3.679 1.01-.59.223-1.436.692-1.486 1.516-.166 2.643 5.039 1.678 3.285 5.184.58.228 1.36.258 1.96.47a4.93 4.93 0 00-.937-2.198c-.504-.773-1.92-2.759-.08-2.986 1.133-.136 1.945 1.4 2.428 2.279a8.673 8.673 0 011.008 3.688c3.492.778 7.271 2.719 6.107 7.15 1.855 2.299.252 5.896-1.96 6.674-.055 1.173-.332 2.4-.937 3.138-1.164 1.42-4.716 2.703-7.206 2.43-1.582-.166-2.766-1.167-3.915-1.566-.459.101-1.008.223-1.567.313-.56.091-1.19 0-1.487.395 0 .61.847.429 1.174.47 1.16.14 3.084.222 3.916.944 1.129.97.7 3.26.312 4.866 8.889.707 17.813.606 22.711 5.103 4.897 4.497 6.832 11.475 10.077 17.745 1.169-4.835 2.268-10.312 3.371-15.471.363-1.698.59-3.613 1.174-5.022.358-.864 1.069-.955 1.331-1.728.332-.976.201-2.405.312-3.689.504-6.063 1.008-12.157 1.804-17.982.605-4.432 1.119-8.348 4.621-9.656.287.41.388.212.544.864.096.394-.141.9.156 1.177-.504.793-1.411 1.112-1.879 2.021-.595 1.188-.837 3.274-1.094 5.18-.257 1.904-.468 4.041-.63 5.734.55-.55 1.129-1.905 1.96-2.592.236-1.87.746-3.695 1.512-5.416.217-.45.444-1.137.942-1.173zM92.514 23.884c.162-.904 0-2.021-.63-2.526-.871-.687-2.393-.04-3.366-.627-.972-.586-.302-2.107-.861-3.218-1.124-2.254-4.6-1.445-6.34-.47-1.118.621-2.362 2.334-3.214.308-.267-.642-.116-1.44-1.093-1.329-3.185.359-4.535 2.37-6.108 4.396-.957 1.228-1.89 2.612-3.134 3.3-1.244.686-2.625.302-4.071.783-.852.282-2.484 1.485-2.52 2.667 0 1.41 1.578 2.219 1.411 3.376-.136.914-1.38 1.142-2.116 1.571a5.91 5.91 0 00-1.945 1.738c.116 1.672.227 2.79 1.098 3.85.58.697 1.915.935 2.43 1.647.513.713.765 1.91 1.173 2.825 1.139 2.562 2.953 3.981 5.87 4.714v-1.516c-4.03.617-6.42-3.996-5.32-6.568.564-1.334 2.206-2.961 3.99-2.986 1.124 0 2.605 1.131 3.21 1.97.978 1.334 1.638 3.234 2.585 5.023.418.783.801 1.611 1.255 2.526.408.813 1.128 1.809 1.25 2.592.302 1.87-.142 2.865.317 4.083a6.52 6.52 0 001.955 2.435c1.743 1.46 3.623 1.85 6.5 1.415.846-.132 1.88-.506 2.741-.395 1.36.167 2.409 1.577 4.152 1.648a7.998 7.998 0 002.66-.627c.605-.212 1.78-.46 2.193-1.101.478-.743.08-1.93.549-2.906.61-1.268 2.696-.93 2.585-2.905-.056-.92-.852-1.203-.942-1.965-.111-.976.463-1.188.393-2.117a3.096 3.096 0 00-1.411-2.123c-.842-.505-1.99-.672-3.447-1.096-1.774-.505-2.953-1.299-4.696-1.102a18.968 18.968 0 00-6.107 1.966c-1.2.677-1.835 2.324-3.21 2.668-1.92.505-2.52-1.097-3.371-2.436a71.632 71.632 0 01-3.442-6.28c-.448-.89-1.088-2.481-1.647-3.219-.348-.465-1.008-.505-1.008-1.334 0-1.617 1.512-.732 2.741-1.177.76-.278 1.436-1.672 1.723-2.668.287-.995.086-3.127.706-3.693.856-.783 1.864.146 2.585.55 1.154.652 2.615 1.47 3.527.081.388-.606.201-1.657 1.008-1.965 1.315-.505 3.492.828 4.857.47.902-.238 1.124-1.37 2.016-1.334a1.188 1.188 0 011.093 1.096c.036.632-.58.96-.625 1.516.268.258.308.733.55 1.01.483-.934 1.315-1.51 1.501-2.54zm-7.986 2.203c-.67 2.446-4.596 3.43-6.737 1.728-.343 2.769-1.512 4.724-3.528 5.806 1.824 3.304 3.336 6.902 5.563 9.832 1.774-2.44 4.903-3.537 8.304-4.32-.095-.667.298-.849.388-1.329-1.87-.621-3.623-2.268-3.441-4.476.186-2.355 2.398-3.421 4.696-3.85-.328-1.087-.917-1.905-1.255-2.987-1.541.071-2.63-.303-3.99-.404zM65.813 40.14c-.07.91.957 2.572 1.643 2.83 1.4.504 3.28-.597 3.84.706.093.278.144.567.15.86.318 4.203-.246 8.938-.075 13.43 3.588 0 7.296.631 10.415.47-4.57-1.097-7.845-3.447-8.062-8.717a9.834 9.834 0 000-1.515 8.605 8.605 0 00-.867-1.718c-.901-1.713-1.854-3.684-2.66-5.184-1.4-.283-3.689.07-3.447-1.516.146-.93 1.205-.783 2.273-.627a2.247 2.247 0 00-1.411-1.01c-.64.525-1.723.975-1.799 1.99zM62.76 95.966c.347-.814.413-2.117.937-2.981.186-.28.397-.542.63-.783.73-.758 2.52-1.728 2.52-2.527a1.516 1.516 0 00-1.331-1.01c-.751.025-1.85.97-2.273 1.334-1.96 1.702-2.418 4.683-2.116 8.402.237-1.04 1.25-1.546 1.633-2.435zm4.459-.152c-2.928 1.01-4.696 4.462-5.714 7.377.257.869.332 1.92.625 2.749 1.335-3.714 3.527-6.569 6.893-8.246a2.487 2.487 0 000-1.728 2.069 2.069 0 00-1.804-.152zm-15.973 15.542a19.097 19.097 0 002.585-1.96c-.55-.677-.953-1.516-1.512-2.198-.378 1.344-.716 2.764-1.073 4.158zM40.442 315.99c6.385-.146 13.076-.394 19.183-.55 7.967-45.818 15.767-93.475 23.885-139.687.267-1.516.383-3.406.861-4.477.313-.692 1.305-1.379 1.956-1.96 1.44-1.304 2.655-2.314 4.151-3.689.565-.505 2.077-1.869 2.742-.475.413 1.056-.615 1.683-1.174 2.198a230.7 230.7 0 01-3.76 3.375c-.66.587-1.536 1.122-1.803 1.809a12.482 12.482 0 00-.388 1.961c-.57 3.178-.172 7.048 0 10.61.136 2.891.11 5.781.231 8.635.504 11.571.454 23.117.943 34.632 1.204 28.734 1.45 58.242 2.58 86.446 6.228.172 12.415.379 18.714.47.066 0 .096-.061.081-.152-.025-54.513 0-107.425.08-161.044-15.116-.879-29.96-2.046-45.027-2.986-8.889 53.801-15.691 109.724-23.255 164.874v.01zm49.487 1.41c-.025 1.334.141 2.481.08 3.85 6.204-.242 12.482-.414 18.645-.707v-2.905c-6.248-.122-12.411-.334-18.644-.47-.09 0-.086.111-.08.222v.01zm-49.885.945c-.06 1.248-.353 2.264-.393 3.537 6.334-.041 12.537.045 18.795.076.247-1.37.504-2.734.706-4.159-6.39.147-12.709.374-19.103.521l-.005.025zm50.036 5.341c.085.702.112 1.41.081 2.117 6.223 0 12.29-.132 18.478-.157v-2.592c-6.254.126-12.33.445-18.553.622l-.006.01zm-50.812.848a25.564 25.564 0 00-.317 2.673c6.147-.126 12.375-.156 18.644-.156.15-.9.302-1.794.468-2.673-6.394.03-12.214-.137-18.714-.076-.096.01-.09.121-.08.232zm50.974 3.613c.105 2.117.15 4.295.236 6.437a13.95 13.95 0 015.402 7.933c2.782 0 5.543 0 8.224-.081 1.743-2.986 3.98-5.477 8.379-5.805-.886-.834-2.403-.935-2.902-2.123-.343-.833-.343-2.071-.469-3.142-.126-1.071-.206-2.259-.312-3.375-6.253-.016-12.34.136-18.558.156zm-51.523 1.334c-.56 1.602-.07 4.457-.706 5.891-.201.455-.962.718-.861.94 5.195.506 8.344 3.032 10.259 6.837 1.426 0 2.726.141 4.152.151a184.961 184.961 0 003.835-6.826c.475-.768.868-1.585 1.174-2.435.378-1.542.095-3.088.625-4.715-6.118.098-12.277.15-18.478.157zm80.653 11.859c-.857-.627-1.895-1.647-2.742-1.885-.846-.237-1.511-.141-2.428-.237a12.658 12.658 0 00-2.52-.157c-2.489.258-4.117 2.238-5.165 3.926-.368.586-.831 1.516-1.411 1.728-1.239.419-3.663.086-5.25.157-1.27.055-4.394.303-5.321-.076-.706-.288-.862-1.597-1.174-2.527-.625-1.834-1.36-3.223-2.585-4.239 0-.081-.101-.06-.08.081.271 2.946.65 5.79 1.007 8.635 10.229-.141 21.123-.055 31.71-.081-.691-2.764-2.127-3.921-4.041-5.325zm-65.002 1.884c-.444.778-1.008 2.102-1.804 2.355-.968.308-2.096.04-3.054 0-.786-.03-2.428.086-3.129-.157-.7-.242-1.22-1.404-1.723-2.198a14.035 14.035 0 00-1.648-2.278c-2.016-1.971-6.047-2.274-9.473-2.749-.171-.025-.232.106-.313.157-1.108.727-2.519 1.515-3.366 2.672-1.158 1.587-1.511 3.618-2.015 5.887 9.332.035 18.397-.03 27.482-.076.056-2.147.56-4.259.474-6.285-.54.965-.877 1.687-1.421 2.672h-.01z" fill="#6A7077"/><path fill-rule="evenodd" clip-rule="evenodd" d="M79.75 30.72c.852-.13 3.528-.358 2.974 1.41-.338 1.092-2.016.283-2.817.47-.504.121-1.204.884-1.643 1.34-.438.454-.796 1.368-1.804 1.096a1.06 1.06 0 01-.625-.784c-.105-1.04 2.303-3.057 3.054-3.375a4 4 0 01.862-.156zm9.081 12.01c.544-.09 1.36.092 1.18 1.102-.132.723-1.815 1.561-2.666 1.723-1.245.243-3.15-.56-3.286-1.485-.065-.43-.11-1.122.857-1.183.887-.055 1.053.758 1.804.788.902.036 1.129-.773 2.111-.944z" fill="#6A7077"/><path d="M92.832 316.213a1.01 1.01 0 01-.978-.95L87 169.265a.98.98 0 01.943-1.01.946.946 0 01.929.572.958.958 0 01.078.377l4.858 145.988a1.012 1.012 0 01-.947 1.01l-.03.011z" fill="#6A7077"/><path fill-rule="evenodd" clip-rule="evenodd" d="M66.513 79.009h17.51c1.633 0 2.954 1.056 2.954 2.36l-2.651 28.295a2.326 2.326 0 01-.65 1.653 2.298 2.298 0 01-1.628.706H68.56a2.298 2.298 0 01-1.627-.706 2.323 2.323 0 01-.65-1.653l-2.726-28.295c0-1.304 1.32-2.36 2.957-2.36z" fill="#fff"/><path d="M82.048 113.003H68.554a3.274 3.274 0 01-2.32-1.003 3.305 3.305 0 01-.93-2.357l-2.721-28.204c0-1.935 1.759-3.43 3.925-3.43h17.51c2.167 0 3.93 1.515 3.93 3.34l-2.655 28.385a3.284 3.284 0 01-.952 2.304 3.263 3.263 0 01-2.293.965zM66.513 79.989c-1.068 0-1.975.632-1.975 1.38l2.721 28.199a1.383 1.383 0 00.774 1.34c.165.079.344.125.526.135h13.494a1.337 1.337 0 001.29-1.379l2.66-28.386c0-.657-.906-1.289-1.98-1.289h-17.51z" fill="#6A7077"/><path fill-rule="evenodd" clip-rule="evenodd" d="M67.224 72.092h16.124c.474 0 .827.505 1.064 1.01l.851 2.698a.678.678 0 01-.67.708H65.949a.71.71 0 01-.716-.707l.852-2.75c.257-.51.67-.96 1.139-.96z" fill="#fff"/><path d="M84.598 77.473H65.954a1.69 1.69 0 01-1.194-.494 1.7 1.7 0 01-.499-1.194.83.83 0 01.045-.293l.847-2.743c.504-1.072 1.244-1.637 2.05-1.637h16.125c.554 0 1.34.267 1.945 1.556l.902 2.824c.03.095.046.194.046.293a1.658 1.658 0 01-.992 1.552c-.2.086-.414.133-.631.136zm-18.23-1.96H84.15l-.67-2.128a1.167 1.167 0 00-.263-.343l-15.948.03c-.12.108-.217.24-.282.39l-.62 2.05z" fill="#6A7077"/><path fill-rule="evenodd" clip-rule="evenodd" d="M63.782 76.134H86.82c.67 0 1.18.829 1.512 1.647l1.21 4.482a1.066 1.066 0 01-.552 1.06 1.058 1.058 0 01-.401.122H62.004a1.108 1.108 0 01-1.008-1.182l1.209-4.547c.323-.84.907-1.582 1.577-1.582z" fill="#fff"/><path d="M88.594 84.425h-26.59a2.08 2.08 0 01-1.455-.662 2.092 2.092 0 01-.56-1.5.85.85 0 01.035-.253l1.21-4.547c.594-1.486 1.51-2.3 2.519-2.3H86.82c1.008 0 1.804.759 2.418 2.26l1.255 4.597a.85.85 0 01.035.253 2.025 2.025 0 01-1.157 1.964 2.012 2.012 0 01-.778.188zM61.98 82.36c.065.121 26.595.111 26.595.111 0-.09-1.174-4.421-1.174-4.421-.327-.783-.615-.93-.62-.935H63.798a1.78 1.78 0 00-.69.96l-1.13 4.285z" fill="#6A7077"/><path fill-rule="evenodd" clip-rule="evenodd" d="M66.01 87.346l-3.205 1.778s-1.648 2.113-1.648 2.325c0 .212-.968 1.516-.968 1.814 0 .298-.252 4.36-.252 4.36l2.107 1.228 1.511 6.381 2.454 8.797 1.94.596 4.032-4.148v-2.748s-1.648-.89-1.9-.592c-.42.449-.937.795-1.512 1.011a4.49 4.49 0 01-1.22.172c-.422 0-.251-.718.212-1.188.464-.47.419 0 1.053-.879.635-.879 1.683-2.42 1.855-2.627a5.53 5.53 0 00.59-1.44c.211-.677.125-1.905-.086-2.072-.212-.167-.716.167-.544-1.228.17-1.394.463-2.238.211-2.92-.252-.682-.343-1.309-.932-1.516-.59-.207-1.093-.505-1.643-.212-.46.244-.96.402-1.476.465-.63.126-1.099.257-1.265.257a2.181 2.181 0 01-.59-.212 2.765 2.765 0 01.122-1.101c.17-.299.17-.506.634-.758a6.73 6.73 0 00.973-.637c.451-.32.838-.722 1.139-1.187a5.13 5.13 0 00.252-1.395 1.696 1.696 0 00-.293-1.314 4.132 4.132 0 00-1.552-1.01z" fill="#fff"/><path fill-rule="evenodd" clip-rule="evenodd" d="M69.491 106.571c.957-1.485 3.381-2.662 3.447-5.027.04-1.43-.877-2.34-1.643-3.3 1.174-3.36-1.779-5.87-5.039-4.547.942-1.263 2.63-1.748 2.897-3.537.268-1.788-1.677-3.77-3.366-3.85-1.688-.08-3.335 1.278-4.388 2.274a7.292 7.292 0 00-2.349 4.32c-.785 4.103-.332 8.317.47 12.172a37.703 37.703 0 01-3.362 2.577v2.971c1.376-1.011 2.696-1.996 3.91-2.88.283 1.238.66 2.491 1.008 3.85.338 1.273.413 3.228 1.724 3.218 1.803 0 .841-2.587.549-3.693-.408-1.516-.746-2.597-.943-3.764 1.512.823 1.95-.895 2.52-2.123.33-.738.723-1.446 1.174-2.117.58-.823 2.016-2.622 3.13-2.592a1.196 1.196 0 011.173 1.097c.05.773-.841 1.394-1.406 1.965-1.557 1.556-2.181 3.269-3.527 4.866a1.438 1.438 0 00-.474 1.258c.308 1.748 2.65.212 3.21-.081.942-.505 1.466-.884 2.52-.783 1.799 2.587-2.963 2.269-3.528 3.845-.262.748.147 2.062.237 3.143a10.704 10.704 0 01-.156 3.375c-.252.955-1.708 2.021-2.585 2.83a122.115 122.115 0 01-4.913 4.173h3.729c.435-.466.91-.892 1.42-1.273 1.487-1.278 3.599-2.693 4.385-4.548.756-1.783.504-4.299.237-6.568 1.335-.627 3.023-1.066 3.678-2.435 1.088-2.249-.852-5.831-3.739-4.816zm-6.263-16.572c.423-.364 1.512-1.31 2.272-1.334a1.509 1.509 0 011.33 1.01c.036.788-1.773 1.758-2.519 2.526a5.628 5.628 0 00-.63.784c-.504.864-.59 2.167-.937 2.98-.348.814-1.396 1.395-1.648 2.436-.287-3.719.172-6.7 2.132-8.402zm5.805 7.695c-3.366 1.677-5.543 4.547-6.894 8.246-.292-.829-.367-1.88-.624-2.749 1.007-2.915 2.786-6.371 5.714-7.377a2.065 2.065 0 011.804.152c.206.557.206 1.17 0 1.728z" fill="#6A7077"/><path fill-rule="evenodd" clip-rule="evenodd" d="M52.98 113.019l3.925-2.936.463 2.152-2.277 1.031-2.111-.247z" fill="#fff"/><path fill-rule="evenodd" clip-rule="evenodd" d="M110.13 172.095s-3.094-1.753-4.933-8.716c-2.162-8.165-1.229-10.848-1.255-10.833l5.795.076.393 19.473zm-50.389-2.997s5.175-2.258 7.599-6.831c2.605-4.916 3.447-11.07 3.447-11.07l-7.912-.708-3.134 18.609z" fill="#6A7077"/><path d="M139.905 83.37c-3.023-.056-6.551-1.991-9.307-5.053-3.824-4.26-5.039-9.322-2.877-12.036a1.175 1.175 0 012.086.61c.034.31-.057.622-.252.866-1.194 1.515-.463 5.36 2.787 8.983 2.262 2.527 5.27 4.24 7.482 4.28a2.514 2.514 0 001.961-.682 1.161 1.161 0 01.836-.403 1.171 1.171 0 011.133.724 1.182 1.182 0 01-.286 1.316 4.798 4.798 0 01-3.563 1.395zM65.38 123.174a5.2 5.2 0 01-2.313-.57c-2.363-1.168-4.42-3.962-5.366-7.297-1.14-3.991-.716-8.124 1.078-10.529a1.17 1.17 0 011.663-.266 1.172 1.172 0 01.462.792 1.182 1.182 0 01-.246.883c-1.345 1.809-1.627 5.22-.7 8.479.76 2.668 2.389 4.956 4.142 5.82a2.43 2.43 0 002.016.197 1.173 1.173 0 011.527.657 1.185 1.185 0 01-.271 1.281c-.11.108-.241.193-.385.25a4.378 4.378 0 01-1.607.303z" fill="#6A7077"/><path fill-rule="evenodd" clip-rule="evenodd" d="M39.082 210.667h310.673c.966 0 1.893.385 2.576 1.07a3.658 3.658 0 010 5.166 3.638 3.638 0 01-2.576 1.07H39.082a3.639 3.639 0 01-2.577-1.07 3.658 3.658 0 010-5.166 3.639 3.639 0 012.577-1.07z" fill="#fff"/><path d="M349.755 218.953H39.082a4.615 4.615 0 01-3.268-1.357 4.64 4.64 0 010-6.552 4.614 4.614 0 013.268-1.357h310.673c1.226 0 2.401.488 3.267 1.357a4.638 4.638 0 010 6.552 4.611 4.611 0 01-3.267 1.357zm-310.673-7.301c-.706 0-1.383.281-1.882.782a2.671 2.671 0 000 3.773c.5.5 1.176.781 1.882.781h310.673c.706 0 1.382-.281 1.881-.781a2.674 2.674 0 000-3.773 2.653 2.653 0 00-1.881-.782H39.082z" fill="#6A7077"/><path fill-rule="evenodd" clip-rule="evenodd" d="M161.809 204.22h76.99a.766.766 0 01.554.228.779.779 0 01.227.555v1.516c0 1.041-.413 2.04-1.147 2.776a3.91 3.91 0 01-2.768 1.15h-70.721a3.91 3.91 0 01-2.769-1.15 3.932 3.932 0 01-1.147-2.776v-1.516a.766.766 0 01.228-.555.766.766 0 01.553-.228z" fill="#fff"/><path d="M235.665 211.612h-70.721a5.093 5.093 0 01-3.598-1.5 5.121 5.121 0 01-1.492-3.608v-1.516a1.96 1.96 0 011.956-1.961h76.989a1.96 1.96 0 011.955 1.961v1.516a5.117 5.117 0 01-1.492 3.608 5.09 5.09 0 01-3.597 1.5zm-73.462-6.215v1.107c0 .729.288 1.429.802 1.945a2.742 2.742 0 001.939.808h70.721a2.741 2.741 0 001.938-.808 2.757 2.757 0 00.803-1.945v-1.107h-76.203z" fill="#6A7077"/><path fill-rule="evenodd" clip-rule="evenodd" d="M198.976 165.001h51.08c2.166 0 4.993 3.122 4.394 5.138l-9.297 30.958a5.529 5.529 0 01-1.947 2.598 5.497 5.497 0 01-3.067 1.05h-51.084c-2.162 0-4.994-3.138-4.389-5.148l9.297-30.948a5.521 5.521 0 011.947-2.597 5.495 5.495 0 013.066-1.051z" fill="#fff"/><path d="M240.139 205.923h-51.084c-1.844 0-3.573-1.451-4.495-2.699-1.008-1.349-1.37-2.794-1.008-3.971l9.287-30.948a6.68 6.68 0 012.368-3.202 6.65 6.65 0 013.764-1.28h51.085c1.849 0 3.582 1.451 4.505 2.699 1.007 1.339 1.365 2.784 1.007 3.956l-9.296 30.963a6.694 6.694 0 01-2.369 3.2 6.662 6.662 0 01-3.764 1.282zm-41.168-39.74a4.325 4.325 0 00-3.885 2.804l-9.296 30.948c-.131.43.126 1.172.655 1.885.74 1.01 1.859 1.743 2.61 1.743h51.084a4.314 4.314 0 003.885-2.804l9.297-30.958c.131-.435-.126-1.167-.65-1.875-.736-1.01-1.859-1.743-2.615-1.743h-51.085z" fill="#6A7077"/><path fill-rule="evenodd" clip-rule="evenodd" d="M224.438 181.392c-2.852-.031-5.926 2.435-6.873 5.507-.948 3.072.62 5.573 3.446 5.609 2.827.035 5.926-2.436 6.873-5.508.948-3.072-.594-5.608-3.446-5.608z" fill="#fff"/><path d="M221.062 193.483a4.65 4.65 0 01-3.84-1.844c-.957-1.319-1.174-3.158-.594-5.053 1.053-3.476 4.474-6.205 7.755-6.205a4.621 4.621 0 013.839 1.844c.963 1.319 1.179 3.158.6 5.053-1.063 3.497-4.475 6.205-7.76 6.205zm3.321-11.116c-2.389 0-5.08 2.193-5.886 4.815-.393 1.288-.282 2.491.307 3.305.26.338.597.61.983.791.385.181.809.267 1.235.249 2.433 0 5.119-2.193 5.925-4.815.398-1.288.288-2.496-.307-3.309a2.63 2.63 0 00-2.212-1.036h-.045z" fill="#6A7077"/></g><defs><clipPath id="clip0_367_10527"><path fill="#fff" d="M0 0h389.386v350H0z"/></clipPath></defs></svg>