<svg width="415" height="350" fill="none" xmlns="http://www.w3.org/2000/svg"><g clip-path="url(#clip0_367_6447)"><path d="M203.232 211.488a1.708 1.708 0 013.314-.747 1.706 1.706 0 01-2.668 1.884 1.69 1.69 0 01-.646-1.137zm-6.784.83a1.699 1.699 0 01.852-1.693 1.712 1.712 0 011.893.14 1.706 1.706 0 01.594 1.799 1.71 1.71 0 01-2.696.887 1.701 1.701 0 01-.643-1.133zm-6.775.726a1.715 1.715 0 01.192-.971 1.71 1.71 0 013.14.304 1.698 1.698 0 01-.547 1.812 1.702 1.702 0 01-2.165.004 1.71 1.71 0 01-.62-1.149zm-6.799.593a1.7 1.7 0 01.926-1.65 1.71 1.71 0 012.418 1.049 1.705 1.705 0 01-3.161 1.242 1.707 1.707 0 01-.183-.641zm-6.804.449a1.7 1.7 0 01.96-1.634 1.713 1.713 0 011.88.26 1.704 1.704 0 01-1.038 2.975 1.698 1.698 0 01-1.802-1.601zm-6.838.252a1.699 1.699 0 011.012-1.6 1.707 1.707 0 012.29 2.164 1.704 1.704 0 01-1.545 1.096 1.722 1.722 0 01-1.224-.466 1.713 1.713 0 01-.533-1.194zm-6.804.05a1.731 1.731 0 011.702-1.71 1.711 1.711 0 011.151 2.883 1.719 1.719 0 01-1.151.531 1.693 1.693 0 01-1.578-1.05 1.668 1.668 0 01-.124-.654zm-6.819-.173a1.709 1.709 0 011.762-1.63 1.73 1.73 0 011.648 1.758 1.7 1.7 0 01-.523 1.228 1.693 1.693 0 01-1.249.476 1.696 1.696 0 01-1.209-.568 1.704 1.704 0 01-.429-1.264zm-6.808-.46a1.723 1.723 0 011.836-1.556 1.71 1.71 0 011.49 1.175c.104.321.11.666.017.99a1.7 1.7 0 01-1.447 1.227 1.7 1.7 0 01-.976-.178 1.706 1.706 0 01-.92-1.658zm-6.785-.825a1.714 1.714 0 013.054-.79c.277.358.403.81.351 1.26a1.673 1.673 0 01-1.915 1.482 1.709 1.709 0 01-1.164-.658 1.694 1.694 0 01-.326-1.294zm-6.695-1.25a1.707 1.707 0 113.074 1.339 1.713 1.713 0 01-1.752.707 1.734 1.734 0 01-.62-.265 1.695 1.695 0 01-.716-1.108 1.713 1.713 0 01.014-.673zm-6.586-1.768a1.758 1.758 0 012.128-1.156 1.73 1.73 0 011.148 2.114 1.675 1.675 0 01-.819 1.028 1.68 1.68 0 01-1.309.128 1.658 1.658 0 01-1.148-2.114zm-6.334-2.519a1.734 1.734 0 012.237-.87 1.77 1.77 0 01.891 2.228 1.646 1.646 0 01-2.247.904 1.682 1.682 0 01-.881-2.262zm-5.893-3.409a1.7 1.7 0 012.321-.494c.368.242.631.614.734 1.042.102.427.038.878-.18 1.26a1.68 1.68 0 01-1.75.826 1.682 1.682 0 01-1.116-.719 1.693 1.693 0 01-.262-.62 1.705 1.705 0 01.253-1.295zm-5.102-4.49a1.702 1.702 0 012.42 2.391 1.7 1.7 0 01-1.219.572 1.703 1.703 0 01-1.256-.488 1.724 1.724 0 01.055-2.475zm-3.83-5.602a1.708 1.708 0 012.422 1.895 1.71 1.71 0 01-.695 1.035 1.72 1.72 0 01-2.424-.544 1.723 1.723 0 01-.154-1.339 1.737 1.737 0 01.851-1.047zm-2.177-6.412a1.708 1.708 0 012 1.217 1.7 1.7 0 01-1.791 2.138 1.707 1.707 0 01-1.495-1.248 1.697 1.697 0 01.658-1.831c.188-.133.402-.227.628-.276zm-.99-6.737a1.71 1.71 0 011.695.85 1.702 1.702 0 01-.948 2.459 1.716 1.716 0 01-1.829-.504 1.704 1.704 0 01-.053-2.16 1.706 1.706 0 011.135-.645zm-.786-6.768a1.702 1.702 0 011.678.873c.107.196.174.412.197.634a1.716 1.716 0 01-1.519 1.882 1.698 1.698 0 01-1.717-.867 1.713 1.713 0 01-.139-1.318 1.704 1.704 0 011.5-1.204zm-.664-6.777a1.679 1.679 0 011.66.9 1.705 1.705 0 01-.203 1.877 1.716 1.716 0 01-1.15.611 1.717 1.717 0 01-1.245-.388 1.703 1.703 0 01-.535-1.813 1.713 1.713 0 011.473-1.187zm-.529-6.793a1.702 1.702 0 011.413 2.81 1.706 1.706 0 01-2.989-.989 1.712 1.712 0 01.41-1.236 1.71 1.71 0 011.166-.585zm-.386-6.777a1.737 1.737 0 011.792 1.62 1.7 1.7 0 01-.965 1.621 1.72 1.72 0 01-2.358-2.119 1.672 1.672 0 01.881-.968c.204-.094.425-.147.65-.154zm-.193-6.832a1.732 1.732 0 011.757 1.67 1.703 1.703 0 01-1.675 1.736 1.71 1.71 0 01-1.74-1.672 1.676 1.676 0 011.658-1.734zm.045-6.812a1.726 1.726 0 011.692 1.724 1.708 1.708 0 01-1.731 1.598 1.713 1.713 0 01-1.688-1.642 1.68 1.68 0 01.511-1.201 1.694 1.694 0 011.216-.479zm.282-6.807a1.702 1.702 0 011.205.546 1.696 1.696 0 01.287 1.895 1.706 1.706 0 01-1.66.963 1.715 1.715 0 01-1.558-1.121 1.703 1.703 0 01.472-1.858 1.705 1.705 0 011.254-.425zm.573-6.782a1.701 1.701 0 011.534 1.852c-.05.449-.273.861-.623 1.148a1.744 1.744 0 01-1.247.389 1.716 1.716 0 01-1.202-.594 1.696 1.696 0 01-.199-1.928 1.691 1.691 0 011.054-.826c.223-.06.455-.074.683-.041zm.902-6.753a1.718 1.718 0 011.43 1.932 1.747 1.747 0 01-1.98 1.432 1.685 1.685 0 01-.63-.215 1.685 1.685 0 01-.777-1.047 1.67 1.67 0 01-.023-.664 1.705 1.705 0 01.687-1.135 1.715 1.715 0 011.293-.303zm1.252-6.688a1.694 1.694 0 011.306 2.005 1.762 1.762 0 01-2.039 1.319 1.643 1.643 0 01-1.306-1.976 1.712 1.712 0 011.362-1.356c.224-.043.454-.04.677.008zm1.701-6.595a1.685 1.685 0 011.163 2.08 1.772 1.772 0 01-2.118 1.19 1.642 1.642 0 01-1.178-2.089 1.73 1.73 0 012.133-1.181zm2.153-6.461a1.678 1.678 0 01.989 2.158 1.775 1.775 0 01-.889.947 1.788 1.788 0 01-1.298.091 1.64 1.64 0 01-1.034-2.174 1.726 1.726 0 011.563-1.13c.228-.009.455.028.669.108zm2.652-6.268a1.68 1.68 0 01.874.946 1.667 1.667 0 01-.057 1.286 1.775 1.775 0 01-2.252.854 1.64 1.64 0 01-1.035-1.597c.011-.226.068-.447.169-.65a1.742 1.742 0 012.301-.84zm3.192-6.013a1.665 1.665 0 01.609 2.287 1.763 1.763 0 01-2.306.662 1.653 1.653 0 01-.901-1.688c.029-.226.105-.443.223-.638a1.746 1.746 0 012.375-.623zm3.736-5.69a1.637 1.637 0 01.656 1.735 1.74 1.74 0 01-2.621 1.046 1.677 1.677 0 01-.465-2.391 1.758 1.758 0 012.43-.39zm4.266-5.306a1.637 1.637 0 01.568 1.142 1.64 1.64 0 01-.42 1.205 1.71 1.71 0 01-3.009-.954 1.708 1.708 0 01.396-1.245 1.765 1.765 0 012.465-.148zm4.725-4.915a1.676 1.676 0 01-.054 2.391 1.637 1.637 0 01-2.351.025 1.774 1.774 0 01-.034-2.47 1.741 1.741 0 012.439.054zm4.978-4.653a1.73 1.73 0 01-.089 2.416 1.71 1.71 0 01-2.612-.36 1.701 1.701 0 01.856-2.49 1.711 1.711 0 011.845.434zm5.121-4.5a1.699 1.699 0 01-1.407 2.805 1.704 1.704 0 01-1.495-1.153 1.703 1.703 0 01.492-1.82 1.715 1.715 0 012.41.168zm5.215-4.392a1.694 1.694 0 01.384 1.243 1.688 1.688 0 01-.611 1.148 1.739 1.739 0 01-2.41-.232 1.679 1.679 0 01.223-2.39 1.723 1.723 0 012.414.231zm5.311-4.278a1.702 1.702 0 01-1.526 2.75 1.704 1.704 0 01-1.141-.63 1.709 1.709 0 01-.428-1.28 1.693 1.693 0 01.638-1.19 1.7 1.7 0 011.304-.353 1.705 1.705 0 011.153.703zm5.408-4.154a1.73 1.73 0 01-.322 2.396 1.71 1.71 0 01-2.684-.927 1.708 1.708 0 01.621-1.79 1.679 1.679 0 011.889-.123c.193.113.362.265.496.444zm5.507-4.016a1.695 1.695 0 01.07 1.886 1.704 1.704 0 01-3.105-.496 1.696 1.696 0 011.26-2.048 1.7 1.7 0 011.775.658zm5.587-3.913a1.683 1.683 0 01.276 1.273 1.701 1.701 0 01-.706 1.094 1.735 1.735 0 01-2.381-.44 1.681 1.681 0 01.431-2.366 1.714 1.714 0 012.38.44zm5.661-3.803a1.674 1.674 0 01-.018 1.885c-.126.184-.288.34-.476.461a1.712 1.712 0 01-2.524-.786 1.703 1.703 0 011.274-2.312 1.711 1.711 0 011.744.752zm5.735-3.69a1.723 1.723 0 01-1.138 2.6 1.697 1.697 0 01-1.271-.268 1.712 1.712 0 01.034-2.84 1.682 1.682 0 011.296-.25 1.698 1.698 0 011.079.758zm5.819-3.562a1.723 1.723 0 01-.564 2.351 1.711 1.711 0 01-2.488-.875 1.705 1.705 0 012.323-2.129c.306.142.563.37.739.658l-.01-.005zm5.869-3.433a1.7 1.7 0 01-1.931 2.482 1.702 1.702 0 01-1.065-2.405c.153-.3.391-.55.685-.714a1.71 1.71 0 012.311.637zm5.983-3.314a1.701 1.701 0 01-.986 2.444A1.709 1.709 0 01190.329 25a1.707 1.707 0 01.879-1.68 1.72 1.72 0 012.316.678zm6.037-3.172a1.7 1.7 0 01-.217 1.88 1.707 1.707 0 01-2.795-1.927 1.703 1.703 0 011.352-.872 1.712 1.712 0 011.66.92zm6.115-3.043a1.699 1.699 0 01-.264 1.877 1.703 1.703 0 01-1.178.567 1.71 1.71 0 01-1.803-1.606 1.716 1.716 0 01.432-1.232 1.703 1.703 0 011.177-.568 1.717 1.717 0 011.235.43c.167.15.304.33.401.532zm6.196-2.83a1.7 1.7 0 01-1.509 2.395 1.707 1.707 0 01-1.751-1.654 1.7 1.7 0 011.657-1.748 1.709 1.709 0 011.603 1.007zm6.289-2.638a1.703 1.703 0 01-1.576 2.418 1.712 1.712 0 01-1.581-1.129 1.702 1.702 0 011.576-2.418 1.712 1.712 0 011.581 1.129zm6.418-2.312a1.713 1.713 0 01-1.064 2.144 1.696 1.696 0 01-2.256-1.692 1.712 1.712 0 01.565-1.19 1.7 1.7 0 012.755.738zm6.561-1.867a1.7 1.7 0 01-1.202 2.08A1.75 1.75 0 01227.84 9a1.67 1.67 0 01.597-1.795 1.724 1.724 0 012.703.93zm6.616-1.65a1.7 1.7 0 01-1.264 2.048 1.701 1.701 0 11.5-3.103 1.695 1.695 0 01.764 1.055zm6.69-1.452a1.742 1.742 0 01-1.326 2.02 1.684 1.684 0 01-2.009-1.304 1.713 1.713 0 011.321-2.035 1.678 1.678 0 011.762.701c.125.187.211.397.252.618zm6.696-1.191a1.734 1.734 0 01-1.391 1.976 1.71 1.71 0 01-1.837-1.41 1.706 1.706 0 011.263-1.94 1.683 1.683 0 011.729.755c.119.189.199.4.236.62zm6.759-.938a1.698 1.698 0 01-.829 1.724 1.708 1.708 0 01-2.556-1.28 1.707 1.707 0 013.385-.445zm6.784-.682a1.7 1.7 0 01-1.544 1.842 1.727 1.727 0 01-1.806-2.214 1.668 1.668 0 01.838-1.002c.199-.103.418-.165.642-.182a1.703 1.703 0 011.87 1.556zm6.814-.4a1.707 1.707 0 01-1.623 1.768 1.752 1.752 0 01-1.786-1.645 1.668 1.668 0 01.437-1.225 1.66 1.66 0 011.186-.538 1.718 1.718 0 011.786 1.64zm6.818-.089a1.673 1.673 0 01-.504 1.193 1.702 1.702 0 01-1.203.486 1.755 1.755 0 01-1.702-1.714 1.661 1.661 0 01.485-1.215A1.655 1.655 0 01276.61 0a1.725 1.725 0 011.582 1.075c.085.21.127.433.125.659zm6.82.242a1.669 1.669 0 01-1.138 1.49c-.21.071-.432.1-.654.086a1.733 1.733 0 01-1.618-1.774 1.69 1.69 0 01.559-1.196 1.675 1.675 0 011.252-.424 1.737 1.737 0 011.599 1.818zm6.813.632a1.666 1.666 0 01-1.871 1.482 1.708 1.708 0 01-.893-3.024 1.712 1.712 0 011.255-.37 1.741 1.741 0 011.509 1.912zm6.72 1.022a1.706 1.706 0 01-1.95 1.297 1.707 1.707 0 01-1.41-1.87 1.722 1.722 0 01.689-1.132 1.731 1.731 0 011.291-.31 1.747 1.747 0 011.38 2.016zm6.641 1.463a1.707 1.707 0 11-3.056-1.431 1.713 1.713 0 011.818-.71 1.715 1.715 0 011.079.805 1.695 1.695 0 01.159 1.336zm6.561 1.931a1.67 1.67 0 01-2.108 1.058 1.685 1.685 0 01-1.128-2.095 1.729 1.729 0 012.118-1.16 1.753 1.753 0 011.118 2.197zm6.369 2.421a1.665 1.665 0 01-2.197.894 1.709 1.709 0 01-.948-2.22 1.711 1.711 0 012.225-.946 1.741 1.741 0 01.92 2.272zm6.15 2.939a1.668 1.668 0 01-1.629.894 1.674 1.674 0 01-.627-.183 1.747 1.747 0 01-.762-2.272 1.651 1.651 0 01.982-.884 1.674 1.674 0 011.319.109 1.74 1.74 0 01.717 2.336zm5.869 3.463a1.687 1.687 0 01-2.325.494 1.788 1.788 0 01-.545-2.352 1.651 1.651 0 011.055-.787 1.647 1.647 0 011.296.24 1.734 1.734 0 01.773 1.774c-.042.225-.128.44-.254.63zm5.532 3.976a1.698 1.698 0 01-2.37.307 1.783 1.783 0 01-.307-2.41 1.634 1.634 0 011.782-.624c.215.062.416.169.588.312a1.715 1.715 0 01.61 1.815 1.7 1.7 0 01-.303.6zm5.146 4.481a1.776 1.776 0 01-2.399.054 1.74 1.74 0 01-.075-2.4 1.667 1.667 0 011.197-.557 1.678 1.678 0 011.228.482 1.645 1.645 0 01.049 2.42zm4.479 5.122a1.76 1.76 0 01-2.405-.227 1.733 1.733 0 01.228-2.396 1.704 1.704 0 011.917-.238 1.7 1.7 0 01.704 2.347c-.112.2-.263.375-.444.514zm3.934 5.558a1.72 1.72 0 01-2.36-.46 1.749 1.749 0 01.45-2.366 1.673 1.673 0 011.93-.044c.191.129.352.295.475.489a1.681 1.681 0 01.257 1.295 1.69 1.69 0 01-.752 1.086zm3.503 5.844a1.702 1.702 0 01-1.298.164 1.72 1.72 0 01-1.035-.8 1.705 1.705 0 01.636-2.328 1.712 1.712 0 012.333.634 1.706 1.706 0 01-.636 2.33zm3.103 6.066a1.708 1.708 0 01-1.897-.24 1.703 1.703 0 01-.478-1.848 1.69 1.69 0 01.891-.97 1.698 1.698 0 011.314-.097 1.702 1.702 0 011.158 1.52 1.692 1.692 0 01-.988 1.635zm2.707 6.253a1.71 1.71 0 01-2.212-.928 1.689 1.689 0 01.895-2.213 1.714 1.714 0 011.915.32 1.709 1.709 0 01.376 1.903 1.713 1.713 0 01-.974.918zm2.35 6.393a1.714 1.714 0 01-2.163-1.043 1.736 1.736 0 011.71-2.282 1.68 1.68 0 011.18.567c.148.169.261.366.332.579a1.697 1.697 0 01-1.059 2.178zm2.033 6.5a1.746 1.746 0 01-2.133-1.15 1.704 1.704 0 011.161-2.117 1.71 1.71 0 012.12 1.158 1.665 1.665 0 01-.554 1.807 1.68 1.68 0 01-.594.302zm1.643 6.61a1.705 1.705 0 01-2.079-1.923 1.697 1.697 0 011.287-1.387 1.706 1.706 0 012.054 1.26 1.701 1.701 0 01-1.262 2.05zm1.327 6.683a1.704 1.704 0 01-1.98-1.368 1.742 1.742 0 011.371-1.976 1.672 1.672 0 011.743.741c.12.19.2.401.236.622a1.707 1.707 0 01-1.37 1.981zm.994 6.733a1.71 1.71 0 01-2.007-1.45 1.705 1.705 0 011.557-1.924 1.71 1.71 0 012.007 1.45 1.705 1.705 0 01-1.557 1.924zm.649 6.802a1.748 1.748 0 01-1.861-1.556 1.707 1.707 0 011.57-1.77 1.713 1.713 0 011.84 1.489 1.684 1.684 0 01-.386 1.245 1.672 1.672 0 01-1.163.592zm.286 6.782a1.723 1.723 0 01-1.742-1.65 1.698 1.698 0 011.628-1.754 1.728 1.728 0 011.791 1.651 1.684 1.684 0 01-1.019 1.615c-.208.09-.431.137-.658.139zm-.064 6.813a1.68 1.68 0 01-1.638-1.739 1.702 1.702 0 011.744-1.667 1.704 1.704 0 011.671 1.741 1.729 1.729 0 01-1.777 1.665zm-.42 6.797a1.707 1.707 0 01-1.156-.589 1.68 1.68 0 01-.398-1.234 1.744 1.744 0 012.479-1.405c.203.099.383.238.531.408a1.664 1.664 0 01.394 1.249 1.71 1.71 0 01-.597 1.17 1.718 1.718 0 01-1.253.401zm-.792 6.777a1.718 1.718 0 01-1.485-1.907 1.742 1.742 0 011.925-1.481 1.676 1.676 0 011.485 1.906 1.697 1.697 0 01-1.254 1.442 1.706 1.706 0 01-.671.04zm-1.118 6.704a1.717 1.717 0 01-1.136-.697 1.702 1.702 0 011.079-2.664c.225-.042.456-.038.68.011a1.717 1.717 0 011.136.697 1.706 1.706 0 01-1.759 2.653zm-1.495 6.634a1.736 1.736 0 01-1.272-2.055 1.716 1.716 0 012.053-1.26c.227.043.442.131.633.26a1.71 1.71 0 01.731 1.122 1.708 1.708 0 01-2.145 1.933zm-1.841 6.56a1.743 1.743 0 01-1.163-2.124 1.71 1.71 0 012.115-1.084 1.71 1.71 0 011.161 2.072 1.666 1.666 0 01-2.113 1.136zm-2.242 6.441a1.75 1.75 0 01-1.044-2.188 1.707 1.707 0 012.188-1.023 1.705 1.705 0 011.024 2.184 1.651 1.651 0 01-.333.575 1.654 1.654 0 01-1.178.559 1.656 1.656 0 01-.657-.107zm-2.587 6.303a1.75 1.75 0 01-.916-2.237 1.702 1.702 0 01.92-.914 1.698 1.698 0 011.297.005 1.704 1.704 0 01.928.93 1.717 1.717 0 01-.003 1.312 1.65 1.65 0 01-2.226.904zm-2.934 6.151a1.753 1.753 0 01-.782-2.283 1.68 1.68 0 01.967-.862 1.692 1.692 0 011.294.077 1.713 1.713 0 01.802 2.292 1.66 1.66 0 01-2.281.776zm-3.262 5.982a1.752 1.752 0 01-.658-2.322 1.694 1.694 0 012.281-.662 1.721 1.721 0 01.256 2.842 1.648 1.648 0 01-1.251.355 1.672 1.672 0 01-.628-.213zm-3.577 5.799a1.76 1.76 0 01-.54-2.356 1.693 1.693 0 012.336-.539 1.72 1.72 0 01.554 2.366 1.65 1.65 0 01-1.061.768 1.675 1.675 0 01-1.289-.239zm-3.874 5.607a1.748 1.748 0 01-.426-2.386 1.7 1.7 0 012.365-.415 1.715 1.715 0 01.426 2.391 1.673 1.673 0 01-1.095.708 1.66 1.66 0 01-1.27-.298zm-4.172 5.389a1.738 1.738 0 01-.297-2.406 1.708 1.708 0 012.677 2.119 1.666 1.666 0 01-2.38.287zm-4.657 4.969a1.689 1.689 0 010-2.376 1.746 1.746 0 012.385-.029 1.685 1.685 0 01.546 1.21 1.666 1.666 0 01-.511 1.225 1.721 1.721 0 01-1.216.487 1.73 1.73 0 01-.654-.138 1.724 1.724 0 01-.55-.379zm-5.274 4.308a1.71 1.71 0 01.342-2.356 1.696 1.696 0 012.36.286 1.704 1.704 0 01.156 1.915 1.71 1.71 0 01-1.05.809 1.694 1.694 0 01-1.808-.654zm-5.751 3.665a1.753 1.753 0 01.589-2.341 1.736 1.736 0 012.336.588 1.711 1.711 0 01.238 1.315 1.7 1.7 0 01-.785 1.082 1.71 1.71 0 01-2.378-.644zm-6.116 3.009a1.699 1.699 0 01.827-2.243 1.752 1.752 0 012.266.805 1.672 1.672 0 01-.264 1.891c-.154.166-.34.299-.548.391a1.709 1.709 0 01-1.89-.297 1.71 1.71 0 01-.391-.547zm-6.338 2.504a1.725 1.725 0 01.99-2.178 1.707 1.707 0 11-.112 3.148 1.677 1.677 0 01-.878-.97zm-6.508 2.065a1.707 1.707 0 113.276-.958 1.668 1.668 0 01-.126 1.299 1.66 1.66 0 01-.428.511c-.176.14-.378.243-.594.304a1.705 1.705 0 01-2.128-1.156zm-6.61 1.67a1.7 1.7 0 01.678-1.765 1.715 1.715 0 011.892-.055c.286.178.513.437.651.744a1.703 1.703 0 01-2.459 2.145 1.708 1.708 0 01-.762-1.069zm-6.69 1.353a1.71 1.71 0 012.632-1.69 1.7 1.7 0 01-.006 2.839 1.7 1.7 0 01-1.303.244 1.704 1.704 0 01-1.323-1.393zm-6.736 1.082a1.703 1.703 0 011.777-1.945 1.71 1.71 0 011.521 1.128c.113.317.13.66.049.987a1.71 1.71 0 01-3.126.462 1.698 1.698 0 01-.221-.632zm-6.768.854a1.7 1.7 0 01.845-1.732 1.702 1.702 0 011.323-.154 1.702 1.702 0 011.222 1.491 1.684 1.684 0 01-1.485 1.892c-.223.028-.45.011-.667-.05a1.698 1.698 0 01-1.238-1.447zm-6.789.667a1.7 1.7 0 01.909-1.661 1.71 1.71 0 012.429 1.029 1.7 1.7 0 01-.564 1.807 1.711 1.711 0 01-.918.371 1.7 1.7 0 01-1.672-.904 1.682 1.682 0 01-.184-.642zm-6.804.504a1.696 1.696 0 01.226-.962 1.704 1.704 0 012.602-.43 1.706 1.706 0 01.493 1.827 1.7 1.7 0 01-1.5 1.156 1.72 1.72 0 01-1.649-.947 1.698 1.698 0 01-.172-.644zm-6.814.39a1.706 1.706 0 012.849-1.351 1.697 1.697 0 01.464 1.836 1.7 1.7 0 01-1.522 1.131 1.711 1.711 0 01-1.791-1.616zm-6.834.307a1.706 1.706 0 112.708 1.317c-.273.197-.599.31-.936.323a1.715 1.715 0 01-1.772-1.64zm-6.804.192a1.7 1.7 0 011.008-1.603 1.71 1.71 0 011.87.315 1.698 1.698 0 01.424 1.846 1.701 1.701 0 01-1.545 1.097 1.714 1.714 0 01-1.757-1.655zm-6.819.178a1.703 1.703 0 011.014-1.601 1.705 1.705 0 011.87.323 1.7 1.7 0 01-.195 2.628 1.709 1.709 0 01-2.689-1.35zm-6.823.178a1.706 1.706 0 012.88-1.287 1.701 1.701 0 01-1.128 2.942 1.71 1.71 0 01-1.752-1.655zm-6.819.222a1.708 1.708 0 113.306.539 1.714 1.714 0 01-2.198 1.001 1.699 1.699 0 01-1.108-1.54zm-6.814.341a1.697 1.697 0 01.936-1.708 1.706 1.706 0 011.93.283 1.689 1.689 0 01.538 1.233 1.699 1.699 0 01-.936 1.708 1.706 1.706 0 01-2.468-1.516zm-6.798.563a1.702 1.702 0 012.211-1.871 1.701 1.701 0 011.183 1.55 1.69 1.69 0 01-.345 1.3 1.713 1.713 0 01-1.866.571 1.701 1.701 0 01-1.183-1.55z" fill="#6A7077"/><path d="M4.854 43.678h173.285a4.95 4.95 0 013.162 1.326 4.937 4.937 0 011.539 3.06l20.783 177.275c.267 2.425-1.401 4.387-3.736 4.387H26.621a4.952 4.952 0 01-3.162-1.327 4.935 4.935 0 01-1.538-3.06L1.118 48.064c-.267-2.425 1.4-4.386 3.736-4.386z" fill="#fff"/><path d="M199.912 230.817H26.622c-2.865 0-5.443-2.405-5.784-5.359L.035 48.193a5.169 5.169 0 011.227-4.031 4.755 4.755 0 013.593-1.571h173.284c2.866 0 5.444 2.4 5.79 5.355l20.783 177.27a5.141 5.141 0 01-1.227 4.026 4.757 4.757 0 01-3.573 1.575zM4.855 44.764a2.613 2.613 0 00-1.98.85 2.963 2.963 0 00-.683 2.332l20.783 177.27a3.843 3.843 0 003.622 3.423h173.315a2.591 2.591 0 001.979-.85 2.954 2.954 0 00.683-2.331L181.791 48.193a3.842 3.842 0 00-3.652-3.428H4.855z" fill="#6A7077"/><path d="M155.293 173.239a.916.916 0 01-.906-.805c-6.566-58.507-8.847-69.128-9.619-70.254l-.173-.213c-2.697-3.31-5.483-6.737-17.878-7.745-12.178-.988-19.546-3.804-21.902-8.363a6.91 6.91 0 01.06-6.422.899.899 0 01.557-.414.91.91 0 011.102.657.913.913 0 01-.101.686 5.08 5.08 0 000 4.702c1.426 2.717 6.121 6.2 20.417 7.36 13.173 1.073 16.33 4.975 19.145 8.398l.183.223c.639.78 2.341 2.865 10.011 71.182a.913.913 0 01-.807.988l-.089.02zm-94.607 9.04a.901.901 0 01-.9-.805c-8.512-77.244-7.171-79.511-6.666-80.361l.138-.222c2.069-3.488 4.414-7.435 17.438-8.517 13.36-1.101 17.423-4.287 18.477-6.767 1.118-2.638-.906-5.157-.93-5.182a.908.908 0 01.796-1.48.91.91 0 01.614.329c.114.138 2.736 3.409 1.192 7.04-1.82 4.277-8.545 6.915-19.996 7.873-12.093.988-14.092 4.372-16.027 7.627l-.139.228c-.52 1.314-.346 13.411 6.928 79.214a.908.908 0 01-.807.988l-.118.035z" fill="#6A7077"/><path fill-rule="evenodd" clip-rule="evenodd" d="M56.93 58.66h75.19c4.661 0 8.872 3.952 9.402 8.778l1.182 10.71c.535 4.85-2.81 8.778-7.472 8.778H60.048c-4.657 0-8.873-3.927-9.402-8.778l-1.163-10.71c-.554-4.846 2.786-8.778 7.447-8.778z" fill="#057AFF"/><path d="M135.222 88.013H60.047c-5.19 0-9.896-4.372-10.49-9.747l-1.178-10.71a9.119 9.119 0 012.183-7.197 8.412 8.412 0 016.368-2.786h75.19c5.19 0 9.896 4.372 10.49 9.747l1.168 10.729a9.124 9.124 0 01-2.187 7.197 8.415 8.415 0 01-6.369 2.767zM56.93 59.772a6.269 6.269 0 00-4.74 2.06 6.971 6.971 0 00-1.643 5.507l1.177 10.71c.495 4.307 4.212 7.81 8.324 7.81h75.174a6.254 6.254 0 004.741-2.065 6.91 6.91 0 001.643-5.508l-1.178-10.71c-.495-4.302-4.211-7.804-8.323-7.804H56.93z" fill="#6A7077"/><path fill-rule="evenodd" clip-rule="evenodd" d="M27.547 102.812h53.24c4.656 0 8.871 3.952 9.401 8.783l1.178 10.71c.534 4.846-2.806 8.778-7.467 8.778h-53.22c-4.656 0-8.872-3.952-9.401-8.778l-1.178-10.71c-.554-4.851 2.786-8.783 7.447-8.783z" fill="#fff"/><path d="M83.903 132.169H30.68c-5.19 0-9.896-4.371-10.49-9.746l-1.178-10.709a9.129 9.129 0 012.183-7.203 8.436 8.436 0 016.368-2.786h53.224c5.19 0 9.897 4.372 10.49 9.747l1.183 10.709a9.145 9.145 0 01-2.187 7.202 8.415 8.415 0 01-6.369 2.786zm-56.356-28.265a6.254 6.254 0 00-4.74 2.065 6.96 6.96 0 00-1.643 5.503l1.177 10.709c.495 4.308 4.211 7.81 8.324 7.81h53.238a6.266 6.266 0 004.74-2.06 6.942 6.942 0 001.644-5.508l-1.178-10.709c-.495-4.308-4.211-7.81-8.323-7.81H27.547z" fill="#6A7077"/><path fill-rule="evenodd" clip-rule="evenodd" d="M117.151 102.812h53.234c4.661 0 8.872 3.952 9.402 8.783l1.182 10.71c.535 4.846-2.81 8.778-7.472 8.778h-53.229c-4.661 0-8.872-3.952-9.401-8.778l-1.183-10.71c-.539-4.851 2.806-8.783 7.467-8.783z" fill="#057AFF"/><path d="M173.507 132.169h-53.239c-5.195 0-9.896-4.371-10.49-9.746l-1.183-10.709a9.121 9.121 0 012.188-7.203 8.429 8.429 0 016.363-2.786h53.239c5.191 0 9.897 4.372 10.49 9.747l1.183 10.709a9.105 9.105 0 01-2.187 7.202 8.427 8.427 0 01-6.364 2.786zm-56.361-28.265a6.27 6.27 0 00-4.74 2.065 6.97 6.97 0 00-1.643 5.503l1.182 10.709c.495 4.308 4.206 7.81 8.323 7.81h53.239a6.277 6.277 0 004.741-2.06 6.986 6.986 0 001.643-5.508l-1.183-10.709c-.495-4.308-4.206-7.81-8.323-7.81h-53.239zm-51.828 99.423l-23.91-13.1-2.89-26.181 20.995-13.1 23.89 13.056 2.89 26.18-20.975 13.145z" fill="#6A7077"/><path d="M65.318 204.414c-.185 0-.367-.046-.53-.133L40.883 191.17a1.092 1.092 0 01-.56-.834l-2.89-26.206a1.09 1.09 0 01.496-1.042l20.995-13.101a1.09 1.09 0 011.103-.029l23.891 13.1a1.092 1.092 0 01.56.835l2.89 26.181a1.069 1.069 0 01-.496 1.042l-21 13.105a1.083 1.083 0 01-.554.193zM42.432 189.54l22.831 12.523 19.873-12.375-2.752-24.96-22.831-12.523-19.878 12.379 2.757 24.956z" fill="#6A7077"/><path d="M156.5 203.327l-23.886-13.1-2.889-26.181 20.995-13.1 23.886 13.056 2.895 26.18-21.001 13.145z" fill="#fff"/><path d="M156.501 204.414c-.184 0-.364-.046-.525-.133l-23.89-13.111a1.083 1.083 0 01-.555-.834l-2.874-26.196a1.09 1.09 0 01.494-1.042l20.996-13.101a1.085 1.085 0 011.103-.029l23.886 13.1a1.09 1.09 0 01.564.835l2.89 26.181a1.079 1.079 0 01-.495 1.042l-20.996 13.105a1.096 1.096 0 01-.598.183zm-22.866-14.874l22.831 12.523 19.872-12.374-2.751-24.961-22.831-12.523-19.873 12.379 2.752 24.956z" fill="#6A7077"/><path fill-rule="evenodd" clip-rule="evenodd" d="M357.342 297.297l-3.36-64.084s5.983-14.301 4.914-38.283c-1.638-36.555-16.661-89.475-16.701-89.258 0 0-22.534 63.768-10.114 102.363 5.299 16.459 18.259 25.445 18.259 25.445l3.959 64.084 3.043-.267z" fill="#fff"/><path d="M353.275 298.749l-4.013-64.686c-2.361-1.759-13.361-10.581-18.215-25.687-12.371-38.501 9.897-102.422 10.119-103.064l.277-.781.827.059c.9.06.9.06 3.404 9.633a651.96 651.96 0 015.364 22.17c3.612 16.212 8.096 39.518 8.947 58.492.989 22.58-4.102 36.5-4.899 38.531l3.399 64.894-5.21.439zm-11.164-189.357c-4.364 13.629-19.54 65.531-8.991 98.302 5.122 15.921 17.691 24.798 17.814 24.887l.431.301.034.524 3.919 62.982.881-.079-3.32-63.279.099-.232c.059-.138 5.874-14.389 4.824-37.814-1.385-30.982-12.41-73.465-15.691-85.592z" fill="#6A7077"/><path fill-rule="evenodd" clip-rule="evenodd" d="M364.77 307.577l5.324-39.756s-2.732-14.142.223-37.967c3.275-26.438 20.045-50.751 21.926-57.267 0 0-.08 46.79-7.423 71.83-5.399 18.381-11.049 23.671-11.049 23.671l-5.938 39.761-3.063-.272z" fill="#fff"/><path d="M368.738 309.024l-5.201-.464 5.443-40.709c-.321-1.783-2.553-15.555.243-38.13 2.395-19.34 11.965-37.602 17.68-48.509 2.118-4.041 3.79-7.237 4.28-8.926l2.153-7.464v7.765c0 .469-.168 47.234-7.472 72.121-4.805 16.376-9.827 22.535-11.069 23.874l-6.057 40.442zm-2.737-2.43l.886.079 5.854-39.118.277-.262c.05-.045 5.537-5.434 10.748-23.183 5.765-19.64 7.031-53.201 7.308-66.193-.643 1.269-1.395 2.697-2.226 4.293-5.651 10.778-15.103 28.818-17.448 47.768-2.895 23.345-.262 37.488-.233 37.631l.03.173v.173l-5.196 38.639z" fill="#6A7077"/><path fill-rule="evenodd" clip-rule="evenodd" d="M355.551 305.7l-6.433-41.811s6.968-22.268 1.876-48.849c-6.012-31.279-26.677-57.885-26.677-57.885s1.485 45.767 10.392 70.298a329.715 329.715 0 0110.738 36.708l7.071 41.806 3.033-.267z" fill="#fff"/><path d="M351.598 307.137l-7.24-42.798a332.789 332.789 0 00-10.693-36.515c-8.833-24.413-10.421-70.175-10.436-70.639l-.114-3.355 2.064 2.653c.208.267 20.896 27.169 26.869 58.349 4.795 25.04-1.094 46.587-1.836 49.131l6.591 42.715-5.205.459zM325.57 160.731c.569 11.278 2.875 46.247 10.149 66.352a333.549 333.549 0 0110.777 36.846l6.928 40.867.88-.079-6.309-40.907.075-.242c.069-.222 6.818-22.343 1.845-48.326-4.75-24.768-18.952-46.795-24.345-54.511z" fill="#6A7077"/><path fill-rule="evenodd" clip-rule="evenodd" d="M370.673 299.268l6.883-22.639s-1.301-7.533 6.368-19.591c6.611-10.374 26.578-24.388 26.578-24.388s-5.537 9.193-9.575 17.062c-3.172 6.185-7.076 22.071-12.262 25.015-5.394 3.063-7.541 4.001-8.229 3.834l-7.249 21.448-2.514-.741z" fill="#fff"/><path d="M373.88 301.328l-4.572-1.304 7.135-23.504c-.168-1.511-.529-8.936 6.557-20.08 6.65-10.462 26.047-24.121 26.869-24.699l4.216-2.964-2.652 4.406c-.055.094-5.567 9.258-9.541 17.003-.989 1.912-2.073 4.891-3.231 8.037-2.618 7.138-5.582 15.225-9.461 17.423-4.642 2.638-6.769 3.651-7.967 3.917l-7.353 21.765zm-1.841-2.791l.44.124 7.235-21.41.99.238c.371 0 2.043-.662 7.422-3.725 3.182-1.803 6.126-9.83 8.496-16.277a82.416 82.416 0 013.335-8.289c2.232-4.347 4.949-9.138 6.928-12.542-6.195 4.693-17.463 13.772-22.025 20.95-7.304 11.48-6.225 18.771-6.21 18.83l.04.247-.075.247-6.576 21.607z" fill="#6A7077"/><path fill-rule="evenodd" clip-rule="evenodd" d="M347.406 301.234l-4.107-21.147s2.563-4.303-6.369-12.799c-8.932-8.497-26.226-23.598-26.226-23.598s6.789 15.269 11.99 22.427c2.766 3.804 4.384 9.88 9.486 12.952 6.551 3.952 8.818 2.5 8.734 2.678l3.884 19.759 2.608-.272z" fill="#fff"/><path d="M343.932 302.687l-3.884-19.76c-2.697.099-6.008-1.482-8.412-2.964-3.741-2.262-5.716-5.972-7.453-9.242a34.115 34.115 0 00-2.35-4.001c-5.211-7.163-11.831-21.992-12.109-22.624l-1.979-4.51 3.721 3.25c.173.153 17.408 15.21 26.226 23.627 8.076 7.681 7.299 12.305 6.755 13.723l4.265 21.962-4.78.539zm-1.865-20.787l3.622 18.44.415-.039-3.958-20.377.213-.356s1.84-3.828-6.186-11.46c-6.235-5.928-16.671-15.19-22.302-20.154 2.415 5.063 6.433 13.021 9.714 17.556a36.137 36.137 0 012.508 4.258c1.688 3.171 3.43 6.451 6.656 8.397 3.325 2.011 6.156 2.964 7.803 2.554l.673-.158.545.519.435.538-.138.282z" fill="#6A7077"/><path fill-rule="evenodd" clip-rule="evenodd" d="M358.876 307.444l-1.262-40.551s-9.748-28.498-6.809-52.318c3.271-26.428 27.815-91.361 27.815-91.361s.564 84.599-5.26 111.639a121.238 121.238 0 01-12.079 32.302l.638 40.55-3.043-.261z" fill="#fff"/><path d="M363.028 308.901l-5.215-.455-1.287-41.361c-.777-2.341-9.634-29.767-6.804-52.643 3.251-26.235 27.631-90.947 27.879-91.614l2.068-5.483.04 5.859c0 .849.495 85.033-5.285 111.881a124.441 124.441 0 01-12.049 32.356l.653 41.46zm-3.093-2.47l.876.074-.628-39.647.158-.262a121.331 121.331 0 0011.95-31.955c4.835-22.422 5.245-85.533 5.25-105.366-6.007 16.38-22.999 64.005-25.652 85.458-2.884 23.262 6.661 51.522 6.755 51.804l.059.321 1.232 39.573z" fill="#6A7077"/><path fill-rule="evenodd" clip-rule="evenodd" d="M385.968 293.375h-49.483c-1.242 0-2.252.835-2.252 1.867v29.046c0 10.868 10.585 19.651 23.638 19.651h6.666c13.053 0 23.638-8.798 23.638-19.651v-29.046c.015-1.032-.99-1.867-2.207-1.867z" fill="#fff"/><path d="M364.571 345.026h-6.66c-13.633 0-24.742-9.302-24.742-20.748l-.024-29.046c0-1.63 1.484-2.964 3.34-2.964h49.483c1.841 0 3.34 1.329 3.34 2.964v29.046c-.005 11.446-11.099 20.748-24.737 20.748zm-28.086-50.564c-.683 0-1.158.41-1.158.78v29.046c0 10.236 10.114 18.559 22.544 18.559h6.661c12.435 0 22.554-8.323 22.554-18.559l-.025-29.046c0-.37-.495-.78-1.158-.78h-49.418z" fill="#6A7077"/><path fill-rule="evenodd" clip-rule="evenodd" d="M136.994 293.503l-17.364 45.654-28.368.267s2.31-7.41 5.997-8.487 4.33-1.156 5.547-4.199c1.217-3.043 57.054-156.221 57.054-156.221l.134-46.577-17.186-4.288s5.32-6.244 3.959-12.419c-1.361-6.174-6.68-16.089 3.672-22.604 10.351-6.516 16.992-12.587 16.557-18.85-.436-6.264-1.297-22.348 9.401-25.46 10.699-3.112 23.51 1.709 24.702 3.66 4.602 7.523-2.281 15.847-2.281 15.847a12.943 12.943 0 01-2.746 8.27c-3.32 4.119-4.097 3.758-4.097 3.758s-1.069 14.103 2.231 13.832c3.301-.272 13.014-6.871 17.992 1.877 4.978 8.748 15.122 31.881 13.96 36.984-1.163 5.103-8.591 14.385-8.591 14.385s6.75 11.544 5.102 30.913c-1.648 19.369-4.943 125.358-4.943 125.358l-15.929-.089s-5.186 28.912-.178 32.43c5.008 3.517 11.876 5.804 13.425 7.592a9.77 9.77 0 011.979 3.952l-36.959.445 12.307-176.678-33.807 130.11-21.57.538z" fill="#fff"/><path fill-rule="evenodd" clip-rule="evenodd" d="M172.824 125.367l.861-11.292 5.869 11.114-6.73.178zm-12.499-1.961s0-6.333-.035-13.238c-.024-7.553.089-15.808 3.885-17.315 7.264-2.914 17.26-4.559 17.987-7.508.727-2.949-.089-13.13-.089-13.13l-3.132-2.86s-7.764-1.779-7.878-4.826c-.114-3.048 5.052-1.428 5.052-1.428a86.78 86.78 0 0010.253-7.237c4.562-3.868 8.684-8.042 8.684-8.042s1.411 2.752 2.059 4.56c.648 1.808 2.098 6.752 2.098 6.752-.173 1.976 7.967-5.626 2.642-13.367-4.389-6.377-23.257-7.212-28.205-3.393-4.948 3.818-6.344 9.089-6.354 17.867-.01 8.778-2.444 15.6-9.753 20.46-7.309 4.861-16.686 9.786-13.36 19.118 3.325 9.331 3.092 10.403 1.88 13.762a54.263 54.263 0 01-3.132 6.787l17.398 3.038zm45.327 208.055l-6.433 4.288-12.708.716a34.19 34.19 0 00-2.058-3.665c-.871-1.225-2.865-2.5-2.865-2.5l.183-8.842 17.893-.361s-1.232 4.752 1.173 6.98a21.64 21.64 0 004.815 3.384zm-79.559-10.729l-4.023 9.469s-2.623.534-3.493 2.411a9.444 9.444 0 01-1.98 2.86l-1.979.356a21.264 21.264 0 00-5.191-3.952c-3.033-1.581-8.14-1.695-8.14-1.695s1.9-.701 2.771-3.843a40.356 40.356 0 012.969-6.965l19.066 1.359z" fill="#6A7077"/><path fill-rule="evenodd" clip-rule="evenodd" d="M193.088 162.119l-34.742 130.703-41.882-.356 42.387-118.738 1.643-2.228s-.99 13.486-.45 19.656c.539 6.169 2.058 6.97 2.058 6.97s.406-.386 1.099.064c.539.351 1.217 1.403 2.216 2.257 2.277 1.976 2.772 1.517 2.772 1.517s1.87 1.284 2.899.41c.267-.227.327-.736.391-1.428.312-3.359.698-6.97.287-9.257s-.891-7.948-.891-7.948 3.093 6.703 4.414 5.33c1.322-1.373 1.787-7.217-.297-10.067-2.083-2.851-4.146-7.944-4.3-11.969-.153-4.026 1.703-30.286 1.703-30.286l7.605-9.742 21.214-2.232 3.043 1.699s-4.731 1.828-4.568 4.288c.164 2.46 1.703 2.682 1.703 2.682s-.703 1.26 0 2.144a2.367 2.367 0 001.88.8c.038.84.25 1.662.624 2.416.638 1.318 2.147.444 2.147.444s1.742 2.164 2.826.944c1.083-1.22 4.587-4.831 5.982-3.636a11.083 11.083 0 012.024 2.159s5.102 15.753 5.636 23.404c.535 7.652-4.923 134.363-4.923 134.363l-34.366-2.415 9.866-131.948z" fill="#057AFF"/><path fill-rule="evenodd" clip-rule="evenodd" d="M182.152 130.46l-6.798-15.012s1.934-10.131 8.679-12.596c8.204-2.999 11.876 3.952 11.876 3.952s3.018-6.995 5.908-8.665c5.171-2.998 7.338 1.783 7.338 1.783a8.119 8.119 0 011.252 7.687c-1.578 4.386-4.384 5.27-4.384 5.27l-3.399 12.508-20.472 5.073z" fill="#6A7077"/><path fill-rule="evenodd" clip-rule="evenodd" d="M179.446 38.713h2.761c3.559.245 7.102.679 10.614 1.3 3.439.637 6.433 1.25 8.284 3.625 1.85 2.376 2.776 5.602 2.474 9.292a13.03 13.03 0 01-3.707 8.2c-.494 5.972-2.969 9.993-7.561 11.9.179 4.105.085 8.477 1.015 11.826.059 0 .074.074.148.074 3.707-.494 6.651-1.882 10.322-2.322 4.103-.494 6.463 1.304 8.358 3.918 3.464 4.776 5.76 11.252 8.071 17.126 1.173 2.964 2.365 6.051 3.414 9.218a59.867 59.867 0 012.618 9.938c.569 3.804-1.198 7.069-2.687 9.653a41.642 41.642 0 01-5.31 7.256 57.108 57.108 0 014.726 16.183c.871 6.21.322 13.076.218 20.031-.099 6.605-.456 13.338-.728 20.1-.811 20.253-1.351 39.746-2.325 60.231a4588.195 4588.195 0 00-1.525 34.974c-.064 1.546.045 4.154-.494 4.644-.733.642-3.237.222-4.652.222-3.513 0-7.625-.163-11.049-.148-.634 6.737-1.188 12.606-1.747 19.23-.386 4.584-1.207 11.036 2.108 13.066 1.91 1.166 4.062 1.818 6.255 2.752 1.949.839 4.314 1.635 5.814 3.27a17.551 17.551 0 011.875 2.623c.634 1.027 2.578 3.547-.074 3.626-5.77.172-12.475-.218-18.611-.218-5.086 0-8.966-.168-13.954-.217-1.732 0-4.29.183-4.874-.578-.584-.761-.193-3.389-.069-5.083.886-12.202 2.004-24.823 2.835-36.935.99-14.242 1.98-28.345 3.197-42.235 2.474-28.651 4.161-56.67 6.472-84.397-9.669 35.31-18.833 71.84-28.646 107.544-.989 3.641-1.979 7.657-3.048 11.54-.371 1.353-.663 3.458-1.529 3.774-1.029.356-3.533.074-5.017.074-4.82 0-11.015.148-15.409.069-4.493 10.868-9.363 22.595-13.955 33.961-1.073 2.663-2.221 5.587-3.201 8.783-.302.988-.643 2.623-1.232 2.905-.589.281-2.613.168-3.712.217-7.506.311-15.186.193-22.97.494-1.519.064-3.285.232-3.463-.795v-.44c1.865-3.29 3.394-6.496 6.833-8.126.792-.375 1.688-.711 2.544-1.161.843-.379 1.647-.84 2.4-1.378 1.35-1.116 1.811-3.013 2.543-4.94 8.175-21.428 16.221-43.835 23.989-65.743 10.06-28.385 20.259-56.996 30.383-85.558.341-.953.886-1.946 1.019-2.756.278-1.66 0-3.646.075-5.518.207-5.508.143-11.317.143-16.687 0-7.572.178-14.967.218-22.229a691.099 691.099 0 01-13.361-2.608c-1.256-.262-3.775-.385-4.072-1.309-.257-.805.653-2.095.95-2.757 1.197-2.682 2.677-5.656 2.761-9 .124-4.999-3.147-7.602-2.617-12.843.455-4.505 2.315-8.284 5.017-10.596 5.473-4.688 13.766-7.701 16.428-14.874 1.411-3.813 1.302-8.837 1.525-14.152.217-5.202 1.39-8.892 3.706-11.9 2.182-2.86 4.81-5.622 9.486-6.136zm22.168 10.962c-.435-2.609-1.865-5.01-3.632-6.313-.856-.633-2.811-.88-4.216-1.166-1.405-.287-3.008-.608-4.364-.795-3.133-.435-6.522-.944-9.669-.727a9.615 9.615 0 00-1.98.292c-2.602.76-4.735 2.934-6.323 5.004-1.742 2.272-2.663 5.187-3.128 8.274-.326 2.149-.124 4.392-.218 6.461-.326 6.96-1.029 11.678-4.359 15.674-2.905 3.458-7.457 6.23-11.267 8.778-1.391.929-2.92 1.774-3.855 2.905-1.841 2.218-3.711 6.184-3.489 10.23.213 3.843 2.969 7.015 2.687 11.248-.222 3.498-1.652 6.758-2.835 9.361-.163.361-.445.726-.361 1.087 4.948 1.047 9.985 1.976 14.973 2.964.055-4.505.218-9.45.218-14.227 0-4.94-.099-9.746 1.311-13.278 1.411-3.532 4.741-5.434 7.997-6.605 2.677-.988 5.626-1.699 8.412-2.539.881-.261 2.108-.464 2.761-.943.653-.48 1.074-1.784 1.163-2.905.282-3.556-.584-7.612-.292-10.734-.608-.4-1.189-.837-1.742-1.309-.564-.43-1.212-1.116-1.89-1.235-1.059-.178-2.044.168-2.969-.07-1.88-.493-3.617-1.975-3.998-3.847-.267-1.33.227-2.994 1.529-3.458.697-.262 1.979-.035 2.835-.292.757-.227 1.786-1.13 2.761-1.738 2.771-1.74 5.81-3.616 8.214-5.375a77.539 77.539 0 007.294-6.323c.678-.637 1.623-2.134 2.544-2.03a1.108 1.108 0 01.801.726c.203.988-.618.988-.871 1.67 1.98 2.578 3.296 5.804 4.068 9.578 1.672-2.01 2.405-5.266 1.89-8.343zm-26.533 17.56c.886.228 1.896-.133 2.836 0 1.153.159 2.271 1.34 3.127 1.977.9.74 1.9 1.352 2.969 1.817 3.553 1.25 7.823.766 10.03-1.165 2.559-2.228 3.959-5.736 3.855-9.88-.104-4.145-1.846-7.187-3.563-10.161-.074 0-.084-.06-.143-.074-4.825 4.94-10.649 8.891-16.795 12.483-.178.494-.262 1.042-.727 1.235-1.411.059-3.123-.168-4.068.36-.401 1.922 1.015 3.028 2.479 3.409zm8.289 10.957c2.34-.326 4.725-.602 7.12-.87-.118-1.19 0-2.622-.143-3.773a15.303 15.303 0 01-7.259-.875c.084 1.843.138 3.725.282 5.518zm41.071 46.662c.163-1.976-.569-4.214-1.089-6.096a146.758 146.758 0 00-5.527-16.04c-1.173-2.9-2.702-6.649-4.36-10.013-1.484-2.964-3.305-6.871-6.398-7.982-2.296-.825-5.344.266-7.63.869l-3.058.8c-.965.247-2.45.662-3.34.494-2.474-.434-1.935-4.376-2.4-6.97-.129-.711-.094-.632-.653-.578-1.91.188-4.662.598-6.616.726.267 3.192-.282 5.903-2.182 7.04-1.262.75-3.098 1.14-4.652 1.595-4.839 1.423-10.159 2.43-12.791 5.928-1.98 2.623-1.98 7.82-1.98 12.414 0 14.325-.47 28.468-.494 42.665 3.063-.06 6.645-.381 9.233-.435.238-7.869.861-16.351 1.232-24.383.327-6.955.594-14.518 1.094-21.478.084-1.176.074-2.213 1.089-2.179 1.133.04.94 1.309.87 2.396-.222 3.532-.316 6.615-.579 9.796 1.698 2.83 3.41 5.834 5.087 8.783.337.593 1.163 2.727 1.747 2.899.465.144 1.757-.197 2.544-.286 6.106-.701 12.202-1.517 18.026-2.253.728-2.257 1.45-4.49 2.182-6.673.248-.741.713-1.532.797-2.179.05-.365-.178-.79-.069-1.161.163-.558 1.4-1.328 1.979-1.812a8.516 8.516 0 001.816-2.036c1.405-2.544.836-6.985-.653-9.07a11.549 11.549 0 00-2.113-1.975c-.579-.454-2.133-1.17-2.108-2.03a1.093 1.093 0 01.876-.944c.747-.069 2.291 1.245 2.905 1.744a10.273 10.273 0 012.256 2.396c1.88 2.964 2.128 8.333.495 11.03-.436.726-1.118 1.225-1.668 2.031.579.039.767.494 1.015.869a56.137 56.137 0 012.038 3.339c.916 1.645 2.054 3.285 1.524 5.513a9.594 9.594 0 017.918 4.283c.811 1.146 1.286 2.504 2.108 3.7.678-1.848 1.375-2.9 1.529-4.737zm-15.127-8.275c-.762-1.348-1.683-2.544-2.108-3.774a7.86 7.86 0 00-.797.583c.134 1.161-.287 1.892-.658 2.964-.252.756-.495 1.551-.722 2.248-.545 1.655-1.228 3.981-2.113 5.083.396.38.836.711 1.311.988 1.549-1.052 3.513-2.569 6.106-1.887 1.579-2.342.089-4.263-1.019-6.205zm-36.054 16.109c1.658-2.287 3.811-4.712 5.74-6.965-1.707-2.816-3.241-5.809-4.948-8.635-.252 5.197-.539 10.359-.787 15.6h-.005zm46.594-4.569c-1.44-2.613-3.519-4.54-7.705-4.5-.054 0-.084.059-.069.143-.059 0-.089.064-.074.148a24.992 24.992 0 014.73 6.313c.401.716 1.218 1.902 1.163 2.539a1.066 1.066 0 01-1.093.87c-.807-.05-1.302-1.606-1.742-2.396a43.311 43.311 0 00-1.599-2.608c-.786-1.176-2.602-3.952-4.29-4.066-.886-.069-1.979.494-2.687.944-2.405 1.437-4.047 3.324-5.67 5.369.244.447.462.907.653 1.378 1.306-1.017 2.855-2.504 4.285-3.7.455-.38 1.089-1.027 1.747-.943a.947.947 0 01.801 1.018c-.039.681-.989 1.195-1.454 1.595-1.767 1.482-3.464 2.801-4.8 4.446 1.44.059 1.875-.529 2.761-1.235 1.118-.884 1.93-1.635 2.969-2.539.519-.445 1.054-1.107 1.598-1.161a.91.91 0 011.094 1.087c-.075.568-.856 1.136-1.312 1.526-1.618 1.383-3.132 2.608-4.725 3.774.163.593-.119 1.428 0 1.976a51.662 51.662 0 004.869-3.626c.495-.4 1.049-1.126 1.747-1.091a.992.992 0 01.871 1.165c-.109.88-1.737 1.64-2.4 2.174a31.815 31.815 0 00-2.475 2.104c.149.336.372.634.654.87 1.598-1.018 3.414-3.359 5.309-4.278 2.113-1.033 3.335 1.146 4.577 2.247a65.167 65.167 0 004.216-6.021c-.895-.939-1.306-2.371-1.944-3.522h-.005zm-19.408-3.34c-1.598 0-3.315.376-5.012.578-4.894.593-10.179 1.27-14.979 1.818a57.286 57.286 0 00-5.74 6.891c-.529.751-1.484 1.798-1.672 2.539-.277 1.072-.089 2.589-.144 3.848-.312 6.477-.663 12.538-.945 19.014-.114 2.519-.549 5.359-.223 7.617.258 1.768 1.089 3.458 1.821 5.009 1.51 3.216 3.078 5.859 3.632 10.013.263 1.946.495 4.446-.217 6.17-.421 1.017-1.792 2.292-3.128 2.104-1.563-.222-1.311-2.47-1.885-3.774.089 3.369.228 7.163.579 10.305.197 1.124.27 2.267.218 3.408-.169 1.344-1.381 3.221-2.836 3.122-1.38-.089-2.687-1.284-3.78-2.03-1.277-.875-2.361-1.769-2.969-2.905a4.487 4.487 0 01-3.415-2.178c-.569-1.122-.564-3.078-.658-4.94-.252-5.103.198-11.426-.069-15.966a14414.447 14414.447 0 01-41.511 116.624c13.236-.138 26.656-.089 39.903-.217 8.867-32.889 17.438-66.011 26.389-99.053 2.578-9.509 5.092-19.265 7.705-28.883.307-1.131.574-3.414 1.093-4.209.285-.276.601-.52.941-.726 1.786-1.388 3.033-2.505 4.799-3.917.654-.524 1.391-1.413 2.183-1.161a.962.962 0 01.653.795c.064.83-.965 1.289-1.524 1.744-1.91 1.556-3.603 3.018-5.31 4.5-3.959 53.143-8.125 106.107-12.138 159.21 5.3-.158 11.242-.425 16.211-.435.4-8.165 1.41-16.103 2.033-23.805-4.28.06-8.496-.118-12.791-.143-1.242 0-3.37.297-3.345-1.017 0-1.132 1.707-.988 3.197-.939 9.654.361 19.763.104 29.007.435 1.538-39.603 3.676-79.892 4.794-119.954.094-3.413.218-6.841.218-10.161a54.016 54.016 0 00-.797-9.652 78.146 78.146 0 00-2.018-8.344c-.792-2.667-2.054-5.013-2.905-7.548-.574-.518-.965-1.215-1.747-1.521-.95.494-1.91 1.482-3.053 2.47-.99.869-2.182 2.144-3.34 2.178-1.297.035-1.579-1.16-2.331-1.813-1.979.618-3.3-1.042-2.761-3.196-1.979.238-2.939-1.521-2.182-3.122-.821-.666-1.643-1.837-1.524-3.042.089-.909 1.019-1.779 1.672-2.47.757-.801 1.618-1.482 2.108-2.105-.821-.43-1.257-1.166-2.202-1.166h-.005zm-39.18 26.997c-.025 11.282-.292 22.9-.292 34.321 0 2.633-.109 6.007.292 8.398.138.825.44 1.595 1.088 1.526a23.599 23.599 0 01-.435-3.7c-.045-1.368-.154-3.161 1.088-3.122 1.337.045.802 2.268.876 3.483.178 2.89.782 5.809 2.836 6.679a13.11 13.11 0 01-1.237-5.301c-.07-1.531-.649-5.547.871-5.587 1.247-.029 1.019 1.69 1.019 3.122 0 4.387.816 7.538 2.835 9.653.99-1.176.495-2.9.292-4.501-.608-4.989-.445-10.729-.658-15.678-.044-1.082-.158-2.209.945-2.174 1.346.04.624 1.408 1.02 2.756.196.376.415.741.653 1.092.876 1.685 1.652 3.31 1.89 5.513 1.133-.43 1.123-2.055 1.089-3.483-.08-3.764-1.232-6.772-2.539-9.509-1.133-2.361-3.162-5.769-3.201-8.921-.055-4.861.593-9.751.653-15.17-3.004.331-6.196.311-9.08.603h-.005zM116.78 293.918c-3.008 8.294-6.071 16.534-9.09 24.818 5.864.222 11.995.168 17.666.578 3.464-8.492 7.071-16.884 10.47-25.47-6.18.163-12.979.074-19.046.074zm-9.743 26.705c-1.207 2.337-2.142 5.987-3.632 8.398 5.161.044 7.789 2.623 10.683 4.939.536.013 1.07.061 1.599.144 1.484-2.129 3.246-3.952 5.745-5.078.989-2.712 2.192-5.167 3.127-7.904-5.834-.153-11.737-.237-17.517-.484l-.005-.015zm75.021 1.452c-.183 2.139-.301 4.337-.494 6.457 2.538 1.141 4.364 2.993 5.087 5.927h9.451c1.019 0 2.281.242 3.122.07.733-.144 1.816-1.369 2.4-1.813.826-.633 1.727-1.146 2.182-1.887-3.909-1.077-5.369-4.604-5.596-9.361-5.226.39-10.832.365-16.152.607zm-1.232 15.961c11.381.286 22.941.37 34.53.439-1.351-3.69-5.577-5.127-9.402-6.604-.886.598-1.861 1.447-2.969 2.322-.673.523-2.266 2.079-3.123 2.247-1.024.203-2.409 0-3.637 0h-7.259c-1.148 0-2.736.242-3.488-.143-.545-.277-.634-1.195-.945-2.03-.658-1.784-1.411-2.752-3.053-3.488-.297 2.357-.372 4.901-.654 7.272v-.015zm-62.591-4.105c-.539.677-.989 1.867-1.816 2.104a4.733 4.733 0 01-1.455 0c-1.588-.123-1.855-.355-2.761-1.087-2.118-1.709-3.894-3.314-7.195-3.774-1.172-.163-3.656-.449-4.508 0-1.687.885-3.671 1.245-5.086 2.47-1.416 1.225-2.242 2.925-3.271 4.649 8.724-.242 17.576-.351 26.31-.583.613-1.858 1.128-3.814 1.821-5.587a7.912 7.912 0 00-2.039 1.808z" fill="#6A7077"/><path fill-rule="evenodd" clip-rule="evenodd" d="M191.292 63.822c-.708-1.403-1.757-2.42-1.979-3.991-.312-2.39.821-5.162 2.33-6.022.777-.444 3.85-1.61 3.563.36-.163 1.078-2.049.9-2.766 1.453-.94.731-1.386 2.47-1.163 3.992a6.888 6.888 0 001.094 2.321c.43.677 1.217 1.245 1.088 2.253-.222 1.808-3.488 1.748-2.167-.366zM185.259 66c1.099-.35.951.416 1.747.801 1.257.603 3.038 0 3.123 1.304.099 1.556-2.475 1.067-3.781.578a3.81 3.81 0 01-1.306-.939c-.406-.489-.569-1.496.217-1.743zm-2.849-9.005h.495a1.093 1.093 0 011.093 1.087v1.937a1.09 1.09 0 01-1.093 1.086h-.495a1.096 1.096 0 01-1.094-1.086v-1.937a1.095 1.095 0 011.094-1.087z" fill="#6A7077"/><path fill-rule="evenodd" clip-rule="evenodd" d="M192.103 56.739h.495a1.092 1.092 0 011.006.67c.055.132.083.274.083.416v1.947a1.087 1.087 0 01-1.089 1.086h-.495a1.09 1.09 0 01-1.013-.669 1.088 1.088 0 01-.085-.417v-1.937a1.083 1.083 0 01.32-.777 1.1 1.1 0 01.778-.32z" fill="#6A7077"/><path fill-rule="evenodd" clip-rule="evenodd" d="M314.217 334.138l-.989 4.288-3.311.361-.717-1.522-1.252 1.344-17.631-.183s-.495-5.073 2.326-8.131c2.82-3.058 3.196-6.224 4.295-8.487 3.013-6.189 4.453-28.853 4.453-28.853s-13.998-34.964-17.992-48.869c-3.993-13.906-15.142-80.025-10.827-94.879 5.785-19.922 17.275-29.837 17.275-29.837s-11.733 2.283-15.127 1.428c-6.928-1.744-4.454-11.702-4.454-11.702l.713-1.433s-1.613.371-2.593-.622 0-2.416 0-2.416a2.275 2.275 0 01-1.164-.35 2.252 2.252 0 01-.815-.9c-.683-1.294.806-2.964.806-2.964s-2.756-.657-1.88-2.677c1.381-3.122 11.564-7.83 11.564-7.83s2.766-15.639 10.026-16.617c7.259-.978 16.858 1.344 17.813-1.517.955-2.86.807-7.236.807-7.236l-17.903 2.321s1.029-17.16.807-21.443c-.223-4.283-.292-16.415 13.36-20.99 13.652-4.574 27.221 5.74 28.245 12.577 1.024 6.837-2.326 23.494-2.326 23.494l-11.727 2.682s-1.366 10.043.272 10.275c1.638.232 21.03-4.693 22.732 4.554 1.703 9.248 3.118 44.725-2.508 46.815-5.627 2.09-8.769 1.072-8.769 1.072s10.515 14.968 9.842 32.158c-.673 17.191-21.03 139.461-21.03 139.461s10.421 6.56 11.01 10.541c.589 3.982.723 4.021 1.697 6.61a556.58 556.58 0 002.059 5.364l-2.969 3.216-4.023-4.021s1.781 4.831.297 8.289a70.9 70.9 0 01-3.132 6.422l-7.26.207z" fill="#fff"/><path fill-rule="evenodd" clip-rule="evenodd" d="M282.222 234.641l45.193 1.877s13.811-79.284 10.109-90.502a74.111 74.111 0 00-9.486-19.028l-19.1-12.078-19.645 4.717s-11.688 13.031-15.933 29.249c-4.246 16.217-.292 35.072 2.865 55.746 2.39 15.619 5.997 30.019 5.997 30.019zm32.956-177.636l.807 5.271 11.989-2.055s3.692-23.177.357-27.786c-3.336-4.61-14.608-12.068-22.525-9.38-7.917 2.686-16.27 7.542-17.003 14.74-.732 7.197-.717 29.036-.717 29.036l17.091-1.25.406-6.279s-8.239-1.398-8.456-10.339c-.218-8.94 1.43-13.58 1.43-13.58s9.288.836 13.781 4.022a53.273 53.273 0 016.625 5.36s5.513-2.06 5.547 1.25c.035 3.309-4.562 5.537-4.562 5.537l-4.77 5.453z" fill="#6A7077"/><path fill-rule="evenodd" clip-rule="evenodd" d="M311.353 41.124h.885a1.127 1.127 0 011.129 1.126v2.124a1.124 1.124 0 01-1.129 1.127h-.875a1.127 1.127 0 01-1.129-1.127V42.25a1.127 1.127 0 011.119-1.126zm-9.551 1.896h.876a1.13 1.13 0 011.148 1.127v2.13a1.115 1.115 0 01-.33.815 1.134 1.134 0 01-.818.33h-.876a1.13 1.13 0 01-1.128-1.126v-2.149a1.127 1.127 0 011.128-1.126z" fill="#6A7077"/><path fill-rule="evenodd" clip-rule="evenodd" d="M264.977 98.09c.183-1.606 1.524-2.381 2.617-3.266 2.588-2.099 5.725-4.371 8.65-5.517a31.065 31.065 0 012.618-8.852c1.647-3.75 4.557-7.37 9.085-8.126 5.225-.875 11.663 1.086 15.834-.87.495-1.6.599-3.61.797-5.517-4.181.41-8.759.963-13.158 1.526-1.014.128-3.642.696-4.359.286-.841-.494-.495-2.232-.495-3.458 0-4.213.257-8.481.495-12.043.208-2.964.435-5.191.435-7.903 0-2.712.08-5.365.654-7.692 1.054-4.278 3.686-7.32 6.977-9.726 3.176-2.312 7.358-4.382 11.707-5.004 5.404-.805 9.857.701 13.534 2.722 3.677 2.02 6.824 4.579 8.867 7.84a11.942 11.942 0 012.108 6.238 44.803 44.803 0 01-.292 7.904c-.415 3.986-.856 7.474-1.524 11.025-.208 1.092-.203 2.87-.801 3.414-.465.42-2.029.568-2.905.726-3.414.598-6.171 1.077-9.402 1.67a42.398 42.398 0 00-.074 4.495c.064 1.418-.287 3.561.148 4.357 3.583.257 7.532-.302 10.827-.494 4.454-.282 6.982.207 9.526 1.976 2.543 1.768 3.622 3.858 3.998 7.622.337 3.413.436 7.306.436 11.248 0 7.266.42 15.807.069 23.074-.352 7.266-4.023 12.176-12.064 10.961 1.752 3.492 3.676 6.945 5.23 10.665 1.554 3.72 3.132 7.736 3.711 12.35.619 4.939.169 10.171-.217 15.234-.376 4.94-1.044 9.82-1.599 14.513-1.118 9.41-2.385 18.984-3.711 28.448-1.222 8.734-2.667 17.621-4.285 25.836-.124.612 0 1.2-.074 1.812-.045.282-.263.44-.362.727-.072.31-.122.625-.148.943-3.508 18.875-6.364 38.373-9.595 57.544-.119.716-.425 1.566-.366 1.887.099.494 1.806 1.684 2.4 2.178.846.702 1.776 1.438 2.543 2.105 2.658 2.312 5.186 4.164 5.889 7.903.242 1.29.272 2.688.584 4.066a15.01 15.01 0 001.306 3.265c.53 1.062 1.227 2.06 1.386 3.265.208 1.655-.634 2.47-1.529 3.414-.456.494-1.341 1.659-2.4 1.595-1.366-.089-1.307-2.069-2.182-2.83.801 3.991-1.03 7.701-2.395 10.665-.372.805-1.045 2.583-1.673 2.904-.826.42-2.474.173-3.637.218-1.277.049-2.637.276-3.464-.218-.519 1.097-.049 2.52-.871 3.266-.821.746-2.751.444-3.998.434-1.39.494-3.167.356-4.948.435-3.504.158-7.027.168-10.614 0-1.648-.074-3.959.084-4.795-.583-1.534-1.225-.144-4.253.495-5.656.791-1.704 1.979-3.028 2.909-4.357a29.557 29.557 0 004.518-10.042 106.04 106.04 0 003.345-22.062c.054-1.195.287-2.544.144-3.458a7.603 7.603 0 00-.495-1.16c-2.509-6.086-4.835-12.681-7.052-18.722-5.017-13.688-10.391-26.28-13.593-41.435-1.608-7.593-2.746-15.467-3.998-23.514a736.208 736.208 0 01-3.34-24.091c-1.024-8.373-2.182-16.731-2.182-25.327 0-4.213.989-8.126 2.034-11.682a75.594 75.594 0 013.78-10.013 61.033 61.033 0 014.8-8.926c1.86-2.737 4.053-5.034 6.25-7.41-2.108.356-4.261.884-6.25 1.235a14.686 14.686 0 01-6.616-.218c-3.929-1.091-5.755-4.564-5.235-9.879.089-.904 1.049-3.013.584-3.626-.307-.4-1.03-.148-1.673-.583a2.63 2.63 0 01-.584-3.339c-.633-.494-1.559-.593-1.816-1.522a2.572 2.572 0 01.436-2.178 3.533 3.533 0 01-.946-1.976l-.009-.716zm64.258-55.44c.089-1.976.203-4.169-.292-5.928-1.024-3.734-4.206-6.742-7.194-8.783-2.989-2.04-7.141-4.159-11.847-4.134-2.372.053-4.716.52-6.927 1.378-5.443 1.976-10.986 5.671-12.648 11.322-1.158 3.952-.495 8.921-.945 13.57-.495 5.172-.594 10.467-.728 15.526 5.176-.494 10.768-1.25 16.067-1.883.138-1.278.211-2.562.218-3.848-6.433-1.94-10.223-7.41-9.6-15.965.213-2.87 1.163-5.325 1.747-7.983-.856-.281-1.88-.291-1.89-1.304 0-1.748 2.543-.805 3.78-.494 8.076 1.941 16.211 5 20.719 9.796a4.078 4.078 0 013.781-.796c1.484.494 2.201 1.942 2.177 3.626-.045 3.389-2.865 5.113-5.231 6.096a17.632 17.632 0 01-1.89 2.613c-.435.494-2.019 1.704-2.182 2.322-.267 1.022.134 2.346.074 3.557 3.553-.613 7.002-1.33 10.609-1.887.95-5.385 1.93-10.848 2.202-16.8zm-31.174 7.835a10.524 10.524 0 003.202 4.94c1.845 1.6 4.74 3.122 7.917 2.173.945-.276 3.033-1.22 2.969.494-.045 1.482-3.578 1.759-5.018 2.035-.133 2.055-.257 4.2-.435 6.313-.262 3.083-.297 6.23-2.474 7.257-4.454 2.094-12.515-.697-17.319 1.16 2.969 1.636 5.829 3.627 9.451 4.644 3.716 1.042 8.026 1.354 12.796 1.161 8.828-.35 15.384-3.838 21.441-6.822-4.656-.113-9.125.875-13.227.8a5.137 5.137 0 01-1.454-.217c-2.301-.825-1.673-3.547-1.673-6.313v-7.612c0-1.31-.198-2.93.074-3.774.272-.845 1.801-1.71 2.544-2.54.88-.987 1.207-2.123 2.033-2.899.99-.953 2.861-1.215 3.781-2.396.495-.637 1.484-3.206.143-3.774-1.717-.716-2.553 1.922-4.067 1.744a1.09 1.09 0 01-.876-1.238 1.08 1.08 0 01.223-.506c-1.633-1.22-3.137-2.608-5.018-3.63-.628-.341-1.425-.92-1.979-.944-1.114-.05-4.374 2.198-4.285-.143.029-.815.861-.959 1.306-1.235-2.712-1.186-5.795-1.976-8.867-2.83-1.327 4.218-2.564 9.652-1.198 14.152h.01zm38.963 26.18a8.619 8.619 0 00-3.053-2.03 112.754 112.754 0 01-11.124 5.079c-4.008 1.57-8.095 2.825-12.935 3.047-5.374.252-10.312-.039-14.543-1.304-3.959-1.185-7.224-3.487-10.535-5.433-2.474 1.891-4.018 4.697-5.092 7.982 2.474 1.507 5.132 2.811 7.779 4.135.757-.415 1.173-2.178 2.474-2.104a1.053 1.053 0 011.02 1.091c0 .657-.678 1.062-1.02 1.448a9.099 9.099 0 00-1.088 1.378c-2.034 4.02.301 8.892 2.835 10.813.693.534 1.588.929 2.034 1.526.673.9.524 1.813 1.311 2.9 6.309-.988 12.692-2.06 18.68-3.339 3.543-.751 7.546-1.897 11.049-.435-.034-1.773-.168-3.952-.074-6.53.07-1.759-.495-5.478 1.163-5.434 1.242 0 1.024 1.363 1.019 2.756 3.959-.85 8.23-1.417 12.213-2.252-.436-4.88.386-10.487-2.123-13.278l.01-.015zm-58.529 11.916c4.622-.608 5.612 4.228 6.473 7.84a50.634 50.634 0 011.38 10.012c2.168-.277 4.3-.591 6.398-.943-.153-.672-.494-1.146-.658-1.813-3.919-2.159-7.452-7.35-5.522-13.57-2.538-1.265-4.988-2.618-7.487-3.922-.264.78-.459 1.582-.584 2.396zm3.563 5.37c-.554-1.582-1.079-3.43-3.053-3.266-1.163.099-2.435.785-3.563 1.378a39.032 39.032 0 00-7.338 5.01c-.45.39-1.064.908-.945 1.595 2.692-.954 5.319-2.47 7.917-3.844.658-.35 1.692-1.363 2.692-1.234a1.045 1.045 0 01.871 1.16c-.074.954-1.935 1.596-2.618 1.976-1.128.598-2.088 1.18-2.969 1.67-2.118 1.151-4.087 2.085-5.443 3.774 1.148.341 2.128-.356 3.053-.8a203.57 203.57 0 005.522-2.757c.787-.415 3.959-2.524 3.781-.148-.064.88-1.673 1.443-2.251 1.744-2.821 1.452-5.35 2.786-8.14 3.991a9.28 9.28 0 01-.495 1.739c2.543-.929 5.25-2.406 7.848-3.626.876-.415 3.681-2.099 3.637 0 0 .84-1.371 1.339-1.891 1.596-2.518 1.25-4.874 2.238-7.199 3.408.1.347.222.687.366 1.018a55.67 55.67 0 006.977-2.03c1.415-.494 2.969-1.107 3.053.795.886-.079 1.702-.232 2.544-.361-.565-4.45-1.045-9.03-2.361-12.789h.005zm56.846-1.74c-1.796.297-3.696.682-5.522 1.013-2.133.39-4.265.86-6.472.874-.045 5.059 0 10.265.292 15.091.084 1.482.554 3.952-.871 3.992-.436 0-.891-.628-1.237-.652a9.102 9.102 0 00-1.673.36c-3.988.894-8.175 1.838-11.92 2.762 3.726 2.06 8.219 4.702 12.286 6.747 2.291 1.156 4.241 2.144 7.195 2.322 4.948.297 7.264-2.608 8.066-6.748.371-1.896.158-4.174.218-6.387.123-4.386.123-8.783 0-13.06-.06-2.16.054-4.303-.287-6.314h-.075zm-23.623 11.525c-10.545 2.252-21.629 3.7-32.857 5.434-.935.148-2.123.415-2.692.291-.569-.123-.569-.627-1.019-.943-2.321.78-4.572 1.625-7.269 2.035-.559 2.707-.495 6.53 1.094 8.126 2.528 2.519 7.966 1.334 11.628.578 13.618-2.811 27.79-6.047 40.928-8.852-.055-2.223-.238-4.308-.292-6.531-2.851-1.847-6.379-.795-9.521-.138zm15.409 102.896c1.346-9.262 2.707-18.732 3.781-28.374.494-4.505 1.192-9.386 1.524-14.513.321-4.906.871-10.601-.07-15.314-.856-4.292-2.474-8.165-4.146-11.905a110.323 110.323 0 00-3.998-8.052c-.495-.884-.99-2.094-1.525-2.539-.534-.444-1.509-.681-2.325-1.091-4.711-2.337-8.981-4.713-13.45-7.326-.801-.469-1.707-1.225-2.543-1.161-1.341.104-2.796.578-4.142.87l-10.322 2.247c-.714.099-1.419.246-2.113.44-.648.257-1.678 1.482-2.321 2.104a50.92 50.92 0 00-6.254 7.109c-2.613 3.704-4.31 7.765-6.032 11.83a60.779 60.779 0 00-3.999 13.861c-.851 5.074-.222 11.421.362 16.613 2.434 21.542 5.274 42.566 9.159 62.192 14.515.329 29.15.547 43.906.652 1.752-8.891 3.132-18.168 4.508-27.628v-.015zm-47.83 29.392c2.306 9.139 5.537 17.66 8.649 26.122 3.113 8.461 6.206 16.909 9.521 25.326.119-16.884.529-34.109.584-51.305l-18.685-.36c-.084.024-.074.128-.069.232v-.015zm20.936.36c-.302 13.931-.124 28.266-.495 42.236-.237 8.486-.074 16.904-.801 24.743 4.052.287 8.194.494 11.994 1.018.713-5.706 1.846-11.332 2.761-16.983 2.772-17.077 5.444-34.164 8.507-50.939-7.269-.119-14.637-.139-21.882-.292-.099.03-.094.129-.084.232v-.015zm12.722 70.175c0 5.691 1.321 11.55 1.307 17.053a13.538 13.538 0 01-.436 3.848c-.317.988-1.054 1.719-1.529 2.756-.435.958-.52 2.08-.797 3.191a50.915 50.915 0 015.523-.217c.678-1.215 1.316-2.722 1.979-4.209.609-1.403 1.381-3.107 1.455-4.787a14.713 14.713 0 00-.495-3.704c-.332-1.433-1.321-4.308.653-4.352 1.198-.03 2.029 1.58 2.544 2.395.722 1.142 1.153 2.139 1.746 3.192.535-.494 1.371-.959 1.45-1.744.079-.786-.757-2.085-1.163-2.9a21.776 21.776 0 01-1.232-2.83c-.742-2.273-.549-4.97-1.385-6.822-.757-1.695-2.836-3.34-4.142-4.5-1.539-1.364-3.117-2.594-4.508-3.7a31.548 31.548 0 00-.97 7.345v-.015zm-14.325-.874c-1.618 8.447-2.499 16.41-6.25 22.353-1.791 2.84-4.285 5.152-5.017 8.926 5.443.435 11.707.168 17.319.074.46-1.388.762-2.682 1.232-4.283.336-1.136.648-3.665 1.89-3.7 1.885-.054.732 2.47.44 3.483-.4 1.373-.673 2.277-.945 3.265.411.262.149.795.579.943.99.346 1.114-1.575 1.237-2.178.46-2.243.668-3.981 1.455-5.513.376-.741.96-1.383 1.232-2.252.807-2.559.218-6.343-.143-9.287a108.5 108.5 0 01-.817-11.248c-3.77.03-8.105-.608-12.138-.8-.084.029-.079.133-.074.232v-.015z" fill="#6A7077"/><path fill-rule="evenodd" clip-rule="evenodd" d="M303.866 49.892c.123.533.494.578.44 1.166-.158 1.605-2.647.657-2.835-.583-.188-1.24 1.44-2.761 1.45-4.5 0-1.887-.941-3.132-2.613-3.409-.812-.138-1.885.119-1.98-1.017-.094-1.354 1.846-1.29 3.054-.944 3.632 1.047 4.765 5.76 2.484 9.287zm5.962 1.536a.995.995 0 011.135.343.987.987 0 01.172.383c.188 1.067-1.485 1.976-2.252 2.248-.955.336-2.622.36-2.835-.494-.342-1.383.99-1.24 1.89-1.447.643-.173 1.193-.9 1.89-1.033z" fill="#6A7077"/><path fill-rule="evenodd" clip-rule="evenodd" d="M274.137 293.469h6.353v51.102h-6.353v-51.102z" fill="#fff"/><path d="M281.4 345.48h-8.174v-52.92h8.174v52.92zm-6.358-1.818h4.537v-49.284h-4.537v49.284z" fill="#6A7077"/><path fill-rule="evenodd" clip-rule="evenodd" d="M259.41 267.678h35.801a11.638 11.638 0 018.226 3.398 11.606 11.606 0 013.407 8.211v8.862a5.085 5.085 0 01-5.086 5.078h-48.9a5.09 5.09 0 01-3.597-1.488 5.073 5.073 0 01-1.49-3.59v-8.862a11.591 11.591 0 013.41-8.212 11.637 11.637 0 018.229-3.397zm2.554 73.559h30.679c1.414 0 2.769.56 3.769 1.558a5.318 5.318 0 011.561 3.762v1.482a.988.988 0 01-.99.988h-39.344a.99.99 0 01-.99-.988v-1.482c0-1.409.56-2.76 1.556-3.757a5.335 5.335 0 013.759-1.563z" fill="#6A7077"/><path fill-rule="evenodd" clip-rule="evenodd" d="M302.426 250.814c-2.682-8.946-15.394-27.535-15.394-27.535s1.979-1.536 2.969-5.715c.99-4.179-5.215-21.177-7.66-27.115-2.444-5.937-9.971-6.836-9.971-6.836s2.128-16.302.267-28.409c-1.86-12.108-16.329-15.254-29.689-10.897-13.361 4.356-16.33 25.079-17.092 28.853-.762 3.774-6.289 6.609-12.371 13.935-4.948 6.007 1.633 11.722 1.074 14.474-.559 2.751-7.596 4.134-8.595 10.452-1 6.318 5.196 10.814 5.196 10.814l15.869.494-3.612 16.494s-1.886.168-11.901 3.304c-10.015 3.137-12.984 8.971-17.814 20.1-4.83 11.13-21.53 62.766-23.371 67.542-1.841 4.777-7.986 7.538-13.063 9.47-5.077 1.931-7.161 8.398-7.161 8.398s31.477.108 32.659-.356c1.183-.464 33.871-73.786 33.871-73.786l.055 5.434s-1.445 5.77-1.524 9.203c-.079 3.433 4.478 4.11 4.478 4.11s3.756 40.886 3.845 43.421c.089 2.534-5.527 4.559-9.219 6.076-3.691 1.516-5.547 6.337-5.547 6.337l35.89-.889-5.191-71.914s31.808 2.688 49.221.895c17.413-1.794 16.458-17.413 13.781-26.354zm-49.404-18.406l-13.855-.356 2.865-8.042 12.529.267 1.252 2.144-2.791 5.987z" fill="#fff"/><path fill-rule="evenodd" clip-rule="evenodd" d="M245.684 163.117h.589a1.274 1.274 0 011.271 1.27v1.837a1.27 1.27 0 01-1.271 1.27h-.589a1.272 1.272 0 01-1.272-1.27v-1.837a1.272 1.272 0 011.272-1.27zm10.639 1.181h.588a1.27 1.27 0 011.272 1.269v1.838a1.27 1.27 0 01-1.272 1.27h-.588a1.27 1.27 0 01-1.272-1.27v-1.838a1.27 1.27 0 011.272-1.269zm-91.248 172.231s3.657.445 6.087 3.122a40.912 40.912 0 013.488 4.293l1.98.355s3.508-1.561 4.834-2.321a26.807 26.807 0 014.097-1.625l-3.31 9.113-31.501-1.071s.371-5.711 4.656-7.687c4.286-1.976 9.669-4.179 9.669-4.179zm58.262.894s4.141-.82 7.244 1.606a56.5 56.5 0 005.013 3.571l8.145-5.177 1.162 11.431-34.9.183s1.702-5.928 5.636-6.97c3.934-1.043 7.7-4.644 7.7-4.644z" fill="#6A7077"/><path fill-rule="evenodd" clip-rule="evenodd" d="M289.214 214.027c-1.217-4.807-5.339-24.299-9.753-27.253-4.414-2.954-12.084-1.428-12.084-1.428s-9.273 11.441-11.381 13.58c-2.108 2.139-7.338 8.309-7.338 8.309s-2.474-6.086-1.702-10.72c.772-4.633 3.221-10.186 3.221-10.186s-13.771-3.171-17.364 11.362c-.742 3.003-1.687 7.059-2.716 11.599a2.721 2.721 0 011.281-1.482 3.379 3.379 0 012.712.089c.455.173.91.365 1.356.568l.411.187c.113.05.435.149.188.065 1.677.568 3.369 1.254 4.666 2.499a8.564 8.564 0 012.434 5.029c.026.234.013.471-.039.701h.43v1.512l.198-.563.446-.623a29.033 29.033 0 014.478 2.233 9.42 9.42 0 003.845 1.339l3.582 4.021-.153.41h1.672a4.42 4.42 0 01.495-1.102c.253-.415.544-.8.797-1.21.079-.128.158-.252.227-.385 0-.05.085-.198.094-.213.08-.202.149-.415.213-.627.159-.524.282-1.062.446-1.586.742-2.415 1.677-4.791 2.553-7.162a10.13 10.13 0 011.232-2.727 3.749 3.749 0 013.132-1.566c1.008.029 2.007.195 2.969.494.901.262 1.826.425 2.727.696 1.979.588 3.958 1.517 5.23 3.172a5.29 5.29 0 011.213 2.519 6.36 6.36 0 01-.213 2.742c-.261.807-.565 1.6-.911 2.376l-.292.691.089-.207c.035-.074.06-.139 0 0-.099.237-.158.39-.217.538-.178.44-.357.879-.545 1.314-.322.785-.732 1.53-1.222 2.223h.99l9.99-2.376s3.835-4.046 2.613-8.852z" fill="#fff"/><path d="M235.539 308.125l-1.93-39.923 1.059.113c.188.025 18.972 2.055 31.927 1.873l1.979-.025c16.107-.208 27.745-.361 27.656-12.552-.049-6.516-7.209-17.625-7.284-17.739l1.524-.988c.307.494 7.522 11.678 7.576 18.712.104 13.999-13.593 14.177-29.447 14.38h-1.979c-11.263.163-26.919-1.344-31.096-1.769l1.831 37.805-1.816.113z" fill="#6A7077"/><path d="M288.556 240.919a8.245 8.245 0 01-3.385-.652c-5.354-2.401-8.684-13.673-8.823-14.152a.905.905 0 01.043-.727.9.9 0 01.563-.463.917.917 0 01.723.099.907.907 0 01.418.597c.881 3.038 4.013 11.302 7.818 13.006 3.42 1.531 8.764-.953 8.818-.988a.923.923 0 01.697-.033c.112.04.216.102.304.183a.9.9 0 01.245.98.908.908 0 01-.469.515c-.183.079-3.533 1.635-6.952 1.635zm-93.652 67.117l-1.677-.701c1.751-4.199 17.185-41.114 19.09-43.554.935-1.27 2.01-2.43 3.207-3.458l1.108 1.437a19.942 19.942 0 00-2.88 3.147c-1.331 1.689-11.999 26.719-18.848 43.129z" fill="#6A7077"/><path fill-rule="evenodd" clip-rule="evenodd" d="M252.191 141.516h2.182c10.198.686 16.488 4.771 19.189 12.917a24.152 24.152 0 011.381 6.679c.327 7.686-1.034 15.353-1.673 22.278a13.968 13.968 0 018.289 4.446c2.088 2.193 3.028 5.157 3.998 8.635 1.846 6.614 4.265 13.164 5.013 20.317-.099 2.495-1.539 4.555-2.474 6.313 4.453 7.054 8.906 14.034 13.157 21.479 2.073 3.65 3.959 7.819 4.142 13.135.341 8.496-3.231 13.925-8.65 17.289a19.252 19.252 0 01-6.032 2.613c-4.602.988-10.599.578-16.572.578-11.316 0-22.866-.494-33.95-.652.99 12.211 1.534 24.111 2.543 36.283.495 5.695 1.124 11.9 1.673 17.852.396 4.253.802 8.788 1.237 13.338.129 1.324.604 3.952 0 4.446-.604.494-3.221.291-4.508.291-10.337 0-20.392-.069-30.966.217-.857 0-1.539-.079-1.742-.657-.292-.82.534-1.64.945-2.247 1.346-2.016 2.662-4.071 4.795-5.227 1.435-.77 3.073-1.348 4.582-2.104s3.493-1.773 3.775-3.265c.322-1.66.055-3.744-.069-5.661-.811-12.74-2.474-24.931-3.706-37.009-.178-.356-.569-.183-.802-.287a7.285 7.285 0 01-1.672-1.383c-.713-.657-1.608-1.427-1.816-2.47-.233-1.165 0-2.554.217-3.917.193-1.23.362-2.544.579-3.7.495-2.554 1.213-4.969 1.312-7.039-10.664 23.741-21.659 48.232-32.347 72.422-.401.899-.698 1.863-1.237 2.105-.802.35-2.336.143-3.563.143-8.501 0-17.102.193-25.296.361h-3.696c-.317-.262-.713-.45-.802-.944v-.341c.698-3.008 1.979-5.76 4.216-7.256 2.237-1.497 4.864-2.599 7.487-3.923a28.952 28.952 0 006.833-4.569c1.95-1.823 2.757-4.619 3.855-7.548 4.063-10.818 7.804-23.009 11.337-34.252 1.806-5.736 3.607-11.639 5.383-17.413 1.802-5.879 3.702-11.599 6.102-16.692 2.439-5.167 5.547-9.736 10.832-11.974a87.674 87.674 0 0117.447-5.434 669.494 669.494 0 003.197-15.674c-3.8.06-7.759-.143-11.554-.143-1.312 0-2.816.217-3.855-.074-.896-.247-1.732-1.739-2.326-2.539-1.895-2.559-4.023-5.434-3.271-10.013.416-2.524 1.485-4.619 3.053-5.953 1.46-1.225 5.058-1.921 5.523-3.556.465-1.635-1.247-3.799-1.742-4.787-.668-1.334-1.455-3.107-1.163-5.226a12.331 12.331 0 011.816-4.718 23.462 23.462 0 012.761-3.774c2.059-2.188 4.993-4.253 6.928-6.17 1.252-1.249 2.098-2.223 2.618-3.917.494-1.566.494-3.695.87-5.661a43.77 43.77 0 011.455-5.004 40.55 40.55 0 011.816-4.717c1.391-2.964 3.345-5.158 5.528-7.548 4.23-4.634 9.723-8.235 17.418-8.699zm20.57 27.919c.259-2.461.357-4.936.292-7.409a24.472 24.472 0 00-1.232-6.531c-1.252-3.902-3.083-6.916-6.473-9-4.107-2.529-11.713-3.893-17.735-2.322-4.394 1.141-7.645 3.493-10.47 6.313-1.876 1.872-3.801 3.774-5.161 6.022-1.361 2.247-2.316 5.117-3.197 7.983a27.062 27.062 0 00-1.163 4.445c-.227 1.784-.267 3.359-.727 4.861-1.658 5.434-7.63 7.558-10.684 11.683-1.444 1.951-3.755 4.614-3.345 7.903.371 2.999 3.464 5.113 2.969 8.398-.494 3.389-4.715 3.28-6.616 5.226-1.311 1.339-2.305 4.091-2.108 6.822.188 2.589 1.772 4.614 3.054 6.308.41.549 1.029 1.611 1.454 1.744.861.267 2.623.04 3.707.074 3.746.119 8.07 0 11.41.144 1.292-6.531 2.88-13.412 4.291-19.883.494-2.238.871-4.515 1.672-6.456 1.589-3.839 3.756-7.119 7.561-8.635 3.805-1.517 8.764-1.606 14.103-2.11a12.752 12.752 0 00-1.89-2.608c-1.688.524-4.063.331-5.671-.148-5.755-1.704-9.016-7.953-8.412-15.807.064-.855 0-2.446.435-3.122.317-.494 1.707-.786 2.618-1.087a119.553 119.553 0 0015.834-6.679c.683-.336 1.812-1.249 2.692-.943.881.306.495 1.368.292 1.887 1.549 3.512 3.108 7.009 4.652 10.522 2.315-1.764 4.765.222 5.304 2.104.693 2.416-1.484 5.123-3.122 6.027-1.242.671-2.662.627-4.508.721 0 .178.208.276.292.365.136.153.257.319.361.494 1.574 2.342 3.053 4.94 4.726 7.109a23.39 23.39 0 013.345-.435c.594-4.5 1.049-9.282 1.45-13.98zm-25.949-7.039c.737 1.131 1.944 2.095 2.474 3.631.722 2.114-.53 4.619-1.529 5.873.856.351 1.742 2.47.148 2.47-.989 0-2.113-1.551-2.113-2.47 0-.919.802-1.447 1.237-2.321a5.16 5.16 0 00.584-2.391c-.094-1.171-1.623-2.994-2.4-3.34-1.484-.666-3.043.218-4.725.727-.604 4.352-.129 7.636 1.163 10.447 1.831 3.987 5.898 6.916 11.41 5.37 2.999-.845 4.642-2.707 6.616-4.5.708-.638 1.371-1.482 2.039-1.739 1.212-.494 3.306-.074 4.36-.583 1.054-.509 2.424-2.351 2.325-3.626-.059-.78-.742-1.615-1.306-1.67-1.044-.098-1.608 1.087-2.548 1.018-1.064-.084-1.485-1.645-1.886-2.613-1.43-3.25-2.86-6.298-4.146-9.435-.075 0-.085-.059-.144-.074-3.79 1.828-7.561 3.65-11.559 5.246v-.02zm14.394 14.82c-1.979 1.768-3.76 3.744-6.615 4.643.4.696 1.098 1.556 1.89 2.613.618.835 1.821 1.976 1.672 2.905a.933.933 0 01-1.019.721c-.807-.045-.772-.79-1.381-1.161-1.623.054-3.196.148-4.795.222a56.464 56.464 0 00-2.256 8.704c-.564 3.251-.04 6.649.495 9.88a3.927 3.927 0 001.163-1.018 229.916 229.916 0 0016.21-19.23c-1.811-2.722-3.508-5.577-5.364-8.275v-.004zm24.861 45.446c.856-1.591 2.375-3.325 2.543-5.661.109-1.546-.42-3.295-.801-4.94-1.124-4.836-2.475-9.025-3.707-13.57-.851-3.132-1.529-6.15-3.127-8.343a11.582 11.582 0 00-6.928-4.648c-1.662-.351-3.627 0-5.017.148-5.404 7.039-11.505 14.093-17.517 20.683-.619.676-2.044 2.623-3.053 2.47-.787-.119-.847-1.245-1.02-2.179-.539-2.89-1.044-5.508-.945-8.635.134-4.134 1.44-7.291 2.326-10.521-3.865.494-7.086.785-9.521 2.395-4.864 3.226-5.834 10.008-7.269 16.761 3.89.04 6.186 1.665 8.65 3.122-.52-1.724.218-3.364-.218-5.152-.257-1.052-2.172-2.248-2.034-3.483a1.02 1.02 0 011.015-.8c.707.04 1.257 1.116 1.672 1.744.535.8 1.188 1.531 1.312 2.178.207 1.127-.04 2.297 0 3.266.039 1.081.118 2.134.217 3.047.495 4.723 3.924 7.356 7.705 8.778.762.292 1.732.341 2.543.801.812.459 1.376 1.442 1.891 2.03a12.796 12.796 0 001.89 2.03c2.969-6.97 5.666-15.244 8.412-22.782.356-.988.777-2.781 1.747-2.757 1.553.035.608 2.085.287 2.964a482.245 482.245 0 01-2.252 6.165 14.955 14.955 0 0113.45 4.446c.331.366.494.924 1.014 1.087.256-.916.571-1.813.945-2.688.302-.824.495-2.252 1.455-2.247 1.4 0 .762 1.788.435 2.687-1.524 4.209-3.552 9.499-4.794 13.061 2.904-.524 5.878-.919 8.694-1.472v.015zm-54.521-13.95c-2.934 13.668-5.705 27.495-8.506 41.292 2.885-1.547 5.874-2.989 9.961-3.34 3.216-10.235 6.378-20.53 9.669-30.696a8.163 8.163 0 01-1.598-3.408c-2.45-2.03-4.949-4.011-9.377-4.066a.205.205 0 00-.149.218zm13.89 35.339c3.024.771 6.096 1.66 9.234 2.035 4.29.519 8.105-.049 10.54-2.321 1.727-1.616 3.043-3.913 4.141-6.096 2.969-5.928 5.216-11.712 7.631-18.144.306-.805 1.415-2.929 1.385-3.774-.03-.771-1.118-1.897-1.747-2.539-1.979-2.04-5.616-4.046-9.228-3.843-1.099.059-2.554.212-3.128.726-.574.514-.989 2.302-1.38 3.334a295.275 295.275 0 01-8.289 20.174c-.494 1.127-1.029 2.861-1.979 2.831a.953.953 0 01-.871-.726c-.168-.618.495-1.176.292-1.596-4.394.045-8.803.069-13.157.143-.748 2.52-1.559 4.98-2.326 7.479 3.083.81 5.913 1.571 8.882 2.317zm-2.835-21.478c3.384 0 6.715.074 10.03.148 0-.282-.529-.632-.722-.944a17.36 17.36 0 01-7.779-4.139c-.51 1.655-1.064 3.25-1.534 4.935h.005zm-3.053 9.726c4.552-.029 9.095-.064 13.593-.148.876-1.976 1.786-3.878 2.617-5.873a11.239 11.239 0 00-1.455-1.744c-3.755.212-8.263-.064-12.286-.074-.876 2.564-1.673 5.206-2.474 7.839h.005zm41.506 43.965c1.861 0 3.558.059 5.161 0 4.988-.188 8.457-2.016 11.411-4.283 3.959-3.028 6.314-7.637 5.819-15.017a25.931 25.931 0 00-2.771-9.48c-1.296-2.682-2.969-5.231-4.503-7.839-2.736-4.589-5.512-8.828-8.288-13.278-.302-.494-.96-1.784-1.381-1.813-.678-.05-1.875.301-2.692.434-2.444.405-4.834.845-7.269 1.235-2.474 5.434-4.493 11.579-7.774 16.183-1.781 2.495-3.508 4.308-6.764 5.221-2.692.64-5.484.74-8.214.292-.822-.128-1.737-.494-2.544-.494-.39 0-.806.188-1.237.217-3.533.257-6.823.232-10.173.435-3.835.237-7.66.306-10.758 1.309-6.042 1.946-10.673 5.78-11.777 12.35-.094 2.01.233 4.055.435 5.927 1.421 13.471 2.994 26.3 4.454 39.623 6.195.054 12.069.434 18.244.493-.702-9.82-1.514-20.969-2.251-31.061-.094-1.304-.53-3.685.871-3.626 1.133.045.92 1.423 1.019 2.539 13.747.193 27.374.642 40.992.642l-.01-.009zm-69.207-31.482c-3.271 1.201-6.685 2.411-9.085 4.352-2.4 1.941-4.176 4.792-5.671 7.766a72.037 72.037 0 00-3.924 9.578c-4.394 12.987-8.461 27.411-12.94 40.852 6.433.212 13.237.094 19.551.44 4.948-11.322 10.332-23.099 15.34-34.544.361-.82.95-1.715 1.019-2.322a13.013 13.013 0 00-.218-2.322c-.217-2.391-.732-4.796-.494-7.256a13.222 13.222 0 012.033-5.661 22.978 22.978 0 013.563-4.209 58.594 58.594 0 011.237-7.41c.159-.79.52-1.576.361-2.317-3.904.969-7.288 1.769-10.772 3.053zm24.133-1.235c-.267.988-.633 1.882-.871 2.9 3.043-.321 6.349-.385 9.451-.652-2.894-.716-5.764-1.452-8.58-2.263v.015zm-19.333 41.944c-.203 1.245-.559 2.717-.366 3.626.193.909 1.608 1.921 2.182 2.178-.396-3.062-.728-6.194-1.094-9.286 0-.06-.059-.084-.143-.075-.074 1.087-.371 2.238-.579 3.557zm7.779 51.231c4.369.859 8.441 2.02 11.193 4.5a32.302 32.302 0 005.596-3.631c.495-.37 1.559-1.027 1.673-1.447a8.518 8.518 0 00-.149-1.601c-.678-8.21-1.652-17.052-2.325-24.817-5.998-.178-11.96-.39-17.953-.578.609 8.857 2.281 18.03 1.965 27.574zm-44.857-27.214c-1.598 4.565-3.122 9.524-4.795 14.222-1.672 4.698-3.157 9.475-6.903 12.196a14.077 14.077 0 015.938 4.496c.465.597 1.203 2.247 1.816 2.47.718.257 1.594-.099 2.257.069 2.142-1.976 4.973-3.3 8.14-4.278 4.25-9.741 8.659-19.32 12.865-29.1-6.432-.089-12.781-.252-19.263-.292-.065.015-.06.114-.055.217zm.292 34.327c-.495.415-.955.988-1.524 1.087a9.556 9.556 0 01-1.89-.074 6.405 6.405 0 01-1.816-.143c-.653-.252-1.391-1.719-1.89-2.396a21.061 21.061 0 00-1.891-2.391c-1.524-1.482-3.122-1.808-4.869-2.687-2.944 1.832-7.19 3.457-10.179 5.369-2.028 1.289-3.399 2.742-3.924 5.37 10.095-.056 20.157-.153 30.185-.292.95-2.198 1.905-4.386 2.91-6.53a14.19 14.19 0 00-5.112 2.687zm39.404-2.178c-1.624.78-3.38 1.269-4.875 2.247-1.044.687-1.915 2.085-2.617 3.048-.228.321-.604.603-.579 1.018 10.886-.104 21.802-.148 32.713-.218-.124-2.88-.524-6.105-.802-9.069-1.687 1.057-3.488 2.613-5.527 3.7-.544.291-1.608.988-2.177.943-.658-.029-1.791-1.131-2.474-1.595a12.183 12.183 0 00-2.618-1.527 66.76 66.76 0 00-6.685-1.669 13.86 13.86 0 01-4.359 3.122z" fill="#6A7077"/><path fill-rule="evenodd" clip-rule="evenodd" d="M255.174 163.068c1.084-.119 4.736-.385 4.87.943.183 1.808-2.925.732-4.8.944-1.109.128-2.766 1.171-2.905-.292-.124-1.279 1.702-1.467 2.835-1.595zm-.801 11.396a.891.891 0 011.163.869c0 .741-1.222 1.626-2.108 1.976-.777.297-2.939.692-3.127-.434-.238-1.448 1.484-.988 2.543-1.448.881-.395.856-.844 1.529-.963z" fill="#6A7077"/></g><defs><clipPath id="clip0_367_6447"><path fill="#fff" d="M0 0h414.084v350H0z"/></clipPath></defs></svg>