<svg width="32" height="32" viewBox="0 0 32 32" fill="none" xmlns="http://www.w3.org/2000/svg">
<path fill-rule="evenodd" clip-rule="evenodd" d="M13.9687 4.85727C15.0798 5.9686 16.8814 5.9686 17.9925 4.85727C19.1036 3.74617 19.1036 1.9446 17.9925 0.833502C16.8814 -0.277834 15.0798 -0.277834 13.9687 0.833502C12.8574 1.9446 12.8574 3.74617 13.9687 4.85727ZM6.68476 9.55811C8.25609 9.55811 9.53009 8.28387 9.53009 6.71278C9.53009 5.14121 8.25609 3.86746 6.68476 3.86746C5.1132 3.86746 3.83944 5.14121 3.83944 6.71278C3.83944 8.28387 5.1132 9.55811 6.68476 9.55811ZM25.2877 9.52955C23.7156 9.52955 22.4423 8.25556 22.4423 6.68423C22.4423 5.11266 23.7156 3.8389 25.2877 3.8389C26.8588 3.8389 28.133 5.11266 28.133 6.68423C28.133 8.25556 26.8588 9.52955 25.2877 9.52955ZM27.1431 13.9682C26.032 15.0793 26.032 16.8809 27.1431 17.992C28.2545 19.1031 30.056 19.1031 31.1669 17.992C32.2782 16.8809 32.2782 15.0793 31.1669 13.9682C30.056 12.8569 28.2545 12.8569 27.1431 13.9682ZM14.0079 27.1427C15.119 26.0316 16.9206 26.0316 18.0317 27.1427C19.143 28.2541 19.143 30.0556 18.0317 31.1665C16.9206 32.2778 15.119 32.2778 14.0079 31.1665C12.8968 30.0556 12.8968 28.2541 14.0079 27.1427ZM9.55757 25.316C9.55757 23.7446 8.28381 22.4706 6.71224 22.4706C5.14115 22.4706 3.86692 23.7446 3.86692 25.316C3.86692 26.8873 5.14115 28.1613 6.71224 28.1613C8.28381 28.1613 9.55757 26.8873 9.55757 25.316ZM4.85727 14.008C5.9686 15.1191 5.9686 16.9207 4.85727 18.0318C3.74617 19.1431 1.9446 19.1431 0.833502 18.0318C-0.277834 16.9207 -0.277834 15.1191 0.833502 14.008C1.9446 12.8969 3.74617 12.8969 4.85727 14.008Z" fill="#DAE7F2"/>
<path fill-rule="evenodd" clip-rule="evenodd" d="M25.3155 22.4424C23.7442 22.4424 22.4702 23.7157 22.4702 25.2877C22.4702 26.8588 23.7442 28.133 25.3155 28.133C26.8869 28.133 28.1609 26.8588 28.1609 25.2877C28.1609 23.7157 26.8869 22.4424 25.3155 22.4424Z" fill="#057AFF"/>
</svg>
