<svg width="99" height="21" viewBox="0 0 99 21" fill="none" xmlns="http://www.w3.org/2000/svg">
<path d="M0.161133 20.0879C0.170898 19.9414 0.209961 19.8096 0.27832 19.6924C1.04004 19.4873 1.78223 19.3506 2.50488 19.2822C2.9834 19.2432 3.29102 19.1357 3.42773 18.96C3.52539 18.833 3.58398 18.3643 3.60352 17.5537L3.70605 13.6865L3.69141 11.0645L3.70605 7.63672V6.72852C3.71582 4.66797 3.70605 3.38379 3.67676 2.87598C3.66699 2.77832 3.62793 2.6416 3.55957 2.46582C3.30566 2.34863 3.09082 2.27051 2.91504 2.23145C2.74902 2.19238 1.9873 2.05078 0.629883 1.80664C0.620117 1.69922 0.615234 1.62109 0.615234 1.57227C0.615234 1.51367 0.620117 1.43555 0.629883 1.33789C0.81543 1.33789 1.11816 1.34766 1.53809 1.36719L3.76465 1.44043L5.05371 1.46973L5.43457 1.45508C5.4834 1.45508 5.625 1.46484 5.85938 1.48438C6.43555 1.48438 6.76758 1.47949 6.85547 1.46973L8.02734 1.38184C8.81836 1.38184 9.375 1.39648 9.69727 1.42578C9.6875 1.60156 9.65332 1.79199 9.59473 1.99707C9.4873 2.0166 8.97949 2.0459 8.07129 2.08496C7.16309 2.11426 6.64062 2.16797 6.50391 2.24609C6.2793 2.37305 6.16699 2.76367 6.16699 3.41797C6.16699 3.57422 6.15723 3.8916 6.1377 4.37012V5.24902L6.15234 7.95898V8.88184L6.18164 13.7305L6.1377 17.8613L6.15234 18.7695C6.15234 19.0625 6.20117 19.2432 6.29883 19.3115C6.54297 19.3213 7.26074 19.3311 8.45215 19.3408H9.44824L11.9824 19.2529C12.6465 19.2334 13.1201 19.1699 13.4033 19.0625C13.6865 18.9453 14.1602 18.6133 14.8242 18.0664C15.2246 17.7148 15.5371 17.3535 15.7617 16.9824C15.8105 16.9043 15.8936 16.7871 16.0107 16.6309C16.1963 16.377 16.4453 15.8691 16.7578 15.1074H17.2412C17.1826 15.459 17.1191 15.791 17.0508 16.1035C16.7676 17.4805 16.5723 18.6279 16.4648 19.5459C16.4453 19.7412 16.4258 19.9219 16.4062 20.0879L10.9277 19.9268C6.2207 19.9268 3.42773 19.9707 2.54883 20.0586C2.27539 20.0781 1.9873 20.0879 1.68457 20.0879H0.161133ZM19.2773 1.99707C19.2773 1.6748 19.3994 1.39648 19.6436 1.16211C19.8975 0.927734 20.2002 0.810547 20.5518 0.810547C20.9131 0.810547 21.2305 0.942383 21.5039 1.20605C21.7773 1.46973 21.9141 1.75293 21.9141 2.05566C21.9141 2.3584 21.7773 2.64648 21.5039 2.91992C21.2305 3.18359 20.9131 3.31543 20.5518 3.31543C20.1904 3.31543 19.8877 3.19336 19.6436 2.94922C19.3994 2.70508 19.2773 2.3877 19.2773 1.99707ZM18.0469 9.58496L18.0615 9.16016C18.6963 8.97461 19.0381 8.86719 19.0869 8.83789C19.4385 8.68164 19.8047 8.44238 20.1855 8.12012C20.5762 7.79785 20.9033 7.43652 21.167 7.03613C21.2842 7.0166 21.377 7.00684 21.4453 7.00684L21.6211 7.02148C21.6602 7.49023 21.6797 7.83203 21.6797 8.04688C21.6797 8.0957 21.6699 8.31543 21.6504 8.70605V9.48242L21.665 13.7012L21.6211 18.1689C21.6113 18.5303 21.6699 18.7842 21.7969 18.9307C21.9238 19.0674 22.2998 19.2236 22.9248 19.3994C23.3154 19.5068 23.6084 19.5996 23.8037 19.6777C23.833 19.7461 23.8477 19.8047 23.8477 19.8535C23.8477 19.9121 23.8232 19.9854 23.7744 20.0732C23.3936 20.0635 22.9053 20.0391 22.3096 20C21.499 19.9316 20.9619 19.8975 20.6982 19.8975C20.5713 19.8975 19.79 19.9219 18.3545 19.9707C18.0615 19.9805 17.7783 20.0049 17.5049 20.0439C17.4561 20.0439 17.3779 20.0293 17.2705 20C17.2217 19.9316 17.1973 19.873 17.1973 19.8242C17.1973 19.6875 17.29 19.5801 17.4756 19.502C17.5146 19.4824 18.0127 19.3701 18.9697 19.165C19.2822 19.1064 19.4873 19.0088 19.585 18.8721C19.751 18.667 19.834 18.3398 19.834 17.8906C19.8535 17.1387 19.8633 15.0781 19.8633 11.709C19.8633 11.0352 19.834 10.6152 19.7754 10.4492C19.7266 10.332 19.5947 10.2002 19.3799 10.0537C19.1748 9.89746 18.7305 9.74121 18.0469 9.58496ZM24.873 20L24.8438 19.5752C24.9219 19.5166 24.9951 19.4824 25.0635 19.4727C25.1318 19.4531 25.376 19.4287 25.7959 19.3994C26.2256 19.3701 26.4941 19.2773 26.6016 19.1211C26.709 18.9551 26.7627 18.2861 26.7627 17.1143L26.792 11.3281L26.7627 10.3027C26.7627 10.2148 26.7725 9.8877 26.792 9.32129C26.8115 9.05762 26.8213 8.74023 26.8213 8.36914L26.7627 5.82031L26.7773 3.59375C26.7773 3.05664 26.6992 2.71484 26.543 2.56836C26.3965 2.41211 25.8643 2.27051 24.9463 2.14355V1.96777C24.9463 1.90918 24.9512 1.82617 24.9609 1.71875C25.5176 1.60156 26.0107 1.45508 26.4404 1.2793C26.665 1.18164 27.2363 0.878906 28.1543 0.371094H28.6084C28.5986 0.595703 28.5938 0.732422 28.5938 0.78125V2.05566L28.5791 2.68555L28.623 3.84277L28.6084 5.58594L28.623 8.48633L28.5791 12.0898V13.2031C28.5791 13.3398 28.584 13.5303 28.5938 13.7744L28.7549 13.7891C29.0869 13.7891 29.4238 13.667 29.7656 13.4229C31.2988 12.3291 32.2607 11.5869 32.6514 11.1963C33.042 10.7959 33.2373 10.5078 33.2373 10.332C33.2373 10.2246 33.1738 10.0879 33.0469 9.92188C32.7539 9.76562 32.4268 9.6582 32.0654 9.59961C31.958 9.58008 31.8408 9.55566 31.7139 9.52637C31.5381 9.47754 31.3916 9.44336 31.2744 9.42383L31.2451 9.27734C31.2451 9.20898 31.2695 9.11133 31.3184 8.98438C32.8613 8.92578 34.2041 8.89648 35.3467 8.89648C35.9912 8.89648 36.6797 8.91113 37.4121 8.94043V9.13086C37.4121 9.19922 37.3877 9.28711 37.3389 9.39453C37.1924 9.42383 36.9629 9.46777 36.6504 9.52637C36.0449 9.62402 35.5859 9.76074 35.2734 9.93652C34.5215 10.3369 33.7451 10.8984 32.9443 11.6211C32.4658 12.0508 32.0508 12.4121 31.6992 12.7051L31.1719 13.1592C31.2109 13.2275 31.2744 13.3105 31.3623 13.4082C31.4014 13.4473 31.4795 13.5352 31.5967 13.6719C31.7139 13.8086 31.9238 14.0381 32.2266 14.3604C33.2812 15.4736 34.0625 16.333 34.5703 16.9385C34.7363 17.1338 34.9219 17.3486 35.127 17.583C35.8887 18.4326 36.333 18.9062 36.46 19.0039C36.7334 19.1797 37.1387 19.3164 37.6758 19.4141C37.9297 19.4629 38.1494 19.5068 38.335 19.5459C38.374 19.6631 38.3936 19.7559 38.3936 19.8242L38.3789 19.9707C37.6855 19.9121 37.1875 19.8828 36.8848 19.8828H36.6211L32.5488 20C32.3926 20.0195 32.2852 20.0293 32.2266 20.0293C32.1289 20.0293 32.0264 20.0098 31.9189 19.9707C31.8896 19.8926 31.875 19.8242 31.875 19.7656V19.6631C31.9336 19.5752 31.9873 19.5215 32.0361 19.502C33.0029 19.4238 33.5645 19.3604 33.7207 19.3115C33.8086 19.292 33.8916 19.2383 33.9697 19.1504C33.9697 18.9844 33.8281 18.7158 33.5449 18.3447C33.2617 17.9736 32.5537 17.1582 31.4209 15.8984C30.6982 15.0977 30.2295 14.6338 30.0146 14.5068C29.8096 14.3701 29.5215 14.3018 29.1504 14.3018H28.5938C28.5547 14.6533 28.5352 15.459 28.5352 16.7188C28.5352 17.8906 28.6328 18.6426 28.8281 18.9746C28.9355 19.1602 29.1895 19.2773 29.5898 19.3262C29.9902 19.375 30.249 19.4482 30.3662 19.5459C30.4443 19.6045 30.4932 19.7412 30.5127 19.9561C29.9268 19.9463 29.4336 19.9414 29.0332 19.9414C28.3887 19.9414 27.6855 19.9561 26.9238 19.9854C26.4648 20.0049 26.1035 20.0146 25.8398 20.0146C25.6445 20.0146 25.3223 20.0098 24.873 20ZM49.3359 12.2656L43.4619 12.3096H42.3486C41.8994 12.3096 41.4404 12.3291 40.9717 12.3682C40.8838 12.6611 40.8398 12.8613 40.8398 12.9688L40.8545 13.1152V13.2617L40.8398 13.9795C40.8398 14.5752 41.0254 15.3076 41.3965 16.1768C41.7773 17.0361 42.3145 17.6953 43.0078 18.1543C43.7109 18.6035 44.585 18.8428 45.6299 18.8721C46.1865 18.8428 46.6309 18.7744 46.9629 18.667C47.2949 18.5596 47.7637 18.3105 48.3691 17.9199L49.4238 17.0557L49.5117 17.6416C49.5117 17.71 49.5068 17.7832 49.4971 17.8613C49.0576 18.418 48.501 18.9062 47.8271 19.3262C47.1533 19.7461 46.4697 20.0537 45.7764 20.249C45.4443 20.3369 44.8975 20.3809 44.1357 20.3809C43.4424 20.3809 42.7588 20.2393 42.085 19.9561C41.0889 19.5264 40.3027 18.8379 39.7266 17.8906C39.1602 16.9336 38.877 15.7764 38.877 14.4189C38.877 13.9893 38.9551 13.4375 39.1113 12.7637C39.2773 12.0898 39.5703 11.3721 39.9902 10.6104C40.2734 10.0928 40.6201 9.66797 41.0303 9.33594C41.6162 8.86719 42.1289 8.54004 42.5684 8.35449C43.2031 8.09082 43.9404 7.95898 44.7803 7.95898C45.6885 7.95898 46.4307 8.125 47.0068 8.45703C47.7881 8.89648 48.3691 9.46289 48.75 10.1562C49.1406 10.8496 49.3359 11.4844 49.3359 12.0605V12.2656ZM41.1621 11.7383H41.8506C42.3486 11.7383 43.833 11.6602 46.3037 11.5039C46.6943 11.4844 46.9336 11.4453 47.0215 11.3867C47.1973 11.2012 47.2852 11.0352 47.2852 10.8887C47.2852 10.5859 47.1875 10.2441 46.9922 9.86328C46.7969 9.47266 46.4941 9.1748 46.084 8.96973C45.6836 8.75488 45.2148 8.64746 44.6777 8.64746C43.5449 8.64746 42.6367 9.07227 41.9531 9.92188C41.4258 10.5664 41.1621 11.1719 41.1621 11.7383ZM61.8896 1.92383C61.9678 2.56836 62.0068 2.93945 62.0068 3.03711L61.9482 4.34082C61.9287 4.89746 61.9043 5.25391 61.875 5.41016C61.7871 5.44922 61.7139 5.46875 61.6553 5.46875L61.5234 5.43945C61.2109 4.07227 60.6787 3.07617 59.9268 2.45117C59.1846 1.82617 58.2764 1.51367 57.2021 1.51367C56.0889 1.51367 55.1758 1.82617 54.4629 2.45117C53.75 3.07617 53.3936 3.80371 53.3936 4.63379C53.3936 5.26855 53.6426 5.84961 54.1406 6.37695C54.6387 6.9043 55.9131 7.69531 57.9639 8.75C59.5264 9.56055 60.6445 10.2246 61.3184 10.7422C61.9922 11.25 62.5 11.8408 62.8418 12.5146C63.1836 13.1885 63.3545 13.9404 63.3545 14.7705C63.3545 15.8154 63.0811 16.7969 62.5342 17.7148C61.9971 18.6328 61.2695 19.3262 60.3516 19.7949C59.4336 20.2539 58.2178 20.4834 56.7041 20.4834C55.3857 20.4834 54.1211 20.2734 52.9102 19.8535C52.1973 19.5996 51.7627 19.3945 51.6064 19.2383C51.4502 19.082 51.3721 18.916 51.3721 18.7402C51.3721 18.6328 51.3818 18.4961 51.4014 18.3301C51.5381 17.1777 51.6113 16.2305 51.6211 15.4883C51.6406 15.0293 51.6748 14.7607 51.7236 14.6826C51.7627 14.6143 51.8359 14.5801 51.9434 14.5801C52.0312 14.5801 52.0996 14.6143 52.1484 14.6826C52.207 14.7412 52.2461 14.8584 52.2656 15.0342C52.373 16.2354 52.9297 17.3096 53.9355 18.2568C54.9316 19.2041 56.0596 19.6777 57.3193 19.6777C58.0908 19.6777 58.7988 19.5166 59.4434 19.1943C60.0977 18.8721 60.6055 18.4082 60.9668 17.8027C61.3379 17.1875 61.5234 16.5918 61.5234 16.0156C61.5234 15.2246 61.2451 14.502 60.6885 13.8477C60.1318 13.1934 59.0137 12.4316 57.334 11.5625C55.6543 10.6836 54.5605 10.0439 54.0527 9.64355C53.2324 8.98926 52.6172 8.2959 52.207 7.56348C51.9043 6.99707 51.7529 6.33789 51.7529 5.58594C51.7529 4.22852 52.29 3.08105 53.3643 2.14355C54.4385 1.19629 55.8789 0.722656 57.6855 0.722656C58.6816 0.722656 59.541 0.834961 60.2637 1.05957C60.791 1.23535 61.333 1.52344 61.8896 1.92383ZM65.6982 14.1113C65.6982 13.4473 65.835 12.7393 66.1084 11.9873C66.3916 11.2256 66.8164 10.5469 67.3828 9.95117C67.9492 9.3457 68.5498 8.89648 69.1846 8.60352C70.0732 8.19336 71.1572 7.98828 72.4365 7.98828C74.2627 7.98828 75.7861 8.61328 77.0068 9.86328C78.2373 11.1133 78.8525 12.6172 78.8525 14.375C78.8525 15.9375 78.208 17.334 76.9189 18.5645C75.6396 19.7852 74.0186 20.3955 72.0557 20.3955C70.8447 20.3955 69.7021 20.0781 68.6279 19.4434C67.8271 18.9648 67.1387 18.2568 66.5625 17.3193C65.9863 16.3818 65.6982 15.3125 65.6982 14.1113ZM72.1729 19.8242C72.915 19.8242 73.6279 19.624 74.3115 19.2236C75.0049 18.8232 75.5566 18.1836 75.9668 17.3047C76.377 16.416 76.582 15.3906 76.582 14.2285C76.582 13.4668 76.4209 12.583 76.0986 11.5771C75.7861 10.5713 75.2979 9.81934 74.6338 9.32129C73.9795 8.81348 73.208 8.55957 72.3193 8.55957C71.6748 8.55957 71.0156 8.71094 70.3418 9.01367C69.6777 9.31641 69.1113 9.89746 68.6426 10.7568C68.1836 11.6162 67.9541 12.8369 67.9541 14.4189C67.9541 16.1963 68.3545 17.5439 69.1553 18.4619C69.9658 19.3701 70.9717 19.8242 72.1729 19.8242ZM85.3418 8.58887C87.7734 8.64746 89.0674 8.67676 89.2236 8.67676C89.2432 8.8916 89.2529 9.05273 89.2529 9.16016C89.2529 9.28711 89.2383 9.47754 89.209 9.73145C88.9648 9.77051 88.7158 9.79004 88.4619 9.79004H87.9053C86.6943 9.79004 85.8545 9.83398 85.3857 9.92188C85.3662 10.1465 85.3564 10.3174 85.3564 10.4346C85.3564 10.4834 85.3613 10.5566 85.3711 10.6543C85.4199 12.1875 85.4443 13.1152 85.4443 13.4375L85.415 17.2021C85.415 17.7588 85.5078 18.2227 85.6934 18.5938C85.8008 18.8086 86.001 18.9795 86.2939 19.1064C86.4795 19.1943 86.9287 19.2822 87.6416 19.3701C88.1787 19.4482 88.54 19.502 88.7256 19.5312C88.7256 19.7363 88.7109 19.8926 88.6816 20L88.4766 20.0146C88.0078 19.9854 87.3975 19.9609 86.6455 19.9414L85.5615 19.8975L81.8701 20.0146H81.3867L81.3721 19.5605C81.5186 19.5312 81.626 19.5068 81.6943 19.4873C82.5342 19.3311 83.0762 19.1553 83.3203 18.96C83.418 18.8818 83.4863 18.7402 83.5254 18.5352C83.5449 18.418 83.5547 17.8711 83.5547 16.8945C83.5547 14.1113 83.5303 11.8896 83.4814 10.2295C83.2275 10.1514 82.8369 10.1025 82.3096 10.083C82.1143 10.083 81.8066 10.0635 81.3867 10.0244L81.3574 9.86328C81.3574 9.74609 81.4062 9.64844 81.5039 9.57031C81.543 9.53125 81.9531 9.32617 82.7344 8.95508C83.0371 8.81836 83.252 8.64746 83.3789 8.44238C83.4473 8.33496 83.4863 8.11035 83.4961 7.76855C83.5059 7.6123 83.5352 7.34375 83.584 6.96289C83.7012 5.95703 83.7939 5.33691 83.8623 5.10254C84.0381 4.44824 84.3311 3.79883 84.7412 3.1543C85.1611 2.5 85.6641 1.92871 86.25 1.44043C86.6797 1.08887 87.1631 0.825195 87.7002 0.649414C88.2471 0.473633 88.8672 0.385742 89.5605 0.385742C90.4883 0.385742 91.167 0.537109 91.5967 0.839844C91.8896 1.04492 92.0361 1.30859 92.0361 1.63086C92.0361 1.9043 91.9336 2.13867 91.7285 2.33398C91.5234 2.5293 91.2695 2.62695 90.9668 2.62695C90.5957 2.62695 90.1953 2.53418 89.7656 2.34863C88.9551 2.02637 88.4961 1.85059 88.3887 1.82129C88.2031 1.77246 88.0127 1.74805 87.8174 1.74805C87.2803 1.74805 86.7871 1.91895 86.3379 2.26074C85.8984 2.60254 85.6201 3.02246 85.5029 3.52051C85.3857 4.01855 85.3271 5.13672 85.3271 6.875C85.3271 7.5 85.332 8.07129 85.3418 8.58887ZM93.8379 5.52734L94.292 5.54199L94.3506 6.93359L94.3213 8.73535C94.5068 8.74512 94.624 8.75 94.6729 8.75C94.9268 8.75 95.4102 8.73047 96.123 8.69141C96.582 8.66211 97.0215 8.64746 97.4414 8.64746C97.6367 8.64746 97.9297 8.65234 98.3203 8.66211C98.3398 8.85742 98.3496 9.01367 98.3496 9.13086C98.3496 9.25781 98.3203 9.45801 98.2617 9.73145H98.0127L95.7422 9.80469L94.6143 9.83398L94.3506 9.86328C94.2725 10.1074 94.2334 10.3906 94.2334 10.7129L94.2773 12.9102L94.248 16.7773C94.248 17.793 94.3799 18.4668 94.6436 18.7988C94.8975 19.1406 95.2783 19.3115 95.7861 19.3115C96.04 19.3115 96.5186 19.2334 97.2217 19.0771C97.4365 19.0283 97.7246 18.8672 98.0859 18.5938H98.2178C98.3057 18.5938 98.374 18.623 98.4229 18.6816C98.4814 18.7305 98.5107 18.7988 98.5107 18.8867L98.4961 18.9893C98.0762 19.4482 97.5928 19.7852 97.0459 20C96.5088 20.2051 95.791 20.3076 94.8926 20.3076C94.2578 20.3076 93.7305 20.1611 93.3105 19.8682C92.9004 19.5752 92.6367 19.2285 92.5195 18.8281C92.4023 18.4277 92.3438 17.5537 92.3438 16.2061L92.4023 12.9102L92.3877 11.3281V10.7422C92.3877 10.4688 92.3779 10.1953 92.3584 9.92188L92.1094 9.90723L90.9082 9.95117L90.791 9.96582C90.6836 9.96582 90.6006 9.94141 90.542 9.89258C90.4932 9.84375 90.4688 9.78516 90.4688 9.7168C90.4688 9.59961 90.5029 9.50684 90.5713 9.43848C90.6494 9.36035 90.874 9.24316 91.2451 9.08691C91.499 8.97949 91.792 8.7793 92.124 8.48633C92.4658 8.18359 92.7539 7.85156 92.9883 7.49023C93.1055 7.29492 93.2715 6.92383 93.4863 6.37695C93.6426 5.97656 93.7598 5.69336 93.8379 5.52734Z" fill="white"/>
</svg>
