<svg width="76" height="76" viewBox="0 0 76 76" fill="none" xmlns="http://www.w3.org/2000/svg">
<path d="M37.9925 56.2823C37.9108 56.3002 37.8264 56.3002 37.7448 56.2823C8.49986 42.599 13.3641 10.0712 13.4235 9.74064C13.4541 9.53508 13.5943 9.36325 13.7893 9.2921L37.78 0.0355772C37.9175 -0.0118591 38.0672 -0.0118591 38.2048 0.0355772L61.6881 9.2921C61.8737 9.36642 62.0075 9.53191 62.0423 9.72852C62.1014 10.059 67.4849 42.5977 38.2405 56.2338C38.162 56.2665 38.0777 56.2828 37.9923 56.2812L37.9925 56.2823ZM14.5213 10.2493C14.0964 13.6494 11.3689 42.4695 37.9925 55.1138C64.6278 42.4572 61.3935 13.6145 60.9442 10.2493L37.9803 1.21733L14.5213 10.2493Z" fill="#057AFF"/>
<path d="M47.2257 41.3589H28.3354C27.5316 41.3589 26.878 40.7106 26.8711 39.9068V25.9401C26.8779 25.1342 27.5294 24.4822 28.3354 24.4758H47.2257C48.0316 24.4822 48.6831 25.1341 48.6899 25.9401V39.9068C48.6831 40.7106 48.0295 41.3589 47.2257 41.3589ZM28.3354 25.6449C28.1725 25.6449 28.0402 25.7766 28.0402 25.94V39.9067C28.0523 40.0601 28.1809 40.1787 28.3354 40.1782H47.2257C47.3042 40.1782 47.3791 40.1471 47.4344 40.0917C47.4898 40.0364 47.5208 39.9615 47.5208 39.883V25.9392C47.5208 25.8607 47.4897 25.7859 47.4344 25.7305C47.3791 25.6752 47.3042 25.6441 47.2257 25.6441L28.3354 25.6449Z" fill="#057AFF"/>
<path d="M44.5689 25.6449C44.2495 25.6449 43.9902 25.3856 43.9902 25.0662V16.3885C43.9902 15.59 43.6734 14.8242 43.1084 14.2597C42.5439 13.6952 41.7781 13.3779 40.9796 13.3779H34.5809C33.7824 13.3779 33.0165 13.6952 32.4521 14.2597C31.8871 14.8242 31.5703 15.5901 31.5703 16.3885V25.0662C31.5703 25.3925 31.3057 25.6565 30.98 25.6565C30.6537 25.6565 30.3896 25.3925 30.3896 25.0662V16.3885C30.3896 15.2833 30.8287 14.2233 31.6104 13.4417C32.3915 12.66 33.4519 12.2209 34.5572 12.2209H40.9565C42.0617 12.2209 43.1217 12.66 43.9034 13.4417C44.685 14.2233 45.1241 15.2832 45.1241 16.3885V25.0662C45.1241 25.3767 44.8795 25.6323 44.5691 25.6449H44.5689Z" fill="#057AFF"/>
<path d="M71.5117 62.4338C71.1923 62.4338 70.933 62.175 70.933 61.8551V23.1178C70.9335 22.1717 70.5624 21.2636 69.8999 20.5878C69.2379 19.9121 68.3371 19.5237 67.391 19.5052H61.8657C61.5395 19.5052 61.2754 19.2406 61.2754 18.9149C61.2754 18.5886 61.5395 18.3246 61.8657 18.3246H67.2967C68.549 18.3246 69.7503 18.8221 70.6362 19.7076C71.5217 20.5931 72.0193 21.7943 72.0193 23.0472V61.8546C72.0214 62.1487 71.8031 62.3975 71.5117 62.4333V62.4338Z" fill="#057AFF"/>
<path d="M4.04931 62.4339C3.89383 62.437 3.74361 62.3775 3.63292 62.2689C3.52171 62.1598 3.45898 62.0106 3.45898 61.8551V23.1178C3.45898 21.8655 3.95654 20.6643 4.84256 19.7783C5.72805 18.8928 6.92927 18.3953 8.18156 18.3953H13.7068C14.0331 18.3953 14.2972 18.6593 14.2972 18.9856C14.2972 19.3118 14.0331 19.5759 13.7068 19.5759H8.26428C7.31818 19.5944 6.41734 19.9833 5.75537 20.659C5.09283 21.3342 4.72231 22.2429 4.72231 23.1885V61.8542C4.72442 62.0255 4.65063 62.1894 4.52097 62.3007C4.39131 62.4124 4.21843 62.4609 4.04924 62.4329L4.04931 62.4339Z" fill="#057AFF"/>
<path d="M70.1303 75.5977H5.43096C3.99044 75.5977 2.60902 75.0253 1.5907 74.007C0.57239 72.9887 0 71.6073 0 70.1667V61.9022C0 61.5828 0.258797 61.3235 0.578732 61.3235H74.9593C75.2787 61.3235 75.5375 61.5828 75.5375 61.9022V70.1667C75.5375 71.6031 74.9688 72.9807 73.9552 73.9985C72.9417 75.0163 71.5665 75.5914 70.1302 75.5977H70.1303ZM1.18064 62.4336V70.1667C1.19013 71.291 1.64079 72.3668 2.43561 73.1621C3.23096 73.9569 4.30669 74.4075 5.43094 74.417H70.1303C71.2545 74.4075 72.3303 73.9569 73.1256 73.1621C73.9204 72.3667 74.3711 71.291 74.3805 70.1667V62.4336H1.18064Z" fill="#057AFF"/>
<path d="M47.2852 69.3989H28.3355C27.4558 69.3989 26.612 69.0495 25.9895 68.427C25.3675 67.805 25.0181 66.9612 25.0181 66.0815V61.8428C25.0181 61.5165 25.2821 61.2524 25.6084 61.2524C25.9341 61.2524 26.1987 61.5165 26.1987 61.8428V66.0815C26.1987 66.6491 26.4232 67.1941 26.8238 67.5963C27.2239 67.999 27.7678 68.2267 28.3354 68.2299H47.3445C47.9143 68.2299 48.4608 68.0038 48.8641 67.6006C49.2668 67.1979 49.4934 66.6513 49.4934 66.0815V61.8428C49.4934 61.5165 49.7575 61.2525 50.0837 61.2525C50.4095 61.2525 50.6741 61.5165 50.6741 61.8428V66.0815C50.6741 66.9738 50.3151 67.8282 49.6774 68.4528C49.0396 69.0768 48.1779 69.4178 47.2855 69.3989L47.2852 69.3989Z" fill="#057AFF"/>
<path d="M37.7806 33.9688C37.1718 33.9735 36.621 33.6098 36.386 33.0485C36.1509 32.4872 36.2784 31.8394 36.7085 31.4088C37.1391 30.9787 37.7869 30.8512 38.3482 31.0863C38.9095 31.3214 39.2727 31.8727 39.2679 32.4809C39.2679 33.3026 38.6022 33.9688 37.7806 33.9688V33.9688ZM37.7806 32.1503C37.5982 32.1503 37.4501 32.2984 37.4501 32.4808C37.4501 32.6637 37.5982 32.8113 37.7806 32.8113C37.963 32.8113 38.1111 32.6637 38.1111 32.4808C38.1111 32.3933 38.0763 32.309 38.0141 32.2473C37.9524 32.1851 37.8681 32.1503 37.7806 32.1503L37.7806 32.1503Z" fill="#057AFF"/>
<path d="M5.7613 70.6861C5.21262 70.6893 4.68554 70.4737 4.29555 70.0879C3.90604 69.7015 3.68573 69.1766 3.68361 68.6279C3.68149 68.0793 3.8976 67.5522 4.28447 67.1633C4.67134 66.7743 5.19683 66.555 5.7455 66.554C6.29418 66.5529 6.82074 66.7701 7.20923 67.1575C7.59768 67.5449 7.81589 68.0714 7.81589 68.6201C7.81905 69.1667 7.60401 69.6922 7.21819 70.0801C6.83289 70.468 6.30846 70.6862 5.76134 70.6862L5.7613 70.6861ZM5.7613 67.7345C5.39762 67.7345 5.06925 67.9543 4.93117 68.2911C4.79308 68.6279 4.87213 69.0148 5.13146 69.2704C5.39025 69.526 5.77818 69.5998 6.11286 69.457C6.44808 69.3147 6.66365 68.9837 6.65891 68.62C6.65206 68.1288 6.25254 67.7345 5.76131 67.7345H5.7613Z" fill="#057AFF"/>
<path d="M12.1602 70.6861C11.6089 70.7014 11.0744 70.4964 10.6754 70.1158C10.2764 69.7358 10.0461 69.2114 10.0355 68.6601C10.025 68.1093 10.2348 67.5764 10.619 67.1811C11.0032 66.7858 11.5298 66.5602 12.0811 66.5544C12.6324 66.5491 13.1627 66.7642 13.5548 67.1521C13.9464 67.54 14.1673 68.0687 14.1673 68.62C14.1705 69.1587 13.9617 69.6773 13.5865 70.0637C13.2112 70.45 12.6989 70.6735 12.1602 70.6861L12.1602 70.6861ZM12.1602 67.7345C11.796 67.7345 11.4681 67.9543 11.33 68.2911C11.192 68.6279 11.271 69.0148 11.5298 69.2704C11.7891 69.526 12.1771 69.5998 12.5117 69.457C12.847 69.3147 13.062 68.9837 13.0573 68.62C13.0509 68.1288 12.6514 67.7345 12.1602 67.7345H12.1602Z" fill="#057AFF"/>
</svg>
