<svg width="91" height="76" viewBox="0 0 91 76" fill="none" xmlns="http://www.w3.org/2000/svg">
<path d="M21.2691 49.3622H12.9201C8.35665 49.2924 4.15771 46.8564 1.83195 42.93C-0.494465 39.0037 -0.612279 34.1504 1.51943 30.1151C3.65127 26.0797 7.72655 23.442 12.281 23.1504C12.2582 22.7479 12.2582 22.3454 12.281 21.9435C12.2772 18.4672 13.6515 15.1311 16.1028 12.6664C18.554 10.2017 21.882 8.80971 25.3584 8.79462C27.6067 8.78828 29.8177 9.36576 31.7766 10.47C33.2365 7.10645 36.0383 4.50822 39.5025 3.30574C42.9668 2.10388 46.7764 2.40815 50.0062 4.14439C53.2352 5.88125 55.5902 8.89101 56.4973 12.4441C56.5918 12.8365 56.3503 13.2301 55.9579 13.3246C55.5655 13.4184 55.1718 13.1769 55.0774 12.7851C54.247 9.51669 52.0486 6.76495 49.0446 5.23354C46.0405 3.70204 42.5225 3.53919 39.3897 4.78664C36.2569 6.03415 33.814 8.57095 32.685 11.748C32.614 11.9547 32.4517 12.1176 32.2451 12.1886C32.0385 12.2469 31.8172 12.2158 31.6347 12.103C29.7735 10.8669 27.5923 10.2006 25.3584 10.1862C22.2529 10.19 19.2756 11.4254 17.079 13.6219C14.8832 15.8177 13.6476 18.7952 13.6439 21.9007C13.6407 22.4965 13.6978 23.0911 13.8144 23.6757C13.8582 23.9115 13.7777 24.153 13.6014 24.3146C13.4335 24.4807 13.1907 24.5454 12.9625 24.4852C8.77247 24.4776 4.89614 26.7064 2.79416 30.3309C0.692823 33.9562 0.684546 38.4271 2.77324 42.0598C4.86191 45.6921 8.72932 47.9348 12.92 47.9424H45.2376L80.6368 47.5164C83.1153 46.84 85.3017 45.3669 86.8599 43.3238C88.4173 41.2814 89.2591 38.7826 89.2561 36.2141C89.2561 31.9543 85.3797 28.362 83.7183 27.0417V27.0411C83.4166 26.7983 83.3684 26.3564 83.6118 26.0541C83.8552 25.7523 84.2971 25.7048 84.5988 25.9476C86.4162 27.396 90.6759 31.2868 90.6759 36.2142C90.6766 39.108 89.7181 41.9206 87.9508 44.2121C86.1828 46.5036 83.7063 48.1454 80.907 48.8795H80.7365L45.2382 49.3626L21.2691 49.3622Z" fill="#057AFF"/>
<path d="M45.238 68.8583C44.8539 68.8583 44.542 68.547 44.542 68.1629V48.6247C44.5502 48.2462 44.8589 47.9432 45.238 47.9432C45.6247 47.9432 45.9404 48.2526 45.948 48.6393V68.1629C45.9404 68.5489 45.6247 68.8583 45.238 68.8583V68.8583Z" fill="#057AFF"/>
<path d="M52.0822 76H38.3938C38.0096 76 37.6984 75.6888 37.6984 75.3046V68.205C37.6946 68.018 37.7662 67.8373 37.8968 67.7036C38.028 67.5698 38.2068 67.495 38.3938 67.495H52.0822C52.2692 67.495 52.448 67.5698 52.5792 67.7036C52.7098 67.8373 52.7814 68.018 52.7776 68.205V75.3046C52.7776 75.4891 52.7047 75.6659 52.5741 75.7965C52.4436 75.9271 52.2667 76 52.0822 76L52.0822 76ZM39.1037 74.5801H51.3862V68.8578H39.1037V74.5801Z" fill="#057AFF"/>
<path d="M71.5204 36.341C71.3372 36.3416 71.1553 36.3131 70.981 36.256C64.3396 33.8511 58.7918 29.1259 55.3617 22.9512C55.3338 22.8536 55.3338 22.7502 55.3617 22.6533V2.36206C55.3611 2.11991 55.4853 1.89488 55.6914 1.76746C55.8967 1.64004 56.1541 1.62863 56.3703 1.73703C58.6511 2.96046 61.2487 3.46756 63.8224 3.19118C66.3959 2.91544 68.827 1.86888 70.7966 0.189695C71.0692 -0.0632315 71.4901 -0.0632315 71.762 0.189695C73.7398 1.88728 76.186 2.94403 78.7773 3.22039C81.3687 3.49677 83.9828 2.97951 86.2737 1.73708C86.4898 1.62868 86.7472 1.64009 86.9526 1.7675C87.158 1.89492 87.2829 2.11996 87.2816 2.36211V22.6533C87.3019 22.7421 87.3019 22.834 87.2816 22.9227C86.6033 24.3408 85.7697 25.6788 84.7968 26.9131C81.5589 31.1723 77.1684 34.4141 72.1455 36.2561C71.9432 36.3176 71.7322 36.3468 71.5204 36.341L71.5204 36.341ZM56.7252 22.4682C60.036 28.2081 65.2422 32.6162 71.4493 34.9356C71.5102 34.9496 71.5736 34.9496 71.6344 34.9356C76.3773 33.1722 80.5198 30.0939 83.5758 26.061C84.4411 24.9479 85.1973 23.7542 85.8337 22.4966V3.45489C83.4604 4.48054 80.855 4.85074 78.2898 4.52618C75.7243 4.20163 73.2934 3.19374 71.251 1.60892C69.2079 3.19366 66.777 4.20163 64.2122 4.52618C61.6467 4.85074 59.0415 4.48054 56.6682 3.45489L56.7252 22.4682ZM71.308 19.7989H71.3074C69.8012 19.7989 68.3565 19.2005 67.2916 18.1355C66.226 17.0706 65.6276 15.6259 65.6276 14.1191C65.6276 12.613 66.226 11.1683 67.2916 10.1034C68.3566 9.03783 69.8013 8.43941 71.3074 8.43941C72.8141 8.43941 74.2589 9.03781 75.3237 10.1034C76.3887 11.1684 76.9871 12.613 76.9871 14.1191C76.9871 15.6259 76.3887 17.0706 75.3237 18.1355C74.2588 19.2004 72.8141 19.7989 71.3074 19.7989H71.308ZM71.308 9.85934H71.3074C70.1778 9.85934 69.0944 10.3081 68.2956 11.1069C67.4963 11.9062 67.0475 12.9896 67.0475 14.1191C67.0475 15.2486 67.4963 16.3327 68.2956 17.1313C69.0944 17.93 70.1777 18.3788 71.3074 18.3788C72.4376 18.3788 73.521 17.93 74.3196 17.1313C75.1183 16.3325 75.5671 15.2485 75.5671 14.1191C75.5823 12.9793 75.1405 11.8814 74.3398 11.07C73.5392 10.2593 72.447 9.80222 71.3072 9.80285L71.308 9.85934Z" fill="#057AFF"/>
<path d="M75.0557 28.4607H71.3067C70.9226 28.4607 70.6113 28.1495 70.6113 27.7653V19.1038C70.6113 18.7114 70.9289 18.3938 71.3213 18.3938C71.713 18.3938 72.0313 18.7114 72.0313 19.1038V27.0554H75.0556C75.448 27.0554 75.7656 27.3729 75.7656 27.7653C75.7656 28.1571 75.448 28.4753 75.0556 28.4753L75.0557 28.4607Z" fill="#057AFF"/>
</svg>
