<svg width="83" height="52" viewBox="0 0 83 52" fill="none" xmlns="http://www.w3.org/2000/svg">
<path d="M79.7327 51.9333H64.0851C63.3358 51.9333 62.6171 51.6356 62.0873 51.1057C61.5575 50.5759 61.2598 49.8578 61.2598 49.1086V37.0342C61.2598 36.285 61.5575 35.5663 62.0873 35.0364C62.6171 34.5066 63.3358 34.2095 64.0851 34.2095H79.7327C80.4831 34.2095 81.2029 34.5066 81.735 35.0359C82.2666 35.5651 82.5672 36.2838 82.5707 37.0342V49.1086C82.5672 49.859 82.2666 50.5771 81.735 51.1069C81.2029 51.6362 80.4831 51.9333 79.7327 51.9333V51.9333ZM64.0851 35.4733C63.223 35.4733 62.5238 36.1718 62.5238 37.0339V49.1083C62.5238 49.5218 62.6885 49.9192 62.9811 50.2117C63.2742 50.5043 63.671 50.669 64.085 50.669H79.7327C80.5867 50.6551 81.2737 49.9624 81.2807 49.1083V37.0339C81.2738 36.1701 80.5712 35.4733 79.7068 35.4733H64.0851Z" fill="#057AFF"/>
<path d="M77.5918 35.4733C77.2423 35.4733 76.9595 35.19 76.9595 34.841V30.0168C76.8714 28.2731 75.8901 26.698 74.3635 25.8509C72.8369 25.0032 70.9814 25.0032 69.4553 25.8509C67.9287 26.698 66.9473 28.2731 66.8593 30.0168V34.8416V34.841C66.8593 35.1975 66.5702 35.486 66.2143 35.486C65.8578 35.486 65.5693 35.1975 65.5693 34.841V30.0168C65.5693 27.7583 66.7741 25.6718 68.7298 24.5425C70.6856 23.4132 73.0949 23.4132 75.0507 24.5425C77.0064 25.6718 78.2112 27.7582 78.2112 30.0168V34.8416V34.841C78.2112 35.1854 77.9359 35.4664 77.5921 35.4734L77.5918 35.4733Z" fill="#057AFF"/>
<path d="M61.931 47.3278H4.77289C3.51 47.3278 2.29955 46.8268 1.40689 45.9336C0.514279 45.041 0.0126953 43.8304 0.0126953 42.5682V4.75961C0.0126953 3.49728 0.514279 2.28685 1.40689 1.3942C2.2995 0.501584 3.51005 0 4.77289 0H67.7881C69.0505 0 70.2609 0.501584 71.1536 1.3942C72.0462 2.28681 72.5478 3.49736 72.5478 4.75961V24.5602C72.5478 24.9167 72.2593 25.2052 71.9028 25.2052C71.5469 25.2052 71.2578 24.9167 71.2578 24.5602V4.75961C71.2543 3.8336 70.8852 2.94673 70.2304 2.29142C69.5756 1.63665 68.6882 1.26751 67.7622 1.26405H4.77351C3.85038 1.27096 2.96815 1.6424 2.31801 2.29717C1.66783 2.95195 1.30331 3.83702 1.30331 4.75961V42.5682C1.30331 43.493 1.66957 44.3805 2.32262 45.0352C2.97567 45.6905 3.86144 46.0602 4.78624 46.0637H61.931C62.2875 46.0637 62.576 46.3528 62.576 46.7087C62.576 47.0652 62.2875 47.3537 61.931 47.3537L61.931 47.3278Z" fill="#057AFF"/>
<path d="M71.916 10.0867H0.644983C0.28851 10.0867 0 9.79763 0 9.44174C0 9.08526 0.28851 8.79675 0.644983 8.79675H71.916C72.2719 8.79675 72.561 9.08526 72.561 9.44174C72.561 9.79763 72.2719 10.0867 71.916 10.0867Z" fill="#057AFF"/>
<path d="M71.916 18.2261H0.644983C0.28851 18.2261 0 17.9376 0 17.5811C0 17.2247 0.28851 16.9362 0.644983 16.9362H71.916C72.2719 16.9362 72.561 17.2247 72.561 17.5811C72.561 17.9376 72.2719 18.2261 71.916 18.2261Z" fill="#057AFF"/>
<path d="M28.2621 30.5449H12.6661C12.3171 30.5449 12.0343 30.2622 12.0343 29.9126V23.8244C12.0309 23.6545 12.0959 23.4904 12.2146 23.3689C12.3338 23.2474 12.4962 23.1794 12.6661 23.1794H28.2621C28.432 23.1794 28.595 23.2474 28.7136 23.3689C28.8328 23.4904 28.8979 23.6545 28.8944 23.8244V29.9132V29.9126C28.8944 30.2622 28.6111 30.545 28.2621 30.545V30.5449ZM13.2985 29.255H27.6298V24.4562H13.2985V29.255Z" fill="#057AFF"/>
<path d="M59.8935 30.2354H45.4718C45.3019 30.2354 45.139 30.1675 45.0197 30.0459C44.9011 29.9244 44.836 29.7603 44.8395 29.5904V24.1339C44.8395 23.785 45.1222 23.5022 45.4718 23.5022H59.8935C60.2425 23.5022 60.5252 23.785 60.5252 24.1339V29.5904C60.5287 29.7603 60.4636 29.9244 60.345 30.0459C60.2258 30.1675 60.0634 30.2354 59.8935 30.2354ZM46.1035 28.9454H59.2612V24.7662H46.1035V28.9454Z" fill="#057AFF"/>
<path d="M29.8236 36.4021H13.1572C12.8007 36.4021 12.5122 36.1131 12.5122 35.7572C12.5122 35.4007 12.8007 35.1122 13.1572 35.1122H29.8236C30.18 35.1122 30.4685 35.4007 30.4685 35.7572C30.4685 36.1131 30.18 36.4021 29.8236 36.4021Z" fill="#057AFF"/>
<path d="M29.3338 42.246H12.6674C12.3115 42.246 12.0225 41.9569 12.0225 41.601C12.0225 41.2446 12.3115 40.9561 12.6674 40.9561H29.3338C29.6903 40.9561 29.9788 41.2446 29.9788 41.601C29.9788 41.9569 29.6903 42.246 29.3338 42.246Z" fill="#057AFF"/>
</svg>
