<svg width="75" height="71" viewBox="0 0 75 71" fill="none" xmlns="http://www.w3.org/2000/svg">
<path d="M39.6453 70.5203C33.084 70.527 26.6634 68.6227 21.1669 65.0405C20.9047 64.8677 20.8318 64.515 21.0045 64.2527C21.1773 63.9905 21.53 63.9176 21.7922 64.0903C25.1799 66.32 28.957 67.8918 32.9261 68.7245C37.3498 69.6514 41.9178 69.6514 46.3414 68.7245C50.9063 67.7434 55.2161 65.8184 58.9928 63.0729C62.7699 60.3277 65.9306 56.8225 68.2726 52.7831C71.3773 47.4652 73.0133 41.418 73.0133 35.2606C73.0133 29.1027 71.3774 23.0555 68.2726 17.7382C65.6043 13.1433 61.8773 9.25233 57.4018 6.38908C52.9259 3.52529 47.8315 1.77252 42.542 1.27494C40.6149 1.10219 38.6765 1.10219 36.7493 1.27494C31.4588 1.77612 26.3638 3.53099 21.8869 6.39371C17.4104 9.25697 13.6804 13.1458 11.0064 17.7382C7.89433 23.055 6.25847 29.1063 6.26773 35.2673C6.26773 36.055 6.26773 36.8659 6.34894 37.6655C6.36187 37.8217 6.30963 37.9763 6.20411 38.0927C6.0986 38.2091 5.94964 38.2768 5.79293 38.2794C5.47692 38.2996 5.20383 38.0622 5.17901 37.7467C5.17901 36.9244 5.08643 36.0901 5.08643 35.2672C5.09315 28.8998 6.79683 22.6494 10.0216 17.1595C13.2644 11.5043 18.0595 6.89598 23.8393 3.88059C29.6191 0.864272 36.1416 -0.433429 42.6355 0.140679C48.1122 0.648055 53.3877 2.45776 58.0223 5.41821C62.6575 8.37865 66.5179 12.4047 69.2814 17.1599C72.4875 22.6536 74.1773 28.901 74.1773 35.2623C74.1773 41.6235 72.4875 47.8703 69.2814 53.3647C66.8541 57.536 63.5807 61.1533 59.6722 63.9845C55.7636 66.8157 51.3058 68.798 46.5853 69.8041C44.3034 70.2845 41.9775 70.5251 39.646 70.5225L39.6453 70.5203Z" fill="#057AFF"/>
<path d="M32.8093 69.8144C32.6065 69.8134 32.4183 69.7084 32.3112 69.5362C30.4353 66.3145 28.73 62.9965 27.2017 59.596C27.0791 59.3079 27.2074 58.9743 27.4913 58.8429C27.6294 58.7809 27.7872 58.7762 27.9284 58.8305C28.0696 58.8853 28.1839 58.994 28.2444 59.1326C29.7526 62.5021 31.4386 65.7895 33.2959 68.9802C33.3745 69.11 33.3967 69.2662 33.3574 69.4131C33.3181 69.5594 33.2204 69.6836 33.0869 69.7565C33.0021 69.8031 32.9054 69.8232 32.8092 69.8144L32.8093 69.8144Z" fill="#057AFF"/>
<path d="M21.7801 36.5637C21.4755 36.5637 21.2247 36.3237 21.2123 36.0191C20.8487 29.6254 21.8355 23.2265 24.1086 17.2388C26.5809 10.5808 30.8033 4.71301 36.3312 0.253875C36.5065 0.138021 36.7305 0.124056 36.9187 0.217154C37.107 0.31025 37.2321 0.495932 37.2466 0.705913C37.2472 0.917973 37.1318 1.11347 36.9456 1.21537C31.6251 5.54951 27.5578 11.2244 25.1632 17.6548C22.9568 23.493 21.9979 29.7285 22.348 35.9597C22.3609 36.2752 22.1189 36.5437 21.8034 36.5623L21.7801 36.5637Z" fill="#057AFF"/>
<path d="M46.4681 69.8145C46.3677 69.8134 46.2684 69.7897 46.1784 69.7447C45.909 69.5802 45.8216 69.2295 45.9819 68.957C72.4205 23.3567 42.5063 1.39074 42.2513 1.18154C42.0739 0.986543 42.0506 0.695874 42.1949 0.475036C42.3397 0.254185 42.6154 0.159025 42.8652 0.243328C43.1781 0.475036 73.8797 23.0435 46.9201 69.5361C46.8249 69.698 46.6558 69.8019 46.468 69.8144L46.4681 69.8145Z" fill="#057AFF"/>
<path d="M68.7706 53.6399H29.2067C28.8871 53.6399 28.6274 53.3807 28.6274 53.0606C28.6274 52.741 28.8871 52.4813 29.2067 52.4813H68.7706C69.0908 52.4813 69.3499 52.741 69.3499 53.0606C69.3499 53.3807 69.0908 53.6399 68.7706 53.6399Z" fill="#057AFF"/>
<path d="M39.6338 70.5202C39.3204 70.5202 39.0664 70.2663 39.0664 69.9528V0.579271C39.0664 0.259633 39.3255 0 39.6457 0C39.9653 0 40.2249 0.259633 40.2249 0.579271V69.9528C40.2249 70.1075 40.1618 70.2554 40.0507 70.3625C39.9389 70.4695 39.7884 70.5264 39.6338 70.5202Z" fill="#057AFF"/>
<path d="M68.7586 18.015H10.507C10.1869 18.015 9.92773 17.7559 9.92773 17.4357C9.92773 17.1161 10.1869 16.8564 10.507 16.8564H68.7586C69.0787 16.8564 69.3378 17.1161 69.3378 17.4357C69.3378 17.7559 69.0787 18.015 68.7586 18.015Z" fill="#057AFF"/>
<path d="M15.0604 70.5202C14.9301 70.5187 14.8034 70.4737 14.7015 70.393L0.208434 58.564C0.0812012 58.4522 0.0056955 58.2929 2.08586e-06 58.1238V41.1164C-0.000515088 40.925 0.0951687 40.7466 0.254988 40.6416L14.9572 31.0024H14.9567C15.1501 30.8752 15.401 30.8752 15.5939 31.0024L29.4964 40.653C29.6485 40.7585 29.739 40.9318 29.74 41.1164V58.1238C29.7416 58.2919 29.6645 58.4507 29.5316 58.5526L15.4093 70.393C15.3089 70.4696 15.1879 70.5141 15.0617 70.5203L15.0604 70.5202ZM1.1579 57.8461L15.0604 69.2112L28.6624 57.8574V41.418L15.2815 32.1497L1.15922 41.43L1.1579 57.8461Z" fill="#057AFF"/>
<path d="M13.8091 54.3932C13.6591 54.3932 13.5164 54.3306 13.415 54.2194L7.854 48.6698V48.6703C7.63005 48.4464 7.63005 48.0833 7.854 47.8594C8.07795 47.6354 8.44103 47.6354 8.66498 47.8594L13.8092 53.0149L22.6833 44.1408V44.1403C22.9073 43.9163 23.2704 43.9163 23.4943 44.1403C23.7183 44.3642 23.7183 44.7273 23.4943 44.9512L14.226 54.2196C14.1189 54.3354 13.9669 54.3985 13.8091 54.3934V54.3932Z" fill="#057AFF"/>
</svg>
