<svg width="589" height="597" viewBox="0 0 589 597" fill="none" xmlns="http://www.w3.org/2000/svg">
<path opacity="0.34" fill-rule="evenodd" clip-rule="evenodd" d="M537.778 351.972C598.64 291.11 598.64 192.434 537.778 131.572C476.916 70.7096 378.239 70.7096 317.377 131.572C256.515 192.434 256.515 291.11 317.377 351.972C378.239 412.834 476.916 412.834 537.778 351.972ZM538.739 352.933C600.132 291.541 600.132 192.003 538.739 130.611C477.346 69.2178 377.809 69.2178 316.416 130.611C255.024 192.003 255.024 291.541 316.416 352.933C377.809 414.326 477.346 414.326 538.739 352.933Z" fill="#6A7077"/>
<path d="M413.078 230.189C413.34 230.076 413.645 230.001 413.991 229.966C414.494 229.909 414.869 229.789 415.117 229.605C415.308 229.216 415.404 228.225 415.404 226.632V224.955L415.425 223.946L415.404 223.203L415.425 221.833L415.393 218.382C415.393 217.993 415.336 217.738 415.223 217.618C415.06 217.441 414.629 217.278 413.928 217.129C413.638 217.066 413.461 217.009 413.397 216.96C413.333 216.903 413.294 216.8 413.28 216.652C413.443 216.616 413.556 216.599 413.62 216.599H414.374L414.767 216.588C415.028 216.588 415.319 216.616 415.637 216.673C416.288 216.715 416.957 216.737 417.644 216.737C417.842 216.737 418.125 216.726 418.493 216.705C419.47 216.648 420.171 216.62 420.596 216.62C421.452 216.62 422.259 216.705 423.016 216.875C423.781 217.044 424.567 217.359 425.374 217.82C425.876 218.11 426.389 218.57 426.913 219.2C427.444 219.823 427.844 220.506 428.113 221.249C428.389 221.985 428.527 222.817 428.527 223.744C428.527 224.572 428.375 225.393 428.07 226.207C427.773 227.021 427.356 227.729 426.818 228.331C426.28 228.926 425.735 229.375 425.182 229.679C424.63 229.977 423.788 230.235 422.655 230.454C422.188 230.539 421.349 230.582 420.139 230.582C419.339 230.582 418.688 230.557 418.185 230.508C417.987 230.479 417.775 230.465 417.548 230.465C417.513 230.465 417.474 230.469 417.432 230.476L413.1 230.55L413.078 230.465C413.064 230.43 413.057 230.391 413.057 230.348L413.078 230.189ZM418.483 229.775C419.021 229.959 419.566 230.051 420.118 230.051C420.833 230.051 421.534 229.941 422.22 229.722C422.907 229.495 423.512 229.18 424.036 228.777C424.567 228.366 425.002 227.906 425.342 227.397C425.681 226.88 425.922 226.416 426.064 226.006C426.262 225.404 426.361 224.622 426.361 223.659C426.361 222.739 426.166 221.805 425.777 220.856C425.508 220.198 425.034 219.568 424.354 218.966C423.682 218.365 422.885 217.926 421.965 217.65C421.045 217.367 420.051 217.225 418.982 217.225C418.246 217.225 417.701 217.306 417.347 217.469C417.304 217.512 417.262 217.561 417.219 217.618C417.177 217.795 417.156 217.958 417.156 218.106C417.156 218.198 417.159 218.308 417.166 218.435C417.187 219.256 417.198 219.915 417.198 220.41L417.187 222.82C417.187 226.36 417.251 228.331 417.378 228.734C417.513 229.131 417.881 229.478 418.483 229.775Z" fill="#057AFF"/>
<path d="M429.886 217.246V216.917C430.006 216.889 430.102 216.871 430.173 216.864L431.171 216.811C431.999 216.74 432.926 216.683 433.953 216.641C434.363 216.627 435.011 216.62 435.896 216.62C437.099 216.62 437.98 216.708 438.539 216.885C439.353 217.147 439.959 217.543 440.355 218.074C440.758 218.598 440.96 219.182 440.96 219.826C440.96 220.874 440.213 221.755 438.72 222.47L438.667 222.555C439.431 222.76 440.058 223.047 440.546 223.415C441.035 223.783 441.41 224.233 441.672 224.763C441.863 225.153 441.958 225.662 441.958 226.292C441.958 227.347 441.477 228.288 440.514 229.117C439.559 229.938 438.239 230.348 436.554 230.348H434.972L433.369 230.401C431.953 230.416 431.125 230.423 430.884 230.423C430.636 230.423 430.392 230.412 430.151 230.391V230.274C430.151 230.189 430.169 230.129 430.205 230.093C430.247 230.051 430.328 230.016 430.449 229.987C431.334 229.803 431.833 229.679 431.946 229.616C432.066 229.545 432.148 229.435 432.19 229.287C432.275 229.003 432.317 228.274 432.317 227.099C432.317 226.993 432.314 226.859 432.307 226.696C432.293 226.222 432.286 225.949 432.286 225.878V224.774C432.286 222.905 432.264 221.274 432.222 219.879L432.211 217.745L432.201 217.48C431.599 217.395 431.068 217.342 430.608 217.321C430.311 217.313 430.07 217.289 429.886 217.246ZM434.101 222.619C434.455 222.689 434.827 222.725 435.216 222.725C436.745 222.725 437.782 222.389 438.327 221.716C438.872 221.044 439.145 220.375 439.145 219.709C439.145 219.412 439.095 219.111 438.996 218.807C438.904 218.496 438.734 218.216 438.486 217.968C438.246 217.72 437.945 217.536 437.584 217.416C436.968 217.211 436.338 217.108 435.694 217.108C435.092 217.108 434.533 217.175 434.016 217.31C434.009 217.459 434.006 217.568 434.006 217.639C434.006 217.71 434.013 217.912 434.027 218.244C434.034 218.457 434.038 218.669 434.038 218.881L434.006 220.166L434.016 220.93L434.091 222.428L434.101 222.619ZM436.596 229.839C437.297 229.789 437.885 229.64 438.359 229.393C438.578 229.279 438.837 229.078 439.134 228.788C439.438 228.49 439.672 228.136 439.835 227.726C440.005 227.315 440.09 226.919 440.09 226.537C440.09 226.246 440.029 225.889 439.909 225.464C439.796 225.04 439.598 224.668 439.314 224.349C439.038 224.024 438.624 223.758 438.072 223.553C437.52 223.341 436.911 223.235 436.246 223.235C434.958 223.235 434.236 223.259 434.08 223.309C434.073 223.472 434.069 223.592 434.069 223.67L434.08 224.063L434.069 224.859V225.762C434.091 227.425 434.13 228.409 434.186 228.713C434.243 229.018 434.434 229.279 434.76 229.499C435.092 229.718 435.704 229.832 436.596 229.839Z" fill="#057AFF"/>
<path d="M388.243 252.764C388.174 252.177 387.892 251.722 387.398 251.397C386.903 251.073 386.297 250.911 385.579 250.911C385.054 250.911 384.595 250.996 384.201 251.166C383.811 251.336 383.506 251.569 383.286 251.866C383.069 252.164 382.961 252.502 382.961 252.88C382.961 253.197 383.037 253.469 383.187 253.697C383.342 253.92 383.539 254.108 383.778 254.258C384.017 254.405 384.268 254.527 384.531 254.623C384.793 254.716 385.035 254.791 385.255 254.849L386.459 255.173C386.768 255.254 387.112 255.366 387.49 255.509C387.872 255.652 388.237 255.847 388.585 256.094C388.936 256.337 389.226 256.65 389.454 257.032C389.681 257.415 389.795 257.884 389.795 258.44C389.795 259.081 389.627 259.66 389.291 260.177C388.959 260.694 388.473 261.106 387.832 261.411C387.195 261.716 386.421 261.868 385.51 261.868C384.66 261.868 383.925 261.731 383.303 261.457C382.685 261.183 382.199 260.801 381.844 260.31C381.492 259.82 381.293 259.25 381.247 258.602H382.73C382.768 259.05 382.919 259.42 383.181 259.714C383.448 260.003 383.784 260.22 384.189 260.362C384.598 260.501 385.039 260.571 385.51 260.571C386.058 260.571 386.55 260.482 386.986 260.305C387.423 260.123 387.768 259.872 388.023 259.552C388.278 259.227 388.405 258.849 388.405 258.417C388.405 258.023 388.295 257.702 388.075 257.455C387.855 257.208 387.566 257.007 387.206 256.853C386.847 256.698 386.459 256.563 386.042 256.447L384.583 256.03C383.656 255.764 382.923 255.384 382.382 254.89C381.842 254.395 381.571 253.749 381.571 252.949C381.571 252.285 381.751 251.706 382.11 251.212C382.473 250.714 382.959 250.328 383.569 250.054C384.183 249.776 384.869 249.637 385.625 249.637C386.39 249.637 387.069 249.774 387.664 250.048C388.259 250.318 388.73 250.689 389.077 251.16C389.428 251.631 389.614 252.166 389.633 252.764H388.243Z" fill="white"/>
<path d="M396.465 257.953H398.041L399.361 259.691L399.709 260.154L401.678 262.772H400.103L398.805 261.034L398.481 260.594L396.465 257.953ZM402.164 255.729C402.164 256.98 401.938 258.061 401.487 258.972C401.035 259.884 400.415 260.586 399.628 261.081C398.84 261.575 397.94 261.822 396.929 261.822C395.917 261.822 395.018 261.575 394.23 261.081C393.442 260.586 392.823 259.884 392.371 258.972C391.919 258.061 391.693 256.98 391.693 255.729C391.693 254.478 391.919 253.397 392.371 252.486C392.823 251.575 393.442 250.872 394.23 250.378C395.018 249.884 395.917 249.637 396.929 249.637C397.94 249.637 398.84 249.884 399.628 250.378C400.415 250.872 401.035 251.575 401.487 252.486C401.938 253.397 402.164 254.478 402.164 255.729ZM400.774 255.729C400.774 254.702 400.602 253.836 400.259 253.129C399.919 252.422 399.458 251.888 398.875 251.525C398.296 251.162 397.647 250.98 396.929 250.98C396.211 250.98 395.56 251.162 394.977 251.525C394.398 251.888 393.937 252.422 393.593 253.129C393.253 253.836 393.083 254.702 393.083 255.729C393.083 256.756 393.253 257.623 393.593 258.33C393.937 259.036 394.398 259.571 394.977 259.934C395.56 260.297 396.211 260.478 396.929 260.478C397.647 260.478 398.296 260.297 398.875 259.934C399.458 259.571 399.919 259.036 400.259 258.33C400.602 257.623 400.774 256.756 400.774 255.729Z" fill="white"/>
<path d="M404.579 261.66V249.799H406.016V260.386H411.529V261.66H404.579Z" fill="white"/>
<path d="M415.606 260.038L415.513 260.664C415.448 261.104 415.347 261.575 415.212 262.077C415.081 262.579 414.944 263.052 414.801 263.496C414.658 263.94 414.541 264.293 414.448 264.555H413.405C413.456 264.308 413.521 263.982 413.602 263.577C413.683 263.171 413.764 262.718 413.846 262.216C413.93 261.718 414 261.208 414.054 260.687L414.124 260.038H415.606Z" fill="white"/>
<path d="M432.316 249.799V261.66H430.926L424.463 252.347H424.347V261.66H422.911V249.799H424.301L430.787 259.135H430.903V249.799H432.316Z" fill="white"/>
<path d="M438.618 261.845C437.815 261.845 437.111 261.654 436.505 261.272C435.902 260.889 435.431 260.355 435.091 259.667C434.755 258.98 434.588 258.177 434.588 257.258C434.588 256.332 434.755 255.523 435.091 254.832C435.431 254.141 435.902 253.604 436.505 253.222C437.111 252.839 437.815 252.648 438.618 252.648C439.421 252.648 440.124 252.839 440.726 253.222C441.333 253.604 441.804 254.141 442.14 254.832C442.479 255.523 442.649 256.332 442.649 257.258C442.649 258.177 442.479 258.98 442.14 259.667C441.804 260.355 441.333 260.889 440.726 261.272C440.124 261.654 439.421 261.845 438.618 261.845ZM438.618 260.617C439.228 260.617 439.73 260.461 440.124 260.148C440.518 259.835 440.809 259.424 440.999 258.915C441.188 258.405 441.282 257.853 441.282 257.258C441.282 256.664 441.188 256.11 440.999 255.596C440.809 255.083 440.518 254.668 440.124 254.351C439.73 254.034 439.228 253.876 438.618 253.876C438.008 253.876 437.506 254.034 437.113 254.351C436.719 254.668 436.427 255.083 436.238 255.596C436.049 256.11 435.954 256.664 435.954 257.258C435.954 257.853 436.049 258.405 436.238 258.915C436.427 259.424 436.719 259.835 437.113 260.148C437.506 260.461 438.008 260.617 438.618 260.617Z" fill="white"/>
<path d="M451.407 252.764C451.338 252.177 451.056 251.722 450.562 251.397C450.068 251.073 449.461 250.911 448.743 250.911C448.218 250.911 447.759 250.996 447.365 251.166C446.975 251.336 446.67 251.569 446.45 251.866C446.234 252.164 446.126 252.502 446.126 252.88C446.126 253.197 446.201 253.469 446.351 253.697C446.506 253.92 446.703 254.108 446.942 254.258C447.181 254.405 447.432 254.527 447.695 254.623C447.958 254.716 448.199 254.791 448.419 254.849L449.624 255.173C449.932 255.254 450.276 255.366 450.654 255.509C451.037 255.652 451.401 255.847 451.749 256.094C452.1 256.337 452.39 256.65 452.618 257.032C452.845 257.415 452.959 257.884 452.959 258.44C452.959 259.081 452.791 259.66 452.456 260.177C452.123 260.694 451.637 261.106 450.996 261.411C450.359 261.716 449.585 261.868 448.674 261.868C447.824 261.868 447.089 261.731 446.467 261.457C445.849 261.183 445.363 260.801 445.008 260.31C444.656 259.82 444.458 259.25 444.411 258.602H445.894C445.932 259.05 446.083 259.42 446.346 259.714C446.612 260.003 446.948 260.22 447.353 260.362C447.763 260.501 448.203 260.571 448.674 260.571C449.222 260.571 449.714 260.482 450.151 260.305C450.587 260.123 450.932 259.872 451.187 259.552C451.442 259.227 451.569 258.849 451.569 258.417C451.569 258.023 451.459 257.702 451.239 257.455C451.019 257.208 450.73 257.007 450.371 256.853C450.012 256.698 449.624 256.563 449.207 256.447L447.747 256.03C446.82 255.764 446.087 255.384 445.546 254.89C445.006 254.395 444.736 253.749 444.736 252.949C444.736 252.285 444.915 251.706 445.274 251.212C445.637 250.714 446.124 250.328 446.734 250.054C447.347 249.776 448.033 249.637 448.79 249.637C449.554 249.637 450.234 249.774 450.828 250.048C451.423 250.318 451.894 250.689 452.241 251.16C452.593 251.631 452.778 252.166 452.797 252.764H451.407Z" fill="white"/>
<path d="M459.63 257.953H461.205L462.525 259.691L462.873 260.154L464.842 262.772H463.267L461.969 261.034L461.645 260.594L459.63 257.953ZM465.328 255.729C465.328 256.98 465.103 258.061 464.651 258.972C464.199 259.884 463.579 260.586 462.792 261.081C462.004 261.575 461.105 261.822 460.093 261.822C459.081 261.822 458.182 261.575 457.394 261.081C456.607 260.586 455.987 259.884 455.535 258.972C455.083 258.061 454.858 256.98 454.858 255.729C454.858 254.478 455.083 253.397 455.535 252.486C455.987 251.575 456.607 250.872 457.394 250.378C458.182 249.884 459.081 249.637 460.093 249.637C461.105 249.637 462.004 249.884 462.792 250.378C463.579 250.872 464.199 251.575 464.651 252.486C465.103 253.397 465.328 254.478 465.328 255.729ZM463.938 255.729C463.938 254.702 463.767 253.836 463.423 253.129C463.083 252.422 462.622 251.888 462.039 251.525C461.46 251.162 460.811 250.98 460.093 250.98C459.375 250.98 458.724 251.162 458.141 251.525C457.562 251.888 457.101 252.422 456.757 253.129C456.417 253.836 456.247 254.702 456.247 255.729C456.247 256.756 456.417 257.623 456.757 258.33C457.101 259.036 457.562 259.571 458.141 259.934C458.724 260.297 459.375 260.478 460.093 260.478C460.811 260.478 461.46 260.297 462.039 259.934C462.622 259.571 463.083 259.036 463.423 258.33C463.767 257.623 463.938 256.756 463.938 255.729Z" fill="white"/>
<path d="M467.743 261.66V249.799H469.18V260.386H474.693V261.66H467.743Z" fill="white"/>
<path opacity="0.34" fill-rule="evenodd" clip-rule="evenodd" d="M349.061 540.69C409.923 479.828 409.923 381.151 349.061 320.289C288.199 259.427 189.522 259.427 128.66 320.289C67.798 381.151 67.798 479.828 128.66 540.69C189.522 601.552 288.199 601.552 349.061 540.69ZM350.022 541.651C411.415 480.258 411.415 380.721 350.022 319.328C288.629 257.936 189.092 257.936 127.699 319.328C66.3062 380.721 66.3062 480.258 127.699 541.651C189.092 603.044 288.629 603.044 350.022 541.651Z" fill="#6A7077"/>
<path d="M197.849 406.155V405.826C197.969 405.797 198.065 405.78 198.135 405.773L199.133 405.72C199.962 405.649 200.889 405.592 201.915 405.55C202.326 405.536 202.973 405.528 203.858 405.528C205.062 405.528 205.943 405.617 206.502 405.794C207.316 406.056 207.921 406.452 208.318 406.983C208.721 407.507 208.923 408.091 208.923 408.735C208.923 409.783 208.176 410.664 206.682 411.379L206.629 411.464C207.394 411.669 208.02 411.956 208.509 412.324C208.997 412.692 209.372 413.141 209.634 413.672C209.825 414.061 209.921 414.571 209.921 415.201C209.921 416.256 209.44 417.197 208.477 418.025C207.521 418.846 206.201 419.257 204.516 419.257H202.934L201.331 419.31C199.916 419.324 199.087 419.331 198.847 419.331C198.599 419.331 198.355 419.321 198.114 419.299V419.183C198.114 419.098 198.132 419.038 198.167 419.002C198.21 418.96 198.291 418.924 198.411 418.896C199.296 418.712 199.795 418.588 199.908 418.524C200.029 418.454 200.11 418.344 200.153 418.195C200.238 417.912 200.28 417.183 200.28 416.008C200.28 415.902 200.277 415.767 200.269 415.605C200.255 415.13 200.248 414.858 200.248 414.787V413.683C200.248 411.814 200.227 410.182 200.185 408.788L200.174 406.654L200.163 406.388C199.562 406.304 199.031 406.25 198.571 406.229C198.273 406.222 198.033 406.197 197.849 406.155ZM202.064 411.527C202.418 411.598 202.789 411.634 203.179 411.634C204.708 411.634 205.745 411.297 206.29 410.625C206.835 409.952 207.107 409.284 207.107 408.618C207.107 408.321 207.058 408.02 206.959 407.716C206.867 407.404 206.697 407.125 206.449 406.877C206.208 406.629 205.907 406.445 205.546 406.325C204.931 406.119 204.301 406.017 203.656 406.017C203.055 406.017 202.496 406.084 201.979 406.219C201.972 406.367 201.968 406.477 201.968 406.548C201.968 406.619 201.975 406.82 201.99 407.153C201.997 407.365 202 407.578 202 407.79L201.968 409.075L201.979 409.839L202.053 411.336L202.064 411.527ZM204.559 418.747C205.26 418.698 205.847 418.549 206.321 418.301C206.541 418.188 206.799 417.986 207.097 417.696C207.401 417.399 207.635 417.045 207.797 416.634C207.967 416.224 208.052 415.828 208.052 415.445C208.052 415.155 207.992 414.798 207.872 414.373C207.758 413.948 207.56 413.577 207.277 413.258C207.001 412.932 206.587 412.667 206.035 412.462C205.483 412.249 204.874 412.143 204.209 412.143C202.92 412.143 202.198 412.168 202.043 412.218C202.036 412.38 202.032 412.501 202.032 412.579L202.043 412.971L202.032 413.768V414.67C202.053 416.334 202.092 417.318 202.149 417.622C202.205 417.926 202.397 418.188 202.722 418.408C203.055 418.627 203.667 418.74 204.559 418.747Z" fill="#057AFF"/>
<path d="M219.572 417.866C219.615 417.958 219.636 418.025 219.636 418.068C219.636 418.174 219.551 418.362 219.381 418.631C219.162 418.984 218.918 419.243 218.649 419.406C218.479 419.512 218.245 419.565 217.948 419.565C217.438 419.565 217.056 419.409 216.801 419.098C216.645 418.914 216.536 418.585 216.472 418.11L215.283 418.938C214.865 419.179 214.547 419.331 214.327 419.395C213.973 419.487 213.549 419.533 213.053 419.533C212.692 419.533 212.405 419.427 212.193 419.215C211.988 418.995 211.885 418.716 211.885 418.376C211.885 417.887 212.182 417.303 212.777 416.624C213.379 415.944 214.193 415.389 215.219 414.957C215.941 414.653 216.383 414.458 216.546 414.373C216.56 414.139 216.567 413.885 216.567 413.608C216.567 412.709 216.44 412.101 216.185 411.782C215.938 411.464 215.58 411.304 215.113 411.304C214.624 411.304 214.168 411.496 213.743 411.878C213.481 412.118 213.283 412.571 213.149 413.237C213.106 413.421 213.025 413.619 212.904 413.831C212.6 414.03 212.356 414.129 212.172 414.129C212.016 414.129 211.874 414.083 211.747 413.991C211.676 413.941 211.641 413.885 211.641 413.821C211.641 413.637 211.836 413.223 212.225 412.579C212.621 411.927 213.117 411.442 213.711 411.124C214.313 410.798 214.837 410.636 215.283 410.636C215.891 410.636 216.345 410.692 216.642 410.805C216.939 410.912 217.201 411.103 217.428 411.379C217.654 411.655 217.792 411.956 217.842 412.281C217.87 412.437 217.884 412.993 217.884 413.948L217.852 415.636L217.863 416.868C217.863 417.031 217.859 417.169 217.852 417.282C217.845 417.487 217.842 417.64 217.842 417.739C217.842 417.972 217.909 418.16 218.043 418.301C218.178 418.443 218.337 418.514 218.521 418.514C218.79 418.514 219.02 418.379 219.211 418.11L219.339 417.94C219.374 417.919 219.452 417.894 219.572 417.866ZM216.451 417.558C216.5 416.659 216.525 416.026 216.525 415.658C216.525 415.467 216.514 415.208 216.493 414.883C216.019 415.052 215.516 415.311 214.985 415.658C214.455 416.004 214.033 416.404 213.722 416.857C213.495 417.183 213.382 417.491 213.382 417.781C213.382 418.057 213.474 418.287 213.658 418.471C213.849 418.655 214.087 418.747 214.37 418.747C214.589 418.747 214.855 418.67 215.166 418.514C215.577 418.309 216.005 417.99 216.451 417.558Z" fill="#057AFF"/>
<path d="M228.257 417.367L228.268 418.057C227.716 418.645 227.171 419.055 226.633 419.289C226.095 419.522 225.462 419.639 224.732 419.639C223.94 419.639 223.225 419.434 222.588 419.023C221.951 418.606 221.459 418.018 221.112 417.261C220.772 416.504 220.602 415.76 220.602 415.031C220.602 414.231 220.807 413.477 221.218 412.77C221.636 412.055 222.184 411.524 222.864 411.177C223.55 410.823 224.41 410.646 225.444 410.646C226.435 410.646 227.189 410.816 227.705 411.156C227.996 411.354 228.141 411.609 228.141 411.92C228.141 412.147 228.066 412.334 227.918 412.483C227.769 412.632 227.578 412.706 227.344 412.706C226.99 412.706 226.601 412.487 226.176 412.048C225.915 411.779 225.677 411.595 225.465 411.496C225.253 411.389 225.016 411.336 224.754 411.336C224.124 411.336 223.6 411.595 223.182 412.111C222.602 412.848 222.312 413.771 222.312 414.883C222.312 416.029 222.609 416.942 223.203 417.622C223.798 418.301 224.492 418.641 225.285 418.641C225.837 418.641 226.325 418.553 226.75 418.376C227.182 418.192 227.684 417.855 228.257 417.367Z" fill="#057AFF"/>
<path d="M229.118 419.31L229.096 419.002C229.153 418.96 229.206 418.935 229.256 418.928C229.305 418.914 229.482 418.896 229.786 418.875C230.098 418.854 230.293 418.786 230.37 418.673C230.448 418.553 230.487 418.068 230.487 417.218L230.508 413.024L230.487 412.281C230.487 412.218 230.494 411.98 230.508 411.57C230.523 411.379 230.53 411.149 230.53 410.88L230.487 409.032L230.498 407.418C230.498 407.029 230.441 406.781 230.328 406.675C230.222 406.562 229.836 406.459 229.171 406.367V406.24C229.171 406.197 229.174 406.137 229.181 406.059C229.585 405.974 229.942 405.868 230.254 405.741C230.416 405.67 230.83 405.451 231.496 405.082H231.825C231.818 405.245 231.814 405.344 231.814 405.38V406.304L231.804 406.76L231.836 407.599L231.825 408.862L231.836 410.965L231.804 413.577V414.384C231.804 414.483 231.807 414.621 231.814 414.798L231.931 414.808C232.172 414.808 232.416 414.72 232.664 414.543C233.775 413.75 234.472 413.212 234.755 412.929C235.039 412.639 235.18 412.43 235.18 412.302C235.18 412.225 235.134 412.126 235.042 412.005C234.83 411.892 234.593 411.814 234.331 411.772C234.253 411.757 234.168 411.74 234.076 411.719C233.949 411.683 233.842 411.658 233.757 411.644L233.736 411.538C233.736 411.488 233.754 411.418 233.789 411.326C234.908 411.283 235.881 411.262 236.709 411.262C237.176 411.262 237.675 411.273 238.206 411.294V411.432C238.206 411.481 238.188 411.545 238.153 411.623C238.047 411.644 237.881 411.676 237.654 411.719C237.215 411.789 236.883 411.888 236.656 412.016C236.111 412.306 235.548 412.713 234.968 413.237C234.621 413.548 234.32 413.81 234.065 414.023L233.683 414.352C233.711 414.401 233.757 414.461 233.821 414.532C233.849 414.56 233.906 414.624 233.991 414.723C234.076 414.822 234.228 414.989 234.448 415.222C235.212 416.029 235.778 416.652 236.146 417.091C236.267 417.233 236.401 417.388 236.55 417.558C237.102 418.174 237.424 418.517 237.516 418.588C237.714 418.716 238.008 418.815 238.397 418.885C238.581 418.921 238.741 418.953 238.875 418.981C238.903 419.066 238.918 419.133 238.918 419.183L238.907 419.289C238.404 419.246 238.043 419.225 237.824 419.225H237.633L234.681 419.31C234.568 419.324 234.49 419.331 234.448 419.331C234.377 419.331 234.302 419.317 234.225 419.289C234.203 419.232 234.193 419.183 234.193 419.14V419.066C234.235 419.002 234.274 418.963 234.31 418.949C235.01 418.892 235.417 418.846 235.531 418.811C235.594 418.797 235.654 418.758 235.711 418.694C235.711 418.574 235.608 418.379 235.403 418.11C235.198 417.841 234.685 417.25 233.864 416.337C233.34 415.757 233 415.421 232.844 415.328C232.696 415.229 232.487 415.18 232.218 415.18H231.814C231.786 415.435 231.772 416.019 231.772 416.932C231.772 417.781 231.843 418.326 231.984 418.567C232.062 418.701 232.246 418.786 232.536 418.822C232.827 418.857 233.014 418.91 233.099 418.981C233.156 419.023 233.191 419.123 233.205 419.278C232.781 419.271 232.423 419.268 232.133 419.268C231.666 419.268 231.156 419.278 230.604 419.299C230.271 419.314 230.009 419.321 229.818 419.321C229.677 419.321 229.443 419.317 229.118 419.31Z" fill="#057AFF"/>
<path d="M244.704 419.14C244.775 419.077 244.835 419.038 244.885 419.023C245.005 418.988 245.21 418.96 245.5 418.938C246.187 418.896 246.612 418.832 246.775 418.747C246.874 418.606 246.923 418.408 246.923 418.153L246.913 417.41L246.923 414.713L246.902 413.439L246.913 410.774L246.86 407.748C246.852 407.026 246.806 406.619 246.722 406.526C246.594 406.392 246.215 406.314 245.585 406.293C245.316 406.286 245.079 406.265 244.874 406.229C244.782 406.18 244.736 406.116 244.736 406.038C244.736 405.981 244.754 405.914 244.789 405.836C244.853 405.801 244.909 405.783 244.959 405.783C245.058 405.783 245.178 405.787 245.32 405.794C245.738 405.829 246.169 405.847 246.615 405.847L247.401 405.826L249.27 405.868C250.204 405.868 250.933 405.858 251.457 405.836C251.981 405.815 252.335 405.804 252.519 405.804C252.682 405.804 253.085 405.819 253.729 405.847L255.237 405.836L255.417 405.868L256.299 405.836L256.405 405.889C256.44 405.946 256.465 406.006 256.479 406.07C256.479 406.169 256.461 406.321 256.426 406.526C256.398 406.732 256.384 406.859 256.384 406.909C256.384 407.645 256.408 408.268 256.458 408.777C256.451 408.82 256.43 408.848 256.394 408.862C256.316 408.862 256.246 408.852 256.182 408.831C256.104 408.696 255.998 408.459 255.863 408.119C255.736 407.779 255.541 407.387 255.279 406.941C255.102 406.643 254.964 406.466 254.865 406.41C254.766 406.353 254.561 406.325 254.249 406.325C254.186 406.325 253.864 406.318 253.283 406.304C253.127 406.296 252.975 406.293 252.827 406.293L249.801 406.357H249.535C249.146 406.357 248.912 406.406 248.834 406.505C248.714 406.675 248.654 407.174 248.654 408.002C248.654 408.087 248.672 408.937 248.707 410.551V412.026C248.785 412.048 248.87 412.058 248.962 412.058H249.142C249.263 412.058 249.44 412.062 249.673 412.069C250.041 412.083 250.289 412.09 250.416 412.09C250.501 412.09 250.576 412.087 250.639 412.08C251.404 412.051 252.388 412.037 253.591 412.037C253.966 411.973 254.186 411.899 254.249 411.814C254.356 411.687 254.433 411.354 254.483 410.816C254.54 410.278 254.66 409.974 254.844 409.903C254.936 409.903 255.021 409.921 255.099 409.956C255.113 410.013 255.12 410.066 255.12 410.115C255.12 410.165 255.113 410.246 255.099 410.359C255.063 410.621 255.046 411.442 255.046 412.823C255.046 413.191 255.063 413.601 255.099 414.054C255.141 414.507 255.163 414.752 255.163 414.787C255.163 414.851 255.152 414.936 255.131 415.042C255.074 415.07 255.028 415.084 254.993 415.084H254.918C254.805 414.886 254.695 414.578 254.589 414.161C254.405 413.446 254.21 413 254.005 412.823C253.807 412.639 253.481 412.547 253.028 412.547C252.929 412.547 252.749 412.554 252.487 412.568C252.225 412.575 251.836 412.579 251.319 412.579H250.629C249.645 412.579 249.001 412.6 248.696 412.642L248.686 412.993L248.696 414.946L248.686 416.178L248.696 417.378C248.703 418.1 248.749 418.517 248.834 418.631C248.955 418.786 249.217 418.864 249.62 418.864L250.268 418.854C250.324 418.854 250.544 418.861 250.926 418.875C251.315 418.882 251.793 418.885 252.359 418.885C253.726 418.885 254.635 418.829 255.088 418.716C255.541 418.595 255.913 418.386 256.203 418.089C256.5 417.792 256.872 417.151 257.318 416.167C257.452 415.877 257.587 415.732 257.721 415.732C257.785 415.732 257.856 415.76 257.934 415.817C257.728 416.518 257.612 416.978 257.583 417.197C257.505 417.693 257.459 418.199 257.445 418.716C257.445 418.949 257.389 419.144 257.275 419.299H257.042L254.058 419.331L252.72 419.321L249.535 419.363H248.24C248.077 419.363 247.925 419.367 247.783 419.374C246.509 419.43 245.571 419.459 244.97 419.459C244.863 419.459 244.789 419.441 244.747 419.406C244.711 419.37 244.694 419.317 244.694 419.246L244.704 419.14Z" fill="#057AFF"/>
<path d="M258.847 418.97C259.024 418.921 259.229 418.878 259.463 418.843C259.909 418.779 260.174 418.705 260.259 418.62C260.351 418.535 260.397 418.34 260.397 418.036L260.418 417.654C260.425 417.512 260.429 417.332 260.429 417.112L260.408 413.853C260.408 413.414 260.351 413.131 260.238 413.003C260.047 412.805 259.693 412.667 259.176 412.589V412.207C259.693 412.065 260.089 411.881 260.365 411.655C260.769 411.336 261.108 410.904 261.384 410.359L261.745 410.37C261.767 410.703 261.777 410.94 261.777 411.081V411.782L261.788 411.973C261.873 411.917 261.972 411.846 262.085 411.761C262.51 411.442 262.945 411.184 263.391 410.986C263.837 410.781 264.233 410.639 264.58 410.561C264.8 410.505 265.048 410.476 265.324 410.476C265.904 410.476 266.403 410.632 266.821 410.943C267.238 411.255 267.507 411.623 267.628 412.048C267.755 412.465 267.819 413.301 267.819 414.553V416.157C267.819 416.199 267.812 416.341 267.797 416.581C267.79 416.822 267.787 417.098 267.787 417.41C267.787 417.905 267.808 418.22 267.851 418.355C267.886 418.447 267.978 418.539 268.127 418.631C268.806 418.723 269.203 418.832 269.316 418.96V419.045C269.316 419.115 269.295 419.204 269.252 419.31H269.05L267.649 419.299L266.269 419.321C265.759 419.335 265.288 419.331 264.856 419.31L264.793 419.087C264.793 419.045 264.817 418.988 264.867 418.917C265.058 418.832 265.327 418.776 265.674 418.747C265.879 418.733 266.021 418.712 266.099 418.684C266.177 418.655 266.272 418.599 266.385 418.514C266.47 418.344 266.513 418.202 266.513 418.089C266.513 418.04 266.506 417.94 266.492 417.792C266.47 417.466 266.456 416.656 266.449 415.36V414.808L266.47 413.959C266.47 413.046 266.286 412.416 265.918 412.069C265.55 411.722 265.058 411.549 264.442 411.549C263.968 411.549 263.504 411.655 263.051 411.867C262.598 412.072 262.16 412.384 261.735 412.802C261.721 413.141 261.714 413.431 261.714 413.672L261.745 416.019C261.745 417.243 261.763 417.994 261.799 418.27C261.813 418.383 261.837 418.461 261.873 418.503C261.929 418.56 262.043 418.606 262.213 418.641C262.382 418.677 262.577 418.726 262.797 418.79C263.023 418.854 263.172 418.892 263.243 418.907C263.384 418.942 263.48 419.013 263.529 419.119L263.519 419.331H262.404L260.11 419.299C259.579 419.314 259.243 419.321 259.102 419.321H258.836L258.815 419.183C258.815 419.133 258.826 419.062 258.847 418.97Z" fill="#057AFF"/>
<path d="M277.3 411.602L277.311 411.294L277.3 410.052L277.311 407.705C277.311 407.054 277.24 406.64 277.098 406.463C276.957 406.286 276.543 406.105 275.856 405.921C275.807 405.907 275.729 405.886 275.623 405.858V405.741C275.623 405.67 275.63 405.592 275.644 405.507C276.607 405.408 277.435 405.242 278.128 405.008L278.67 404.998C278.698 405.479 278.712 406.017 278.712 406.611L278.67 410.699L278.744 415.307L278.712 417.76C278.712 418.262 278.748 418.546 278.819 418.609C278.96 418.751 279.272 418.825 279.753 418.832C279.852 418.832 279.986 418.839 280.156 418.854V419.045C280.156 419.094 280.153 419.147 280.146 419.204C279.926 419.253 279.7 419.299 279.466 419.342L277.927 419.639C277.7 419.682 277.52 419.703 277.385 419.703V418.684C277.265 418.719 277.077 418.79 276.822 418.896C275.718 419.363 274.702 419.597 273.775 419.597C273.216 419.597 272.646 419.416 272.066 419.055C271.485 418.687 271.039 418.178 270.728 417.526C270.416 416.875 270.261 416.21 270.261 415.53C270.261 414.921 270.363 414.341 270.569 413.789C270.774 413.23 271.043 412.766 271.376 412.398C271.588 412.157 271.889 411.92 272.278 411.687C272.667 411.446 272.989 411.294 273.244 411.23C273.874 411.067 274.295 410.986 274.508 410.986C275.463 410.986 276.249 411.127 276.865 411.411C277.056 411.503 277.201 411.566 277.3 411.602ZM277.311 418.163C277.339 417.689 277.353 416.712 277.353 415.233C277.353 413.98 277.293 413.191 277.173 412.865C277.06 412.533 276.769 412.221 276.302 411.931C275.835 411.634 275.311 411.485 274.731 411.485C273.917 411.485 273.227 411.8 272.66 412.43C272.094 413.06 271.811 413.991 271.811 415.222C271.811 416.305 272.115 417.169 272.724 417.813C273.34 418.457 274.104 418.779 275.017 418.779C275.541 418.779 276.019 418.708 276.451 418.567C276.883 418.425 277.169 418.291 277.311 418.163Z" fill="#057AFF"/>
<path d="M171.404 438.707V450.568H170.014L163.551 441.255H163.435V450.568H161.999V438.707H163.388L169.875 448.043H169.991V438.707H171.404Z" fill="white"/>
<path d="M177.706 450.753C176.903 450.753 176.199 450.562 175.592 450.18C174.99 449.798 174.519 449.263 174.179 448.576C173.843 447.888 173.675 447.085 173.675 446.166C173.675 445.24 173.843 444.431 174.179 443.74C174.519 443.049 174.99 442.512 175.592 442.13C176.199 441.748 176.903 441.556 177.706 441.556C178.509 441.556 179.212 441.748 179.814 442.13C180.421 442.512 180.892 443.049 181.228 443.74C181.567 444.431 181.737 445.24 181.737 446.166C181.737 447.085 181.567 447.888 181.228 448.576C180.892 449.263 180.421 449.798 179.814 450.18C179.212 450.562 178.509 450.753 177.706 450.753ZM177.706 449.525C178.316 449.525 178.818 449.369 179.212 449.056C179.606 448.744 179.897 448.332 180.087 447.823C180.276 447.313 180.37 446.761 180.37 446.166C180.37 445.572 180.276 445.018 180.087 444.504C179.897 443.991 179.606 443.576 179.212 443.259C178.818 442.943 178.316 442.784 177.706 442.784C177.096 442.784 176.594 442.943 176.201 443.259C175.807 443.576 175.515 443.991 175.326 444.504C175.137 445.018 175.042 445.572 175.042 446.166C175.042 446.761 175.137 447.313 175.326 447.823C175.515 448.332 175.807 448.744 176.201 449.056C176.594 449.369 177.096 449.525 177.706 449.525Z" fill="white"/>
<path d="M187.183 450.753C186.441 450.753 185.787 450.566 185.219 450.191C184.652 449.813 184.208 449.28 183.887 448.593C183.567 447.902 183.407 447.085 183.407 446.143C183.407 445.209 183.567 444.398 183.887 443.711C184.208 443.024 184.654 442.493 185.225 442.118C185.796 441.744 186.457 441.556 187.206 441.556C187.785 441.556 188.242 441.653 188.578 441.846C188.918 442.035 189.177 442.251 189.354 442.495C189.536 442.734 189.677 442.931 189.777 443.085H189.893V438.707H191.26V450.568H189.939V449.201H189.777C189.677 449.363 189.534 449.568 189.349 449.815C189.163 450.058 188.899 450.276 188.555 450.469C188.211 450.659 187.754 450.753 187.183 450.753ZM187.368 449.525C187.916 449.525 188.379 449.383 188.758 449.097C189.136 448.807 189.424 448.408 189.621 447.898C189.818 447.385 189.916 446.792 189.916 446.12C189.916 445.456 189.82 444.875 189.627 444.377C189.433 443.875 189.148 443.485 188.769 443.207C188.391 442.925 187.924 442.784 187.368 442.784C186.789 442.784 186.306 442.933 185.92 443.23C185.538 443.524 185.25 443.923 185.057 444.429C184.868 444.931 184.773 445.495 184.773 446.12C184.773 446.753 184.87 447.329 185.063 447.846C185.26 448.359 185.549 448.769 185.932 449.074C186.318 449.375 186.796 449.525 187.368 449.525Z" fill="white"/>
<path d="M197.682 450.753C196.825 450.753 196.086 450.564 195.464 450.186C194.847 449.803 194.37 449.271 194.034 448.587C193.702 447.9 193.536 447.101 193.536 446.19C193.536 445.278 193.702 444.475 194.034 443.78C194.37 443.082 194.837 442.537 195.435 442.147C196.038 441.753 196.74 441.556 197.543 441.556C198.007 441.556 198.464 441.634 198.916 441.788C199.368 441.943 199.779 442.194 200.15 442.541C200.52 442.885 200.816 443.34 201.036 443.908C201.256 444.475 201.366 445.174 201.366 446.004V446.583H194.509V445.402H199.976C199.976 444.9 199.875 444.452 199.675 444.058C199.478 443.665 199.196 443.354 198.829 443.126C198.466 442.898 198.038 442.784 197.543 442.784C196.999 442.784 196.528 442.919 196.13 443.19C195.736 443.456 195.433 443.804 195.221 444.232C195.009 444.661 194.903 445.12 194.903 445.61V446.398C194.903 447.07 195.018 447.639 195.25 448.107C195.486 448.57 195.812 448.923 196.229 449.166C196.646 449.406 197.13 449.525 197.682 449.525C198.041 449.525 198.366 449.475 198.655 449.375C198.949 449.271 199.202 449.116 199.414 448.912C199.626 448.703 199.79 448.444 199.906 448.136L201.227 448.506C201.088 448.954 200.854 449.348 200.526 449.688C200.198 450.024 199.792 450.286 199.31 450.475C198.827 450.661 198.285 450.753 197.682 450.753Z" fill="white"/>
<path d="M205.483 448.946L205.391 449.572C205.325 450.012 205.225 450.483 205.09 450.985C204.958 451.487 204.821 451.96 204.678 452.404C204.536 452.848 204.418 453.201 204.325 453.464H203.283C203.333 453.217 203.399 452.89 203.48 452.485C203.561 452.079 203.642 451.626 203.723 451.124C203.808 450.626 203.877 450.116 203.931 449.595L204.001 448.946H205.483Z" fill="white"/>
<path d="M217.328 438.707H218.765V447.186C218.765 447.942 218.626 448.585 218.348 449.114C218.07 449.643 217.678 450.045 217.172 450.319C216.666 450.593 216.07 450.73 215.382 450.73C214.734 450.73 214.157 450.612 213.651 450.377C213.145 450.137 212.747 449.798 212.458 449.358C212.168 448.917 212.023 448.394 212.023 447.788H213.437C213.437 448.124 213.52 448.417 213.686 448.668C213.855 448.915 214.087 449.108 214.381 449.247C214.674 449.386 215.008 449.456 215.382 449.456C215.796 449.456 216.147 449.369 216.436 449.195C216.726 449.022 216.946 448.767 217.097 448.431C217.251 448.091 217.328 447.676 217.328 447.186V438.707Z" fill="white"/>
<path d="M228.129 441.672C228.06 441.085 227.778 440.63 227.284 440.306C226.79 439.981 226.183 439.819 225.465 439.819C224.94 439.819 224.481 439.904 224.087 440.074C223.697 440.244 223.392 440.477 223.172 440.775C222.956 441.072 222.848 441.41 222.848 441.788C222.848 442.105 222.923 442.377 223.073 442.605C223.228 442.829 223.425 443.016 223.664 443.166C223.904 443.313 224.155 443.435 224.417 443.531C224.68 443.624 224.921 443.699 225.141 443.757L226.346 444.082C226.654 444.163 226.998 444.275 227.376 444.417C227.759 444.56 228.124 444.755 228.471 445.002C228.822 445.246 229.112 445.558 229.34 445.941C229.568 446.323 229.681 446.792 229.681 447.348C229.681 447.989 229.514 448.568 229.178 449.085C228.846 449.603 228.359 450.014 227.718 450.319C227.081 450.624 226.307 450.776 225.396 450.776C224.546 450.776 223.811 450.639 223.189 450.365C222.572 450.091 222.085 449.709 221.73 449.219C221.378 448.728 221.18 448.159 221.133 447.51H222.616C222.655 447.958 222.805 448.329 223.068 448.622C223.334 448.912 223.67 449.128 224.075 449.271C224.485 449.41 224.925 449.479 225.396 449.479C225.944 449.479 226.436 449.39 226.873 449.213C227.309 449.031 227.654 448.78 227.909 448.46C228.164 448.136 228.292 447.757 228.292 447.325C228.292 446.931 228.181 446.61 227.961 446.363C227.741 446.116 227.452 445.915 227.093 445.761C226.734 445.607 226.346 445.471 225.929 445.356L224.469 444.939C223.543 444.672 222.809 444.292 222.268 443.798C221.728 443.304 221.458 442.657 221.458 441.858C221.458 441.194 221.637 440.614 221.996 440.12C222.359 439.622 222.846 439.236 223.456 438.962C224.07 438.684 224.755 438.545 225.512 438.545C226.276 438.545 226.956 438.682 227.55 438.956C228.145 439.226 228.616 439.597 228.963 440.068C229.315 440.539 229.5 441.074 229.519 441.672H228.129Z" fill="white"/>
<path d="M233.896 448.946L233.804 449.572C233.738 450.012 233.637 450.483 233.502 450.985C233.371 451.487 233.234 451.96 233.091 452.404C232.948 452.848 232.831 453.201 232.738 453.464H231.695C231.746 453.217 231.811 452.89 231.892 452.485C231.973 452.079 232.055 451.626 232.136 451.124C232.221 450.626 232.29 450.116 232.344 449.595L232.414 448.946H233.896Z" fill="white"/>
<path d="M245.741 438.707H247.177V447.186C247.177 447.942 247.038 448.585 246.76 449.114C246.482 449.643 246.091 450.045 245.585 450.319C245.079 450.593 244.482 450.73 243.795 450.73C243.147 450.73 242.569 450.612 242.064 450.377C241.558 450.137 241.16 449.798 240.871 449.358C240.581 448.917 240.436 448.394 240.436 447.788H241.849C241.849 448.124 241.932 448.417 242.098 448.668C242.268 448.915 242.5 449.108 242.793 449.247C243.087 449.386 243.421 449.456 243.795 449.456C244.208 449.456 244.56 449.369 244.849 449.195C245.139 449.022 245.359 448.767 245.509 448.431C245.664 448.091 245.741 447.676 245.741 447.186V438.707Z" fill="white"/>
<path d="M252.488 450.776C251.924 450.776 251.413 450.67 250.953 450.458C250.494 450.242 250.129 449.931 249.859 449.525C249.589 449.116 249.453 448.622 249.453 448.043C249.453 447.533 249.554 447.12 249.755 446.803C249.955 446.483 250.224 446.232 250.56 446.051C250.895 445.869 251.266 445.734 251.672 445.645C252.081 445.553 252.492 445.479 252.905 445.425C253.446 445.356 253.884 445.304 254.22 445.269C254.56 445.23 254.807 445.166 254.961 445.078C255.119 444.989 255.199 444.834 255.199 444.614V444.568C255.199 443.997 255.042 443.553 254.729 443.236C254.421 442.919 253.951 442.761 253.322 442.761C252.67 442.761 252.158 442.904 251.787 443.19C251.417 443.475 251.156 443.78 251.006 444.105L249.708 443.641C249.94 443.101 250.249 442.68 250.635 442.379C251.025 442.074 251.45 441.861 251.909 441.742C252.372 441.618 252.828 441.556 253.276 441.556C253.561 441.556 253.89 441.591 254.26 441.661C254.635 441.726 254.996 441.863 255.343 442.072C255.695 442.28 255.986 442.595 256.218 443.016C256.449 443.437 256.565 444 256.565 444.707V450.568H255.199V449.363H255.129C255.036 449.556 254.882 449.763 254.666 449.983C254.449 450.203 254.162 450.39 253.803 450.545C253.444 450.699 253.005 450.776 252.488 450.776ZM252.697 449.549C253.237 449.549 253.693 449.442 254.063 449.23C254.438 449.018 254.72 448.744 254.909 448.408C255.102 448.072 255.199 447.719 255.199 447.348V446.097C255.141 446.166 255.013 446.23 254.816 446.288C254.623 446.342 254.399 446.39 254.144 446.433C253.893 446.471 253.648 446.506 253.409 446.537C253.173 446.564 252.982 446.587 252.836 446.607C252.48 446.653 252.148 446.728 251.839 446.832C251.534 446.933 251.287 447.085 251.098 447.29C250.913 447.491 250.82 447.765 250.82 448.112C250.82 448.587 250.996 448.946 251.347 449.19C251.702 449.429 252.152 449.549 252.697 449.549Z" fill="white"/>
<path d="M266.015 441.672L262.726 450.568H261.336L258.046 441.672H259.529L261.985 448.761H262.077L264.533 441.672H266.015Z" fill="white"/>
<path d="M270.166 450.776C269.603 450.776 269.091 450.67 268.632 450.458C268.172 450.242 267.807 449.931 267.537 449.525C267.267 449.116 267.132 448.622 267.132 448.043C267.132 447.533 267.232 447.12 267.433 446.803C267.634 446.483 267.902 446.232 268.238 446.051C268.574 445.869 268.944 445.734 269.35 445.645C269.759 445.553 270.17 445.479 270.583 445.425C271.124 445.356 271.562 445.304 271.898 445.269C272.238 445.23 272.485 445.166 272.639 445.078C272.798 444.989 272.877 444.834 272.877 444.614V444.568C272.877 443.997 272.72 443.553 272.408 443.236C272.099 442.919 271.63 442.761 271 442.761C270.348 442.761 269.836 442.904 269.466 443.19C269.095 443.475 268.834 443.78 268.684 444.105L267.387 443.641C267.618 443.101 267.927 442.68 268.313 442.379C268.703 442.074 269.128 441.861 269.587 441.742C270.051 441.618 270.506 441.556 270.954 441.556C271.24 441.556 271.568 441.591 271.939 441.661C272.313 441.726 272.674 441.863 273.022 442.072C273.373 442.28 273.664 442.595 273.896 443.016C274.128 443.437 274.244 444 274.244 444.707V450.568H272.877V449.363H272.807C272.715 449.556 272.56 449.763 272.344 449.983C272.128 450.203 271.84 450.39 271.481 450.545C271.122 450.699 270.684 450.776 270.166 450.776ZM270.375 449.549C270.915 449.549 271.371 449.442 271.742 449.23C272.116 449.018 272.398 448.744 272.587 448.408C272.78 448.072 272.877 447.719 272.877 447.348V446.097C272.819 446.166 272.691 446.23 272.495 446.288C272.302 446.342 272.078 446.39 271.823 446.433C271.572 446.471 271.327 446.506 271.087 446.537C270.852 446.564 270.661 446.587 270.514 446.607C270.159 446.653 269.827 446.728 269.518 446.832C269.213 446.933 268.966 447.085 268.776 447.29C268.591 447.491 268.499 447.765 268.499 448.112C268.499 448.587 268.674 448.946 269.026 449.19C269.381 449.429 269.831 449.549 270.375 449.549Z" fill="white"/>
<path d="M278.777 448.946L278.684 449.572C278.619 450.012 278.518 450.483 278.383 450.985C278.252 451.487 278.115 451.96 277.972 452.404C277.829 452.848 277.711 453.201 277.619 453.464H276.576C276.626 453.217 276.692 452.89 276.773 452.485C276.854 452.079 276.935 451.626 277.016 451.124C277.101 450.626 277.171 450.116 277.225 449.595L277.294 448.946H278.777Z" fill="white"/>
<path d="M286.081 450.568V438.707H290.089C291.019 438.707 291.78 438.875 292.371 439.211C292.965 439.543 293.405 439.993 293.691 440.56C293.977 441.128 294.12 441.761 294.12 442.46C294.12 443.159 293.977 443.794 293.691 444.365C293.409 444.937 292.973 445.392 292.382 445.732C291.792 446.068 291.035 446.236 290.112 446.236H287.24V444.962H290.066C290.703 444.962 291.214 444.852 291.6 444.632C291.987 444.412 292.267 444.114 292.44 443.74C292.618 443.361 292.707 442.935 292.707 442.46C292.707 441.985 292.618 441.56 292.44 441.186C292.267 440.811 291.985 440.518 291.595 440.306C291.205 440.089 290.687 439.981 290.043 439.981H287.518V450.568H286.081Z" fill="white"/>
<path d="M296.433 450.568V438.707H297.87V443.989H304.194V438.707H305.63V450.568H304.194V445.263H297.87V450.568H296.433Z" fill="white"/>
<path d="M308.506 450.568V438.707H312.513C313.444 438.707 314.204 438.875 314.795 439.211C315.39 439.543 315.83 439.993 316.116 440.56C316.401 441.128 316.544 441.761 316.544 442.46C316.544 443.159 316.401 443.794 316.116 444.365C315.834 444.937 315.397 445.392 314.807 445.732C314.216 446.068 313.459 446.236 312.536 446.236H309.664V444.962H312.49C313.127 444.962 313.639 444.852 314.025 444.632C314.411 444.412 314.691 444.114 314.865 443.74C315.042 443.361 315.131 442.935 315.131 442.46C315.131 441.985 315.042 441.56 314.865 441.186C314.691 440.811 314.409 440.518 314.019 440.306C313.629 440.089 313.112 439.981 312.467 439.981H309.942V450.568H308.506Z" fill="white"/>
<path opacity="0.34" fill-rule="evenodd" clip-rule="evenodd" d="M272.523 277.523C333.385 216.661 333.385 117.984 272.523 57.1223C211.661 -3.73965 112.984 -3.73964 52.1224 57.1224C-8.73961 117.984 -8.73961 216.661 52.1224 277.523C112.984 338.385 211.661 338.385 272.523 277.523ZM273.484 278.484C334.877 217.091 334.877 117.554 273.484 56.1614C212.091 -5.23138 112.554 -5.23139 51.1614 56.1614C-10.2314 117.554 -10.2314 217.091 51.1614 278.484C112.554 339.877 212.091 339.877 273.484 278.484Z" fill="#6A7077"/>
<path d="M109.276 146.299L109.287 146.034C109.443 145.956 109.701 145.889 110.062 145.832C110.43 145.769 110.681 145.708 110.816 145.652C110.957 145.588 111.074 145.507 111.166 145.408C111.23 145.096 111.262 144.533 111.262 143.719L111.113 135.459L111.145 134.089C111.145 133.806 111.092 133.611 110.986 133.505C110.887 133.399 110.621 133.303 110.189 133.219C109.758 133.127 109.503 133.052 109.425 132.996C109.347 132.939 109.308 132.879 109.308 132.815C109.308 132.78 109.319 132.734 109.34 132.677C109.432 132.62 109.528 132.592 109.627 132.592C109.733 132.592 109.949 132.599 110.274 132.613H110.572C110.671 132.613 110.95 132.606 111.411 132.592H112.886L115.934 132.539L119.161 132.412H119.448L119.905 132.401C120.032 132.401 120.145 132.436 120.244 132.507C120.287 132.62 120.312 132.702 120.319 132.751L120.308 133.176L120.404 135.077C120.404 135.154 120.397 135.254 120.382 135.374C120.269 135.423 120.166 135.448 120.074 135.448C120.011 135.448 119.961 135.427 119.926 135.385C119.869 135.307 119.834 135.158 119.82 134.939C119.791 134.634 119.682 134.241 119.491 133.76C119.398 133.534 119.246 133.378 119.034 133.293C118.609 133.13 117.894 133.049 116.889 133.049C116.415 133.049 115.973 133.063 115.562 133.091C115.151 133.112 114.9 133.123 114.808 133.123L113.98 133.112C113.64 133.112 113.361 133.162 113.141 133.261C112.993 133.325 112.918 133.477 112.918 133.718V133.877C112.939 134.238 112.95 134.638 112.95 135.077L112.918 137.965C112.918 138.248 112.939 138.517 112.982 138.772L113.29 138.793L113.884 138.761H115.912C116.726 138.761 117.293 138.704 117.611 138.591C117.824 138.513 117.983 138.396 118.089 138.241C118.124 138.191 118.213 137.912 118.354 137.402L118.492 136.521C118.577 136.478 118.641 136.457 118.684 136.457C118.719 136.457 118.776 136.475 118.853 136.51C118.882 136.673 118.899 136.921 118.907 137.253L119.034 141.161C118.914 141.21 118.822 141.235 118.758 141.235L118.641 141.214C118.528 140.506 118.351 139.95 118.11 139.547C118.025 139.405 117.93 139.324 117.824 139.302C117.64 139.26 116.797 139.239 115.297 139.239C114.829 139.239 114.507 139.242 114.33 139.249C113.906 139.271 113.651 139.281 113.566 139.281H113.46C113.247 139.281 113.095 139.31 113.003 139.366C112.975 139.451 112.961 139.511 112.961 139.547V140.279C112.961 140.364 112.964 140.718 112.971 141.341L112.95 144.855C112.95 144.955 112.978 145.078 113.035 145.227C113.184 145.347 113.453 145.429 113.842 145.471C114.238 145.507 114.61 145.599 114.957 145.747C115.155 145.839 115.254 145.942 115.254 146.055C115.254 146.105 115.24 146.151 115.212 146.193C115.183 146.236 115.134 146.268 115.063 146.289C114.483 146.168 113.679 146.108 112.653 146.108C112.108 146.108 111.531 146.158 110.922 146.257C110.504 146.321 110.027 146.353 109.489 146.353L109.276 146.299Z" fill="#057AFF"/>
<path d="M121.019 146.172L120.977 146.034C120.977 145.984 121.009 145.91 121.073 145.811L121.699 145.684L122.58 145.524C122.651 145.489 122.701 145.439 122.729 145.376C122.771 145.284 122.793 145.011 122.793 144.558C122.793 142.151 122.778 140.764 122.75 140.396C122.722 140.021 122.658 139.784 122.559 139.685C122.46 139.586 122.205 139.508 121.795 139.451C121.554 139.416 121.363 139.37 121.221 139.313L121.264 138.995C122.007 138.69 122.506 138.428 122.761 138.209C123.115 137.89 123.415 137.473 123.663 136.956L124.024 136.967C124.067 137.32 124.088 138.106 124.088 139.324L124.077 139.504C124.077 139.547 124.084 139.614 124.099 139.706C124.368 139.217 124.704 138.768 125.107 138.357L125.351 138.113C125.451 138 125.546 137.912 125.638 137.848C126.134 137.551 126.502 137.402 126.742 137.402C127.054 137.402 127.309 137.508 127.507 137.72C127.705 137.926 127.804 138.181 127.804 138.485C127.804 138.726 127.733 138.913 127.592 139.048C127.401 139.225 127.181 139.313 126.933 139.313C126.82 139.313 126.597 139.253 126.265 139.133C125.932 139.012 125.712 138.952 125.606 138.952C125.408 138.952 125.27 138.984 125.192 139.048C124.994 139.203 124.753 139.522 124.47 140.003C124.251 140.364 124.141 140.697 124.141 141.001L124.194 142.753L124.215 144.855C124.237 145.096 124.265 145.252 124.3 145.323C124.329 145.372 124.399 145.432 124.513 145.503C125.277 145.567 125.73 145.613 125.872 145.641C125.971 145.648 126.045 145.655 126.095 145.662C126.399 145.669 126.611 145.712 126.732 145.79C126.795 145.825 126.827 145.878 126.827 145.949C126.827 145.992 126.799 146.048 126.742 146.119L125.564 146.108L125.118 146.098L124.47 146.108H123.387L122.803 146.14L121.019 146.172Z" fill="#057AFF"/>
<path d="M128.622 141.872C128.622 141.391 128.721 140.877 128.919 140.332C129.124 139.78 129.432 139.288 129.843 138.856C130.253 138.418 130.689 138.092 131.149 137.88C131.793 137.582 132.578 137.434 133.506 137.434C134.829 137.434 135.934 137.887 136.818 138.793C137.71 139.699 138.156 140.789 138.156 142.063C138.156 143.196 137.689 144.208 136.755 145.1C135.827 145.984 134.652 146.427 133.23 146.427C132.352 146.427 131.524 146.197 130.745 145.737C130.165 145.39 129.666 144.877 129.248 144.197C128.83 143.518 128.622 142.743 128.622 141.872ZM133.315 146.013C133.853 146.013 134.369 145.868 134.865 145.577C135.367 145.287 135.767 144.824 136.065 144.187C136.362 143.542 136.511 142.799 136.511 141.957C136.511 141.405 136.394 140.764 136.16 140.035C135.934 139.306 135.58 138.761 135.098 138.4C134.624 138.032 134.065 137.848 133.421 137.848C132.954 137.848 132.476 137.958 131.987 138.177C131.506 138.396 131.096 138.818 130.756 139.44C130.423 140.063 130.257 140.948 130.257 142.095C130.257 143.383 130.547 144.36 131.127 145.025C131.715 145.684 132.444 146.013 133.315 146.013Z" fill="#057AFF"/>
<path d="M139.356 145.8C139.533 145.751 139.738 145.708 139.972 145.673C140.418 145.609 140.683 145.535 140.768 145.45C140.86 145.365 140.906 145.17 140.906 144.866L140.927 144.484C140.935 144.342 140.938 144.162 140.938 143.942L140.917 140.683C140.917 140.244 140.86 139.961 140.747 139.833C140.556 139.635 140.202 139.497 139.685 139.419V139.037C140.202 138.895 140.598 138.711 140.874 138.485C141.278 138.166 141.618 137.735 141.894 137.19L142.255 137.2C142.276 137.533 142.287 137.77 142.287 137.912V138.612L142.297 138.803C142.382 138.747 142.481 138.676 142.594 138.591C143.019 138.273 143.454 138.014 143.9 137.816C144.346 137.611 144.743 137.469 145.09 137.391C145.309 137.335 145.557 137.306 145.833 137.306C146.413 137.306 146.912 137.462 147.33 137.773C147.748 138.085 148.016 138.453 148.137 138.878C148.264 139.295 148.328 140.131 148.328 141.383V142.987C148.328 143.029 148.321 143.171 148.307 143.411C148.3 143.652 148.296 143.928 148.296 144.24C148.296 144.735 148.317 145.05 148.36 145.185C148.395 145.277 148.487 145.369 148.636 145.461C149.315 145.553 149.712 145.662 149.825 145.79V145.875C149.825 145.946 149.804 146.034 149.761 146.14H149.56L148.158 146.13L146.778 146.151C146.268 146.165 145.797 146.161 145.366 146.14L145.302 145.917C145.302 145.875 145.327 145.818 145.376 145.747C145.567 145.662 145.836 145.606 146.183 145.577C146.388 145.563 146.53 145.542 146.608 145.514C146.686 145.485 146.781 145.429 146.895 145.344C146.98 145.174 147.022 145.032 147.022 144.919C147.022 144.87 147.015 144.771 147.001 144.622C146.98 144.296 146.965 143.486 146.958 142.19V141.638L146.98 140.789C146.98 139.876 146.795 139.246 146.427 138.899C146.059 138.552 145.567 138.379 144.952 138.379C144.477 138.379 144.014 138.485 143.561 138.697C143.108 138.903 142.669 139.214 142.244 139.632C142.23 139.971 142.223 140.262 142.223 140.502L142.255 142.849C142.255 144.073 142.272 144.824 142.308 145.1C142.322 145.213 142.347 145.291 142.382 145.333C142.439 145.39 142.552 145.436 142.722 145.471C142.892 145.507 143.086 145.556 143.306 145.62C143.532 145.684 143.681 145.723 143.752 145.737C143.893 145.772 143.989 145.843 144.038 145.949L144.028 146.161H142.913L140.62 146.13C140.089 146.144 139.752 146.151 139.611 146.151H139.345L139.324 146.013C139.324 145.963 139.335 145.892 139.356 145.8Z" fill="#057AFF"/>
<path d="M153.095 135.65L153.424 135.661L153.467 136.669L153.446 137.975C153.58 137.982 153.665 137.986 153.7 137.986C153.884 137.986 154.235 137.972 154.752 137.943C155.084 137.922 155.403 137.912 155.707 137.912C155.849 137.912 156.061 137.915 156.344 137.922C156.358 138.064 156.365 138.177 156.365 138.262C156.365 138.354 156.344 138.499 156.302 138.697H156.121L154.476 138.75L153.658 138.772L153.467 138.793C153.41 138.97 153.382 139.175 153.382 139.409L153.414 141.001L153.393 143.804C153.393 144.54 153.488 145.029 153.679 145.27C153.863 145.517 154.139 145.641 154.507 145.641C154.691 145.641 155.038 145.585 155.548 145.471C155.704 145.436 155.912 145.319 156.174 145.121H156.27C156.334 145.121 156.383 145.142 156.419 145.185C156.461 145.22 156.482 145.27 156.482 145.333L156.472 145.408C156.167 145.74 155.817 145.984 155.421 146.14C155.031 146.289 154.511 146.363 153.86 146.363C153.4 146.363 153.017 146.257 152.713 146.045C152.416 145.832 152.225 145.581 152.14 145.291C152.055 145.001 152.012 144.367 152.012 143.39L152.055 141.001L152.044 139.855V139.43C152.044 139.232 152.037 139.033 152.023 138.835L151.842 138.825L150.972 138.856L150.887 138.867C150.809 138.867 150.749 138.849 150.706 138.814C150.671 138.779 150.653 138.736 150.653 138.687C150.653 138.602 150.678 138.534 150.728 138.485C150.784 138.428 150.947 138.343 151.216 138.23C151.4 138.152 151.612 138.007 151.853 137.795C152.101 137.575 152.31 137.335 152.479 137.073C152.564 136.931 152.685 136.662 152.84 136.266C152.954 135.976 153.039 135.77 153.095 135.65Z" fill="#057AFF"/>
<path d="M162.375 145.97C162.446 145.907 162.506 145.868 162.556 145.854C162.676 145.818 162.881 145.79 163.171 145.769C163.858 145.726 164.283 145.662 164.445 145.577C164.545 145.436 164.594 145.238 164.594 144.983L164.584 144.24L164.594 141.543L164.573 140.269L164.584 137.604L164.53 134.578C164.523 133.856 164.477 133.449 164.392 133.357C164.265 133.222 163.886 133.144 163.256 133.123C162.987 133.116 162.75 133.095 162.545 133.059C162.453 133.01 162.407 132.946 162.407 132.868C162.407 132.812 162.425 132.744 162.46 132.666C162.524 132.631 162.58 132.613 162.63 132.613C162.729 132.613 162.849 132.617 162.991 132.624C163.408 132.659 163.84 132.677 164.286 132.677L165.072 132.656L166.941 132.698C167.875 132.698 168.604 132.688 169.128 132.666C169.652 132.645 170.006 132.635 170.19 132.635C170.352 132.635 170.756 132.649 171.4 132.677L172.908 132.666L173.088 132.698L173.969 132.666L174.076 132.72C174.111 132.776 174.136 132.836 174.15 132.9C174.15 132.999 174.132 133.151 174.097 133.357C174.069 133.562 174.054 133.689 174.054 133.739C174.054 134.475 174.079 135.098 174.129 135.608C174.122 135.65 174.1 135.678 174.065 135.692C173.987 135.692 173.916 135.682 173.853 135.661C173.775 135.526 173.669 135.289 173.534 134.949C173.407 134.609 173.212 134.217 172.95 133.771C172.773 133.473 172.635 133.296 172.536 133.24C172.437 133.183 172.232 133.155 171.92 133.155C171.857 133.155 171.535 133.148 170.954 133.134C170.798 133.127 170.646 133.123 170.498 133.123L167.472 133.187H167.206C166.817 133.187 166.583 133.236 166.505 133.335C166.385 133.505 166.325 134.004 166.325 134.832C166.325 134.917 166.342 135.767 166.378 137.381V138.856C166.456 138.878 166.541 138.888 166.633 138.888H166.813C166.934 138.888 167.111 138.892 167.344 138.899C167.712 138.913 167.96 138.92 168.087 138.92C168.172 138.92 168.247 138.917 168.31 138.91C169.075 138.881 170.059 138.867 171.262 138.867C171.637 138.803 171.857 138.729 171.92 138.644C172.026 138.517 172.104 138.184 172.154 137.646C172.21 137.108 172.331 136.804 172.515 136.733C172.607 136.733 172.692 136.751 172.77 136.786C172.784 136.843 172.791 136.896 172.791 136.945C172.791 136.995 172.784 137.076 172.77 137.19C172.734 137.451 172.717 138.273 172.717 139.653C172.717 140.021 172.734 140.431 172.77 140.884C172.812 141.337 172.833 141.582 172.833 141.617C172.833 141.681 172.823 141.766 172.802 141.872C172.745 141.9 172.699 141.914 172.664 141.914H172.589C172.476 141.716 172.366 141.408 172.26 140.991C172.076 140.276 171.881 139.83 171.676 139.653C171.478 139.469 171.152 139.377 170.699 139.377C170.6 139.377 170.42 139.384 170.158 139.398C169.896 139.405 169.507 139.409 168.99 139.409H168.3C167.316 139.409 166.672 139.43 166.367 139.472L166.357 139.823L166.367 141.776L166.357 143.008L166.367 144.208C166.374 144.93 166.42 145.347 166.505 145.461C166.626 145.616 166.888 145.694 167.291 145.694L167.939 145.684C167.995 145.684 168.215 145.691 168.597 145.705C168.986 145.712 169.464 145.715 170.03 145.715C171.396 145.715 172.306 145.659 172.759 145.546C173.212 145.425 173.584 145.216 173.874 144.919C174.171 144.622 174.543 143.981 174.989 142.997C175.123 142.707 175.258 142.562 175.392 142.562C175.456 142.562 175.527 142.59 175.605 142.647C175.399 143.348 175.283 143.808 175.254 144.027C175.176 144.523 175.13 145.029 175.116 145.546C175.116 145.779 175.06 145.974 174.946 146.13H174.713L171.729 146.161L170.391 146.151L167.206 146.193H165.911C165.748 146.193 165.596 146.197 165.454 146.204C164.18 146.261 163.242 146.289 162.64 146.289C162.534 146.289 162.46 146.271 162.418 146.236C162.382 146.2 162.364 146.147 162.364 146.076L162.375 145.97Z" fill="#057AFF"/>
<path d="M176.518 145.8C176.695 145.751 176.9 145.708 177.134 145.673C177.579 145.609 177.845 145.535 177.93 145.45C178.022 145.365 178.068 145.17 178.068 144.866L178.089 144.484C178.096 144.342 178.1 144.162 178.1 143.942L178.078 140.683C178.078 140.244 178.022 139.961 177.909 139.833C177.717 139.635 177.364 139.497 176.847 139.419V139.037C177.364 138.895 177.76 138.711 178.036 138.485C178.439 138.166 178.779 137.735 179.055 137.19L179.416 137.2C179.438 137.533 179.448 137.77 179.448 137.912V138.612L179.459 138.803C179.544 138.747 179.643 138.676 179.756 138.591C180.181 138.273 180.616 138.014 181.062 137.816C181.508 137.611 181.904 137.469 182.251 137.391C182.471 137.335 182.718 137.306 182.994 137.306C183.575 137.306 184.074 137.462 184.492 137.773C184.909 138.085 185.178 138.453 185.298 138.878C185.426 139.295 185.49 140.131 185.49 141.383V142.987C185.49 143.029 185.483 143.171 185.468 143.411C185.461 143.652 185.458 143.928 185.458 144.24C185.458 144.735 185.479 145.05 185.521 145.185C185.557 145.277 185.649 145.369 185.798 145.461C186.477 145.553 186.873 145.662 186.987 145.79V145.875C186.987 145.946 186.965 146.034 186.923 146.14H186.721L185.32 146.13L183.939 146.151C183.43 146.165 182.959 146.161 182.527 146.14L182.464 145.917C182.464 145.875 182.488 145.818 182.538 145.747C182.729 145.662 182.998 145.606 183.345 145.577C183.55 145.563 183.692 145.542 183.77 145.514C183.847 145.485 183.943 145.429 184.056 145.344C184.141 145.174 184.184 145.032 184.184 144.919C184.184 144.87 184.177 144.771 184.162 144.622C184.141 144.296 184.127 143.486 184.12 142.19V141.638L184.141 140.789C184.141 139.876 183.957 139.246 183.589 138.899C183.221 138.552 182.729 138.379 182.113 138.379C181.639 138.379 181.175 138.485 180.722 138.697C180.269 138.903 179.83 139.214 179.406 139.632C179.392 139.971 179.384 140.262 179.384 140.502L179.416 142.849C179.416 144.073 179.434 144.824 179.469 145.1C179.484 145.213 179.508 145.291 179.544 145.333C179.6 145.39 179.714 145.436 179.883 145.471C180.053 145.507 180.248 145.556 180.467 145.62C180.694 145.684 180.843 145.723 180.913 145.737C181.055 145.772 181.151 145.843 181.2 145.949L181.189 146.161H180.075L177.781 146.13C177.25 146.144 176.914 146.151 176.773 146.151H176.507L176.486 146.013C176.486 145.963 176.496 145.892 176.518 145.8Z" fill="#057AFF"/>
<path d="M194.971 138.432L194.982 138.124L194.971 136.882L194.982 134.535C194.982 133.884 194.911 133.47 194.769 133.293C194.628 133.116 194.214 132.935 193.527 132.751C193.478 132.737 193.4 132.716 193.294 132.688V132.571C193.294 132.5 193.301 132.422 193.315 132.337C194.277 132.238 195.106 132.072 195.799 131.838L196.341 131.828C196.369 132.309 196.383 132.847 196.383 133.442L196.341 137.529L196.415 142.137L196.383 144.59C196.383 145.093 196.419 145.376 196.489 145.439C196.631 145.581 196.942 145.655 197.424 145.662C197.523 145.662 197.657 145.669 197.827 145.684V145.875C197.827 145.924 197.824 145.977 197.817 146.034C197.597 146.084 197.371 146.13 197.137 146.172L195.598 146.469C195.371 146.512 195.191 146.533 195.056 146.533V145.514C194.936 145.549 194.748 145.62 194.493 145.726C193.389 146.193 192.373 146.427 191.446 146.427C190.887 146.427 190.317 146.246 189.737 145.885C189.156 145.517 188.71 145.008 188.399 144.356C188.087 143.705 187.932 143.04 187.932 142.36C187.932 141.752 188.034 141.171 188.24 140.619C188.445 140.06 188.714 139.596 189.046 139.228C189.259 138.987 189.56 138.75 189.949 138.517C190.338 138.276 190.66 138.124 190.915 138.06C191.545 137.897 191.966 137.816 192.179 137.816C193.134 137.816 193.92 137.958 194.536 138.241C194.727 138.333 194.872 138.396 194.971 138.432ZM194.982 144.993C195.01 144.519 195.024 143.542 195.024 142.063C195.024 140.81 194.964 140.021 194.844 139.695C194.73 139.363 194.44 139.051 193.973 138.761C193.506 138.464 192.982 138.315 192.402 138.315C191.588 138.315 190.897 138.63 190.331 139.26C189.765 139.89 189.482 140.821 189.482 142.052C189.482 143.135 189.786 143.999 190.395 144.643C191.011 145.287 191.775 145.609 192.688 145.609C193.212 145.609 193.69 145.539 194.122 145.397C194.553 145.255 194.84 145.121 194.982 144.993Z" fill="#057AFF"/>
<path d="M70.2466 177.398V165.538H71.6829V170.819H78.0071V165.538H79.4434V177.398H78.0071V172.094H71.6829V177.398H70.2466Z" fill="white"/>
<path d="M81.6702 166.812V165.538H90.5658V166.812H86.8361V177.398H85.3998V166.812H81.6702Z" fill="white"/>
<path d="M92.7825 165.538H94.4967L98.5276 175.383H98.6666L102.697 165.538H104.412V177.398H103.068V168.387H102.952L99.2457 177.398H97.9484L94.2419 168.387H94.1261V177.398H92.7825V165.538Z" fill="white"/>
<path d="M107.291 177.398V165.538H108.728V176.124H114.241V177.398H107.291Z" fill="white"/>
<path d="M118.318 175.777L118.226 176.402C118.16 176.843 118.06 177.314 117.924 177.815C117.793 178.317 117.656 178.79 117.513 179.234C117.37 179.678 117.253 180.032 117.16 180.294H116.118C116.168 180.047 116.233 179.721 116.314 179.315C116.396 178.91 116.477 178.456 116.558 177.954C116.643 177.456 116.712 176.947 116.766 176.426L116.836 175.777H118.318Z" fill="white"/>
<path d="M135.167 169.244H133.731C133.646 168.831 133.497 168.468 133.285 168.155C133.076 167.843 132.821 167.58 132.52 167.368C132.223 167.152 131.893 166.989 131.53 166.881C131.167 166.773 130.789 166.719 130.395 166.719C129.677 166.719 129.026 166.901 128.443 167.263C127.864 167.626 127.403 168.161 127.059 168.868C126.719 169.574 126.549 170.441 126.549 171.468C126.549 172.495 126.719 173.362 127.059 174.068C127.403 174.775 127.864 175.31 128.443 175.673C129.026 176.036 129.677 176.217 130.395 176.217C130.789 176.217 131.167 176.163 131.53 176.055C131.893 175.947 132.223 175.787 132.52 175.574C132.821 175.358 133.076 175.093 133.285 174.781C133.497 174.464 133.646 174.101 133.731 173.692H135.167C135.059 174.298 134.862 174.841 134.576 175.319C134.291 175.798 133.935 176.205 133.511 176.541C133.086 176.873 132.609 177.126 132.08 177.3C131.555 177.474 130.993 177.561 130.395 177.561C129.383 177.561 128.484 177.314 127.696 176.819C126.908 176.325 126.289 175.622 125.837 174.711C125.385 173.8 125.159 172.719 125.159 171.468C125.159 170.217 125.385 169.136 125.837 168.225C126.289 167.314 126.908 166.611 127.696 166.117C128.484 165.623 129.383 165.375 130.395 165.375C130.993 165.375 131.555 165.462 132.08 165.636C132.609 165.81 133.086 166.065 133.511 166.401C133.935 166.733 134.291 167.138 134.576 167.617C134.862 168.092 135.059 168.634 135.167 169.244Z" fill="white"/>
<path d="M143.974 168.503C143.905 167.916 143.623 167.46 143.129 167.136C142.635 166.812 142.028 166.65 141.31 166.65C140.785 166.65 140.326 166.735 139.932 166.904C139.542 167.074 139.237 167.308 139.017 167.605C138.801 167.902 138.693 168.24 138.693 168.619C138.693 168.935 138.768 169.207 138.918 169.435C139.073 169.659 139.27 169.846 139.509 169.997C139.749 170.144 139.999 170.265 140.262 170.362C140.525 170.455 140.766 170.53 140.986 170.588L142.191 170.912C142.499 170.993 142.843 171.105 143.221 171.248C143.604 171.391 143.969 171.586 144.316 171.833C144.667 172.076 144.957 172.389 145.185 172.771C145.413 173.153 145.526 173.622 145.526 174.178C145.526 174.819 145.358 175.399 145.023 175.916C144.691 176.433 144.204 176.844 143.563 177.149C142.926 177.454 142.152 177.607 141.241 177.607C140.391 177.607 139.656 177.47 139.034 177.196C138.416 176.922 137.93 176.539 137.575 176.049C137.223 175.559 137.025 174.989 136.978 174.341H138.461C138.499 174.788 138.65 175.159 138.913 175.453C139.179 175.742 139.515 175.958 139.92 176.101C140.33 176.24 140.77 176.31 141.241 176.31C141.789 176.31 142.281 176.221 142.718 176.043C143.154 175.862 143.499 175.611 143.754 175.29C144.009 174.966 144.136 174.588 144.136 174.155C144.136 173.761 144.026 173.441 143.806 173.194C143.586 172.947 143.297 172.746 142.938 172.592C142.579 172.437 142.191 172.302 141.774 172.186L140.314 171.769C139.388 171.503 138.654 171.123 138.113 170.628C137.573 170.134 137.303 169.487 137.303 168.688C137.303 168.024 137.482 167.445 137.841 166.951C138.204 166.453 138.691 166.067 139.301 165.792C139.915 165.514 140.6 165.375 141.357 165.375C142.121 165.375 142.801 165.513 143.395 165.787C143.99 166.057 144.461 166.428 144.808 166.899C145.16 167.37 145.345 167.904 145.364 168.503H143.974Z" fill="white"/>
<path d="M154.374 168.503C154.305 167.916 154.023 167.46 153.529 167.136C153.035 166.812 152.428 166.65 151.71 166.65C151.185 166.65 150.726 166.735 150.332 166.904C149.942 167.074 149.637 167.308 149.417 167.605C149.201 167.902 149.092 168.24 149.092 168.619C149.092 168.935 149.168 169.207 149.318 169.435C149.473 169.659 149.67 169.846 149.909 169.997C150.148 170.144 150.399 170.265 150.662 170.362C150.925 170.455 151.166 170.53 151.386 170.588L152.591 170.912C152.899 170.993 153.243 171.105 153.621 171.248C154.004 171.391 154.368 171.586 154.716 171.833C155.067 172.076 155.357 172.389 155.585 172.771C155.812 173.153 155.926 173.622 155.926 174.178C155.926 174.819 155.758 175.399 155.423 175.916C155.09 176.433 154.604 176.844 153.963 177.149C153.326 177.454 152.552 177.607 151.641 177.607C150.791 177.607 150.056 177.47 149.434 177.196C148.816 176.922 148.33 176.539 147.975 176.049C147.623 175.559 147.425 174.989 147.378 174.341H148.861C148.899 174.788 149.05 175.159 149.313 175.453C149.579 175.742 149.915 175.958 150.32 176.101C150.73 176.24 151.17 176.31 151.641 176.31C152.189 176.31 152.681 176.221 153.118 176.043C153.554 175.862 153.899 175.611 154.154 175.29C154.409 174.966 154.536 174.588 154.536 174.155C154.536 173.761 154.426 173.441 154.206 173.194C153.986 172.947 153.697 172.746 153.338 172.592C152.979 172.437 152.591 172.302 152.174 172.186L150.714 171.769C149.787 171.503 149.054 171.123 148.513 170.628C147.973 170.134 147.703 169.487 147.703 168.688C147.703 168.024 147.882 167.445 148.241 166.951C148.604 166.453 149.091 166.067 149.701 165.792C150.314 165.514 151 165.375 151.757 165.375C152.521 165.375 153.201 165.513 153.795 165.787C154.39 166.057 154.861 166.428 155.208 166.899C155.56 167.37 155.745 167.904 155.764 168.503H154.374Z" fill="white"/>
<path d="M160.141 175.777L160.048 176.402C159.983 176.843 159.882 177.314 159.747 177.815C159.616 178.317 159.479 178.79 159.336 179.234C159.193 179.678 159.075 180.032 158.983 180.294H157.94C157.991 180.047 158.056 179.721 158.137 179.315C158.218 178.91 158.299 178.456 158.38 177.954C158.465 177.456 158.535 176.947 158.589 176.426L158.658 175.777H160.141Z" fill="white"/>
<path d="M171.986 165.538H173.422V174.016C173.422 174.773 173.283 175.416 173.005 175.945C172.727 176.474 172.335 176.875 171.83 177.149C171.324 177.424 170.727 177.561 170.04 177.561C169.391 177.561 168.814 177.443 168.308 177.207C167.803 176.968 167.405 176.628 167.115 176.188C166.826 175.748 166.681 175.225 166.681 174.619H168.094C168.094 174.955 168.177 175.248 168.343 175.499C168.513 175.746 168.745 175.939 169.038 176.078C169.332 176.217 169.666 176.287 170.04 176.287C170.453 176.287 170.805 176.2 171.094 176.026C171.384 175.852 171.604 175.597 171.754 175.261C171.909 174.922 171.986 174.507 171.986 174.016V165.538Z" fill="white"/>
<path d="M178.733 177.607C178.169 177.607 177.658 177.501 177.198 177.288C176.739 177.072 176.374 176.761 176.104 176.356C175.833 175.947 175.698 175.453 175.698 174.873C175.698 174.364 175.799 173.951 175.999 173.634C176.2 173.314 176.469 173.063 176.804 172.881C177.14 172.7 177.511 172.565 177.916 172.476C178.326 172.383 178.737 172.31 179.15 172.256C179.691 172.186 180.129 172.134 180.465 172.099C180.804 172.061 181.052 171.997 181.206 171.908C181.364 171.819 181.443 171.665 181.443 171.445V171.399C181.443 170.827 181.287 170.383 180.974 170.067C180.665 169.75 180.196 169.592 179.567 169.592C178.914 169.592 178.403 169.734 178.032 170.02C177.662 170.306 177.401 170.611 177.25 170.935L175.953 170.472C176.185 169.931 176.494 169.511 176.88 169.209C177.27 168.904 177.694 168.692 178.154 168.572C178.617 168.449 179.073 168.387 179.521 168.387C179.806 168.387 180.135 168.422 180.505 168.491C180.88 168.557 181.241 168.694 181.588 168.902C181.94 169.111 182.231 169.426 182.463 169.846C182.694 170.267 182.81 170.831 182.81 171.538V177.398H181.443V176.194H181.374C181.281 176.387 181.127 176.593 180.911 176.814C180.694 177.034 180.407 177.221 180.048 177.375C179.689 177.53 179.25 177.607 178.733 177.607ZM178.941 176.379C179.482 176.379 179.938 176.273 180.308 176.061C180.683 175.848 180.965 175.574 181.154 175.238C181.347 174.902 181.443 174.549 181.443 174.178V172.928C181.385 172.997 181.258 173.061 181.061 173.119C180.868 173.173 180.644 173.221 180.389 173.263C180.138 173.302 179.893 173.337 179.654 173.368C179.418 173.395 179.227 173.418 179.08 173.437C178.725 173.483 178.393 173.559 178.084 173.663C177.779 173.763 177.532 173.916 177.343 174.121C177.158 174.321 177.065 174.595 177.065 174.943C177.065 175.418 177.241 175.777 177.592 176.02C177.947 176.26 178.397 176.379 178.941 176.379Z" fill="white"/>
<path d="M192.26 168.503L188.971 177.398H187.581L184.291 168.503H185.774L188.229 175.592H188.322L190.778 168.503H192.26Z" fill="white"/>
<path d="M196.411 177.607C195.848 177.607 195.336 177.501 194.877 177.288C194.417 177.072 194.052 176.761 193.782 176.356C193.512 175.947 193.377 175.453 193.377 174.873C193.377 174.364 193.477 173.951 193.678 173.634C193.879 173.314 194.147 173.063 194.483 172.881C194.819 172.7 195.189 172.565 195.595 172.476C196.004 172.383 196.415 172.31 196.828 172.256C197.369 172.186 197.807 172.134 198.143 172.099C198.483 172.061 198.73 171.997 198.884 171.908C199.043 171.819 199.122 171.665 199.122 171.445V171.399C199.122 170.827 198.965 170.383 198.653 170.067C198.344 169.75 197.875 169.592 197.245 169.592C196.593 169.592 196.081 169.734 195.711 170.02C195.34 170.306 195.079 170.611 194.929 170.935L193.631 170.472C193.863 169.931 194.172 169.511 194.558 169.209C194.948 168.904 195.373 168.692 195.832 168.572C196.296 168.449 196.751 168.387 197.199 168.387C197.485 168.387 197.813 168.422 198.184 168.491C198.558 168.557 198.919 168.694 199.267 168.902C199.618 169.111 199.909 169.426 200.141 169.846C200.373 170.267 200.488 170.831 200.488 171.538V177.398H199.122V176.194H199.052C198.96 176.387 198.805 176.593 198.589 176.814C198.373 177.034 198.085 177.221 197.726 177.375C197.367 177.53 196.929 177.607 196.411 177.607ZM196.62 176.379C197.16 176.379 197.616 176.273 197.987 176.061C198.361 175.848 198.643 175.574 198.832 175.238C199.025 174.902 199.122 174.549 199.122 174.178V172.928C199.064 172.997 198.936 173.061 198.739 173.119C198.546 173.173 198.322 173.221 198.068 173.263C197.817 173.302 197.572 173.337 197.332 173.368C197.097 173.395 196.906 173.418 196.759 173.437C196.404 173.483 196.072 173.559 195.763 173.663C195.458 173.763 195.211 173.916 195.021 174.121C194.836 174.321 194.743 174.595 194.743 174.943C194.743 175.418 194.919 175.777 195.27 176.02C195.626 176.26 196.075 176.379 196.62 176.379Z" fill="white"/>
<path d="M209.655 168.503C209.585 167.916 209.304 167.46 208.809 167.136C208.315 166.812 207.709 166.65 206.991 166.65C206.466 166.65 206.006 166.735 205.612 166.904C205.223 167.074 204.917 167.308 204.697 167.605C204.481 167.902 204.373 168.24 204.373 168.619C204.373 168.935 204.448 169.207 204.599 169.435C204.753 169.659 204.95 169.846 205.19 169.997C205.429 170.144 205.68 170.265 205.943 170.362C206.205 170.455 206.446 170.53 206.667 170.588L207.871 170.912C208.18 170.993 208.524 171.105 208.902 171.248C209.284 171.391 209.649 171.586 209.997 171.833C210.348 172.076 210.637 172.389 210.865 172.771C211.093 173.153 211.207 173.622 211.207 174.178C211.207 174.819 211.039 175.399 210.703 175.916C210.371 176.433 209.885 176.844 209.244 177.149C208.607 177.454 207.833 177.607 206.921 177.607C206.072 177.607 205.336 177.47 204.715 177.196C204.097 176.922 203.611 176.539 203.255 176.049C202.904 175.559 202.705 174.989 202.659 174.341H204.141C204.18 174.788 204.331 175.159 204.593 175.453C204.86 175.742 205.195 175.958 205.601 176.101C206.01 176.24 206.45 176.31 206.921 176.31C207.47 176.31 207.962 176.221 208.398 176.043C208.834 175.862 209.18 175.611 209.435 175.29C209.69 174.966 209.817 174.588 209.817 174.155C209.817 173.761 209.707 173.441 209.487 173.194C209.267 172.947 208.977 172.746 208.618 172.592C208.259 172.437 207.871 172.302 207.454 172.186L205.995 171.769C205.068 171.503 204.334 171.123 203.794 170.628C203.253 170.134 202.983 169.487 202.983 168.688C202.983 168.024 203.163 167.445 203.522 166.951C203.885 166.453 204.371 166.067 204.981 165.792C205.595 165.514 206.28 165.375 207.037 165.375C207.802 165.375 208.481 165.513 209.076 165.787C209.67 166.057 210.141 166.428 210.489 166.899C210.84 167.37 211.026 167.904 211.045 168.503H209.655Z" fill="white"/>
<path d="M213.383 177.398V168.503H214.704V169.846H214.796C214.958 169.406 215.252 169.049 215.677 168.775C216.101 168.501 216.58 168.364 217.113 168.364C217.213 168.364 217.339 168.366 217.489 168.37C217.64 168.374 217.754 168.379 217.831 168.387V169.777C217.785 169.765 217.678 169.748 217.512 169.725C217.35 169.698 217.178 169.684 216.997 169.684C216.565 169.684 216.178 169.775 215.839 169.957C215.503 170.134 215.236 170.381 215.039 170.698C214.846 171.011 214.75 171.368 214.75 171.769V177.398H213.383Z" fill="white"/>
<path d="M219.451 177.398V168.503H220.818V177.398H219.451ZM220.146 167.02C219.88 167.02 219.65 166.93 219.457 166.748C219.268 166.567 219.173 166.348 219.173 166.094C219.173 165.839 219.268 165.621 219.457 165.439C219.65 165.258 219.88 165.167 220.146 165.167C220.412 165.167 220.64 165.258 220.829 165.439C221.022 165.621 221.119 165.839 221.119 166.094C221.119 166.348 221.022 166.567 220.829 166.748C220.64 166.93 220.412 167.02 220.146 167.02Z" fill="white"/>
<path d="M223.321 180.734V168.503H224.642V169.916H224.804C224.904 169.762 225.043 169.565 225.221 169.325C225.402 169.082 225.661 168.866 225.997 168.677C226.337 168.484 226.796 168.387 227.375 168.387C228.124 168.387 228.784 168.574 229.356 168.949C229.927 169.323 230.373 169.854 230.694 170.541C231.014 171.229 231.174 172.039 231.174 172.974C231.174 173.916 231.014 174.732 230.694 175.424C230.373 176.111 229.929 176.644 229.362 177.022C228.794 177.397 228.14 177.584 227.398 177.584C226.827 177.584 226.369 177.489 226.026 177.3C225.682 177.107 225.418 176.889 225.232 176.646C225.047 176.398 224.904 176.194 224.804 176.032H224.688V180.734H223.321ZM224.665 172.951C224.665 173.622 224.763 174.215 224.96 174.729C225.157 175.238 225.445 175.638 225.823 175.927C226.201 176.213 226.665 176.356 227.213 176.356C227.784 176.356 228.261 176.205 228.644 175.904C229.03 175.599 229.319 175.19 229.512 174.677C229.709 174.159 229.808 173.584 229.808 172.951C229.808 172.325 229.711 171.761 229.518 171.26C229.329 170.754 229.041 170.354 228.655 170.061C228.273 169.763 227.792 169.615 227.213 169.615C226.657 169.615 226.19 169.756 225.812 170.038C225.433 170.316 225.147 170.706 224.954 171.207C224.761 171.706 224.665 172.287 224.665 172.951Z" fill="white"/>
<path d="M237.128 168.503V169.661H232.518V168.503H237.128ZM233.862 166.372H235.228V174.85C235.228 175.236 235.284 175.526 235.396 175.719C235.512 175.908 235.659 176.036 235.836 176.101C236.018 176.163 236.209 176.194 236.41 176.194C236.56 176.194 236.684 176.186 236.78 176.171C236.877 176.151 236.954 176.136 237.012 176.124L237.29 177.352C237.197 177.387 237.068 177.422 236.902 177.456C236.736 177.495 236.526 177.514 236.271 177.514C235.885 177.514 235.506 177.431 235.136 177.265C234.769 177.099 234.464 176.846 234.221 176.507C233.981 176.167 233.862 175.738 233.862 175.221V166.372Z" fill="white"/>
<path d="M229.958 320.179C253.491 343.712 291.646 343.712 315.179 320.179C338.713 296.646 338.713 258.491 315.179 234.958C291.646 211.425 253.491 211.425 229.958 234.958C206.425 258.491 206.425 296.646 229.958 320.179Z" fill="#057AFF"/>
<path d="M70.4694 57.1221C70.4694 67.255 62.255 75.4694 52.1221 75.4694C41.9892 75.4694 33.7749 67.255 33.7749 57.1221C33.7749 46.9892 41.9892 38.7749 52.1221 38.7749C62.255 38.7749 70.4694 46.9892 70.4694 57.1221Z" fill="#057AFF"/>
<path fill-rule="evenodd" clip-rule="evenodd" d="M50.9569 56.4422V49.647H52.3159V56.4422H58.2375V57.8013H52.3159V64.5966H50.9569V57.8013H44.647V56.4422H50.9569Z" fill="white"/>
<path d="M582.833 156.333C582.833 166.466 574.618 174.68 564.485 174.68C554.353 174.68 546.138 166.466 546.138 156.333C546.138 146.2 554.353 137.986 564.485 137.986C574.618 137.986 582.833 146.2 582.833 156.333Z" fill="#057AFF"/>
<path fill-rule="evenodd" clip-rule="evenodd" d="M563.321 155.653V148.858H564.68V155.653H570.601V157.012H564.68V163.808H563.321V157.012H557.011V155.653H563.321Z" fill="white"/>
<path d="M210.452 577.64C210.452 587.773 202.237 595.987 192.105 595.987C181.972 595.987 173.757 587.773 173.757 577.64C173.757 567.507 181.972 559.292 192.105 559.292C202.237 559.292 210.452 567.507 210.452 577.64Z" fill="#057AFF"/>
<path fill-rule="evenodd" clip-rule="evenodd" d="M190.94 576.96V570.165H192.299V576.96H198.22V578.319H192.299V585.115H190.94V578.319H184.63V576.96H190.94Z" fill="white"/>
<path d="M249.726 261.32C249.825 261.263 249.914 261.235 249.992 261.235H250.236C250.285 261.235 250.37 261.232 250.491 261.225C251.036 261.175 251.358 261.125 251.457 261.076C251.704 260.941 251.917 260.708 252.094 260.375C252.462 259.653 252.876 258.63 253.336 257.307C253.555 256.677 253.694 256.294 253.75 256.16C253.927 255.735 254.097 255.289 254.26 254.822L255.258 252.03C255.414 251.591 255.789 250.586 256.383 249.014C256.532 248.618 256.712 248.087 256.925 247.422L257.233 247.4L257.604 247.411C257.909 248.013 258.178 248.66 258.411 249.354C258.539 249.722 258.747 250.271 259.038 251L260.652 255.364L261.512 257.731C261.965 259.076 262.262 259.904 262.403 260.216C262.545 260.52 262.676 260.722 262.796 260.821C262.832 260.849 262.963 260.892 263.189 260.948C263.423 261.005 263.586 261.048 263.678 261.076C264.003 261.168 264.23 261.246 264.357 261.309C264.385 261.387 264.4 261.447 264.4 261.49C264.4 261.525 264.389 261.578 264.368 261.649C264.141 261.656 263.982 261.66 263.89 261.66C263.529 261.66 262.892 261.649 261.979 261.628L260.917 261.596L259.632 261.617C259.547 261.617 259.459 261.614 259.367 261.607C259.282 261.593 259.208 261.586 259.144 261.586H258.91C258.832 261.578 258.762 261.557 258.698 261.522C258.698 261.423 258.716 261.327 258.751 261.235C258.836 261.193 258.914 261.168 258.985 261.161L260.099 261.086C260.39 261.072 260.609 261.033 260.758 260.97C260.8 260.842 260.821 260.747 260.821 260.683C260.821 260.556 260.729 260.226 260.545 259.696C260.418 259.342 260.305 259.005 260.206 258.687C260.114 258.368 259.738 257.321 259.08 255.544C258.79 255.495 258.535 255.47 258.316 255.47L256.044 255.491L255.375 255.48C255.134 255.48 254.869 255.498 254.578 255.533C254.486 255.746 254.426 255.898 254.398 255.99L253.463 258.91C253.067 260.021 252.869 260.633 252.869 260.747C252.869 260.81 252.901 260.917 252.964 261.065C253.113 261.108 253.311 261.147 253.559 261.182L255.003 261.309C255.081 261.373 255.12 261.43 255.12 261.479C255.12 261.515 255.109 261.568 255.088 261.639C254.769 261.646 254.525 261.649 254.355 261.649C253.789 261.649 253.131 261.632 252.38 261.596C252.034 261.582 251.786 261.575 251.637 261.575C251.489 261.575 251.23 261.582 250.862 261.596C250.621 261.61 250.448 261.617 250.342 261.617C250.172 261.617 249.953 261.607 249.684 261.586V261.522C249.684 261.472 249.698 261.405 249.726 261.32ZM254.791 254.95C255.548 254.992 256.412 255.013 257.381 255.013C257.933 255.013 258.418 254.996 258.836 254.96C258.765 254.684 258.684 254.426 258.592 254.185C258.132 252.953 257.877 252.274 257.827 252.146L256.861 249.694L256.755 249.503C256.712 249.588 256.557 249.952 256.288 250.596C255.835 251.701 255.509 252.561 255.311 253.176C255.219 253.452 255.123 253.728 255.024 254.005C254.925 254.274 254.861 254.465 254.833 254.578C254.812 254.684 254.777 254.794 254.727 254.907L254.791 254.95Z" fill="white"/>
<path d="M264.846 267.202C264.838 267.124 264.835 267.054 264.835 266.99C264.835 266.94 264.842 266.88 264.856 266.809L265.918 266.597C266.088 266.512 266.226 266.409 266.332 266.289C266.367 266.162 266.385 266.034 266.385 265.907C266.385 264.817 266.357 262.739 266.3 259.674L266.268 255.788C266.254 255.172 266.215 254.783 266.152 254.62C266.116 254.535 266.063 254.468 265.992 254.419C265.815 254.284 265.461 254.171 264.93 254.079L264.994 253.76C265.759 253.435 266.268 253.183 266.523 253.006C266.785 252.822 267.033 252.568 267.266 252.242L267.394 252.21C267.443 252.21 267.514 252.231 267.606 252.274C267.599 252.72 267.596 253.014 267.596 253.155L267.606 254.323C268.13 253.927 268.675 253.633 269.241 253.442C269.808 253.244 270.395 253.145 271.004 253.145C272.094 253.145 273.014 253.53 273.764 254.302C274.515 255.066 274.89 256.054 274.89 257.264C274.89 258.163 274.677 258.97 274.253 259.685C273.835 260.4 273.255 260.934 272.511 261.288C271.775 261.642 271.032 261.819 270.282 261.819C269.645 261.819 268.916 261.646 268.095 261.299C267.96 261.242 267.84 261.193 267.734 261.15C267.719 261.716 267.712 262.219 267.712 262.658C267.712 264.845 267.772 266.07 267.893 266.332C267.957 266.473 268.155 266.558 268.487 266.586C269.054 266.629 269.429 266.71 269.613 266.831C269.719 266.894 269.79 267.022 269.825 267.213L268.774 267.234L267.818 267.213L266.226 267.223L264.846 267.202ZM267.617 255.056C267.603 255.155 267.596 255.247 267.596 255.332C267.596 257.859 267.62 259.274 267.67 259.579C267.769 260.138 267.967 260.531 268.264 260.757C268.725 261.118 269.383 261.299 270.239 261.299C271.124 261.299 271.871 260.994 272.48 260.386C273.088 259.77 273.393 258.974 273.393 257.997C273.393 256.822 273.071 255.891 272.427 255.204C271.782 254.518 270.933 254.174 269.878 254.174C269.432 254.174 269.022 254.249 268.647 254.397C268.271 254.539 267.928 254.758 267.617 255.056Z" fill="white"/>
<path d="M275.952 267.202C275.944 267.124 275.941 267.054 275.941 266.99C275.941 266.94 275.948 266.88 275.962 266.809L277.024 266.597C277.194 266.512 277.332 266.409 277.438 266.289C277.473 266.162 277.491 266.034 277.491 265.907C277.491 264.817 277.463 262.739 277.406 259.674L277.374 255.788C277.36 255.172 277.321 254.783 277.258 254.62C277.222 254.535 277.169 254.468 277.098 254.419C276.921 254.284 276.567 254.171 276.037 254.079L276.1 253.76C276.865 253.435 277.374 253.183 277.629 253.006C277.891 252.822 278.139 252.568 278.372 252.242L278.5 252.21C278.549 252.21 278.62 252.231 278.712 252.274C278.705 252.72 278.702 253.014 278.702 253.155L278.712 254.323C279.236 253.927 279.781 253.633 280.347 253.442C280.914 253.244 281.501 253.145 282.11 253.145C283.2 253.145 284.12 253.53 284.87 254.302C285.621 255.066 285.996 256.054 285.996 257.264C285.996 258.163 285.783 258.97 285.359 259.685C284.941 260.4 284.361 260.934 283.617 261.288C282.881 261.642 282.138 261.819 281.388 261.819C280.751 261.819 280.022 261.646 279.201 261.299C279.066 261.242 278.946 261.193 278.84 261.15C278.825 261.716 278.818 262.219 278.818 262.658C278.818 264.845 278.878 266.07 278.999 266.332C279.063 266.473 279.261 266.558 279.593 266.586C280.16 266.629 280.535 266.71 280.719 266.831C280.825 266.894 280.896 267.022 280.931 267.213L279.88 267.234L278.924 267.213L277.332 267.223L275.952 267.202ZM278.723 255.056C278.709 255.155 278.702 255.247 278.702 255.332C278.702 257.859 278.726 259.274 278.776 259.579C278.875 260.138 279.073 260.531 279.37 260.757C279.831 261.118 280.489 261.299 281.345 261.299C282.23 261.299 282.977 260.994 283.586 260.386C284.194 259.77 284.499 258.974 284.499 257.997C284.499 256.822 284.177 255.891 283.533 255.204C282.888 254.518 282.039 254.174 280.984 254.174C280.538 254.174 280.128 254.249 279.753 254.397C279.378 254.539 279.034 254.758 278.723 255.056Z" fill="white"/>
<path d="M288.332 258.963C288.594 259.635 288.792 260.071 288.926 260.269C289.195 260.672 289.517 260.987 289.892 261.214C290.268 261.433 290.675 261.543 291.114 261.543C291.517 261.543 291.917 261.37 292.313 261.023C292.596 260.761 292.738 260.457 292.738 260.11C292.738 259.65 292.572 259.225 292.239 258.836C291.906 258.453 291.273 258.089 290.338 257.742C289.411 257.388 288.788 257.013 288.47 256.616C288.151 256.22 287.992 255.767 287.992 255.257C287.992 254.776 288.123 254.351 288.385 253.983C288.647 253.615 289.008 253.339 289.468 253.155C289.928 252.964 290.353 252.868 290.742 252.868C291.244 252.868 291.694 252.907 292.09 252.985C292.494 253.063 292.841 253.183 293.131 253.346C293.187 253.707 293.234 254.238 293.269 254.939L293.29 255.279C293.198 255.286 293.12 255.289 293.057 255.289H292.908C292.696 254.702 292.37 254.238 291.931 253.898C291.499 253.552 291.071 253.378 290.646 253.378C290.222 253.378 289.878 253.509 289.616 253.771C289.355 254.026 289.224 254.362 289.224 254.78C289.224 255.098 289.33 255.381 289.542 255.629C289.754 255.877 290.25 256.16 291.029 256.478C291.814 256.797 292.384 257.094 292.738 257.37C293.099 257.639 293.364 257.968 293.534 258.358C293.704 258.747 293.789 259.119 293.789 259.473C293.789 259.961 293.626 260.418 293.301 260.842C292.982 261.267 292.579 261.564 292.09 261.734C291.609 261.911 291.177 262 290.795 262C289.896 262 289.068 261.833 288.31 261.501C288.24 261.444 288.201 261.338 288.194 261.182C288.194 261.118 288.187 261.016 288.172 260.874C288.059 259.919 288.003 259.352 288.003 259.175C288.003 259.09 288.02 259.034 288.056 259.005C288.091 258.977 288.183 258.963 288.332 258.963Z" fill="white"/>
<path opacity="0.3" fill-rule="evenodd" clip-rule="evenodd" d="M305.586 275.93H238.992V274.571H305.586V275.93Z" fill="white"/>
<path d="M250.268 289.329C250.325 289.796 250.353 290.065 250.353 290.136L250.31 291.081C250.296 291.485 250.279 291.743 250.257 291.856C250.194 291.884 250.141 291.899 250.098 291.899L250.003 291.877C249.776 290.886 249.39 290.164 248.845 289.711C248.307 289.258 247.649 289.032 246.87 289.032C246.063 289.032 245.402 289.258 244.885 289.711C244.368 290.164 244.11 290.692 244.11 291.293C244.11 291.753 244.29 292.175 244.651 292.557C245.012 292.939 245.936 293.512 247.422 294.277C248.555 294.864 249.365 295.346 249.854 295.721C250.342 296.089 250.71 296.517 250.958 297.006C251.206 297.494 251.33 298.039 251.33 298.641C251.33 299.398 251.132 300.11 250.735 300.775C250.346 301.44 249.818 301.943 249.153 302.283C248.488 302.615 247.606 302.782 246.509 302.782C245.554 302.782 244.637 302.629 243.759 302.325C243.243 302.141 242.928 301.992 242.814 301.879C242.701 301.766 242.645 301.646 242.645 301.518C242.645 301.44 242.652 301.341 242.666 301.221C242.765 300.386 242.818 299.699 242.825 299.161C242.839 298.828 242.864 298.634 242.899 298.577C242.928 298.528 242.981 298.503 243.059 298.503C243.122 298.503 243.172 298.528 243.207 298.577C243.25 298.62 243.278 298.704 243.292 298.832C243.37 299.703 243.774 300.481 244.503 301.168C245.225 301.854 246.042 302.198 246.955 302.198C247.514 302.198 248.028 302.081 248.495 301.847C248.969 301.614 249.337 301.277 249.599 300.839C249.868 300.393 250.003 299.961 250.003 299.543C250.003 298.97 249.801 298.446 249.397 297.972C248.994 297.498 248.183 296.946 246.966 296.316C245.748 295.678 244.956 295.215 244.588 294.925C243.993 294.45 243.547 293.948 243.25 293.417C243.03 293.006 242.921 292.529 242.921 291.984C242.921 291 243.31 290.168 244.089 289.488C244.867 288.802 245.911 288.458 247.221 288.458C247.943 288.458 248.566 288.54 249.089 288.703C249.472 288.83 249.865 289.039 250.268 289.329Z" fill="white"/>
<path d="M260.663 296.825L256.405 296.857H255.598C255.272 296.857 254.94 296.871 254.6 296.899C254.536 297.112 254.504 297.257 254.504 297.335L254.515 297.441V297.547L254.504 298.067C254.504 298.499 254.639 299.03 254.908 299.66C255.184 300.283 255.573 300.761 256.076 301.093C256.585 301.419 257.219 301.592 257.976 301.614C258.38 301.592 258.702 301.543 258.943 301.465C259.183 301.387 259.523 301.207 259.962 300.924L260.726 300.297L260.79 300.722C260.79 300.771 260.786 300.824 260.779 300.881C260.461 301.285 260.057 301.638 259.569 301.943C259.081 302.247 258.585 302.47 258.083 302.612C257.842 302.675 257.445 302.707 256.893 302.707C256.391 302.707 255.895 302.605 255.407 302.399C254.685 302.088 254.115 301.589 253.697 300.902C253.287 300.209 253.082 299.37 253.082 298.386C253.082 298.075 253.138 297.675 253.252 297.186C253.372 296.698 253.584 296.178 253.889 295.625C254.094 295.25 254.345 294.942 254.642 294.702C255.067 294.362 255.439 294.125 255.757 293.99C256.217 293.799 256.752 293.704 257.361 293.704C258.019 293.704 258.557 293.824 258.974 294.065C259.541 294.383 259.962 294.794 260.238 295.296C260.521 295.799 260.663 296.259 260.663 296.677V296.825ZM254.738 296.443H255.237C255.598 296.443 256.674 296.386 258.465 296.273C258.748 296.259 258.921 296.231 258.985 296.188C259.112 296.054 259.176 295.933 259.176 295.827C259.176 295.608 259.105 295.36 258.964 295.084C258.822 294.801 258.603 294.585 258.306 294.436C258.015 294.28 257.676 294.203 257.286 294.203C256.465 294.203 255.807 294.511 255.311 295.126C254.929 295.594 254.738 296.032 254.738 296.443Z" fill="white"/>
<path d="M261.756 302.463L261.714 302.325C261.714 302.276 261.746 302.201 261.809 302.102L262.436 301.975L263.317 301.815C263.388 301.78 263.437 301.731 263.466 301.667C263.508 301.575 263.529 301.302 263.529 300.849C263.529 298.443 263.515 297.055 263.487 296.687C263.459 296.312 263.395 296.075 263.296 295.976C263.197 295.877 262.942 295.799 262.531 295.742C262.291 295.707 262.1 295.661 261.958 295.604L262 295.286C262.744 294.981 263.243 294.719 263.498 294.5C263.851 294.181 264.152 293.764 264.4 293.247L264.761 293.258C264.803 293.612 264.825 294.397 264.825 295.615L264.814 295.795C264.814 295.838 264.821 295.905 264.835 295.997C265.104 295.509 265.441 295.059 265.844 294.649L266.088 294.404C266.187 294.291 266.283 294.203 266.375 294.139C266.87 293.842 267.238 293.693 267.479 293.693C267.791 293.693 268.045 293.799 268.244 294.012C268.442 294.217 268.541 294.472 268.541 294.776C268.541 295.017 268.47 295.204 268.329 295.339C268.137 295.516 267.918 295.604 267.67 295.604C267.557 295.604 267.334 295.544 267.001 295.424C266.669 295.303 266.449 295.243 266.343 295.243C266.145 295.243 266.007 295.275 265.929 295.339C265.731 295.494 265.49 295.813 265.207 296.294C264.988 296.655 264.878 296.988 264.878 297.292L264.931 299.044L264.952 301.147C264.973 301.387 265.002 301.543 265.037 301.614C265.065 301.663 265.136 301.723 265.249 301.794C266.014 301.858 266.467 301.904 266.608 301.932C266.708 301.939 266.782 301.946 266.831 301.953C267.136 301.961 267.348 302.003 267.469 302.081C267.532 302.116 267.564 302.169 267.564 302.24C267.564 302.283 267.536 302.339 267.479 302.41L266.301 302.399L265.855 302.389L265.207 302.399H264.124L263.54 302.431L261.756 302.463Z" fill="white"/>
<path d="M269.316 294.001C270.102 294.008 270.788 294.033 271.376 294.075C271.793 294.075 272.098 294.068 272.289 294.054C272.423 294.047 272.508 294.043 272.544 294.043L273.733 294.054C273.896 294.082 274.027 294.1 274.126 294.107C274.168 294.121 274.207 294.16 274.243 294.224C274.243 294.295 274.221 294.369 274.179 294.447C274.059 294.482 273.935 294.503 273.807 294.511C273.276 294.567 272.83 294.649 272.469 294.755C272.42 294.79 272.395 294.826 272.395 294.861C272.395 294.932 272.43 295.041 272.501 295.19C272.515 295.225 272.547 295.31 272.597 295.445L273.659 297.993C274.133 299.161 274.572 300.145 274.975 300.945C275.251 300.421 275.506 299.88 275.74 299.32C275.973 298.761 276.317 297.88 276.77 296.677C276.897 296.337 277.017 295.916 277.131 295.413C277.152 295.314 277.162 295.229 277.162 295.158C277.162 295.073 277.113 294.981 277.014 294.882C276.922 294.776 276.762 294.691 276.536 294.627C276.486 294.62 276.164 294.567 275.57 294.468C275.52 294.44 275.474 294.401 275.432 294.351V294.266C275.432 294.231 275.435 294.185 275.442 294.128C275.612 294.107 275.736 294.096 275.814 294.096L277.067 294.107C277.152 294.107 277.354 294.096 277.672 294.075C278.798 294.075 279.473 294.086 279.7 294.107C279.742 294.121 279.781 294.164 279.817 294.234C279.817 294.298 279.796 294.369 279.753 294.447L279.424 294.532C279.339 294.539 279.272 294.546 279.222 294.553C278.613 294.61 278.238 294.695 278.097 294.808C277.991 294.886 277.824 295.25 277.598 295.901C277.492 296.22 277.336 296.623 277.131 297.112L276.578 298.45C276.501 298.641 276.416 298.85 276.324 299.076L274.678 302.877H274.359C274.296 302.707 274.218 302.53 274.126 302.346L273.319 300.637L271.418 296.188C271.036 295.325 270.806 294.857 270.728 294.787C270.65 294.716 270.197 294.567 269.369 294.341C269.327 294.227 269.305 294.146 269.305 294.096L269.316 294.001Z" fill="white"/>
<path d="M281.133 289.382C281.133 289.149 281.222 288.947 281.399 288.777C281.583 288.607 281.802 288.522 282.057 288.522C282.319 288.522 282.549 288.618 282.747 288.809C282.945 289 283.045 289.205 283.045 289.425C283.045 289.644 282.945 289.853 282.747 290.051C282.549 290.242 282.319 290.338 282.057 290.338C281.795 290.338 281.576 290.249 281.399 290.072C281.222 289.895 281.133 289.665 281.133 289.382ZM280.241 294.882L280.252 294.574C280.712 294.44 280.96 294.362 280.995 294.341C281.25 294.227 281.516 294.054 281.792 293.82C282.075 293.587 282.312 293.325 282.503 293.035C282.588 293.021 282.655 293.013 282.705 293.013L282.832 293.024C282.861 293.364 282.875 293.612 282.875 293.767C282.875 293.803 282.868 293.962 282.853 294.245V294.808L282.864 297.866L282.832 301.104C282.825 301.366 282.868 301.55 282.96 301.656C283.052 301.755 283.324 301.869 283.777 301.996C284.06 302.074 284.273 302.141 284.414 302.198C284.435 302.247 284.446 302.29 284.446 302.325C284.446 302.368 284.428 302.421 284.393 302.484C284.117 302.477 283.763 302.46 283.331 302.431C282.744 302.382 282.354 302.357 282.163 302.357C282.071 302.357 281.505 302.375 280.464 302.41C280.252 302.417 280.047 302.435 279.849 302.463C279.813 302.463 279.757 302.453 279.679 302.431C279.643 302.382 279.626 302.339 279.626 302.304C279.626 302.205 279.693 302.127 279.827 302.07C279.856 302.056 280.217 301.975 280.91 301.826C281.137 301.784 281.286 301.713 281.356 301.614C281.477 301.465 281.537 301.228 281.537 300.902C281.551 300.357 281.558 298.864 281.558 296.422C281.558 295.933 281.537 295.629 281.494 295.509C281.459 295.424 281.363 295.328 281.208 295.222C281.059 295.109 280.737 294.995 280.241 294.882Z" fill="white"/>
<path d="M293.099 300.488L293.11 301.178C292.558 301.766 292.013 302.176 291.475 302.41C290.937 302.644 290.303 302.76 289.574 302.76C288.782 302.76 288.067 302.555 287.43 302.145C286.793 301.727 286.301 301.139 285.954 300.382C285.614 299.625 285.444 298.881 285.444 298.152C285.444 297.353 285.649 296.599 286.06 295.891C286.478 295.176 287.026 294.645 287.706 294.298C288.392 293.944 289.252 293.767 290.286 293.767C291.277 293.767 292.031 293.937 292.547 294.277C292.838 294.475 292.983 294.73 292.983 295.041C292.983 295.268 292.908 295.456 292.76 295.604C292.611 295.753 292.42 295.827 292.186 295.827C291.832 295.827 291.443 295.608 291.018 295.169C290.756 294.9 290.519 294.716 290.307 294.617C290.095 294.511 289.858 294.457 289.596 294.457C288.966 294.457 288.442 294.716 288.024 295.233C287.444 295.969 287.154 296.892 287.154 298.004C287.154 299.15 287.451 300.064 288.045 300.743C288.64 301.423 289.334 301.762 290.126 301.762C290.679 301.762 291.167 301.674 291.592 301.497C292.024 301.313 292.526 300.977 293.099 300.488Z" fill="white"/>
<path d="M302.093 296.825L297.835 296.857H297.028C296.702 296.857 296.37 296.871 296.03 296.899C295.966 297.112 295.934 297.257 295.934 297.335L295.945 297.441V297.547L295.934 298.067C295.934 298.499 296.069 299.03 296.338 299.66C296.614 300.283 297.003 300.761 297.506 301.093C298.015 301.419 298.649 301.592 299.406 301.614C299.81 301.592 300.132 301.543 300.372 301.465C300.613 301.387 300.953 301.207 301.392 300.924L302.156 300.297L302.22 300.722C302.22 300.771 302.216 300.824 302.209 300.881C301.891 301.285 301.487 301.638 300.999 301.943C300.511 302.247 300.015 302.47 299.512 302.612C299.272 302.675 298.875 302.707 298.323 302.707C297.821 302.707 297.325 302.605 296.837 302.399C296.115 302.088 295.545 301.589 295.127 300.902C294.717 300.209 294.512 299.37 294.512 298.386C294.512 298.075 294.568 297.675 294.681 297.186C294.802 296.698 295.014 296.178 295.319 295.625C295.524 295.25 295.775 294.942 296.072 294.702C296.497 294.362 296.869 294.125 297.187 293.99C297.647 293.799 298.182 293.704 298.79 293.704C299.449 293.704 299.987 293.824 300.404 294.065C300.971 294.383 301.392 294.794 301.668 295.296C301.951 295.799 302.093 296.259 302.093 296.677V296.825ZM296.168 296.443H296.667C297.028 296.443 298.104 296.386 299.895 296.273C300.178 296.259 300.351 296.231 300.415 296.188C300.542 296.054 300.606 295.933 300.606 295.827C300.606 295.608 300.535 295.36 300.394 295.084C300.252 294.801 300.033 294.585 299.735 294.436C299.445 294.28 299.105 294.203 298.716 294.203C297.895 294.203 297.237 294.511 296.741 295.126C296.359 295.594 296.168 296.032 296.168 296.443Z" fill="white"/>
</svg>
