<svg width="20" height="20" viewBox="0 0 20 20" fill="none" xmlns="http://www.w3.org/2000/svg">
<path d="M19.0048 12.5035C17.4098 12.9467 15.7258 12.9583 14.1248 12.5373C12.5239 12.1162 11.0635 11.2776 9.89299 10.107C8.72245 8.93652 7.88378 7.47612 7.46272 5.87519C7.04167 4.27426 7.05333 2.59022 7.49652 0.99527L7.49678 0.995349C5.92365 1.43298 4.49264 2.27516 3.34631 3.438C2.19998 4.60084 1.37834 6.04374 0.96325 7.62297C0.548156 9.20219 0.554095 10.8626 0.980475 12.4388C1.40685 14.0151 2.23879 15.452 3.39341 16.6067C4.54803 17.7613 5.98503 18.5932 7.56125 19.0196C9.13747 19.4459 10.7979 19.4518 12.3771 19.0367C13.9563 18.6216 15.3992 17.8 16.5621 16.6536C17.7249 15.5073 18.5671 14.0763 19.0047 12.5031L19.0048 12.5035Z" stroke="white" stroke-linecap="round" stroke-linejoin="round"/>
</svg>
